<?xml version="1.0" encoding="utf-8"?>
<!-- Generator: Adobe Illustrator 25.2.0, SVG Export Plug-In . SVG Version: 6.00 Build 0)  -->
<svg version="1.1" id="Layer_1" xmlns="http://www.w3.org/2000/svg" xmlns:xlink="http://www.w3.org/1999/xlink" x="0px" y="0px"
	 viewBox="0 0 511.6 511.6" style="enable-background:new 0 0 511.6 511.6;" xml:space="preserve">
<style type="text/css">
	.st0{fill:#CCD1D9;}
	.st1{fill:#F5F7FA;}
	.st2{fill:#E6E9ED;}
	.st3{fill:#9F5B62;}
	.st4{fill:#434A54;}
	.st5{fill:#FFE3E7;}
	.st6{fill:#1A2433;}
	.st7{fill:#999999;}
	.st8{fill:#3E4247;}
	.st9{fill:#DDE0D8;}
	.st10{fill:#FFF5CC;}
	.st11{fill:#C7BFA0;}
	.st12{fill:#B39048;}
	.st13{fill:#153A4F;}
	.st14{opacity:0.1;}
	.st15{fill:#373836;}
	.st16{fill:#797D60;}
	.st17{fill:#BFC2BB;}
	.st18{fill:#D6D6D6;}
	.st19{fill:#5C5832;}
	.st20{fill:#FFFFFF;}
	.st21{fill:#F7A9B4;}
	.st22{fill:none;}
	.st23{fill:#F87A8B;}
	.st24{opacity:0.36;fill:#9F5B62;}
	.st25{opacity:0.32;fill:#9F5B62;}
	.st26{opacity:0.43;fill:#9F5B62;}
	.st27{opacity:0.36;}
	.st28{opacity:0.32;fill:#FFE3E7;}
	.st29{opacity:0.43;fill:#FFE3E7;}
	.st30{fill:#FEFEFE;}
</style>
<polygon class="st0" points="1774,508.2 1565.6,508.2 1586.9,401.7 1752.7,401.7 "/>
<path class="st1" d="M1906.7,412.3c0,5.9-4.8,10.7-10.7,10.7h-490.3c-5.9,0-10.6-4.8-10.6-10.7V71.2c0-5.8,4.8-10.6,10.6-10.6H1896
	c5.9,0,10.7,4.8,10.7,10.7V412.3z"/>
<path class="st2" d="M1405.7,423H1896c5.9,0,10.7-4.8,10.7-10.7V359h-511.6v53.3C1395.1,418.2,1399.9,423,1405.7,423z"/>
<g>
	<rect x="1437.7" y="273.7" class="st3" width="213.2" height="86.3"/>
	<rect x="1672.2" y="273.7" class="st3" width="213.2" height="86.3"/>
</g>
<path class="st4" d="M1661.5,391c0,5.9-4.8,10.6-10.6,10.6c-5.9,0-10.7-4.8-10.7-10.6c0-5.9,4.8-10.7,10.7-10.7
	C1656.8,380.3,1661.5,385.1,1661.5,391z"/>
<rect x="1437.7" y="103.2" class="st5" width="426.3" height="149.2"/>
<path class="st2" d="M1565.6,486.9c-5.9,0-10.6,4.7-10.6,10.6s4.8,10.6,10.6,10.6h197.7v-21.3L1565.6,486.9L1565.6,486.9z"/>
<path class="st4" d="M1789.4,188.5h-277.1c-5.9,0-10.7-4.8-10.7-10.7s4.8-10.6,10.7-10.6h277.1c5.9,0,10.7,4.8,10.7,10.6
	C1800.1,183.7,1795.3,188.5,1789.4,188.5z"/>
<rect x="1742.2" y="220.5" class="st5" width="147.7" height="170.6"/>
<rect x="1742.2" y="391" class="st3" width="147.7" height="88"/>
<g>
	<path class="st4" d="M1885.4,199.1h-138.6c-11.8,0-21.3,9.5-21.3,21.3v266.5c0,11.8,9.6,21.3,21.3,21.3h138.5
		c11.8,0,21.3-9.5,21.3-21.3V220.5C1906.7,208.7,1897.2,199.1,1885.4,199.1z M1885.4,486.9h-138.6V220.5h138.5L1885.4,486.9
		L1885.4,486.9z"/>
	<rect x="1741.7" y="465.6" class="st4" width="149.1" height="26.9"/>
</g>
<path class="st2" d="M1826.7,486.9c0,5.9-4.8,10.6-10.7,10.6s-10.6-4.8-10.6-10.6c0-5.9,4.8-10.7,10.6-10.7
	C1821.8,476.2,1826.7,481,1826.7,486.9z"/>
<path class="st4" d="M1853.4,316.4h-74.7c-5.9,0-10.7-4.8-10.7-10.6c0-5.9,4.8-10.6,10.7-10.6h74.7c5.9,0,10.7,4.7,10.7,10.6
	C1864,311.6,1859.3,316.4,1853.4,316.4z"/>
<image style="overflow:visible;enable-background:new    ;" width="1423" height="506" xlink:href="A32C45B.jpg"  transform="matrix(0.9992 0 0 0.9992 -69.4728 567.8734)">
</image>
<g>
	<g>
		<g>
			<g>
				<path class="st6" d="M-219.2,265.7l-3.4,8c-0.4,0.7,0.1,1.7,1,1.7l6.8,0c0.9,0,1.4-0.9,1-1.7l-3.4-8
					C-217.7,265-218.7,265-219.2,265.7z"/>
			</g>
			<g>
				<path class="st7" d="M-218.2,270.3c6.2,0,10,11.4,10,16.9l-0.2,216.7c0,5.5-4.5,10-10,10l0,0c-5.5,0-10-4.5-10-10l0.2-216.7
					C-228.2,281.6-224.2,270.3-218.2,270.3z"/>
			</g>
		</g>
		<rect x="-228.4" y="487.3" class="st8" width="20" height="5.8"/>
		<rect x="-228.4" y="297.9" class="st8" width="20" height="57.2"/>
	</g>
	<g>
		<path class="st9" d="M-270.8,242.6h-387.1c-12.3,0-22.3,10-22.3,22.3v252.4c0,12.3,10,22.3,22.3,22.3h387.1
			c12.3,0,22.3-10,22.3-22.3V264.8C-248.5,252.5-258.5,242.6-270.8,242.6z"/>
		<g>
			<g>
				<rect x="-636.1" y="272.2" class="st10" width="357.6" height="237"/>
			</g>
		</g>
		<path class="st8" d="M-650.3,378.4c0,5.8-4.7,10.5-10.5,10.5c-5.8,0-10.5-4.7-10.5-10.5c0-5.8,4.7-10.5,10.5-10.5
			C-655,368-650.3,372.7-650.3,378.4z"/>
		<rect x="-636.1" y="272.2" class="st11" width="23.9" height="237"/>
		<rect x="-534.8" y="272.4" class="st11" width="167.9" height="31"/>
		<circle class="st12" cx="-486.5" cy="416.2" r="35.7"/>
		<polygon class="st13" points="-415.5,346.2 -476.6,451.9 -354.5,451.9 		"/>
		<polygon class="st14" points="-636.1,272.2 -278.5,509.1 -278.5,272.2 		"/>
	</g>
</g>
<path class="st15" d="M-228,117.4h-419.8v-257.2c0-4,3.2-7.2,7.2-7.2h405.4c4,0,7.2,3.2,7.2,7.2V117.4z"/>
<rect x="-623.2" y="-118.7" class="st16" width="370.6" height="197.2"/>
<path class="st17" d="M-221.1,131.3h-433.5c-5.9,0-11.1-3.3-13.1-8.3l-5.4-13.7c-3.2-8.1,3.5-16.5,13.1-16.5h444.3
	c9.5,0,16.2,8.4,13.1,16.5l-5.4,13.7C-210,128-215.3,131.3-221.1,131.3z"/>
<path class="st16" d="M-432.4-131.7c0,3-2.5,5.5-5.5,5.5c-3,0-5.5-2.5-5.5-5.5c0-3,2.5-5.5,5.5-5.5
	C-434.9-137.2-432.4-134.7-432.4-131.7z"/>
<rect x="-623.2" y="-118.7" class="st18" width="370.6" height="10.7"/>
<rect x="-623.2" y="-98.3" class="st19" width="21.9" height="133.7"/>
<rect x="-317" y="-98.3" class="st19" width="64.4" height="133.7"/>
<rect x="-317" y="45.2" class="st19" width="64.4" height="33.3"/>
<path class="st20" d="M470.8,490.8h-430c-18.6,0-33.7-15.1-33.7-33.7V54.5c0-18.6,15.1-33.7,33.7-33.7h430
	c18.6,0,33.7,15.1,33.7,33.7v402.5C504.5,475.7,489.4,490.8,470.8,490.8z"/>
<polygon class="st14" points="-623.2,-118.7 -252.6,78.5 -252.6,-118.7 "/>
<path class="st20" d="M-380.7,1216.3l-35.5,0.3c-0.5,0-1-0.4-1-0.9c0-0.5,0.4-1,0.9-1l35.5-0.3c0.5,0,1,0.4,1,0.9
	C-379.8,1215.8-380.2,1216.3-380.7,1216.3z"/>
<g>
	<path class="st3" d="M-662.8,901.8l3,247.9c0,3.1-2.4,5.6-5.5,5.7l-148.9,1.8c-3.1,0-5.6-2.4-5.7-5.5l-3-247.9
		c0-3.1,2.4-5.6,5.5-5.7l148.9-1.8C-665.4,896.2-662.9,898.7-662.8,901.8z"/>
	<g>
		<path class="st4" d="M-662.3,901.7l0.2,14.7l-160.1,1.9l-0.2-15c0-3,2.3-5.4,5.3-5.4l149.1-1.8
			C-664.9,896.1-662.3,898.6-662.3,901.7z"/>
	</g>
	<path class="st20" d="M-811.4,911c-1.8,0-3.3-1.5-3.3-3.3c0-1.8,1.5-3.3,3.3-3.3c1.8,0,3.3,1.5,3.3,3.3
		C-808.1,909.5-809.6,911-811.4,911z M-811.4,905.8c-1.1,0-2,0.9-2,2c0,1.1,0.9,2,2,2c1.1,0,2-0.9,2-2
		C-809.4,906.6-810.3,905.7-811.4,905.8z"/>
	<path class="st20" d="M-800.4,910.9c-1.8,0-3.3-1.5-3.3-3.3c0-1.8,1.5-3.3,3.3-3.3c1.8,0,3.3,1.5,3.3,3.3
		C-797.1,909.4-798.6,910.9-800.4,910.9z M-800.4,905.7c-1.1,0-2,0.9-2,2c0,1.1,0.9,2,2,2c1.1,0,2-0.9,2-2
		C-798.4,906.5-799.3,905.7-800.4,905.7z"/>
	<path class="st20" d="M-789.7,910.9c-1.8,0-3.3-1.5-3.3-3.3c0-1.8,1.5-3.3,3.3-3.3c1.8,0,3.3,1.5,3.3,3.3
		C-786.4,909.4-787.9,910.8-789.7,910.9z M-789.7,905.6c-1.1,0-2,0.9-2,2c0,1.1,0.9,2,2,2c1.1,0,2-0.9,2-2
		C-787.7,906.5-788.6,905.6-789.7,905.6z"/>
	<path class="st5" d="M-734.5,941.2l-74,0.6c-0.7,0-1.3-0.6-1.3-1.3c0-0.7,0.6-1.3,1.3-1.3l74-0.6c0.7,0,1.3,0.6,1.3,1.3
		C-733.2,940.6-733.8,941.2-734.5,941.2z"/>
	<path class="st5" d="M-709.9,941l-15.4,0.1c-0.7,0-1.3-0.6-1.3-1.3c0-0.7,0.6-1.3,1.3-1.3l15.4-0.1c0.7,0,1.3,0.6,1.3,1.3
		C-708.5,940.4-709.1,941-709.9,941z"/>
	<path class="st5" d="M-734.1,1002.7l-74,0.6c-0.7,0-1.3-0.6-1.3-1.3c0-0.7,0.6-1.3,1.3-1.3l74-0.6c0.7,0,1.3,0.6,1.3,1.3
		C-732.7,1002.1-733.3,1002.7-734.1,1002.7z"/>
	<path class="st5" d="M-709.4,1002.5l-15.4,0.1c-0.7,0-1.3-0.6-1.3-1.3c0-0.7,0.6-1.3,1.3-1.3l15.4-0.1c0.7,0,1.3,0.6,1.3,1.3
		C-708.1,1001.9-708.7,1002.5-709.4,1002.5z"/>
	<path class="st5" d="M-734.3,970.6l-74,0.6c-0.7,0-1.3-0.6-1.3-1.3c0-0.7,0.6-1.3,1.3-1.3l74-0.6c0.7,0,1.3,0.6,1.3,1.3
		C-733,970-733.6,970.5-734.3,970.6z"/>
	<path class="st5" d="M-709.6,970.4l-15.4,0.1c-0.7,0-1.3-0.6-1.3-1.3c0-0.7,0.6-1.3,1.3-1.3l15.4-0.1c0.7,0,1.3,0.6,1.3,1.3
		C-708.3,969.8-708.9,970.4-709.6,970.4z"/>
	<path class="st5" d="M-684.4,970.2l-15.4,0.1c-0.7,0-1.3-0.6-1.3-1.3c0-0.7,0.6-1.3,1.3-1.3l15.4-0.1c0.7,0,1.3,0.6,1.3,1.3
		C-683,969.6-683.6,970.2-684.4,970.2z"/>
	<path class="st20" d="M-759.1,955.8l-49.3,0.4c-0.7,0-1.3-0.6-1.3-1.3c0-0.7,0.6-1.3,1.3-1.3l49.3-0.4c0.7,0,1.3,0.6,1.3,1.3
		C-757.8,955.2-758.4,955.8-759.1,955.8z"/>
	<path class="st21" d="M-728.4,955.6l-21.6,0.2c-0.7,0-1.3-0.6-1.3-1.3c0-0.7,0.6-1.3,1.3-1.3l21.6-0.2c0.7,0,1.3,0.6,1.3,1.3
		C-727.1,955-727.6,955.6-728.4,955.6z"/>
	<path class="st20" d="M-728.1,986.5l-49.3,0.4c-0.7,0-1.3-0.6-1.3-1.3c0-0.7,0.6-1.3,1.3-1.3l49.3-0.4c0.7,0,1.3,0.6,1.3,1.3
		C-726.8,985.9-727.4,986.5-728.1,986.5z"/>
	<path class="st21" d="M-786.5,987l-21.6,0.2c-0.7,0-1.3-0.6-1.3-1.3c0-0.7,0.6-1.3,1.3-1.3l21.6-0.2c0.7,0,1.3,0.6,1.3,1.3
		C-785.2,986.4-785.8,986.9-786.5,987z"/>
	<path class="st21" d="M-733.9,1023.4l-74,0.6c-0.7,0-1.3-0.6-1.3-1.3c0-0.7,0.6-1.3,1.3-1.3l74-0.6c0.7,0,1.3,0.6,1.3,1.3
		C-732.6,1022.8-733.2,1023.4-733.9,1023.4z"/>
	<path class="st20" d="M-709.2,1023.2l-15.4,0.1c-0.7,0-1.3-0.6-1.3-1.3c0-0.7,0.6-1.3,1.3-1.3l15.4-0.1c0.7,0,1.3,0.6,1.3,1.3
		C-707.9,1022.6-708.5,1023.2-709.2,1023.2z"/>
	<path class="st20" d="M-733.4,1084.8l-74,0.6c-0.7,0-1.3-0.6-1.3-1.3c0-0.7,0.6-1.3,1.3-1.3l74-0.6c0.7,0,1.3,0.6,1.3,1.3
		C-732.1,1084.2-732.7,1084.8-733.4,1084.8z"/>
	<path class="st20" d="M-708.8,1084.6l-15.4,0.1c-0.7,0-1.3-0.6-1.3-1.3c0-0.7,0.6-1.3,1.3-1.3l15.4-0.1c0.7,0,1.3,0.6,1.3,1.3
		C-707.5,1084-708,1084.6-708.8,1084.6z"/>
	<path class="st20" d="M-733.7,1052.7l-74,0.6c-0.7,0-1.3-0.6-1.3-1.3c0-0.7,0.6-1.3,1.3-1.3l74-0.6c0.7,0,1.3,0.6,1.3,1.3
		C-732.4,1052.1-733,1052.7-733.7,1052.7z"/>
	<path class="st20" d="M-709,1052.5l-15.4,0.1c-0.7,0-1.3-0.6-1.3-1.3c0-0.7,0.6-1.3,1.3-1.3l15.4-0.1c0.7,0,1.3,0.6,1.3,1.3
		C-707.7,1051.9-708.3,1052.5-709,1052.5z"/>
	<path class="st5" d="M-683.7,1052.3l-15.4,0.1c-0.7,0-1.3-0.6-1.3-1.3c0-0.7,0.6-1.3,1.3-1.3l15.4-0.1c0.7,0,1.3,0.6,1.3,1.3
		C-682.4,1051.7-683,1052.3-683.7,1052.3z"/>
	<path class="st5" d="M-758.5,1038l-49.3,0.4c-0.7,0-1.3-0.6-1.3-1.3c0-0.7,0.6-1.3,1.3-1.3l49.3-0.4c0.7,0,1.3,0.6,1.3,1.3
		C-757.1,1037.4-757.7,1038-758.5,1038z"/>
	<path class="st5" d="M-727.7,1037.8l-21.6,0.2c-0.7,0-1.3-0.6-1.3-1.3c0-0.7,0.6-1.3,1.3-1.3l21.6-0.2c0.7,0,1.3,0.6,1.3,1.3
		C-726.4,1037.2-727,1037.7-727.7,1037.8z"/>
	<path class="st5" d="M-727.5,1068.6l-49.3,0.4c-0.7,0-1.3-0.6-1.3-1.3c0-0.7,0.6-1.3,1.3-1.3l49.3-0.4c0.7,0,1.3,0.6,1.3,1.3
		C-726.2,1068-726.8,1068.6-727.5,1068.6z"/>
	<path class="st5" d="M-785.9,1069.1l-21.6,0.2c-0.7,0-1.3-0.6-1.3-1.3c0-0.7,0.6-1.3,1.3-1.3l21.6-0.2c0.7,0,1.3,0.6,1.3,1.3
		C-784.6,1068.5-785.2,1069.1-785.9,1069.1z"/>
	<path class="st5" d="M-733.3,1103.8l-74,0.6c-0.7,0-1.3-0.6-1.3-1.3c0-0.7,0.6-1.3,1.3-1.3l74-0.6c0.7,0,1.3,0.6,1.3,1.3
		C-732,1103.2-732.6,1103.8-733.3,1103.8z"/>
	<path class="st5" d="M-708.6,1103.6l-15.4,0.1c-0.7,0-1.3-0.6-1.3-1.3c0-0.7,0.6-1.3,1.3-1.3l15.4-0.1c0.7,0,1.3,0.6,1.3,1.3
		C-707.3,1103-707.9,1103.6-708.6,1103.6z"/>
	<path class="st5" d="M-708.3,1142.4l-15.4,0.1c-0.7,0-1.3-0.6-1.3-1.3c0-0.7,0.6-1.3,1.3-1.3l15.4-0.1c0.7,0,1.3,0.6,1.3,1.3
		C-707,1141.8-707.6,1142.4-708.3,1142.4z"/>
	<path class="st5" d="M-683,1142.2l-15.4,0.1c-0.7,0-1.3-0.6-1.3-1.3c0-0.7,0.6-1.3,1.3-1.3l15.4-0.1c0.7,0,1.3,0.6,1.3,1.3
		C-681.7,1141.6-682.3,1142.2-683,1142.2z"/>
	<path class="st20" d="M-757.8,1118.4l-49.3,0.4c-0.7,0-1.3-0.6-1.3-1.3c0-0.7,0.6-1.3,1.3-1.3l49.3-0.4c0.7,0,1.3,0.6,1.3,1.3
		C-756.5,1117.8-757.1,1118.4-757.8,1118.4z"/>
	<path class="st21" d="M-727.1,1118.2l-21.6,0.2c-0.7,0-1.3-0.6-1.3-1.3c0-0.7,0.6-1.3,1.3-1.3l21.6-0.2c0.7,0,1.3,0.6,1.3,1.3
		C-725.8,1117.6-726.4,1118.2-727.1,1118.2z"/>
</g>
<polygon class="st22" points="-716.2,807 -714.5,812.7 -714.5,805.1 "/>
<polygon class="st22" points="-714.3,1180.3 -714.3,1172.7 -716,1178.4 "/>
<path class="st4" d="M-714.5,772.3l0,32.8l0,7.6l0,91l0.1,178l0,91l0,7.6l0,22.1c0,10,6.3,18.5,15.2,21.8c2.5,1,5.3,1.5,8.2,1.5
	l16.6,0l183-0.1c4.9,0,9.4-1.5,13.2-4.1c6.1-4.2,10.1-11.3,10.1-19.2l-0.2-430.1c0-7.2-3.2-13.6-8.3-17.9c-4.1-3.4-9.3-5.5-15-5.5
	l-199.7,0.1C-704.1,749-714.5,759.4-714.5,772.3z"/>
<path class="st23" d="M298.2,1093l0,31.7l0,7.4l0,88l0.1,172.2l0,88l0,7.4l0,21.4c0,9.7,6.2,17.9,14.9,21.1c2.5,0.9,5.2,1.5,8.1,1.5
	l16.4,0l180.5-0.1c4.8,0,9.3-1.5,13-4c6-4.1,10-10.9,10-18.6l-0.2-416.2c0-6.9-3.2-13.1-8.2-17.3c-4-3.3-9.2-5.3-14.8-5.3
	l-196.9,0.1C308.5,1070.4,298.2,1080.5,298.2,1093z"/>
<g>
	<path class="st5" d="M-481.1,814.4l0.2,345.7c0,3.1-2.5,5.6-5.6,5.6l-209.4,0.1c-3.1,0-5.6-2.5-5.6-5.6l-0.2-345.7
		c0-3.1,2.5-5.6,5.6-5.6l209.4-0.1C-483.6,808.8-481.1,811.3-481.1,814.4z"/>
	<g>
		<path class="st5" d="M-481.1,814.3l0,22.4l-220.6,0.1l0-22.7c0-3,2.4-5.4,5.3-5.4l209.6-0.1C-483.6,808.7-481.1,811.2-481.1,814.3
			z"/>
		<g>
			<path class="st5" d="M-508.3,819.6c-0.5,0-0.8-0.4-0.8-0.8c0-0.4,0.4-0.8,0.8-0.8l16.5,0l0,0c0.4,0,0.8,0.4,0.8,0.8
				c0,0.4-0.4,0.8-0.8,0.8L-508.3,819.6L-508.3,819.6z"/>
			<path class="st5" d="M-508.3,823.8c-0.4,0-0.8-0.4-0.8-0.8c0-0.4,0.4-0.8,0.8-0.8l16.5,0l0,0c0.4,0,0.8,0.4,0.8,0.8
				c0,0.4-0.4,0.8-0.8,0.8L-508.3,823.8L-508.3,823.8z"/>
			<path class="st5" d="M-508.3,828c-0.4,0-0.8-0.4-0.8-0.8c0-0.4,0.4-0.8,0.8-0.8l16.5,0l0,0c0.5,0,0.8,0.4,0.8,0.8
				c0,0.4-0.4,0.8-0.8,0.8L-508.3,828L-508.3,828z"/>
		</g>
		<path class="st5" d="M-681.9,830.7c-0.2,0-0.4-0.1-0.6-0.2l-6-6c-0.5-0.5-0.5-1.4,0-1.9l5.8-5.8c0.3-0.3,0.8-0.3,1.2,0
			c0.3,0.3,0.3,0.8,0,1.2l-5.6,5.6l5.8,5.8c0.3,0.3,0.3,0.8,0,1.2C-681.5,830.6-681.7,830.7-681.9,830.7z"/>
	</g>
</g>
<path class="st4" d="M-591.2,788.2c-3.3,0-6-2.7-6-6c0-3.3,2.7-6,6-6c0,0,0,0,0,0c3.3,0,6,2.7,6,6
	C-585.2,785.5-587.9,788.2-591.2,788.2C-591.2,788.2-591.2,788.2-591.2,788.2z M-591.2,778.7C-591.2,778.7-591.2,778.7-591.2,778.7
	c-1.9,0-3.4,1.5-3.4,3.4c0,1.9,1.5,3.4,3.4,3.4c0,0,0,0,0,0c0.9,0,1.8-0.4,2.4-1c0.6-0.7,1-1.5,1-2.4c0-0.9-0.4-1.8-1-2.4
	C-589.4,779.1-590.2,778.7-591.2,778.7z"/>
<path class="st4" d="M-596.8,1208.7c-2.1,0-3.8-1.7-3.8-3.8l0-11.3c0-2.1,1.7-3.8,3.8-3.8l11.3,0c2.1,0,3.8,1.7,3.8,3.8l0,11.3
	c0,2.1-1.7,3.8-3.8,3.8L-596.8,1208.7z M-585.5,1191.4l-11.3,0c-1.2,0-2.2,1-2.2,2.2l0,11.3c0,1.2,1,2.2,2.2,2.2l11.3,0
	c1.2,0,2.2-1,2.2-2.2l0-11.3C-583.3,1192.3-584.3,1191.4-585.5,1191.4z"/>
<g>
	<path class="st4" d="M-665,1193.2c-0.4,0-0.8-0.4-0.8-0.8c0-0.5,0.4-0.8,0.8-0.8l10.9,0l0,0c0.4,0,0.8,0.4,0.8,0.8
		c0,0.4-0.4,0.8-0.8,0.8L-665,1193.2L-665,1193.2z"/>
	<path class="st4" d="M-665,1199.1c-0.4,0-0.8-0.4-0.8-0.8c0-0.5,0.4-0.8,0.8-0.8l10.9,0l0,0c0.4,0,0.8,0.4,0.8,0.8
		c0,0.4-0.4,0.8-0.8,0.8L-665,1199.1L-665,1199.1z"/>
	<path class="st4" d="M-665,1205.1c-0.4,0-0.8-0.4-0.8-0.8c0-0.4,0.4-0.8,0.8-0.8l10.9,0l0,0c0.4,0,0.8,0.4,0.8,0.8
		c0,0.4-0.4,0.8-0.8,0.8L-665,1205.1L-665,1205.1z"/>
</g>
<path class="st4" d="M-514.6,1208.7c-0.2,0-0.4-0.1-0.6-0.2l-8.6-8.6l8.3-8.3c0.3-0.3,0.8-0.3,1.2,0c0.3,0.3,0.3,0.8,0,1.2l-7.2,7.2
	l7.4,7.4c0.3,0.3,0.3,0.8,0,1.2C-514.2,1208.6-514.4,1208.7-514.6,1208.7z"/>
<rect x="-701.3" y="837.1" class="st24" width="220.2" height="72.1"/>
<path class="st4" d="M-601.9,869.5l-79.1,0c-1.3,0-2.3-1-2.3-2.3l0-13.3c0-1.3,1-2.3,2.3-2.3l79.1,0c1.3,0,2.3,1,2.3,2.3l0,13.3
	C-599.6,868.5-600.6,869.5-601.9,869.5z"/>
<path class="st4" d="M-558.4,888.5l-122.5,0.1c-1.3,0-2.3-1-2.3-2.3l0-4.3c0-1.3,1-2.3,2.3-2.3l122.5-0.1c1.3,0,2.3,1,2.3,2.3l0,4.3
	C-556.1,887.4-557.2,888.5-558.4,888.5z"/>
<path class="st4" d="M-508.2,887c-4.5,0-8.8-1.8-12-4.9c-3.2-3.2-5-7.4-5-12c0-4.5,1.8-8.8,4.9-12c3.2-3.2,7.4-5,12-5c0,0,0,0,0,0
	c4.5,0,8.8,1.8,12,4.9c3.2,3.2,5,7.4,5,12l0,0c0,4.5-1.8,8.8-4.9,12C-499.4,885.2-503.6,887-508.2,887
	C-508.2,887-508.2,887-508.2,887z M-508.2,856.4C-508.2,856.4-508.2,856.4-508.2,856.4c-3.7,0-7.1,1.4-9.7,4c-2.6,2.6-4,6-4,9.7
	c0,3.6,1.4,7.1,4,9.7c2.6,2.6,6,4,9.7,4c0,0,0,0,0,0c3.6,0,7.1-1.4,9.7-4c2.6-2.6,4-6,4-9.7l0,0c0-3.6-1.4-7.1-4-9.7
	C-501.1,857.9-504.5,856.4-508.2,856.4z"/>
<path class="st3" d="M-637.9,986.7l-36.4,0c-4.1,0-7.4-3.3-7.4-7.4l0-36.4c0-4.1,3.3-7.4,7.4-7.4l36.4,0c4.1,0,7.4,3.3,7.4,7.4
	l0,36.4C-630.5,983.3-633.8,986.7-637.9,986.7z"/>
<path class="st4" d="M-645.1,961.3c0,6.1-4.9,11.1-11.1,11.1c-6.1,0-11.1-4.9-11.1-11.1c0-6.1,4.9-11.1,11.1-11.1
	C-650,950.2-645.1,955.2-645.1,961.3z"/>
<path class="st3" d="M-637.8,1135.8l-36.4,0c-4.1,0-7.4-3.3-7.4-7.4l0-36.4c0-4.1,3.3-7.4,7.4-7.4l36.4,0c4.1,0,7.4,3.3,7.4,7.4
	l0,36.4C-630.4,1132.5-633.7,1135.8-637.8,1135.8z"/>
<path class="st4" d="M-645,1110.4c0,6.1-4.9,11.1-11.1,11.1c-6.1,0-11.1-4.9-11.1-11.1c0-6.1,4.9-11.1,11.1-11.1
	C-650,1099.4-645,1104.3-645,1110.4z"/>
<path class="st3" d="M-637.9,1061.1l-36.4,0c-4.1,0-7.4-3.3-7.4-7.4l0-36.4c0-4.1,3.3-7.4,7.4-7.4l36.4,0c4.1,0,7.4,3.3,7.4,7.4
	l0,36.4C-630.5,1057.7-633.8,1061.1-637.9,1061.1z"/>
<ellipse transform="matrix(0.7071 -0.7071 0.7071 0.7071 -924.507 -160.5928)" class="st4" cx="-656.1" cy="1035.7" rx="11.1" ry="11.1"/>
<path class="st20" d="M-420.8,1066.9c-1.3,0-2.4-1-2.4-2.4c0-1.3,1-2.4,2.4-2.4c1.3,0,2.4,1,2.4,2.4
	C-418.4,1065.8-419.5,1066.9-420.8,1066.9z M-420.8,1063.1c-0.8,0-1.4,0.6-1.4,1.4c0,0.8,0.6,1.4,1.4,1.4c0.8,0,1.4-0.6,1.4-1.4
	C-419.4,1063.8-420,1063.1-420.8,1063.1z"/>
<path class="st20" d="M-412.9,1066.9c-1.3,0-2.4-1-2.4-2.4c0-1.3,1-2.4,2.4-2.4c1.3,0,2.4,1,2.4,2.4
	C-410.5,1065.8-411.6,1066.9-412.9,1066.9z M-412.9,1063.1c-0.8,0-1.4,0.6-1.4,1.4c0,0.8,0.6,1.4,1.4,1.4c0.8,0,1.4-0.6,1.4-1.4
	C-411.5,1063.7-412.1,1063.1-412.9,1063.1z"/>
<path class="st20" d="M-405.1,1066.8c-1.3,0-2.4-1-2.4-2.4c0-1.3,1-2.4,2.4-2.4c1.3,0,2.4,1,2.4,2.4
	C-402.8,1065.7-403.8,1066.8-405.1,1066.8z M-405.2,1063c-0.8,0-1.4,0.6-1.4,1.4c0,0.8,0.6,1.4,1.4,1.4c0.8,0,1.4-0.6,1.4-1.4
	C-403.7,1063.6-404.4,1063-405.2,1063z"/>
<path class="st20" d="M-365.4,1088.7l-53.3,0.4c-0.5,0-1-0.4-1-0.9c0-0.5,0.4-1,0.9-1l53.3-0.4c0.5,0,1,0.4,1,0.9
	C-364.5,1088.3-364.9,1088.7-365.4,1088.7z"/>
<path class="st20" d="M-365.1,1132.9l-53.3,0.4c-0.5,0-1-0.4-1-0.9c0-0.5,0.4-1,0.9-1l53.3-0.4c0.5,0,1,0.4,1,0.9
	C-364.2,1132.5-364.6,1132.9-365.1,1132.9z"/>
<path class="st20" d="M-365.3,1109.8l-53.3,0.4c-0.5,0-1-0.4-1-0.9c0-0.5,0.4-1,0.9-1l53.3-0.4c0.5,0,1,0.4,1,0.9
	S-364.8,1109.8-365.3,1109.8z"/>
<path class="st20" d="M-383.1,1099.2l-35.5,0.3c-0.5,0-1-0.4-1-0.9c0-0.5,0.4-1,0.9-1l35.5-0.3c0.5,0,1,0.4,1,0.9
	C-382.2,1098.8-382.6,1099.2-383.1,1099.2z"/>
<path class="st20" d="M-361,1099l-15.6,0.1c-0.5,0-1-0.4-1-0.9c0-0.5,0.4-1,0.9-1l15.6-0.1c0.5,0,1,0.4,1,0.9
	C-360.1,1098.6-360.5,1099-361,1099z"/>
<path class="st20" d="M-360.8,1121.3l-35.5,0.3c-0.5,0-1-0.4-1-0.9c0-0.5,0.4-1,0.9-1l35.5-0.3c0.5,0,1,0.4,1,0.9
	C-359.9,1120.9-360.3,1121.3-360.8,1121.3z"/>
<path class="st20" d="M-402.9,1121.6l-15.6,0.1c-0.5,0-1-0.4-1-0.9c0-0.5,0.4-1,0.9-1l15.6-0.1c0.5,0,1,0.4,1,0.9
	C-401.9,1121.2-402.4,1121.6-402.9,1121.6z"/>
<path class="st20" d="M-365,1147.8l-53.3,0.4c-0.5,0-1-0.4-1-0.9c0-0.5,0.4-1,0.9-1l53.3-0.4c0.5,0,1,0.4,1,0.9
	C-364,1147.4-364.5,1147.8-365,1147.8z"/>
<path class="st20" d="M-364.7,1192.1l-53.3,0.4c-0.5,0-1-0.4-1-0.9c0-0.5,0.4-1,0.9-1l53.3-0.4c0.5,0,1,0.4,1,0.9
	C-363.7,1191.6-364.1,1192.1-364.7,1192.1z"/>
<path class="st20" d="M-364.8,1169l-53.3,0.4c-0.5,0-1-0.4-1-0.9c0-0.5,0.4-1,0.9-1l53.3-0.4c0.5,0,1,0.4,1,0.9
	S-364.3,1168.9-364.8,1169z"/>
<path class="st20" d="M-382.7,1158.4l-35.5,0.3c-0.5,0-1-0.4-1-0.9c0-0.5,0.4-1,0.9-1l35.5-0.3c0.5,0,1,0.4,1,0.9
	C-381.7,1157.9-382.1,1158.4-382.7,1158.4z"/>
<path class="st20" d="M-360.6,1158.2l-15.6,0.1c-0.5,0-1-0.4-1-0.9c0-0.5,0.4-1,0.9-1l15.6-0.1c0.5,0,1,0.4,1,0.9
	C-359.6,1157.8-360,1158.2-360.6,1158.2z"/>
<path class="st20" d="M-360.4,1180.4l-35.5,0.3c-0.5,0-1-0.4-1-0.9c0-0.5,0.4-1,0.9-1l35.5-0.3c0.5,0,1,0.4,1,0.9
	C-359.4,1180-359.9,1180.4-360.4,1180.4z"/>
<path class="st20" d="M-402.4,1180.8l-15.6,0.1c-0.5,0-1-0.4-1-0.9c0-0.5,0.4-1,0.9-1l15.6-0.1c0.5,0,1,0.4,1,0.9
	C-401.5,1180.3-401.9,1180.8-402.4,1180.8z"/>
<path class="st20" d="M-364.5,1205.8l-53.3,0.4c-0.5,0-1-0.4-1-0.9c0-0.5,0.4-1,0.9-1l53.3-0.4c0.5,0,1,0.4,1,0.9
	S-364,1205.7-364.5,1205.8z"/>
<g>
	<path class="st5" d="M-321.3,764.1l2.1,209.8c0,3.1-2.4,5.6-5.5,5.6l-125.4,1.3c-3.1,0-5.6-2.4-5.6-5.5l-2.1-209.8
		c0-3.1,2.4-5.6,5.5-5.6l125.4-1.3C-323.9,758.5-321.4,761-321.3,764.1z"/>
	<g>
		<path class="st4" d="M-320.9,764l0.1,11.7l-136.6,1.4l-0.1-12c0-3,2.3-5.4,5.3-5.4l125.6-1.3C-323.4,758.4-320.9,760.9-320.9,764z
			"/>
		<g>
			<path class="st4" d="M-337.7,765.6c-0.4,0-0.8-0.4-0.8-0.8c0-0.4,0.4-0.8,0.8-0.8l10.2-0.1c0.4-0.1,0.8,0.4,0.8,0.8
				c0,0.4-0.4,0.8-0.8,0.8L-337.7,765.6C-337.7,765.6-337.7,765.6-337.7,765.6z"/>
			<path class="st4" d="M-337.7,768.2c-0.4,0-0.8-0.4-0.8-0.8c0-0.4,0.4-0.8,0.8-0.8l10.2-0.1c0.4,0,0.8,0.4,0.8,0.8
				c0,0.4-0.4,0.8-0.8,0.8L-337.7,768.2C-337.7,768.2-337.7,768.2-337.7,768.2z"/>
			<path class="st4" d="M-337.7,770.8c-0.4,0-0.8-0.4-0.8-0.8c0-0.4,0.4-0.8,0.8-0.8l10.2-0.1c0,0,0,0,0,0c0.4,0,0.8,0.4,0.8,0.8
				c0,0.4-0.4,0.8-0.8,0.8L-337.7,770.8C-337.7,770.8-337.7,770.8-337.7,770.8z"/>
		</g>
		<path class="st4" d="M-445.1,773.5c-0.2,0-0.4-0.1-0.6-0.2l-3.8-3.7c-0.4-0.4-0.5-1.2,0-1.6l3.5-3.6c0.3-0.3,0.8-0.3,1.2,0
			c0.3,0.3,0.3,0.8,0,1.2l-3.2,3.3l3.4,3.3c0.3,0.3,0.3,0.8,0,1.2C-444.7,773.5-444.9,773.5-445.1,773.5z"/>
	</g>
	<path class="st4" d="M-325,979.9l-125.8,0.7c-3,0-5.5-2.4-5.5-5.5l-0.2-43.6l136.8-0.8l0.2,43.6C-319.5,977.4-322,979.8-325,979.9z
		"/>
	<path class="st3" d="M-361.4,806.9l-55,0.3c-1,0-1.8-0.8-1.8-1.8l0-6c0-1,0.8-1.8,1.8-1.8l55-0.3c1,0,1.8,0.8,1.8,1.8l0,6
		C-359.6,806.1-360.4,806.9-361.4,806.9z"/>
	<g>
		<path class="st25" d="M-343.9,846.2l-89.6,0.5c-4.3,0-7.7-3.4-7.7-7.7l0-1.9c0-4.3,3.4-7.7,7.7-7.7l89.6-0.5
			c4.3,0,7.7,3.4,7.7,7.7l0,1.9C-336.2,842.7-339.6,846.2-343.9,846.2z"/>
		<g>
			<path class="st26" d="M-426.8,838.1c0,2.9-2.4,5.3-5.3,5.4c-2.9,0-5.3-2.4-5.4-5.3c0-2.9,2.4-5.3,5.3-5.4
				C-429.2,832.8-426.8,835.1-426.8,838.1z"/>
			<g>
				<path class="st3" d="M-430.2,836.6c0,1.1-0.8,1.9-1.9,1.9c-1.1,0-1.9-0.8-1.9-1.9c0-1.1,0.8-1.9,1.9-1.9
					C-431.1,834.7-430.2,835.5-430.2,836.6z"/>
				<path class="st3" d="M-429.3,841.5l-5.7,0l0-0.7c0-1.7,1.3-3,3-3l0,0c1.5,0,2.7,1.2,2.7,2.7L-429.3,841.5z"/>
			</g>
		</g>
	</g>
	<g>
		<path class="st25" d="M-343.7,874.4l-89.6,0.5c-4.3,0-7.7-3.4-7.7-7.7l0-1.9c0-4.3,3.4-7.7,7.7-7.7l89.6-0.5
			c4.3,0,7.7,3.4,7.7,7.7l0,1.9C-336,870.9-339.5,874.4-343.7,874.4z"/>
		<g>
			<path class="st26" d="M-426.7,866.3c0,2.9-2.4,5.3-5.3,5.4c-2.9,0-5.3-2.4-5.4-5.3c0-2.9,2.4-5.3,5.3-5.4
				C-429.1,861-426.7,863.3-426.7,866.3z"/>
			<g>
				<path class="st3" d="M-430.2,869.6l-3.6,0c-0.3,0-0.5-0.2-0.5-0.5l0-3.2c0-0.3,0.2-0.5,0.5-0.5l3.6,0c0.3,0,0.5,0.2,0.5,0.5
					l0,3.2C-429.6,869.4-429.9,869.6-430.2,869.6z"/>
				<path class="st3" d="M-433.8,865.8l0-1.3c0-0.3,0.1-0.7,0.4-0.9c0.2-0.2,0.6-0.4,0.9-0.4l1.2,0c0,0,0,0,0,0
					c0.3,0,0.6,0.1,0.8,0.3c0.2,0.2,0.3,0.5,0.3,0.8l0,1.4l-0.4,0l0-1.4c0-0.2-0.1-0.4-0.2-0.5c-0.1-0.1-0.3-0.2-0.5-0.2
					c0,0,0,0,0,0l-1.2,0c-0.2,0-0.5,0.1-0.6,0.3c-0.2,0.2-0.3,0.4-0.3,0.6l0,1.3L-433.8,865.8z"/>
			</g>
		</g>
	</g>
	<path class="st3" d="M-367.3,905.9l-38.6,0.2c-4.7,0-8.5-3.7-8.5-8.4v0c0-4.7,3.7-8.5,8.4-8.5l38.6-0.2c4.7,0,8.5,3.7,8.5,8.4l0,0
		C-358.8,902-362.6,905.8-367.3,905.9z"/>
	<path class="st20" d="M-425.5,949.5c-0.9,0-1.6-0.7-1.6-1.6c0-0.9,0.7-1.6,1.6-1.6l74.8-0.4c0,0,0,0,0,0c0.9,0,1.6,0.7,1.6,1.6
		c0,0.9-0.7,1.6-1.6,1.6L-425.5,949.5C-425.5,949.5-425.5,949.5-425.5,949.5z"/>
	<path class="st20" d="M-410.3,960.7c-0.9,0-1.6-0.7-1.6-1.6c0-0.9,0.7-1.6,1.6-1.6l44.5-0.3c0,0,0,0,0,0c0.9,0,1.6,0.7,1.6,1.6
		c0,0.9-0.7,1.6-1.6,1.6L-410.3,960.7C-410.2,960.7-410.2,960.7-410.3,960.7z"/>
</g>
<path class="st20" d="M-358.8,1019l2.1,209.8c0,3.1-2.4,5.6-5.5,5.6l-125.4,1.3c-3.1,0-5.6-2.4-5.6-5.5l-2.1-209.8
	c0-3.1,2.4-5.6,5.5-5.6l125.4-1.3C-361.3,1013.4-358.8,1015.9-358.8,1019z"/>
<path class="st3" d="M-358.8,1019l2.1,209.8c0,3.1-2.4,5.6-5.5,5.6l-125.4,1.3c-3.1,0-5.6-2.4-5.6-5.5l-2.1-209.8
	c0-3.1,2.4-5.6,5.5-5.6l125.4-1.3C-361.3,1013.4-358.8,1015.9-358.8,1019z"/>
<g>
	<path class="st4" d="M-358.3,1018.9l0.1,11.7l-136.6,1.4l-0.1-12c0-3,2.3-5.4,5.3-5.4l125.6-1.3
		C-360.9,1013.3-358.3,1015.8-358.3,1018.9z"/>
	<g>
		<path class="st4" d="M-375.1,1020.5c-0.4,0-0.8-0.4-0.8-0.8c0-0.4,0.4-0.8,0.8-0.8l10.2-0.1c0.4,0,0.8,0.4,0.8,0.8
			c0,0.4-0.4,0.8-0.8,0.8L-375.1,1020.5C-375.1,1020.5-375.1,1020.5-375.1,1020.5z"/>
		<path class="st4" d="M-375.1,1023.1c-0.4,0-0.8-0.4-0.8-0.8c0-0.4,0.4-0.8,0.8-0.8l10.2-0.1c0,0,0,0,0,0c0.4,0,0.8,0.4,0.8,0.8
			c0,0.4-0.4,0.8-0.8,0.8L-375.1,1023.1C-375.1,1023.1-375.1,1023.1-375.1,1023.1z"/>
		<path class="st4" d="M-375.1,1025.7c-0.4,0-0.8-0.4-0.8-0.8c0-0.4,0.4-0.8,0.8-0.8l10.2-0.1c0,0,0,0,0,0c0.4,0,0.8,0.4,0.8,0.8
			c0,0.4-0.4,0.8-0.8,0.8L-375.1,1025.7C-375.1,1025.7-375.1,1025.7-375.1,1025.7z"/>
	</g>
	<path class="st4" d="M-482.6,1028.4c-0.2,0-0.4-0.1-0.6-0.2l-3.8-3.7c-0.4-0.4-0.5-1.2,0-1.6l3.5-3.6c0.3-0.3,0.8-0.3,1.2,0
		c0.3,0.3,0.3,0.8,0,1.2l-3.2,3.3l3.4,3.3c0.3,0.3,0.3,0.8,0,1.2C-482.1,1028.4-482.4,1028.4-482.6,1028.4z"/>
</g>
<g class="st27">
	<path class="st20" d="M-362.4,1234.8l-125.8,0.7c-3,0-5.5-2.4-5.5-5.5l-0.2-43.6l136.8-0.8l0.2,43.6
		C-357,1232.3-359.4,1234.7-362.4,1234.8z"/>
	<path class="st20" d="M-488.3,1236.3c-1.7,0-3.2-0.6-4.4-1.8c-1.2-1.2-1.9-2.8-1.9-4.5l-0.3-44.4l138.4-0.8l0.2,44.4
		c0,3.5-2.8,6.3-6.3,6.3L-488.3,1236.3C-488.2,1236.3-488.3,1236.3-488.3,1236.3z M-493.2,1187.2l0.2,42.8c0,1.3,0.5,2.4,1.4,3.3
		c0.9,0.9,2,1.4,3.3,1.4c0,0,0,0,0,0l125.8-0.7c2.6,0,4.7-2.1,4.7-4.7l-0.2-42.8L-493.2,1187.2z"/>
</g>
<path class="st5" d="M-372.8,1064.4l-98.6-0.1c-1.8,0-3.2-1.4-3.2-3.2l0-9.8c0-1.8,1.4-3.2,3.2-3.2l98.6,0.1c1.8,0,3.2,1.4,3.2,3.2
	l0,9.8C-369.6,1063-371,1064.4-372.8,1064.4z"/>
<path class="st5" d="M-372.3,1076.9l-99.6-0.1c-1.5,0-2.7-1.2-2.7-2.7l0,0c0-1.5,1.2-2.7,2.7-2.7l99.6,0.1c1.5,0,2.7,1.2,2.7,2.7
	l0,0C-369.6,1075.7-370.8,1076.9-372.3,1076.9z"/>
<path class="st4" d="M-462.9,1204.4c-0.9,0-1.6-0.7-1.6-1.6c0-0.9,0.7-1.6,1.6-1.6l74.8-0.4c0,0,0,0,0,0c0.9,0,1.6,0.7,1.6,1.6
	c0,0.9-0.7,1.6-1.6,1.6L-462.9,1204.4C-462.9,1204.4-462.9,1204.4-462.9,1204.4z"/>
<path class="st4" d="M-447.7,1215.6c-0.9,0-1.6-0.7-1.6-1.6c0-0.9,0.7-1.6,1.6-1.6l44.5-0.3c0,0,0,0,0,0c0.9,0,1.6,0.7,1.6,1.6
	c0,0.9-0.7,1.6-1.6,1.6L-447.7,1215.6C-447.7,1215.6-447.7,1215.6-447.7,1215.6z"/>
<g>
	<path class="st28" d="M-379.5,1108.3l-89.6,0.5c-4.3,0-7.7-3.4-7.7-7.7l0-1.9c0-4.3,3.4-7.7,7.7-7.7l89.6-0.5
		c4.3,0,7.7,3.4,7.7,7.7l0,1.9C-371.8,1104.8-375.2,1108.3-379.5,1108.3z"/>
	<g>
		<path class="st29" d="M-462.4,1100.2c0,2.9-2.4,5.3-5.3,5.4c-2.9,0-5.3-2.4-5.4-5.3c0-2.9,2.4-5.3,5.3-5.4
			C-464.8,1094.9-462.4,1097.3-462.4,1100.2z"/>
		<g>
			<path class="st5" d="M-465.8,1098.7c0,1.1-0.8,1.9-1.9,1.9c-1.1,0-1.9-0.8-1.9-1.9c0-1.1,0.8-1.9,1.9-1.9
				C-466.7,1096.8-465.9,1097.7-465.8,1098.7z"/>
			<path class="st5" d="M-464.9,1103.7l-5.7,0l0-0.7c0-1.7,1.3-3,3-3l0,0c1.5,0,2.7,1.2,2.7,2.7L-464.9,1103.7z"/>
		</g>
	</g>
</g>
<g>
	<path class="st28" d="M-379.3,1136.5l-89.6,0.5c-4.3,0-7.7-3.4-7.7-7.7l0-1.9c0-4.3,3.4-7.7,7.7-7.7l89.6-0.5
		c4.3,0,7.7,3.4,7.7,7.7l0,1.9C-371.7,1133-375.1,1136.5-379.3,1136.5z"/>
	<g>
		<path class="st29" d="M-462.3,1128.4c0,2.9-2.4,5.3-5.3,5.4c-2.9,0-5.3-2.4-5.4-5.3c0-2.9,2.4-5.3,5.3-5.4
			C-464.7,1123.1-462.3,1125.5-462.3,1128.4z"/>
		<g>
			<path class="st5" d="M-465.8,1131.8l-3.6,0c-0.3,0-0.5-0.2-0.5-0.5l0-3.2c0-0.3,0.2-0.5,0.5-0.5l3.6,0c0.3,0,0.5,0.2,0.5,0.5
				l0,3.2C-465.3,1131.5-465.5,1131.8-465.8,1131.8z"/>
			<path class="st5" d="M-469.5,1127.9l0-1.3c0-0.3,0.1-0.7,0.4-0.9s0.6-0.4,0.9-0.4l1.2,0c0,0,0,0,0,0c0.3,0,0.6,0.1,0.8,0.3
				c0.2,0.2,0.3,0.5,0.3,0.8l0,1.4l-0.4,0l0-1.4c0-0.2-0.1-0.4-0.2-0.5c-0.1-0.1-0.3-0.2-0.5-0.2c0,0,0,0,0,0l-1.2,0
				c-0.2,0-0.5,0.1-0.6,0.3c-0.2,0.2-0.3,0.4-0.3,0.6l0,1.3L-469.5,1127.9z"/>
		</g>
	</g>
</g>
<path class="st5" d="M-402.9,1168l-38.6,0.2c-4.7,0-8.5-3.7-8.5-8.4v0c0-4.7,3.7-8.5,8.4-8.5l38.6-0.2c4.7,0,8.5,3.7,8.5,8.4l0,0
	C-394.5,1164.2-398.2,1168-402.9,1168z"/>
<g>
	<path class="st5" d="M304.5,95.2c5.1,0,10.2,0,15.3,0c0.2,0.2,0.5,0.2,0.8,0.2c4.1,0.5,8.3,0.9,12.4,1.4c9.9,1,19.7,3.1,29.2,6.2
		c22.6,7.3,42.6,19,59.8,35.2c31.9,29.8,48.6,66.9,51.4,110.3c0.4,5.6,0.4,11.3-0.3,17c-0.9,6.4-1.3,12.9-2.4,19.3
		c-2.3,13.6-6.4,26.7-12.4,39.1c-14.3,29.7-35.4,53.3-63.9,70.1c-14.1,8.3-29.2,14.5-45.2,18.1c-6.9,1.6-13.9,2.7-21,3.4
		c-3.1,0.3-6.2,0.9-9.3,0.9c-47.5,0-95,0-142.5,0c-3.7,0-7.4,0.2-11.2-0.3c-3.9-0.5-7.8-0.7-11.7-1.3c-12.6-1.9-24.8-5.6-36.3-11.1
		c-21.6-10.1-39.5-24.6-53.4-44c-14.2-19.9-22.8-41.8-25.1-66.2c-0.2-1.9-0.3-3.8-0.8-5.7c0-5.1,0-10.2,0-15.3
		c0.4-0.6,0.4-1.3,0.4-1.9c0.4-5.6,1.1-11.2,2.1-16.8c2.4-12.7,6.8-24.8,12.7-36.3c15.1-29.4,38.2-50.1,68.3-63.3
		c13-5.7,26.6-8.9,40.7-10.2c10.7-1,21.3-0.6,32,0.8c1.6,0.2,2.8-0.2,4-1.3c8.5-8.6,17.8-16.2,27.9-22.7
		c16.7-10.6,34.7-18.1,54.1-22.1c6.7-1.4,13.5-2.2,20.3-2.9C301.8,95.6,303.2,95.6,304.5,95.2z M314.2,126.1c-1.5,0-2.5,0-3.5,0
		c-9.7,0.1-19.3,1-28.7,3.4c-19,4.8-36,13.3-51.2,25.7c-0.9,0.7-0.8,0.9,0.1,1.4c0.2,0.1,0.4,0.2,0.6,0.3
		c7.8,3.9,15.3,8.4,22.4,13.4c2.9,2.1,2.8,2.4,6.4,0.2c15.2-9.3,31.7-14.5,49.6-14.8c7.4-0.2,14.7,0.6,22,1.9
		c13.4,2.6,25.8,7.5,37.1,15.2c13.5,9.2,24,21.2,32.1,35.3c7.1,12.4,11.2,25.8,12.1,40.1c0.8,12.9-1,25.6-4.7,38
		c-4.8,15.9-13.2,29.6-24.9,41.3c-16.9,16.8-36.8,27-60.7,29c-10.8,0.9-21.6,0.3-32.3-2c-18.5-3.9-34.3-12.7-47.6-26
		c-18.1-18.1-36.2-36.3-54.3-54.5c-2.7-2.7-5.2-5.4-8-7.9c-4.8-4.1-11-4.9-16.6-2c-5.5,2.9-8.9,9.2-8,15.3c0.5,3.5,2.5,6.3,5,8.8
		c22.1,21.8,44.2,43.6,66.2,65.4c10.4,10.3,22.5,18.2,36.2,23.6c10.3,4.1,21.1,6.7,32.1,8c11.7,1.4,23.3,1.4,35-0.2
		c12.5-1.8,24.4-5.3,35.9-10.4c19.3-8.7,35.3-21.7,48.5-38.2c18-22.7,27-48.6,27.9-77.5c0.3-9.8-0.6-19.6-2.6-29.2
		c-3-14.5-8.1-28.1-15.8-40.8c-7.8-12.9-17.8-23.8-29.2-33.4c-15-12.6-32-21.3-51.2-25.8C333.8,127.3,323.9,126.2,314.2,126.1z
		 M218.9,385.8c0-0.1,0.1-0.2,0.1-0.4c-0.2-0.1-0.4-0.2-0.5-0.3c-9.4-8.9-18.8-17.8-28.2-26.8c-1.9-1.8-4-2.7-6.7-2.6
		c-4.9,0.2-9.9,0.1-14.8-0.1c-8.4-0.5-16.5-2.3-24.2-5.6c-15.1-6.4-26.9-16.7-35.3-30.7c-11-18.4-14.2-38.1-8.8-58.9
		c4.9-18.9,16-33.6,32.3-44.3c10.9-7.2,23-11.3,36.1-12.3c7.6-0.6,15.1,0.1,22.5,1.8c14.2,3.2,26.7,9.7,36.9,20.2
		c14,14.4,28.4,28.4,42.5,42.7c4.1,4.1,8.8,5.2,14.4,3.8c10.5-2.7,14.2-16.2,6.6-23.6c-1.7-1.6-3.2-3.3-4.9-5
		c-12.9-13.2-25.6-26.5-39.1-39.1c-8.9-8.4-18.7-15.5-29.7-20.8c-11.3-5.4-23.2-8.6-35.8-9.3c-10.2-0.6-20.2,0.4-30.2,2.6
		c-13.9,3.1-26.8,8.3-38.4,16.7C88,212.4,73.5,237.6,69.8,269c-1.4,12.2-0.5,24.3,2.5,36.3c6,23.7,18.4,43.2,37.7,58.3
		c18.2,14.2,38.9,21.6,61.9,22.1c14.9,0.4,29.9,0.1,44.8,0.1C217.5,385.8,218.2,385.8,218.9,385.8z"/>
	<path class="st30" d="M38,287.6c0.5,1.9,0.6,3.8,0.8,5.7c2.3,24.4,10.9,46.3,25.1,66.2c13.9,19.4,31.8,33.9,53.4,44
		c11.6,5.4,23.7,9.1,36.3,11.1c3.9,0.6,7.8,0.8,11.7,1.3c3.7,0.5,7.4,0.3,11.2,0.3c47.5,0,95,0,142.5,0c3.1,0,6.2-0.5,9.3-0.9
		c7-0.7,14-1.8,21-3.4c16-3.7,31-9.8,45.2-18.1c28.5-16.8,49.6-40.4,63.9-70.1c6-12.4,10-25.5,12.4-39.1c1.1-6.4,1.5-12.9,2.4-19.3
		c0.8-5.7,0.7-11.4,0.3-17c-2.8-43.4-19.5-80.5-51.4-110.3c-17.3-16.2-37.3-27.9-59.8-35.2c-9.5-3.1-19.2-5.2-29.2-6.2
		c-4.1-0.4-8.3-0.9-12.4-1.4c-0.3,0-0.5,0-0.8-0.2c50.9,0,101.8,0,152.8,0c0.8,0,1,0.1,1,1c0,106.4,0,212.9,0,319.3c0,0.8-0.2,1-1,1
		c-144.5,0-289.1,0-433.6,0c-0.9,0-1-0.2-1-1C38,372.8,38,330.2,38,287.6z"/>
	<path class="st30" d="M304.5,95.2c-1.3,0.5-2.7,0.4-4,0.6c-6.8,0.7-13.6,1.5-20.3,2.9c-19.4,4-37.4,11.4-54.1,22.1
		c-10.2,6.5-19.5,14.1-27.9,22.7c-1.1,1.2-2.4,1.5-4,1.3c-10.6-1.4-21.3-1.7-32-0.8c-14.1,1.3-27.7,4.5-40.7,10.2
		c-30.1,13.2-53.2,33.9-68.3,63.3c-5.9,11.5-10.3,23.6-12.7,36.3c-1.1,5.5-1.7,11.1-2.1,16.8c0,0.7-0.1,1.3-0.4,1.9
		c0-58.7,0-117.5,0-176.2c0-0.8,0.2-1,1-1C127.5,95.2,216,95.2,304.5,95.2z"/>
	<path class="st3" d="M314.2,126.1c9.7,0.1,19.7,1.2,29.5,3.5c19.1,4.5,36.1,13.2,51.2,25.8c11.5,9.6,21.4,20.6,29.2,33.4
		c7.7,12.7,12.8,26.3,15.8,40.8c2,9.6,2.9,19.4,2.6,29.2c-0.9,28.8-9.9,54.8-27.9,77.5c-13.1,16.6-29.1,29.5-48.5,38.2
		c-11.5,5.2-23.4,8.6-35.9,10.4c-11.6,1.7-23.3,1.6-35,0.2c-11-1.3-21.8-3.9-32.1-8c-13.6-5.4-25.7-13.3-36.2-23.6
		c-22.1-21.8-44.2-43.6-66.2-65.4c-2.5-2.5-4.4-5.2-5-8.8c-0.9-6.1,2.5-12.5,8-15.3c5.6-2.9,11.8-2.1,16.6,2c2.8,2.5,5.4,5.2,8,7.9
		c18.1,18.1,36.2,36.3,54.3,54.5c13.3,13.3,29.1,22.2,47.6,26c10.6,2.2,21.4,2.9,32.3,2c23.9-2,43.9-12.2,60.7-29
		c11.8-11.7,20.1-25.4,24.9-41.3c3.7-12.4,5.5-25,4.7-38c-0.9-14.3-4.9-27.7-12.1-40.1c-8.1-14.1-18.6-26.1-32.1-35.3
		c-11.3-7.7-23.7-12.6-37.1-15.2c-7.3-1.4-14.6-2.1-22-1.9c-17.9,0.4-34.4,5.5-49.6,14.8c-3.6,2.2-3.5,1.9-6.4-0.2
		c-7.1-5.1-14.6-9.5-22.4-13.4c-0.2-0.1-0.4-0.2-0.6-0.3c-0.9-0.5-1-0.7-0.1-1.4c15.2-12.4,32.2-20.9,51.2-25.7
		c9.4-2.4,19-3.3,28.7-3.4C311.7,126.1,312.7,126.1,314.2,126.1z"/>
	<path class="st3" d="M218.9,385.8c-0.7,0-1.4,0-2.1,0c-14.9,0-29.9,0.3-44.8-0.1c-23-0.5-43.8-8-61.9-22.1
		c-19.3-15-31.8-34.6-37.7-58.3c-3-11.9-4-24-2.5-36.3c3.6-31.4,18.2-56.6,43.9-75.2c11.6-8.3,24.5-13.6,38.4-16.7
		c10-2.2,20-3.2,30.2-2.6c12.5,0.7,24.5,3.9,35.8,9.3c11.1,5.3,20.8,12.5,29.7,20.8c13.4,12.6,26.2,26,39.1,39.1
		c1.6,1.7,3.2,3.3,4.9,5c7.5,7.4,3.9,20.8-6.6,23.6c-5.6,1.4-10.3,0.4-14.4-3.8c-14.1-14.3-28.5-28.3-42.5-42.7
		c-10.2-10.5-22.7-17-36.9-20.2c-7.4-1.7-14.9-2.4-22.5-1.8c-13.1,1-25.1,5.1-36.1,12.3c-16.3,10.7-27.3,25.4-32.3,44.3
		c-5.4,20.8-2.2,40.5,8.8,58.9c8.4,14,20.3,24.3,35.3,30.7c7.7,3.3,15.8,5.1,24.2,5.6c4.9,0.3,9.9,0.3,14.8,0.1
		c2.7-0.1,4.8,0.8,6.7,2.6c9.4,8.9,18.8,17.8,28.2,26.8c0.1,0.1,0.3,0.2,0.5,0.3C219,385.6,219,385.7,218.9,385.8z"/>
</g>
</svg>
