<?xml version="1.0" encoding="utf-8"?>
<!-- Generator: Adobe Illustrator 25.2.0, SVG Export Plug-In . SVG Version: 6.00 Build 0)  -->
<svg version="1.1" id="Layer_1" xmlns="http://www.w3.org/2000/svg" xmlns:xlink="http://www.w3.org/1999/xlink" x="0px" y="0px"
	 viewBox="0 0 511.6 511.6" style="enable-background:new 0 0 511.6 511.6;" xml:space="preserve">
<style type="text/css">
	.st0{fill:#E6E9ED;}
	.st1{fill:#CCD1D9;}
	.st2{fill:#F5F7FA;}
	.st3{fill:#B3A16C;}
	.st4{fill:#434A54;}
	.st5{fill:#FFF0CA;}
	.st6{fill:#FFFFF5;}
	.st7{fill:#263058;}
	.st8{fill:#263999;}
	.st9{fill:#354FCC;}
	.st10{fill:#6880F9;}
	.st11{fill:#9EAEFF;}
	.st12{fill:#F14596;}
	.st13{fill:#FF8283;}
	.st14{fill:#FDDF00;}
	.st15{fill:#FFFFFF;}
	.st16{opacity:0.73;fill:#434A54;enable-background:new    ;}
	.st17{opacity:0.8;fill:#434A54;enable-background:new    ;}
	.st18{fill:#25353E;}
	.st19{fill:#396E82;}
	.st20{fill:#FFDBBA;}
	.st21{fill:#FF7575;}
	.st22{fill:#DEB59A;}
	.st23{fill:none;stroke:#FFFFFF;stroke-width:0.435;stroke-miterlimit:10;}
	.st24{fill:#5596AB;}
	.st25{fill:#FF9F49;}
	.st26{fill:#E04D4D;}
	.st27{fill:none;stroke:#25353E;stroke-width:0.4115;stroke-linecap:round;stroke-miterlimit:10;}
	.st28{fill:#FFCD65;}
	.st29{fill:none;stroke:#FFFFFF;stroke-width:0.5736;stroke-miterlimit:10;}
	.st30{fill:#B23838;}
	.st31{fill:#877853;}
	.st32{fill:#FFFFFF;stroke:#FFFFFF;stroke-width:3;stroke-miterlimit:10;}
	.st33{fill:#32383F;}
	.st34{fill:#FFFFFF;stroke:#FFFFFF;stroke-width:5;stroke-linecap:round;stroke-linejoin:round;stroke-miterlimit:10;}
	.st35{fill:none;stroke:#FFFFFF;stroke-width:5;stroke-linecap:round;stroke-linejoin:round;stroke-miterlimit:10;}
	.st36{fill:none;stroke:#FFFFFF;stroke-width:3;stroke-linecap:round;stroke-linejoin:round;stroke-miterlimit:10;}
	.st37{fill:#FFFFFF;stroke:#FFFFFF;stroke-miterlimit:10;}
	.st38{fill:#FFFFFF;stroke:#FCFCFC;stroke-miterlimit:10;}
	.st39{fill:none;stroke:#FCFCFC;stroke-width:5;stroke-linecap:round;stroke-linejoin:round;stroke-miterlimit:10;}
	.st40{fill:#193B77;stroke:#193B77;stroke-width:0.8571;stroke-miterlimit:10;}
	.st41{fill:#DADADA;}
	.st42{fill:#FFFFFF;stroke:#1D1D1B;stroke-width:0.5454;stroke-miterlimit:10;}
	.st43{fill:#7993E8;}
	.st44{fill:#607FD8;}
	.st45{fill:#193B77;}
	.st46{fill:#193B77;stroke:#193B77;stroke-width:0.3872;stroke-miterlimit:10;}
	.st47{fill:#FFFFFF;stroke:#1D1D1B;stroke-width:0.2464;stroke-miterlimit:10;}
	.st48{fill:#EAEBEB;}
	.st49{fill:#2F82CA;}
	.st50{fill:#599BD5;}
	.st51{fill:#D4D4D4;}
	.st52{fill:#ED7076;}
	.st53{fill:#2DD5A4;}
</style>
<g>
	<path class="st0" d="M167.4,461.6c-5.9,0-10.6,4.7-10.6,10.6s4.8,10.6,10.6,10.6h197.7v-21.3L167.4,461.6L167.4,461.6z"/>
	<g>
		<polygon class="st1" points="378.1,473.4 171.1,473.4 192.2,367.5 356.9,367.5 		"/>
		<path class="st2" d="M509.9,378.1c0,5.9-4.8,10.6-10.6,10.6H12.2c-5.9,0-10.5-4.8-10.5-10.6V39.2c0-5.8,4.8-10.5,10.5-10.5h487.1
			c5.9,0,10.6,4.8,10.6,10.6L509.9,378.1L509.9,378.1z"/>
		<path class="st0" d="M12.2,388.8h487.1c5.9,0,10.6-4.8,10.6-10.6v-52.9H1.7v52.9C1.7,384,6.5,388.8,12.2,388.8z"/>
		<g>
			<rect x="44" y="240.4" class="st3" width="211.8" height="85.7"/>
			<rect x="277" y="240.4" class="st3" width="211.8" height="85.7"/>
		</g>
		<path class="st4" d="M266.3,357c0,5.9-4.8,10.5-10.5,10.5c-5.9,0-10.6-4.8-10.6-10.5c0-5.9,4.8-10.6,10.6-10.6
			C261.7,346.4,266.3,351,266.3,357z"/>
		<rect x="44" y="71.1" class="st5" width="423.5" height="148.2"/>
		<path class="st4" d="M393.4,155.8H118.1c-5.9,0-10.6-4.8-10.6-10.6s4.8-10.5,10.6-10.5h275.3c5.9,0,10.6,4.8,10.6,10.5
			C404,151.1,399.2,155.8,393.4,155.8z"/>
		<rect x="346.5" y="187.6" class="st5" width="146.7" height="169.5"/>
		<rect x="346.5" y="357" class="st3" width="146.7" height="87.4"/>
		<g>
			<path class="st4" d="M488.7,166.4H351.1c-11.7,0-21.2,9.4-21.2,21.2v264.7c0,11.7,9.5,21.2,21.2,21.2h137.6
				c11.7,0,21.2-9.4,21.2-21.2V187.6C509.9,175.9,500.5,166.4,488.7,166.4z M488.7,452.2H351.1V187.6h137.6V452.2L488.7,452.2z"/>
			<rect x="346" y="431" class="st4" width="148.1" height="26.7"/>
		</g>
		<path class="st4" d="M457,282.9h-74.2c-5.9,0-10.6-4.8-10.6-10.5c0-5.9,4.8-10.5,10.6-10.5H457c5.9,0,10.6,4.7,10.6,10.5
			C467.5,278,462.8,282.9,457,282.9z"/>
	</g>
</g>
<image style="overflow:visible;enable-background:new    ;" width="1423" height="506" xlink:href="5024700E.jpg"  transform="matrix(0.9992 0 0 0.9992 626.0166 554.0862)">
</image>
<polygon class="st1" points="768.7,397.8 683.6,397.8 687.6,350.3 764.7,350.3 "/>
<path class="st1" d="M766.6,372.3l-1.9-22.1h-77.1l-1.9,22.6C713.5,375.1,740.5,375.4,766.6,372.3z"/>
<path class="st4" d="M792.2,395.6c-46.3-1.5-118.3-0.5-132,0.1c-0.1,0.4-0.2,0.6-0.2,0.6c-0.3,3.2-0.3,6.6,0,9.8
	c0,0,84.3,2.9,132.6,0c0.3-3.2,0.3-6.6,0-9.8C792.4,396.4,792.4,396.1,792.2,395.6z"/>
<path class="st2" d="M557.4,344.9c-0.2-64.4-0.1-128.9,0.5-193.3c0-4.8,3.9-8.7,8.8-8.7c43.9-0.2,223.1-1.2,319.6-0.1
	c4.8,0.1,8.7,4,8.7,8.8c0.2,64.4,0.1,128.9-0.5,193.3c0,4.8-3.8,8.6-8.6,8.7c-36.8,0.9-167.1,4.1-319.9,0
	C561.2,353.6,557.4,349.7,557.4,344.9z"/>
<path class="st5" d="M567,342.8c-0.3-63-0.1-126.1,0.5-189.1c0,0,218.8-1.4,317.2,0c0.3,63,0.1,126.1-0.5,189.1
	C884.2,342.8,735.9,347.4,567,342.8z"/>
<path class="st4" d="M735.7,352.3c-6.2,0-12.3,0-18.5,0c-0.3,0-0.7,0-0.9-0.3c-0.1-0.2-0.1-0.4-0.1-0.6c0-1,0-1.9,0-2.9
	c6.2-0.2,12.5-0.4,18.7-0.1c0.2,0,0.4,0,0.5,0.1c0.2,0.2,0.2,0.4,0.3,0.7C735.9,350.2,735.6,351.3,735.7,352.3z"/>
<g>
	<g>
		<g>
			<path class="st6" d="M868.7,370.8c9.9,3,19.9,5.8,29.8,8.6c4.1,1.1,8.3-1.2,9.5-5.2c18.6-61.7,31.2-108.4,36.8-128.8
				c1.1-4.1-1.2-8.2-5.2-9.5c-9.8-2.9-19.6-5.8-29.4-8.6c-4.1-1.2-8.4,1.2-9.6,5.3c-16.8,58.6-30.5,105.6-37.2,128.5
				C862.3,365.3,864.7,369.5,868.7,370.8z"/>
			<g>
				<path class="st7" d="M935.2,280.7c3.3-11.5,6.1-22.9,9.4-34.3c-25.9-7.9-44.1-12.9-44.1-12.9c-3.3,11.5-6.6,22.9-9.9,34.3
					C890.6,267.8,917.1,275.7,935.2,280.7z"/>
				<path class="st8" d="M924.2,319.7c3.3-11.5,6.5-22.9,9.8-34.4c-25.9-7.9-44.7-12.8-44.7-12.8c-3.3,11.5-6.7,22.9-9.9,34.3
					C879.3,306.9,905.9,314.6,924.2,319.7z"/>
				<path class="st9" d="M912.7,358.7c3.3-11.5,6.8-22.8,10.1-34.3c-25.9-7.9-44.8-12.8-44.8-12.8c-3.3,11.5-6.7,22.9-10,34.3
					C868,345.9,894.6,354,912.7,358.7z"/>
			</g>
			<path class="st7" d="M869.2,359.5c-0.8,1.6-0.2,3.7,1.5,4.5c1.6,0.8,3.7,0.2,4.5-1.5c0.8-1.6,0.2-3.7-1.5-4.5
				C872.1,357.2,870,357.9,869.2,359.5z"/>
		</g>
	</g>
	<g>
		<g>
			<path class="st6" d="M871.1,371.2c10.4,0,20.7,0,31.1-0.1c4.2-0.1,7.6-3.5,7.6-7.7c0.4-64.4-0.6-112.8-1.1-133.9
				c-0.1-4.2-3.5-7.6-7.7-7.6c-10.2-0.1-20.4,0-30.6,0c-4.3,0-7.7,3.5-7.7,7.8c0.4,61,0.5,109.9,0.6,133.8
				C863.4,367.8,866.8,371.2,871.1,371.2z"/>
			<g>
				<path class="st9" d="M909.4,266c-0.1-11.9-0.6-23.7-0.7-35.6c-27.1-0.2-46,0.1-46,0.1c0.1,11.9,0.1,23.8,0.2,35.7
					C863,266.3,890.6,266.4,909.4,266z"/>
				<path class="st10" d="M909.8,306.6c-0.1-11.9-0.2-23.8-0.3-35.7c-27.1-0.2-46.5,0.4-46.5,0.4c0.1,11.9,0.1,23.8,0.2,35.7
					C863.2,306.9,890.9,306.8,909.8,306.6z"/>
				<path class="st11" d="M909.9,347.2c-0.1-11.9,0.1-23.8,0-35.7c-27.1-0.2-46.6,0.4-46.6,0.4c0.1,11.9,0,23.8,0.1,35.7
					C863.3,347.6,891.2,347.8,909.9,347.2z"/>
			</g>
		</g>
	</g>
	<g>
		<g>
			<path class="st6" d="M872.8,371.6c10-2.6,20-5.3,30-8c4.1-1.1,6.5-5.3,5.4-9.4c-16-62.4-29.3-108.9-35.1-129.3
				c-1.2-4-5.3-6.4-9.4-5.4c-9.9,2.5-19.7,5.1-29.6,7.8c-4.1,1.1-6.6,5.4-5.4,9.5c15.9,58.9,28.4,106.2,34.6,129.2
				C864.5,370.2,868.7,372.6,872.8,371.6z"/>
			<g>
				<path class="st12" d="M883.1,260.1c-3.1-11.5-6.6-22.8-9.7-34.3c-26.3,6.7-44.4,11.8-44.4,11.8c3.1,11.5,6.2,23,9.3,34.5
					C838.3,272.1,865,265.2,883.1,260.1z"/>
				<path class="st13" d="M893.8,299.2c-3.1-11.5-6.2-23-9.4-34.5c-26.3,6.7-44.9,12.2-44.9,12.2c3.1,11.5,6.1,23,9.2,34.5
					C848.8,311.4,875.5,304.3,893.8,299.2z"/>
				<path class="st14" d="M904.2,338.5c-3.1-11.5-6-23.1-9.1-34.6c-26.3,6.7-45,12.2-45,12.2c3.1,11.5,6.1,23,9.2,34.5
					C859.3,350.7,886.2,343.8,904.2,338.5z"/>
			</g>
			<path class="st7" d="M867.4,361.7c0.1,1.8,1.7,3.2,3.6,3.1c1.8-0.1,3.2-1.7,3.1-3.6c-0.1-1.8-1.7-3.2-3.6-3.1
				C868.7,358.3,867.3,359.9,867.4,361.7z"/>
		</g>
	</g>
</g>
<polygon class="st11" points="800.3,153.1 820.5,153.2 820.1,344.1 800.3,344.1 "/>
<path class="st3" d="M633.2,164.6c-0.3,62.6-0.3,149.5,0,179.6c50.2,0.6,112,1.4,182.9-0.1c0.6-29.8,1.2-116.4,1.3-178.6
	C751,165.8,698.5,165.8,633.2,164.6z"/>
<path class="st2" d="M794.6,107.5c-57.9-0.3-119.1-1.1-161-1.3c-0.2,12.1-0.4,35.3-0.5,60.3c66.1,2.1,118.1,2.4,184.2,0.9
	c0-13.4,0.1-26.3,0.1-37.1C809.8,122.8,802.2,115.1,794.6,107.5z"/>
<path class="st15" d="M794.7,130.3c7.2,0,14.8,0.1,22.8,0.1c-7.6-7.6-15.2-15.2-22.8-22.8C794.6,116.9,794.6,124.8,794.7,130.3z"/>
<g>
	<path class="st4" d="M767.4,127.7c-29.9,0.4-75.7-0.3-84.4,0.1c-0.1,0.3-0.1,0.4-0.1,0.4c-0.2,2-0.2,4.2,0,6.2c0,0,53.9,0.1,84.8,0
		c0.2-2,0.2-4.2,0-6.2C767.6,128.2,767.5,128,767.4,127.7z"/>
	<g>
		<path class="st4" d="M790.9,140.5c-29.6-0.5-122.7-0.2-131.5,0c-0.1,0.1-0.1,0.2-0.1,0.2c-0.2,1-0.2,2.1,0,3.1
			c0,0,101,0.9,131.8,0c0.2-1,0.2-2.1,0-3.1C791.1,140.8,791,140.7,790.9,140.5z"/>
		<path class="st4" d="M780.9,149.4c-29.6-0.5-102.7-0.2-111.5,0c-0.1,0.1-0.1,0.2-0.1,0.2c-0.2,1-0.2,2.1,0,3.1
			c0,0,80.9,0.9,111.8,0c0.2-1,0.2-2.1,0-3.1C781.1,149.6,781,149.5,780.9,149.4z"/>
	</g>
</g>
<g>
	<g>
		<g>
			<path class="st4" d="M598.9,237.8c-1.4-3.6-2.7-6.7-3.5-8.6c-0.3-0.8-1.5-0.8-1.8,0c-1.2,2.6-2.4,5.7-3.5,8.8
				C593,238.5,596,238.5,598.9,237.8z"/>
			<path class="st4" d="M598.9,237.8c-2.9,0.7-5.9,0.8-8.8,0.2c-3.1,8.6-5.9,17.6-5.9,17.6c11.1,4.6,20.7,0,20.7,0
				C603.8,250.6,601.2,243.6,598.9,237.8z"/>
		</g>
		<path class="st4" d="M605,368.7c0-37.4-0.1-76.5,0-113.2c-1.5,0.6-3.7,0.6-5.8-0.6c-1.8,1.7-3.6,2.3-5.7,2c-1.3-0.2-3.4-0.9-4.2-2
			c-1.5,1.2-3.3,1.4-5.1,0.6c-0.1,36.6,0,75.6,0,113C591,370.1,598.2,370.1,605,368.7z"/>
		<g>
			<path class="st4" d="M599.2,256c0,0,0.6,80-0.2,113.6"/>
			<path class="st4" d="M589.2,256c0,0,0.2,79.9,0.2,113.6"/>
		</g>
		<g>
			<path class="st4" d="M584.2,375.6c0,5,0,10,0,15c0,0.4,0.3,0.7,0.6,0.9c3.4,1.1,7,1.9,10.6,1.9c3.2,0,6.1-0.8,8.9-2.4
				c0.4-0.2,0.6-0.7,0.6-1.1c0-4.7,0-9.4,0-14.1C598.2,377.2,591,377.1,584.2,375.6z"/>
			<path class="st4" d="M605,375.7c0-2.3,0-4.7,0-7c-6.8,1.5-13.9,1.4-20.7-0.1c0,2.4,0,4.7,0,7C591,377.1,598.2,377.2,605,375.7z"
				/>
		</g>
	</g>
	<g>
		<path class="st16" d="M596.1,387.3c-1.6,0.2-3.2,0.3-4.7,0.8c-0.2,0.1-0.4,0.1-0.6,0.3c-0.5,0.4-0.3,1.2,0.1,1.6
			c0.4,0.4,1.1,0.6,1.7,0.7c2.7,0.5,5.6,0.5,8.1-0.7c0.7-0.4,1.4-0.8,1.8-1.5c0.4-0.7,0.5-1.6,0.1-2.2
			C601.5,384.4,597.7,387.1,596.1,387.3z"/>
		<path class="st17" d="M599.6,251.2c0.3,0.5,0.6,1.1,1.2,1.1c0.1,0,0.3,0,0.4-0.1c0.1-0.1,0.1-0.1,0.1-0.2c0.4-1.5-0.2-3-0.8-4.4
			c-0.4-0.9-0.8-1.8-1.1-2.7c-0.3-0.8-1.2-3.5-2.3-3.5c-0.9-0.1-0.6,1-0.5,1.6C597,245.8,598.4,248.6,599.6,251.2z"/>
		<path class="st4" d="M600.8,351.6c0,1.3,0,2.6,0.6,3.7c0.2,0.3,0.4,0.6,0.7,0.7c0.5,0.2,1.1-0.2,1.4-0.7c0.3-0.5,0.3-1.1,0.3-1.7
			c0-13.1,0-26.3,0-39.4c0-0.9,0-1.9-0.6-2.7c-2.7-3.5-2.3,4.9-2.3,5.8c0,3.8,0,7.5,0,11.3C600.9,336.4,600.9,344,600.8,351.6z"/>
	</g>
</g>
<text transform="matrix(1 0 0 1 742.0818 276.8463)" class="st4" style="font-family:'Poppins-Bold'; font-size:75.5792px;">A</text>
<text transform="matrix(1 0 0 1 1040.4365 298.6418)" class="st5" style="font-family:'Poppins-Bold'; font-size:157.7588px;">A</text>
<g>
	<path class="st2" d="M-792,1005.8l-0.8-3.6c-1.8-8.1-3.6-16.4-5.4-24.5c-24.3-110.2-32.6-138.5-48.1-143.7
		c-5.4-1.8-13.9-3.2-24.6-4.9c-17.6-2.9-44.2-7.4-54.4-14c-9.3-6-7.8-22.1-7.1-27.1c3.4-6.7,5.4-13.5,6.3-18.7
		c6.5-3.7,9.5-12.2,13.1-21.6c9.5-25.8,2.2-37.9-2.3-42.6c1.8-15.4,1.4-31.9,1.4-32.7v-0.7l-0.1-0.7c-1.5-10.6-5.6-16.6-9.9-20.2
		c0.7-8.1-1.1-15.9-5.1-22.8c-11.8-20.1-38.8-26-41.8-26.5l-1.5,3c-3-2.1-5.8-3.4-7.7-4.3l-21.7-9.8l3.2,15.7
		c-3.4,1.1-7.6,2.1-10.2,2.7c-1.9,0.5-3.7,1-5.4,1.4c-8.4,2.3-14.2,8.2-17.7,13.3c-13.7,1.4-21,9.6-24,16.2
		c-16.5,20.2-11.5,58.1-8.4,74.5c-4.7,8-2.5,19.1-1.6,23.6c2.5,12.5,7.6,28.6,17.6,33.9c0.5,0.3,1.1,0.5,1.6,0.8
		c1.6,6.7,4.1,12.5,5.8,16.2c0.1,0.4,0.4,1,0.7,1.4c0.1,1.5,0.1,3.2,0.1,4c-0.4,23.5-7.7,25.4-23.5,29.8c-2.9,0.8-6,1.6-9.1,2.7
		c-6.9,2.3-19,5.2-29.7,7.8c-15.5,3.7-25.3,6.2-30.1,8.4c-5.5,2.5-9.8,4.4-26.8,68.3c-9.5,35.6-17.5,71.7-20.5,91.8l-0.4,2.7H-792
		L-792,1005.8L-792,1005.8z"/>
	<path class="st5" d="M-804.3,1005.8c-16.6-74.5-33-155.1-45.5-159.3c-13.2-4.4-63.3-8.4-81.9-20.5c-18.6-12.1-12.4-41.4-12.4-41.4
		c6.7-12.1,7-25,7-25c5.4-0.3,5.9,2.9,12.5-15.5c6.7-18.3,3.2-27.2,0.1-30c-3-2.7-4.8,0.7-4.8,0.7c3.7-15.8,3-41.4,3-41.4
		c-2.5-16.4-11.8-14.6-11.8-14.6c11.5-35.5-35.3-44.8-35.3-44.8c2.7,2.3,0.4,8.7,0.4,8.7c-1-5.6-12.4-10.7-12.4-10.7
		c1,4.7-16.5,8.1-25.8,10.7c-9.3,2.6-13.9,13.7-13.9,13.7c-17.2-1.6-20.5,10.4-20.5,10.4c-18.6,19.8-5.6,72.4-5.6,72.4
		c-4.7,1.4-5.1,6.5-3,16.9c2.6,12.9,7,23.1,11.3,25.4c3.2,1.6,6.6-1.5,6.6-1.5c-0.1,13.1,7.3,25.4,7.8,28.3c0.3,2.5,0.3,6.6,0.3,6.6
		c-0.7,38.3-21.2,37.7-41.1,44.2c-15.4,5.1-50.8,12.2-58.5,15.7c-6,2.7-33.8,107.9-40.1,150.9L-804.3,1005.8L-804.3,1005.8z"/>
</g>
<g>
	<g>
		<path class="st18" d="M824-430.3c-62.7,1-126.5,1-191.4,0c-8.1,0-15.5,6.6-16.4,14.7c-9.9,95.5-20.2,183.9-31.2,260.9
			c-1,8.1,4.8,14.7,12.9,14.7c62.6-1.2,126.4-1.2,191.4,0c8.1,0,15.5-6.6,16.4-14.7c8-86.2,18.5-173.2,31.2-260.9
			C837.9-423.7,832.2-430.3,824-430.3z"/>
		<path class="st19" d="M817.9-430.3c-62.7,1-126.5,1-191.4,0c-8.1,0-15.5,6.6-16.4,14.7c-9.9,95.5-20.2,183.9-31.2,260.9
			c-1,8.1,4.8,14.7,12.9,14.7c62.6-1.2,126.4-1.2,191.4,0c8.1,0,15.5-6.6,16.4-14.7c8-86.2,18.5-173.2,31.2-260.9
			C831.8-423.7,826-430.3,817.9-430.3z"/>
		<path class="st15" d="M793.2-160.7c-0.5,4.1-4.3,7.5-8.4,7.5c-32-0.6-64.4-0.9-96.1-0.9c-31.8,0-63.8,0.3-95.4,0.9
			c-4.1,0-7.1-3.4-6.6-7.5c9.9-69.3,19.1-145.3,29.3-243c0.4-4,0.8-8,1.2-12c0.5-4.1,4.3-7.5,8.4-7.5c32.3,0.5,64.8,0.8,96.5,0.8
			c31.8,0,63.7-0.3,94.9-0.8c4.1,0,7.1,3.4,6.6,7.5c-0.6,4-1.2,8-1.7,12C810-319.5,800.7-241.3,793.2-160.7z"/>
		<path class="st20" d="M823.7-415.7c-0.6,4-1.2,8-1.7,12H616c0.4-4,0.8-8,1.2-12c0.5-4.1,4.3-7.5,8.4-7.5
			c32.3,0.5,64.8,0.8,96.5,0.8c31.8,0,63.7-0.3,94.9-0.8C821.2-423.2,824.2-419.8,823.7-415.7z"/>
	</g>
	<path class="st21" d="M800.9-413.4c0.2-1.9,2-3.5,3.9-3.5s3.3,1.5,3,3.5c-0.2,1.9-2,3.5-3.9,3.5S800.7-411.5,800.9-413.4z"/>
	<path class="st21" d="M784.2-413.4c0.2-1.9,2-3.5,3.9-3.5s3.3,1.5,3,3.5c-0.2,1.9-2,3.5-3.9,3.5C785.4-410,784-411.5,784.2-413.4z"
		/>
	<path class="st21" d="M767.6-413.4c0.2-1.9,2-3.5,3.9-3.5s3.3,1.5,3,3.5c-0.2,1.9-2,3.5-3.9,3.5S767.3-411.5,767.6-413.4z"/>
	<path class="st22" d="M667-411.9h-37.9c-0.9,0-1.5-0.7-1.4-1.5l0,0c0.1-0.9,0.9-1.5,1.7-1.5h37.9c0.9,0,1.5,0.7,1.4,1.5l0,0
		C668.6-412.6,667.9-411.9,667-411.9z"/>
	<g>
		<path class="st22" d="M789.5-223.3h-8.9c-1.7,0-2.9-1.4-2.7-3.1l12.6-105.5c0.2-1.7,1.7-3.1,3.4-3.1h8.9c1.7,0,2.9,1.4,2.7,3.1
			l-12.6,105.5C792.7-224.7,791.2-223.3,789.5-223.3z"/>
		<path class="st20" d="M789.7-240h-5.3c-0.7,0-1.2-0.6-1.1-1.3l8.8-73.9c0.1-0.7,0.7-1.3,1.4-1.3h5.3c0.7,0,1.2,0.6,1.1,1.3
			l-8.8,73.9C791-240.6,790.4-240,789.7-240z"/>
		<path class="st18" d="M799.6-321.2H794c-0.6,0-1-0.5-1-1.1l0.4-3.5c0.1-0.6,0.6-1.1,1.2-1.1h5.6c0.6,0,1,0.5,1,1.1l-0.4,3.5
			C800.7-321.7,800.2-321.2,799.6-321.2z"/>
		<path class="st18" d="M788.6-229.6H783c-0.6,0-1-0.5-1-1.1l0.4-3.5c0.1-0.6,0.6-1.1,1.2-1.1h5.6c0.6,0,1,0.5,1,1.1l-0.4,3.5
			C789.8-230.1,789.2-229.6,788.6-229.6z"/>
	</g>
</g>
<g>
	<path class="st18" d="M1260.1-250.6c-30-0.6-60-0.5-90.1,0c-5.3,0-9.7-4.3-9.7-9.7c0.9-37.7,0.8-79.7,0-124.4
		c0-5.3,4.3-9.7,9.7-9.7c23.4,0.6,55.4,0.4,90.1,0c5.3,0,9.7,4.3,9.7,9.7c-0.7,43.1-0.9,84.8,0,124.4
		C1269.8-255,1265.5-250.6,1260.1-250.6z"/>
	<g>
		<path class="st20" d="M1215.1-332.1c-13,0-23.6-10.6-23.6-23.6h8.8c0,8.2,6.6,14.8,14.8,14.8c8.2,0,14.8-6.6,14.8-14.8h8.8
			C1238.7-342.6,1228.1-332.1,1215.1-332.1z"/>
		<g>
			<rect x="1179.4" y="-374" class="st23" width="71.5" height="54.7"/>
			<rect x="1247.3" y="-322.9" class="st15" width="7.1" height="7.1"/>
			<rect x="1247.3" y="-377.6" class="st15" width="7.1" height="7.1"/>
			<rect x="1175.7" y="-322.8" class="st15" width="7.1" height="7.1"/>
			<rect x="1247.3" y="-350.8" class="st15" width="7.1" height="7.1"/>
			<rect x="1175.7" y="-350.7" class="st15" width="7.1" height="7.1"/>
			<rect x="1175.8" y="-377.5" class="st15" width="7.1" height="7.1"/>
			<rect x="1211.5" y="-322.9" class="st15" width="7.1" height="7.1"/>
			<rect x="1211.5" y="-377.6" class="st15" width="7.1" height="7.1"/>
		</g>
	</g>
	<g>
		<g>
			<path class="st24" d="M1237.2-298.1H1193c-2.1,0-2.1,3.3,0,3.3h44.2C1239.3-294.8,1239.3-298.1,1237.2-298.1z"/>
			<path class="st24" d="M1249.1-285.4h-68c-2.1,0-2.1,3.3,0,3.3h68C1251.2-282.1,1251.2-285.4,1249.1-285.4z"/>
			<path class="st24" d="M1249.1-272.8h-68c-2.1,0-2.1,3.3,0,3.3h68C1251.2-269.4,1251.2-272.8,1249.1-272.8z"/>
		</g>
	</g>
</g>
<g>
	<g>
		<path class="st25" d="M1198.4-89.6c-26.8-0.5-55.4-0.4-85.2,0c-5.1,0-9.2-4.1-9.2-9.2c0.6-22.4,0.4-52.5,0-85.2
			c0-5.1,4.1-9.2,9.2-9.2c28.1,0.4,56.5,0.5,85.2,0c5.1,0,9.2,4.1,9.2,9.2c-0.7,24.9-0.5,54.1,0,85.2
			C1207.5-93.7,1203.4-89.6,1198.4-89.6z"/>
		<g>
			<path class="st20" d="M1162.1-156.2h-41.6c-3.2,0-5.7,2.6-5.7,5.7v41.6c0,3.2,2.6,5.7,5.7,5.7h41.6c3.2,0,5.7-2.6,5.7-5.7v-41.6
				C1167.8-153.6,1165.2-156.2,1162.1-156.2z"/>
			<path class="st26" d="M1195.8-134.7l-23.8-41.2c-2.8-4.8-9.7-4.8-12.5,0l-23.8,41.2c-2.8,4.8,0.7,10.8,6.3,10.8h47.6
				C1195.1-123.8,1198.6-129.8,1195.8-134.7z"/>
			<ellipse class="st24" cx="1138.3" cy="-158.4" rx="19.5" ry="19.5"/>
		</g>
		<g>
			<line class="st27" x1="1181.3" y1="-114.4" x2="1196.8" y2="-114.4"/>
			<line class="st27" x1="1175.7" y1="-110.1" x2="1196.8" y2="-110.1"/>
			<line class="st27" x1="1175.7" y1="-105.8" x2="1196.8" y2="-105.8"/>
		</g>
	</g>
</g>
<g>
	<path class="st26" d="M1471.7-384.9c0-7.1-5.7-12.8-12.8-12.8c-30.1,0.5-59.9,0.6-89.4,0.3c-2.3,2.5-4.5,5-6.8,7.4
		c-4.2,4.5-8.5,9-12.9,13.4s-9,8.6-13.4,12.9c-3,3-5.9,6.2-8.7,9.4c0.3,33.5,0.3,63.9-0.4,88c0,7.1,5.7,12.8,12.8,12.8
		c41.5-0.6,81.4-0.7,118.8,0c7.1,0,12.8-5.7,12.8-12.8C1471-309.5,1470.8-350.1,1471.7-384.9z"/>
	<g>
		<path class="st28" d="M1365.5-351.2v16.7c8.2-0.3,16.2-0.4,24.1-0.5v41.4h19.8V-335c7.8,0.1,15.9,0.2,24.2,0.5v-16.7H1365.5
			L1365.5-351.2z"/>
		<rect x="1359.7" y="-370" class="st29" width="79.8" height="95.3"/>
		<rect x="1434.2" y="-375.3" class="st15" width="10.5" height="10.5"/>
		<rect x="1354.4" y="-375.3" class="st15" width="10.5" height="10.5"/>
		<rect x="1434.2" y="-280" class="st15" width="10.5" height="10.5"/>
		<rect x="1354.4" y="-280" class="st15" width="10.5" height="10.5"/>
	</g>
	<path class="st20" d="M1369.5-397.3l1.3,25.4c0.5,10.1-7.6,18.4-17.7,18.3l-25.4-0.5C1338-366.8,1353.1-381.7,1369.5-397.3z"/>
</g>
<g>
	<path class="st30" d="M1520.8-101c-29.1-0.5-60.2-0.5-92.5,0c-5.5,0-9.9-4.5-9.9-9.9c0.7-24.3,0.5-57,0-92.5c0-5.5,4.5-9.9,9.9-9.9
		c30.5,0.5,61.3,0.5,92.5,0c5.5,0,9.9,4.5,9.9,9.9c-0.7,27-0.6,58.7,0,92.5C1530.7-105.4,1526.3-101,1520.8-101z"/>
	<path class="st15" d="M1507.1-165.3c0-10.4,1-20.7,1.5-25.5c0.2-1.4-1-2.7-2.4-2.7c-28.7,0.1-54-0.6-62.2-0.9
		c-1.5-0.1-2.6,1.2-2.5,2.7c1,9.9,2.1,24.8,2.1,24.8L1507.1-165.3z"/>
	<path class="st28" d="M1435.8-176.1l2.1,46.1c0.1,2.1,1.8,3.7,3.9,3.7c27.3-0.7,56.5-0.2,66.8,0c2.1,0,3.9-1.7,3.9-3.8l0.7-38.7
		c0-2.1-1.6-3.9-3.7-3.9l-40.9-1.4l-3.9-6.3c-0.6-0.9-1.6-1.5-2.7-1.4l-22.6,1.6C1437.3-180,1435.7-178.2,1435.8-176.1z"/>
	<path class="st24" d="M1448.4-176.1c0,5.6-4.6,10.2-10.2,10.2s-10.2-4.6-10.2-10.2s4.6-10.2,10.2-10.2S1448.4-181.7,1448.4-176.1z"
		/>
</g>
<g>
	
		<ellipse transform="matrix(0.7071 -0.7071 0.7071 0.7071 -658.8179 -448.9846)" class="st3" cx="-871.4" cy="570.8" rx="64" ry="64"/>
	<path class="st31" d="M-871.4,623.1c-33.4,0-60.8-25.6-63.7-58.2c-0.2,1.9-0.3,3.9-0.3,5.8c0,35.4,28.7,64,64,64
		c35.4,0,64-28.7,64-64c0-2-0.1-3.9-0.3-5.8C-810.6,597.6-838,623.1-871.4,623.1z"/>
	<g>
		<g>
			<g>
				<line class="st32" x1="-899.1" y1="555" x2="-881.4" y2="574.9"/>
				<line class="st32" x1="-881.4" y1="555" x2="-899.1" y2="574.9"/>
			</g>
			<g>
				<line class="st32" x1="-853.6" y1="555" x2="-835.9" y2="574.9"/>
				<line class="st32" x1="-835.9" y1="555" x2="-853.6" y2="574.9"/>
			</g>
		</g>
		<ellipse class="st32" cx="-868" cy="594.5" rx="8.1" ry="12.6"/>
	</g>
</g>
<g>
	
		<ellipse transform="matrix(0.1574 -0.9875 0.9875 0.1574 -1492.8579 -604.3715)" class="st4" cx="-1100.6" cy="572.6" rx="67.4" ry="67.4"/>
	<path class="st33" d="M-1100.6,627.8c-35.2,0-64-26.9-67.1-61.3c-0.2,2-0.3,4.1-0.3,6.1c0,37.2,30.2,67.4,67.4,67.4
		s67.4-30.2,67.4-67.4c0-2.1-0.1-4.1-0.3-6.1C-1036.6,600.9-1065.4,627.8-1100.6,627.8z"/>
	<g>
		<path class="st15" d="M-1118.4,566.6c0,5.9-2.6,10.8-5.7,10.8c-3.2,0-5.7-4.8-5.7-10.8c0-5.9,2.6-10.8,5.7-10.8
			C-1121,555.8-1118.4,560.7-1118.4,566.6z"/>
		<path class="st15" d="M-1071.3,566.6c0,5.9-2.6,10.8-5.7,10.8s-5.7-4.8-5.7-10.8c0-5.9,2.6-10.8,5.7-10.8
			S-1071.3,560.7-1071.3,566.6z"/>
	</g>
	<line class="st34" x1="-1124.1" y1="600.6" x2="-1077.1" y2="600.6"/>
</g>
<ellipse transform="matrix(0.7071 -0.7071 0.7071 0.7071 -763.6183 -350.684)" class="st4" cx="-805.1" cy="746.4" rx="67.6" ry="67.6"/>
<path class="st33" d="M-805.1,801.7c-35.3,0-64.2-27-67.3-61.4c-0.2,2-0.3,4.1-0.3,6.1c0,37.3,30.3,67.6,67.6,67.6
	c37.3,0,67.6-30.3,67.6-67.6c0-2.1-0.1-4.1-0.3-6.1C-740.9,774.7-769.9,801.7-805.1,801.7z"/>
<path class="st35" d="M-825.9,787.1c0,0,19.6-36.6,39.2-1"/>
<g>
	<path class="st36" d="M-837.4,725.1c0,0,18.3-4.7,22.5,11.9"/>
	<path class="st36" d="M-773.4,724.4c0,0-18.3-4.6-22.5,12"/>
</g>
<g>
	<path class="st37" d="M-824.2,743.6c0,6-2.6,10.8-5.7,10.8c-3.2,0-5.7-4.8-5.7-10.8c0-6,2.6-10.8,5.7-10.8
		C-826.7,732.8-824.2,737.7-824.2,743.6z"/>
	<path class="st37" d="M-777,743.6c0,6-2.6,10.8-5.7,10.8c-3.2,0-5.7-4.8-5.7-10.8c0-6,2.6-10.8,5.7-10.8
		C-779.6,732.8-777,737.7-777,743.6z"/>
</g>
<ellipse transform="matrix(0.7071 -0.7071 0.7071 0.7071 -876.2823 -597.5449)" class="st3" cx="-1159.4" cy="759" rx="66.5" ry="66.5"/>
<path class="st31" d="M-1159.4,813.4c-34.7,0-63.1-26.6-66.2-60.4c-0.2,2-0.3,4-0.3,6c0,36.7,29.8,66.5,66.5,66.5
	c36.7,0,66.5-29.8,66.5-66.5c0-2-0.1-4.1-0.3-6C-1096.3,786.8-1124.8,813.4-1159.4,813.4z"/>
<g>
	<path class="st38" d="M-1177.3,756.3c0,5.9-2.5,10.6-5.6,10.6s-5.6-4.8-5.6-10.6c0-5.9,2.5-10.6,5.6-10.6
		S-1177.3,750.4-1177.3,756.3z"/>
	<path class="st38" d="M-1130.9,756.3c0,5.9-2.5,10.6-5.6,10.6c-3.1,0-5.6-4.8-5.6-10.6c0-5.9,2.5-10.6,5.6-10.6
		C-1133.4,745.6-1130.9,750.4-1130.9,756.3z"/>
</g>
<path class="st39" d="M-1121.2,783.6c0,0-36.1,34.1-72.2,0"/>
<polygon class="st1" points="29.5,1141.4 10.3,1071.2 -23.6,1071.2 -57.5,1071.2 -76.7,1141.4 -122.2,1156.6 -122.2,1164.6 
	-23.6,1164.6 75,1164.6 75,1156.6 "/>
<path class="st2" d="M196.3,1096.9h-439.8c-6,0-10.8-4.8-10.8-10.8V768.4c0-6,4.8-10.8,10.8-10.8h439.8c6,0,10.8,4.8,10.8,10.8
	v317.7C207.1,1092.1,202.2,1096.9,196.3,1096.9z"/>
<rect x="-152" y="702.7" transform="matrix(-1.836970e-16 1 -1 -1.836970e-16 885.2889 932.5244)" class="st5" width="256.7" height="412.4"/>
<path class="st4" d="M-13.5,1064.7c0,5.6-4.5,10.1-10.1,10.1s-10.1-4.5-10.1-10.1c0-5.6,4.5-10.1,10.1-10.1
	S-13.5,1059.1-13.5,1064.7z"/>
<polygon class="st3" points="-229.8,1037.3 -229.8,780.6 182.6,780.6 "/>
<g>
	<g>
		<path class="st4" d="M474.7,913.9l-28.5-9.3v-83.6h26l22.4-35.4v-21.5c0-5.3,3.5-9.9,8.5-11.3c1.9-0.5,3.9-0.8,5.8-0.8
			c5.9,0,16.6,2.6,22.7,20.2c4.9,14.3,2.8,28.7,0.2,38.2h35.2c5.7,0,16.4,0,23.3,9.9c6.3,9,4.5,18.8,1.4,25.4
			c2.4,4.9,2.3,9.3,1.7,12.4c-1,5.3-4.1,9.3-6.9,12.1c1.5,6.4,0.3,11.3-1.2,14.5c-2.1,4.5-5.6,7.4-8.7,9.2c-0.4,4.3-2,8.2-4.8,11.5
			c-4.7,5.6-12.7,9.1-20.8,9.1h-72.1C477.6,914.6,476.1,914.4,474.7,913.9z"/>
		<path class="st4" d="M502.5,766v21.1c0,0.4-0.1,0.9-0.4,1.2l-24.9,39.3c-0.4,0.7-1.2,1.1-1.9,1.1h-18.9c-1.3,0-2.3,1-2.3,2.3v66.1
			c0,1,0.6,1.9,1.6,2.2l19.9,6.5c1.6,0.5,3.4,0.8,5.1,0.8h70.5c8.5,0,18.6-5.4,17.8-16.1c-0.1-1,0.5-1.9,1.4-2.3
			c3.8-1.5,12.6-6.6,7.7-19.1c-0.4-1-0.1-2,0.8-2.7c3.4-2.5,11.2-9.8,4.6-19.5c-0.5-0.7-0.5-1.7,0-2.4c1.9-3.2,6.1-11.8,0.5-19.7
			c-4.5-6.5-11.4-6.6-16.9-6.6h-42.9c-1.6,0-2.7-1.6-2.2-3.1c2.6-6.9,7.8-24,2.2-40.4c-4.4-12.8-11.1-15.1-15.8-14.9
			C505.1,760,502.5,762.7,502.5,766z"/>
		<g>
			<path class="st4" d="M514,774.7c5.7,16.5,0.5,33.6-2.2,40.4c-0.6,1.5,0.5,3.1,2.2,3.1h10.2c-1.6,0-2.7-1.6-2.2-3.1
				c2.6-6.9,7.8-24,2.2-40.4c-4.4-12.8-11.1-15.1-15.8-14.9c-1.4,0.1-2.7,0.7-3.7,1.6C507.9,763.3,511.4,767.2,514,774.7z"/>
			<path class="st4" d="M583.5,844.6c1.9-3.2,6.1-11.8,0.5-19.7c-4.5-6.5-11.4-6.6-16.9-6.6h-10.2c5.5,0,12.4,0.1,16.9,6.6
				c5.6,8,1.4,16.6-0.5,19.7c-0.5,0.8-0.5,1.7,0,2.4c6.5,9.7-1.2,17-4.6,19.5c-0.8,0.6-1.1,1.7-0.8,2.7c4.8,12.5-3.9,17.6-7.7,19.1
				c-0.9,0.4-1.5,1.3-1.4,2.3c0.8,10.7-9.3,16.1-17.8,16.1h10.2c8.5,0,18.6-5.4,17.8-16.1c-0.1-1,0.5-1.9,1.4-2.3
				c3.8-1.5,12.6-6.6,7.7-19.1c-0.4-1-0.1-2,0.8-2.7c3.4-2.5,11.2-9.8,4.6-19.5C583,846.3,583,845.3,583.5,844.6z"/>
		</g>
		<g>
			<path class="st4" d="M453.5,921.7"/>
			<path class="st4" d="M389.4,917.2v-104c0-2.6,2.1-4.7,4.7-4.7h61c2.6,0,4.7,2.1,4.7,4.7v104c0,2.6-2.1,4.7-4.7,4.7h-61
				C391.5,921.9,389.4,919.8,389.4,917.2z"/>
			<path class="st4" d="M450.8,914.1h-52.4c-0.6,0-1.1-0.5-1.1-1.1v-95.4c0-0.6,0.5-1.1,1.1-1.1h52.4c0.6,0,1.1,0.5,1.1,1.1V913
				C451.9,913.6,451.4,914.1,450.8,914.1z"/>
			<path class="st4" d="M450.1,816.4H437v50.1c0,21.9-17.8,39.7-39.7,39.7l0,0v6c0,1,0.8,1.9,1.9,1.9h50.9c1,0,1.9-0.8,1.9-1.9
				v-93.9C451.9,817.3,451.1,816.4,450.1,816.4z"/>
		</g>
		<path class="st4" d="M432,895.4c0,4.1-3.3,7.4-7.4,7.4c-4.1,0-7.4-3.3-7.4-7.4c0-4.1,3.3-7.4,7.4-7.4
			C428.7,888,432,891.3,432,895.4z"/>
	</g>
</g>
<path class="st4" d="M152.1,1164.6h158.7c3.3,0,6-2.7,6-6V932.9c0-3.3-2.7-6-6-6H152.1c-3.3,0-6,2.7-6,6v225.7
	C146.1,1161.9,148.8,1164.6,152.1,1164.6z"/>
<rect x="160.1" y="947" class="st5" width="142.6" height="181.1"/>
<circle class="st4" cx="231.4" cy="1147" r="6.4"/>
<polygon class="st3" points="160.1,947 160.1,1128.1 302.7,947 "/>
<g>
	<g>
		<path class="st40" d="M581.1,1235.3l-17-5.6v-50h15.5l13.4-21.1v-12.8c0-3.1,2.1-5.9,5.1-6.8c1.1-0.3,2.3-0.5,3.5-0.5
			c3.5,0,9.9,1.6,13.6,12.1c2.9,8.5,1.7,17.1,0.1,22.9h21.1c3.4,0,9.8,0,14,5.9c3.8,5.4,2.7,11.2,0.8,15.2c1.4,3,1.4,5.6,1,7.4
			c-0.6,3.2-2.4,5.6-4.1,7.2c0.9,3.8,0.2,6.7-0.7,8.7c-1.3,2.7-3.4,4.4-5.2,5.5c-0.2,2.6-1.2,4.9-2.9,6.9c-2.8,3.4-7.6,5.5-12.4,5.5
			h-43.1C582.8,1235.7,581.9,1235.5,581.1,1235.3z"/>
		<path class="st15" d="M597.7,1146.8v12.6c0,0.3-0.1,0.5-0.2,0.7l-14.9,23.5c-0.3,0.4-0.7,0.6-1.2,0.6h-11.3
			c-0.8,0-1.4,0.6-1.4,1.4v39.5c0,0.6,0.4,1.1,0.9,1.3l11.9,3.9c1,0.3,2,0.5,3,0.5h42.1c5.1,0,11.1-3.3,10.6-9.6
			c0-0.6,0.3-1.1,0.8-1.4c2.3-0.9,7.5-3.9,4.6-11.4c-0.2-0.6,0-1.2,0.5-1.6c2-1.5,6.7-5.9,2.8-11.7c-0.3-0.4-0.3-1,0-1.5
			c1.1-1.9,3.6-7,0.3-11.8c-2.7-3.9-6.8-3.9-10.1-3.9h-25.6c-1,0-1.6-1-1.3-1.9c1.6-4.1,4.7-14.3,1.3-24.2c-2.6-7.6-6.6-9-9.5-8.9
			C599.2,1143.2,597.7,1144.9,597.7,1146.8z"/>
		<g>
			<path class="st41" d="M604.5,1152c3.4,9.9,0.3,20.1-1.3,24.2c-0.3,0.9,0.3,1.9,1.3,1.9h6.1c-1,0-1.6-1-1.3-1.9
				c1.6-4.1,4.7-14.3,1.3-24.2c-2.6-7.6-6.6-9-9.5-8.9c-0.9,0-1.6,0.4-2.2,0.9C600.9,1145.2,603,1147.5,604.5,1152z"/>
			<path class="st41" d="M646.1,1193.8c1.1-1.9,3.6-7,0.3-11.8c-2.7-3.9-6.8-3.9-10.1-3.9h-6.1c3.3,0,7.4,0,10.1,3.9
				c3.3,4.8,0.8,9.9-0.3,11.8c-0.3,0.4-0.3,1,0,1.5c3.9,5.8-0.7,10.2-2.8,11.7c-0.5,0.4-0.7,1-0.5,1.6c2.9,7.5-2.4,10.5-4.6,11.4
				c-0.5,0.2-0.9,0.8-0.8,1.4c0.5,6.4-5.6,9.6-10.6,9.6h6.1c5.1,0,11.1-3.3,10.6-9.6c0-0.6,0.3-1.1,0.8-1.4
				c2.3-0.9,7.5-3.9,4.6-11.4c-0.2-0.6,0-1.2,0.5-1.6c2-1.5,6.7-5.9,2.8-11.7C645.8,1194.8,645.8,1194.3,646.1,1193.8z"/>
		</g>
		<g>
			<path class="st42" d="M568.4,1239.9"/>
			<path class="st40" d="M530.1,1237.3v-62.2c0-1.6,1.3-2.8,2.8-2.8h36.4c1.6,0,2.8,1.3,2.8,2.8v62.2c0,1.6-1.3,2.8-2.8,2.8h-36.4
				C531.3,1240.1,530.1,1238.8,530.1,1237.3z"/>
			<path class="st43" d="M566.8,1235.4h-31.3c-0.4,0-0.7-0.3-0.7-0.7v-57.1c0-0.4,0.3-0.7,0.7-0.7h31.3c0.4,0,0.7,0.3,0.7,0.7v57.1
				C567.4,1235.1,567.1,1235.4,566.8,1235.4z"/>
			<path class="st44" d="M566.3,1177h-7.8v30c0,13.1-10.6,23.7-23.7,23.7l0,0v3.6c0,0.6,0.5,1.1,1.1,1.1h30.4c0.6,0,1.1-0.5,1.1-1.1
				v-56.2C567.4,1177.5,566.9,1177,566.3,1177z"/>
		</g>
		<path class="st45" d="M555.5,1224.2c0,2.4-2,4.4-4.4,4.4c-2.4,0-4.4-2-4.4-4.4s2-4.4,4.4-4.4
			C553.6,1219.8,555.5,1221.8,555.5,1224.2z"/>
	</g>
</g>
<g>
	<path class="st4" d="M-291.7,1164.6h76.3c2.8,0,5.1-2.3,5.1-5.1v-141.9c0-2.8-2.3-5.1-5.1-5.1h-76.3c-2.8,0-5.1,2.3-5.1,5.1v141.9
		C-296.8,1162.3-294.5,1164.6-291.7,1164.6z"/>
	<rect x="-286.8" y="1024.7" class="st4" width="66.4" height="121.8"/>
	<circle class="st4" cx="-253.5" cy="1155.4" r="3.9"/>
</g>
<polygon class="st3" points="-286.8,1146.5 -220.3,1024.7 -286.8,1024.7 "/>
<g>
	<g>
		<path class="st46" d="M526.1,1360.4l-7.7-2.5v-22.6h7l6.1-9.5v-5.8c0-1.4,0.9-2.7,2.3-3.1c0.5-0.1,1-0.2,1.6-0.2
			c1.6,0,4.5,0.7,6.1,5.5c1.3,3.9,0.8,7.7,0.1,10.3h9.5c1.6,0,4.4,0,6.3,2.7c1.7,2.4,1.2,5.1,0.4,6.9c0.6,1.3,0.6,2.5,0.5,3.4
			c-0.3,1.4-1.1,2.5-1.9,3.3c0.4,1.7,0.1,3-0.3,3.9c-0.6,1.2-1.5,2-2.3,2.5c-0.1,1.2-0.6,2.2-1.3,3.1c-1.3,1.5-3.4,2.5-5.6,2.5
			h-19.5C526.9,1360.6,526.5,1360.6,526.1,1360.4z"/>
		<path class="st15" d="M533.6,1320.5v5.7c0,0.1,0,0.2-0.1,0.3l-6.7,10.6c-0.1,0.2-0.3,0.3-0.5,0.3h-5.1c-0.3,0-0.6,0.3-0.6,0.6
			v17.9c0,0.3,0.2,0.5,0.4,0.6l5.4,1.8c0.4,0.1,0.9,0.2,1.4,0.2h19c2.3,0,5-1.5,4.8-4.4c0-0.3,0.1-0.5,0.4-0.6
			c1-0.4,3.4-1.8,2.1-5.2c-0.1-0.3,0-0.6,0.2-0.7c0.9-0.7,3-2.6,1.3-5.3c-0.1-0.2-0.1-0.5,0-0.7c0.5-0.9,1.6-3.2,0.1-5.3
			c-1.2-1.8-3.1-1.8-4.6-1.8h-11.6c-0.4,0-0.7-0.4-0.6-0.8c0.7-1.9,2.1-6.5,0.6-10.9c-1.2-3.4-3-4.1-4.3-4
			C534.3,1318.9,533.6,1319.6,533.6,1320.5z"/>
		<g>
			<path class="st41" d="M536.7,1322.9c1.5,4.5,0.1,9.1-0.6,10.9c-0.2,0.4,0.1,0.8,0.6,0.8h2.8c-0.4,0-0.7-0.4-0.6-0.8
				c0.7-1.9,2.1-6.5,0.6-10.9c-1.2-3.4-3-4.1-4.3-4c-0.4,0-0.7,0.2-1,0.4C535.1,1319.8,536,1320.8,536.7,1322.9z"/>
			<path class="st41" d="M555.5,1341.7c0.5-0.9,1.6-3.2,0.1-5.3c-1.2-1.8-3.1-1.8-4.6-1.8h-2.8c1.5,0,3.3,0,4.6,1.8
				c1.5,2.2,0.4,4.5-0.1,5.3c-0.1,0.2-0.1,0.5,0,0.7c1.8,2.6-0.3,4.6-1.3,5.3c-0.2,0.2-0.3,0.5-0.2,0.7c1.3,3.4-1.1,4.7-2.1,5.2
				c-0.2,0.1-0.4,0.4-0.4,0.6c0.2,2.9-2.5,4.4-4.8,4.4h2.8c2.3,0,5-1.5,4.8-4.4c0-0.3,0.1-0.5,0.4-0.6c1-0.4,3.4-1.8,2.1-5.2
				c-0.1-0.3,0-0.6,0.2-0.7c0.9-0.7,3-2.6,1.3-5.3C555.4,1342.2,555.4,1341.9,555.5,1341.7z"/>
		</g>
		<g>
			<path class="st47" d="M520.4,1362.6"/>
			<path class="st46" d="M503.1,1361.4v-28.1c0-0.7,0.6-1.3,1.3-1.3h16.5c0.7,0,1.3,0.6,1.3,1.3v28.1c0,0.7-0.6,1.3-1.3,1.3h-16.5
				C503.6,1362.6,503.1,1362.1,503.1,1361.4z"/>
			<path class="st43" d="M519.7,1360.5h-14.2c-0.2,0-0.3-0.1-0.3-0.3v-25.8c0-0.2,0.1-0.3,0.3-0.3h14.2c0.2,0,0.3,0.1,0.3,0.3v25.8
				C520,1360.4,519.8,1360.5,519.7,1360.5z"/>
			<path class="st44" d="M519.5,1334.1h-3.5v13.5c0,5.9-4.8,10.7-10.7,10.7l0,0v1.6c0,0.3,0.2,0.5,0.5,0.5h13.8
				c0.3,0,0.5-0.2,0.5-0.5v-25.4C520,1334.3,519.7,1334.1,519.5,1334.1z"/>
		</g>
		<path class="st45" d="M514.6,1355.5c0,1.1-0.9,2-2,2c-1.1,0-2-0.9-2-2c0-1.1,0.9-2,2-2C513.7,1353.5,514.6,1354.4,514.6,1355.5z"
			/>
	</g>
</g>
<g>
	<circle class="st15" cx="-432" cy="315.5" r="57.7"/>
	<path class="st4" d="M-415.5,290.2c-7.2,0-13.5,4.2-16.5,10.3c-3-6.1-9.3-10.3-16.5-10.3c-10.2,0-18.5,8.3-18.5,18.5
		c0,16.3,20.8,34.1,34.7,40.9c0.2,0.1,0.4,0.1,0.6,0c13.8-6.8,34.7-24.7,34.7-40.9C-397,298.5-405.3,290.2-415.5,290.2z"/>
</g>
<g>
	<path class="st48" d="M-421,763.9c0-11.4-9.2-20.6-20.6-20.6l-149,0c-11.4,0-20.6,9.2-20.6,20.6l0,300.8c0,11.4,9.2,20.6,20.6,20.6
		l149,0c11.4,0,20.6-9.2,20.6-20.6L-421,763.9z"/>
	<g>
		<path class="st49" d="M-427,1058.7c0,11.4-9.2,20.6-20.6,20.6l-149,0c-11.4,0-20.6-9.2-20.6-20.6l0-300.8
			c0-11.4,9.2-20.6,20.6-20.6l149,0c11.4,0,20.6,9.2,20.6,20.6L-427,1058.7z"/>
		<rect x="-607.6" y="758.8" class="st15" width="171" height="271.7"/>
		<path class="st50" d="M-506.5,1054.6c0,8.6-7,15.6-15.6,15.6c-8.6,0-15.6-7-15.6-15.6c0-8.6,7-15.6,15.6-15.6
			C-513.5,1039-506.5,1046-506.5,1054.6z"/>
		<path class="st49" d="M-511.1,1054.6c0,6-4.9,10.9-11,10.9c-6,0-10.9-4.9-11-10.9c0-6,4.9-10.9,11-11
			C-516,1043.6-511.1,1048.5-511.1,1054.6z"/>
		<path class="st50" d="M-498.4,747.2c0,1.4-1.1,2.5-2.5,2.5l-42.4,0c-1.4,0-2.5-1.1-2.5-2.5l0,0c0-1.4,1.1-2.5,2.5-2.5l42.4,0
			C-499.5,744.8-498.4,745.9-498.4,747.2L-498.4,747.2z"/>
	</g>
</g>
<g>
	<g>
		<rect x="-592.8" y="886.5" class="st51" width="141.4" height="5.4"/>
		<rect x="-592.8" y="904.3" class="st51" width="141.4" height="5.4"/>
		<rect x="-592.8" y="922" class="st51" width="141.4" height="5.4"/>
		<rect x="-592.8" y="939.7" class="st51" width="141.4" height="5.4"/>
		<rect x="-592.8" y="957.5" class="st51" width="141.4" height="5.4"/>
	</g>
	<rect x="-592.8" y="978.1" class="st52" width="141.4" height="34.7"/>
	<g>
		<path class="st15" d="M-532.8,995.4c0,2-1.7,3.7-3.7,3.7c-2,0-3.7-1.7-3.7-3.7c0-2,1.7-3.7,3.7-3.7
			C-534.4,991.7-532.8,993.4-532.8,995.4z"/>
		<path class="st15" d="M-518.4,995.4c0,2-1.7,3.7-3.7,3.7c-2,0-3.7-1.7-3.7-3.7c0-2,1.7-3.7,3.7-3.7
			C-520,991.7-518.4,993.4-518.4,995.4z"/>
		<path class="st15" d="M-503.9,995.4c0,2-1.7,3.7-3.7,3.7c-2,0-3.7-1.7-3.7-3.7c0-2,1.7-3.7,3.7-3.7
			C-505.6,991.7-503.9,993.4-503.9,995.4z"/>
	</g>
</g>
<rect x="-407.2" y="1225.9" class="st53" width="331.4" height="219.7"/>
<path class="st4" d="M62.7,958.9c-37.4-14.6-72.8-16.6-58.2-43.7c14.6-27,25-29.1,20.8-68.6c-4.2-39.5-44.4-39.5-44.4-39.5
	s-40.2,0-44.4,39.5c-4.2,39.5,6.2,41.6,20.8,68.6c14.6,27-20.8,29.1-58.2,43.7c-37.4,14.6-22.9,47.8-22.9,47.8h98h6.7H85.5
	C85.5,1006.8,100.1,973.5,62.7,958.9z"/>
<polygon class="st5" points="-219.8,1025.2 -286.2,1147 -219.8,1147 "/>
<path class="st4" d="M279.3,1093.8c-21.4-8.3-41.7-9.5-33.4-25c8.3-15.5,14.3-16.7,11.9-39.3c-2.4-22.6-25.4-22.6-25.4-22.6
	s-23,0-25.4,22.6c-2.4,22.6,3.6,23.8,11.9,39.3c8.3,15.5-11.9,16.7-33.4,25c-21.4,8.3-13.1,27.4-13.1,27.4h56.1h3.8h60
	C292.4,1121.2,300.8,1102.1,279.3,1093.8z"/>
<path class="st4" d="M-231.8,1127c-10.1-3.9-19.6-4.5-15.6-11.7c3.9-7.3,6.7-7.8,5.6-18.4c-1.1-10.6-11.9-10.6-11.9-10.6
	s-10.8,0-11.9,10.6c-1.1,10.6,1.7,11.2,5.6,18.4c3.9,7.3-5.6,7.8-15.6,11.7c-10.1,3.9-6.1,12.9-6.1,12.9h26.3h1.8h28.1
	C-225.6,1139.8-221.7,1130.9-231.8,1127z"/>
</svg>
