<?xml version="1.0" encoding="utf-8"?>
<!-- Generator: Adobe Illustrator 25.2.0, SVG Export Plug-In . SVG Version: 6.00 Build 0)  -->
<svg version="1.1" id="Layer_1" xmlns="http://www.w3.org/2000/svg" xmlns:xlink="http://www.w3.org/1999/xlink" x="0px" y="0px"
	 viewBox="0 0 511.6 511.6" style="enable-background:new 0 0 511.6 511.6;" xml:space="preserve">
<style type="text/css">
	.st0{fill:#FFF0CA;}
	.st1{fill:#B3A16C;}
	.st2{opacity:0.25;fill:url(#SVGID_1_);enable-background:new    ;}
	.st3{fill:#606060;}
	.st4{opacity:0.25;fill:url(#SVGID_2_);enable-background:new    ;}
	.st5{fill:#E6E9ED;}
	.st6{fill:#CCD1D9;}
	.st7{fill:#F5F7FA;}
	.st8{fill:#434A54;}
	.st9{fill:#3D85CC;}
	.st10{fill:#CC5047;}
	.st11{fill:#5CB8E6;}
	.st12{opacity:0.5;enable-background:new    ;}
	.st13{opacity:0.6;fill:#FFFFFF;enable-background:new    ;}
	.st14{opacity:0.25;fill:url(#SVGID_3_);enable-background:new    ;}
	.st15{fill:#A1C3E6;}
	.st16{fill:#264E80;}
	.st17{fill:#FEBE7F;}
	.st18{opacity:0.25;fill:url(#SVGID_4_);enable-background:new    ;}
	.st19{fill:#FFFFFF;stroke:#264E80;stroke-miterlimit:10;}
	.st20{fill:#FFFFFF;stroke:#264E80;stroke-width:1;stroke-miterlimit:10;}
	.st21{fill:#FFFFFF;}
	.st22{fill:none;}
</style>
<g>
	<path class="st0" d="M166.2,269.4l120.1,0.5c1.1,0,1.9-0.8,2-2l1.2-263.4c0-1.1-0.8-1.9-2-2L167.4,2c-1.1,0-1.9,0.8-2,2l-1.2,263.5
		C164.2,268.5,165.1,269.4,166.2,269.4z"/>
	<path class="st1" d="M192,10.5l-0.3,56.4l-0.1,17c0,1.1,0.9,2,2,2l19.5,0.1l47.5,0.2c1.1,0,2-0.9,2-2l0.2-45.7l0.3-27.7
		c0-1.1-0.9-2-2-2l-8.3-0.1L194,8.5C192.9,8.5,192,9.4,192,10.5z"/>
	<path class="st1" d="M191.6,98.5v7.9l-0.3,65.6c0,1.1,0.9,2,2,2h5.6l41.2,0.2h13.1l7.1,0.1c1.1,0,2-0.9,2-2v-6.7l0.1-12.6l0.2-39.6
		l0.1-14.5c0-1.1-0.9-2-2-2L202,96.6h-8.2C192.5,96.6,191.6,97.4,191.6,98.5z"/>
	<path class="st1" d="M191.2,186.7l-0.2,34.1l-0.1,12.6l-0.2,26.7c0,1.1,0.9,2,2,2l34.7,0.2l32.3,0.2c1.1,0,2-0.9,2-2l0.2-31
		l0.2-42.5c0-1.1-0.9-2-2-2l-18.3-0.1l-13.1-0.1l-35.6-0.1C192,184.7,191.2,185.6,191.2,186.7z"/>
	
		<linearGradient id="SVGID_1_" gradientUnits="userSpaceOnUse" x1="-4495.2402" y1="1001.6361" x2="-4549.5942" y2="1203.851" gradientTransform="matrix(-0.4324 -0.9017 -0.9017 0.4324 -688.4766 -4394.4146)">
		<stop  offset="0" style="stop-color:#264E80"/>
		<stop  offset="1" style="stop-color:#264E80;stop-opacity:0"/>
	</linearGradient>
	<path class="st2" d="M262.1,165.6l-9.1,8.6l7.1,0.1c1.1,0,2-0.9,2-2V165.6z"/>
	<path class="st3" d="M270.5,19l11.2,0.1c0.3,0,0.5-0.3,0.5-0.5l0.1-9c0-0.3-0.3-0.5-0.5-0.5h-11.2c-0.3,0-0.5,0.3-0.5,0.5l-0.1,9
		C270,18.7,270.2,19,270.5,19z"/>
	<path class="st3" d="M173.1,18.6h11.2c0.3,0,0.5-0.3,0.5-0.5l0.1-9c0-0.3-0.3-0.5-0.5-0.5l-11.2-0.1c-0.3,0-0.5,0.3-0.5,0.5l-0.1,9
		C172.5,18.3,172.8,18.6,173.1,18.6z"/>
	<path class="st3" d="M270.5,39.3l11.2,0.1c0.3,0,0.5-0.3,0.5-0.5l0.1-9c0-0.3-0.3-0.5-0.5-0.5l-11.2-0.2c-0.3,0-0.5,0.3-0.5,0.5
		l-0.1,9C269.8,39,270.1,39.3,270.5,39.3z"/>
	<path class="st3" d="M173,38.8l11.2,0.1c0.3,0,0.5-0.3,0.5-0.5l0.1-9c0-0.3-0.3-0.5-0.5-0.5L173,28.7c-0.3,0-0.5,0.3-0.5,0.5
		l-0.1,9C172.4,38.6,172.7,38.7,173,38.8z"/>
	<path class="st3" d="M270.4,59.6l11.2,0.1c0.3,0,0.5-0.3,0.5-0.5l0.1-9c0-0.3-0.3-0.5-0.5-0.5l-11.3-0.1c-0.3,0-0.5,0.3-0.5,0.5
		l-0.1,9C269.8,59.3,270.1,59.6,270.4,59.6z"/>
	<path class="st3" d="M172.9,59l11.2,0.1c0.3,0,0.5-0.3,0.5-0.5l0.1-9c0-0.3-0.3-0.5-0.5-0.5l-11.2-0.1c-0.3,0-0.5,0.3-0.5,0.5
		l-0.1,9C172.3,58.9,172.6,59.1,172.9,59z"/>
	<path class="st3" d="M270.3,79.9l11.2,0.1c0.3,0,0.5-0.3,0.5-0.5l0.1-9c0-0.3-0.3-0.5-0.5-0.5l-11.3-0.1c-0.3,0-0.5,0.3-0.5,0.5
		l-0.1,9C269.7,79.6,269.9,79.9,270.3,79.9z"/>
	<path class="st3" d="M172.9,79.4l11.2,0.1c0.3,0,0.5-0.3,0.5-0.5l0.1-9c0-0.3-0.3-0.5-0.5-0.5l-11.2-0.1c-0.3,0-0.5,0.3-0.5,0.5
		l-0.1,9C172.2,79.1,172.5,79.4,172.9,79.4z"/>
	<path class="st3" d="M270.2,100.1l11.2,0.1c0.3,0,0.5-0.3,0.5-0.5l0.1-9c0-0.3-0.3-0.5-0.5-0.5l-11.2-0.1c-0.3,0-0.5,0.3-0.5,0.5
		l-0.1,9C269.6,99.9,269.8,100.1,270.2,100.1z"/>
	<path class="st3" d="M172.8,99.7l11.2,0.1c0.3,0,0.5-0.3,0.5-0.5l0.1-9c0-0.3-0.3-0.5-0.5-0.5l-11.2-0.1c-0.3,0-0.5,0.3-0.5,0.5
		l-0.1,9C172.1,99.4,172.4,99.7,172.8,99.7z"/>
	<path class="st3" d="M270.1,120.4l11.2,0.1c0.3,0,0.5-0.3,0.5-0.5l0.1-9c0-0.3-0.3-0.5-0.5-0.5l-11.2-0.1c-0.3,0-0.5,0.3-0.5,0.5
		l-0.1,9C269.5,120.2,269.7,120.4,270.1,120.4z"/>
	<path class="st3" d="M172.7,120l11.2,0.1c0.3,0,0.5-0.3,0.5-0.5l0.1-9c0-0.3-0.3-0.5-0.5-0.5l-11.2-0.1c-0.3,0-0.5,0.3-0.5,0.5
		l-0.1,9C172,119.7,172.3,119.9,172.7,120z"/>
	<path class="st3" d="M270,140.7l11.2,0.1c0.3,0,0.5-0.3,0.5-0.5l0.1-9c0-0.3-0.3-0.5-0.5-0.5l-11.2-0.1c-0.3,0-0.5,0.3-0.5,0.5
		l-0.1,9C269.4,140.4,269.6,140.7,270,140.7z"/>
	<path class="st3" d="M172.5,140.3l11.2,0.1c0.3,0,0.5-0.3,0.5-0.5l0.1-9c0-0.3-0.3-0.5-0.5-0.5l-11.2-0.1c-0.3,0-0.5,0.3-0.5,0.5
		l-0.1,9C171.9,140,172.2,140.3,172.5,140.3z"/>
	<path class="st3" d="M269.8,161l11.2,0.1c0.3,0,0.5-0.3,0.5-0.5l0.2-9c0-0.3-0.3-0.5-0.5-0.5l-11.2-0.1c-0.3,0-0.5,0.3-0.5,0.5
		l-0.1,9C269.3,160.7,269.5,161,269.8,161z"/>
	<path class="st3" d="M172.4,160.5l11.2,0.1c0.3,0,0.5-0.3,0.5-0.5l0.1-9c0-0.3-0.3-0.5-0.5-0.5l-11.2-0.1c-0.3,0-0.5,0.3-0.5,0.5
		l-0.1,9C171.9,160.3,172.1,160.5,172.4,160.5z"/>
	<path class="st3" d="M269.7,181.3l11.2,0.1c0.3,0,0.5-0.3,0.5-0.5l0.1-9c0-0.3-0.3-0.5-0.5-0.5l-11.2-0.1c-0.3,0-0.5,0.3-0.5,0.5
		l-0.1,9C269.2,181,269.5,181.3,269.7,181.3z"/>
	<path class="st3" d="M172.3,180.8l11.2,0.1c0.3,0,0.5-0.3,0.5-0.5l0.1-9c0-0.3-0.3-0.5-0.5-0.5l-11.2-0.1c-0.3,0-0.5,0.3-0.5,0.5
		l-0.1,9C171.8,180.6,172,180.8,172.3,180.8z"/>
	<path class="st3" d="M269.7,201.6l11.2,0.1c0.3,0,0.5-0.3,0.5-0.5l0.1-9c0-0.3-0.3-0.5-0.5-0.5l-11.2-0.1c-0.3,0-0.5,0.3-0.5,0.5
		l-0.1,9C269.1,201.3,269.4,201.6,269.7,201.6z"/>
	<path class="st3" d="M172.2,201.1l11.2,0.1c0.3,0,0.5-0.3,0.5-0.5l0.1-9c0-0.3-0.3-0.5-0.5-0.5h-11.2c-0.3,0-0.5,0.3-0.5,0.5
		l-0.1,9C171.7,200.8,171.9,201,172.2,201.1z"/>
	<path class="st3" d="M269.5,221.9l11.2,0.1c0.3,0,0.5-0.3,0.5-0.5l0.1-9c0-0.3-0.3-0.5-0.5-0.5l-11.2-0.2c-0.3,0-0.5,0.3-0.5,0.5
		l-0.1,9C269,221.6,269.3,221.9,269.5,221.9z"/>
	<path class="st3" d="M172.1,221.4l11.2,0.1c0.3,0,0.5-0.3,0.5-0.5l0.1-9c0-0.3-0.3-0.5-0.5-0.5l-11.2-0.1c-0.3,0-0.5,0.3-0.5,0.5
		l-0.1,9C171.6,221.1,171.8,221.4,172.1,221.4z"/>
	<path class="st3" d="M269.5,242.1l11.2,0.1c0.3,0,0.5-0.3,0.5-0.5l0.1-9c0-0.3-0.3-0.5-0.5-0.5l-11.2-0.1c-0.3,0-0.5,0.3-0.5,0.5
		l-0.1,9C268.9,241.9,269.2,242.1,269.5,242.1z"/>
	<path class="st3" d="M172,241.7h11.2c0.3,0,0.5-0.3,0.5-0.5l0.1-9c0-0.3-0.3-0.5-0.5-0.5l-11.2-0.1c-0.3,0-0.5,0.3-0.5,0.5l-0.1,9
		C171.5,241.4,171.7,241.7,172,241.7z"/>
	<path class="st3" d="M269.4,262.4l11.2,0.1c0.3,0,0.5-0.3,0.5-0.5l0.1-9c0-0.3-0.3-0.5-0.5-0.5l-11.2-0.1c-0.3,0-0.5,0.3-0.5,0.5
		l-0.1,9C268.8,262.2,269.1,262.4,269.4,262.4z"/>
	<path class="st3" d="M171.9,262l11.2,0.1c0.3,0,0.5-0.3,0.5-0.5l0.1-9c0-0.3-0.3-0.5-0.5-0.5l-11.2-0.1c-0.3,0-0.5,0.3-0.5,0.5
		l-0.1,9C171.4,261.7,171.6,262,171.9,262z"/>
</g>
<g>
	<path class="st0" d="M182.8,321.5l104-60.2c0.9-0.5,1.3-1.7,0.7-2.7l-132.1-228c-0.5-0.9-1.7-1.3-2.7-0.7l-104,60.2
		c-0.9,0.5-1.3,1.7-0.7,2.7l132.1,228C180.7,321.6,181.9,322,182.8,321.5z"/>
	<path class="st1" d="M74.2,84.9l28.2,48.8l8.6,14.7c0.5,0.9,1.7,1.3,2.7,0.7l16.8-9.7l41-23.7c1-0.5,1.3-1.7,0.7-2.7l-22.9-39.5
		l-13.8-24.1c-0.5-0.9-1.7-1.3-2.7-0.7l-7.2,4.1L74.9,82.1C74,82.8,73.7,84,74.2,84.9z"/>
	<path class="st1" d="M118.4,161.1l3.9,6.8l32.8,56.8c0.5,0.9,1.7,1.3,2.7,0.7l4.8-2.8l35.7-20.6l11.4-6.6l6.2-3.5
		c0.9-0.5,1.3-1.7,0.7-2.7l-3.4-5.8l-6.3-10.9L187.1,138l-7.3-12.6c-0.5-0.9-1.7-1.3-2.7-0.7l-50.9,29.7l-7.1,4.1
		C118.2,159,117.8,160.2,118.4,161.1z"/>
	<path class="st1" d="M162.6,237.4l17.1,29.5l6.3,10.9l13.4,23.1c0.5,0.9,1.7,1.3,2.7,0.7l30-17.4l27.9-16.2
		c0.9-0.5,1.3-1.7,0.7-2.7l-15.5-26.8L224,201.8c-0.5-0.9-1.7-1.3-2.7-0.7l-15.8,9.2l-11.4,6.5l-30.7,17.8
		C162.3,235.3,162,236.4,162.6,237.4z"/>
	
		<linearGradient id="SVGID_2_" gradientUnits="userSpaceOnUse" x1="-4354.4658" y1="1982.3204" x2="-4408.8198" y2="2184.5354" gradientTransform="matrix(-0.8287 -0.5597 -0.5597 0.8287 -2245.3672 -4005.4514)">
		<stop  offset="0" style="stop-color:#264E80"/>
		<stop  offset="1" style="stop-color:#264E80;stop-opacity:0"/>
	</linearGradient>
	<path class="st4" d="M213.1,183.3l-3.5,12.1l6.2-3.5c0.9-0.5,1.3-1.7,0.7-2.7L213.1,183.3z"/>
	<path class="st3" d="M146.3,52.6l9.7-5.6c0.3-0.2,0.4-0.5,0.2-0.7l-4.5-7.8c-0.2-0.3-0.5-0.4-0.7-0.2l-9.8,5.7
		c-0.3,0.2-0.4,0.5-0.2,0.7l4.5,7.8C145.7,52.7,146,52.8,146.3,52.6z"/>
	<path class="st3" d="M62,101.4l9.7-5.6c0.3-0.2,0.4-0.5,0.2-0.7l-4.5-7.8C67.2,87,67,86.9,66.7,87L57,92.7
		c-0.3,0.2-0.4,0.5-0.2,0.7l4.5,7.8C61.3,101.5,61.7,101.6,62,101.4z"/>
	<path class="st3" d="M156.5,70.1l9.7-5.6c0.3-0.2,0.4-0.5,0.2-0.7l-4.5-7.8c-0.2-0.3-0.5-0.4-0.7-0.2l-9.7,5.5
		c-0.3,0.2-0.4,0.5-0.2,0.7l4.5,7.8C155.8,70.2,156.2,70.3,156.5,70.1z"/>
	<path class="st3" d="M72.2,119l9.7-5.6c0.3-0.2,0.4-0.5,0.2-0.7l-4.5-7.8c-0.2-0.3-0.5-0.4-0.7-0.2l-9.7,5.6
		c-0.3,0.2-0.4,0.5-0.2,0.7l4.5,7.8C71.5,119.1,71.9,119.2,72.2,119z"/>
	<path class="st3" d="M166.7,87.7l9.7-5.6c0.3-0.2,0.4-0.5,0.2-0.7l-4.5-7.8c-0.2-0.3-0.5-0.4-0.7-0.2l-9.7,5.6
		c-0.3,0.2-0.4,0.5-0.2,0.7l4.5,7.8C166,87.8,166.4,87.9,166.7,87.7z"/>
	<path class="st3" d="M82.3,136.5l9.7-5.6c0.3-0.2,0.4-0.5,0.2-0.7l-4.5-7.8c-0.2-0.3-0.5-0.4-0.7-0.2l-9.7,5.6
		c-0.3,0.2-0.4,0.5-0.2,0.7l4.5,7.8C81.7,136.6,82.1,136.7,82.3,136.5z"/>
	<path class="st3" d="M176.8,105.2l9.7-5.6c0.3-0.2,0.4-0.5,0.2-0.7l-4.5-7.8c-0.2-0.3-0.5-0.4-0.7-0.2l-9.7,5.6
		c-0.3,0.2-0.4,0.5-0.2,0.7l4.5,7.8C176.2,105.3,176.5,105.4,176.8,105.2z"/>
	<path class="st3" d="M92.4,154.1l9.7-5.6c0.3-0.2,0.4-0.5,0.2-0.7l-4.5-7.8c-0.2-0.3-0.5-0.4-0.7-0.2l-9.7,5.5
		c-0.3,0.2-0.4,0.5-0.2,0.7l4.5,7.8C91.8,154.2,92.3,154.3,92.4,154.1z"/>
	<path class="st3" d="M187,122.8l9.7-5.6c0.3-0.2,0.4-0.5,0.2-0.7l-4.5-7.8c-0.2-0.3-0.5-0.4-0.7-0.2l-9.7,5.6
		c-0.3,0.2-0.4,0.5-0.2,0.7l4.5,7.8C186.4,122.9,186.7,123,187,122.8z"/>
	<path class="st3" d="M102.6,171.6l9.7-5.6c0.3-0.2,0.4-0.5,0.2-0.7l-4.5-7.8c-0.2-0.3-0.5-0.4-0.7-0.2l-9.7,5.6
		c-0.3,0.2-0.4,0.5-0.2,0.7l4.5,7.8C102,171.7,102.4,171.8,102.6,171.6z"/>
	<path class="st3" d="M197.1,140.4l9.7-5.6c0.3-0.2,0.4-0.5,0.2-0.7l-4.5-7.8c-0.2-0.3-0.5-0.4-0.7-0.2l-9.7,5.6
		c-0.3,0.2-0.4,0.5-0.2,0.7l4.5,7.8C196.5,140.4,196.9,140.5,197.1,140.4z"/>
	<path class="st3" d="M112.8,189.2l9.7-5.6c0.3-0.2,0.4-0.5,0.2-0.7l-4.5-7.8c-0.2-0.3-0.5-0.4-0.7-0.2l-9.7,5.6
		c-0.3,0.2-0.4,0.5-0.2,0.7l4.5,7.8C112.2,189.3,112.5,189.4,112.8,189.2z"/>
	<path class="st3" d="M207.3,157.9l9.7-5.6c0.3-0.2,0.4-0.5,0.2-0.7l-4.5-7.8c-0.2-0.3-0.5-0.4-0.7-0.2l-9.7,5.6
		c-0.3,0.2-0.4,0.5-0.2,0.7l4.5,7.8C206.7,158,207.1,158.1,207.3,157.9z"/>
	<path class="st3" d="M123,206.8l9.7-5.6c0.3-0.2,0.4-0.5,0.2-0.7l-4.5-7.8c-0.2-0.3-0.5-0.4-0.7-0.2L118,198
		c-0.3,0.2-0.4,0.5-0.2,0.7l4.5,7.8C122.4,206.8,122.7,206.9,123,206.8z"/>
	<path class="st3" d="M217.4,175.5l9.7-5.6c0.3-0.2,0.4-0.5,0.2-0.7l-4.5-7.8c-0.2-0.3-0.5-0.4-0.7-0.2l-9.7,5.6
		c-0.3,0.2-0.4,0.5-0.2,0.7l4.5,7.8C216.9,175.6,217.1,175.6,217.4,175.5z"/>
	<path class="st3" d="M133.2,224.3l9.7-5.6c0.3-0.2,0.4-0.5,0.2-0.7l-4.5-7.8c-0.2-0.3-0.5-0.4-0.7-0.2l-9.7,5.6
		c-0.3,0.2-0.4,0.5-0.2,0.7l4.5,7.8C132.6,224.4,132.9,224.5,133.2,224.3z"/>
	<path class="st3" d="M227.6,193l9.7-5.6c0.3-0.2,0.4-0.5,0.2-0.7l-4.5-7.8c-0.2-0.3-0.5-0.4-0.7-0.2l-9.7,5.6
		c-0.3,0.2-0.4,0.5-0.2,0.7l4.5,7.8C227.1,193.1,227.3,193.2,227.6,193z"/>
	<path class="st3" d="M143.3,241.9l9.7-5.6c0.3-0.2,0.4-0.5,0.2-0.7l-4.5-7.8c-0.2-0.3-0.5-0.4-0.7-0.2l-9.7,5.5
		c-0.3,0.2-0.4,0.5-0.2,0.7l4.5,7.8C142.7,242,143.1,242.1,143.3,241.9z"/>
	<path class="st3" d="M237.8,210.6l9.7-5.6c0.3-0.2,0.4-0.5,0.2-0.7l-4.5-7.8c-0.2-0.3-0.5-0.4-0.7-0.2l-9.7,5.5
		c-0.3,0.2-0.4,0.5-0.2,0.7l4.5,7.8C237.2,210.7,237.5,210.8,237.8,210.6z"/>
	<path class="st3" d="M153.5,259.4l9.7-5.6c0.3-0.2,0.4-0.5,0.2-0.7l-4.5-7.8c-0.2-0.3-0.5-0.4-0.7-0.2l-9.7,5.7
		c-0.3,0.2-0.4,0.5-0.2,0.7l4.5,7.8C152.8,259.5,153.2,259.6,153.5,259.4z"/>
	<path class="st3" d="M248,228.2l9.6-5.6c0.3-0.2,0.4-0.5,0.2-0.7l-4.5-7.8c-0.2-0.3-0.5-0.4-0.7-0.2l-9.7,5.5
		c-0.3,0.2-0.4,0.5-0.2,0.7l4.5,7.8C247.3,228.2,247.7,228.3,248,228.2z"/>
	<path class="st3" d="M163.7,277l9.7-5.6c0.3-0.2,0.4-0.5,0.2-0.7l-4.5-7.8c-0.2-0.3-0.5-0.4-0.7-0.2l-9.7,5.6
		c-0.3,0.2-0.4,0.5-0.2,0.7l4.5,7.8C163,277.1,163.4,277.2,163.7,277z"/>
	<path class="st3" d="M258.2,245.8l9.7-5.6c0.3-0.2,0.4-0.5,0.2-0.7l-4.5-7.8c-0.2-0.3-0.5-0.4-0.7-0.2l-9.7,5.6
		c-0.3,0.2-0.4,0.5-0.2,0.7l4.5,7.8C257.5,245.8,257.8,245.9,258.2,245.8z"/>
	<path class="st3" d="M173.8,294.5l9.7-5.6c0.3-0.2,0.4-0.5,0.2-0.7l-4.5-7.8c-0.2-0.3-0.5-0.4-0.7-0.2l-9.7,5.5
		c-0.3,0.2-0.4,0.5-0.2,0.7l4.5,7.8C173.2,294.6,173.6,294.7,173.8,294.5z"/>
	<path class="st3" d="M268.3,263.3l9.7-5.6c0.3-0.2,0.4-0.5,0.2-0.7l-4.5-7.8c-0.2-0.3-0.5-0.4-0.7-0.2l-9.7,5.6
		c-0.3,0.2-0.4,0.5-0.2,0.7l4.5,7.8C267.7,263.3,268,263.4,268.3,263.3z"/>
	<path class="st3" d="M183.9,312.1l9.7-5.6c0.3-0.2,0.4-0.5,0.2-0.7l-4.5-7.8c-0.2-0.3-0.5-0.4-0.7-0.2l-9.7,5.6
		c-0.3,0.2-0.4,0.5-0.2,0.7l4.5,7.8C183.4,312.2,183.7,312.3,183.9,312.1z"/>
</g>
<path class="st5" d="M1679.4,383.7c-5.9,0-10.6,4.7-10.6,10.6s4.8,10.6,10.6,10.6h197.7v-21.3L1679.4,383.7L1679.4,383.7z"/>
<path class="st5" d="M-435.5,599.2c0,5.9-4.8,10.6-10.7,10.6s-10.6-4.8-10.6-10.6c0-5.9,4.8-10.7,10.6-10.7
	S-435.5,593.3-435.5,599.2z"/>
<g>
	<polygon class="st6" points="1308,550.1 1100.9,550.1 1122.1,444.3 1286.8,444.3 	"/>
	<path class="st7" d="M1439.8,454.9c0,5.9-4.8,10.6-10.6,10.6H942.1c-5.9,0-10.5-4.8-10.5-10.6V116c0-5.8,4.8-10.5,10.5-10.5h487.1
		c5.9,0,10.6,4.8,10.6,10.6L1439.8,454.9L1439.8,454.9z"/>
	<path class="st5" d="M942.1,465.5h487.1c5.9,0,10.6-4.8,10.6-10.6V402H931.6v52.9C931.6,460.7,936.3,465.5,942.1,465.5z"/>
	<g>
		<rect x="973.9" y="317.2" class="st1" width="211.8" height="85.7"/>
		<rect x="1206.8" y="317.2" class="st1" width="211.8" height="85.7"/>
	</g>
	<path class="st8" d="M1196.2,433.7c0,5.9-4.8,10.5-10.5,10.5c-5.9,0-10.6-4.8-10.6-10.5c0-5.9,4.8-10.6,10.6-10.6
		C1191.5,423.1,1196.2,427.8,1196.2,433.7z"/>
	<rect x="973.9" y="147.8" class="st0" width="423.5" height="148.2"/>
	<path class="st8" d="M1323.3,232.5H1048c-5.9,0-10.6-4.8-10.6-10.6s4.8-10.5,10.6-10.5h275.3c5.9,0,10.6,4.8,10.6,10.5
		C1333.9,227.8,1329.1,232.5,1323.3,232.5z"/>
	<rect x="1276.4" y="264.3" class="st0" width="146.7" height="169.5"/>
	<rect x="1276.4" y="433.7" class="st1" width="146.7" height="87.4"/>
	<g>
		<path class="st8" d="M1418.6,243.1h-137.7c-11.7,0-21.2,9.4-21.2,21.2V529c0,11.7,9.5,21.2,21.2,21.2h137.6
			c11.7,0,21.2-9.4,21.2-21.2V264.3C1439.8,252.6,1430.3,243.1,1418.6,243.1z M1418.6,529h-137.7V264.3h137.6L1418.6,529L1418.6,529
			z"/>
		<rect x="1275.9" y="507.8" class="st8" width="148.1" height="26.7"/>
	</g>
	<path class="st8" d="M1386.8,359.6h-74.2c-5.9,0-10.6-4.8-10.6-10.5c0-5.9,4.8-10.5,10.6-10.5h74.2c5.9,0,10.6,4.7,10.6,10.5
		C1397.4,354.8,1392.7,359.6,1386.8,359.6z"/>
</g>
<image style="overflow:visible;enable-background:new    ;" width="1423" height="506" xlink:href="5024700E.jpg"  transform="matrix(0.9992 0 0 0.9992 626.0166 554.0862)">
</image>
<g>
	<path class="st9" d="M406.5,558.3l1.8,6.6c0,0,11.5-4.2,15.2-1.5c1.2,0.9,5.3,4.3,7.5,6.2c1.1,0.9,2.4,1.4,3.8,1.2
		c21.5-2.5,78.4-20.5,78.4-20.5c1-0.3,1.7-1.2,1.8-2.3c0-0.4,0-0.6-0.1-0.9c-0.3-0.9-1.2-1.5-2.2-1.4
		C512.8,545.7,424.9,555.9,406.5,558.3z"/>
	<path class="st10" d="M401.6,554.3c-8.1-12-24.4-19.6-38.5-15.6c-5.3,1.5-9.2,4.9-11.4,9.1c-2.1,4.3-2.4,9.6-0.2,14.7
		c4.2,10.1,16.5,15.6,27.1,12.6l35.2-9.8c0.5-0.2,0.8-0.7,0.7-1.2l-1.8-6.9c-0.1-0.5-0.7-0.9-1.3-0.9c-2.1,0-3.5,0.1-5.8,0.1
		C404,556.4,402.5,555.6,401.6,554.3z M390.1,556c1.9,3,2.2,6.5-1.2,7.5l-14,3.9c-5.7,1.6-12.2-1.3-14.8-6.6
		c-2.3-4.6-0.9-9.6,2.9-12.6C370.5,542.3,384.5,547.4,390.1,556z"/>
</g>
<path class="st11" d="M766.8,23.6l228.7,111.1c0.9,0.4,2.1,0.1,2.5-0.9l50.6-104.3c0.4-0.9,0.1-2.1-0.9-2.5L846.5-70.8l-27.4-13.3
	c-0.9-0.4-2.1-0.1-2.5,0.9l-24.2,49.8L766,21.1C765.5,22,765.9,23.1,766.8,23.6z"/>
<g>
	<path class="st12" d="M824-62l4.3-8.9c0.2-0.5,0-1.1-0.5-1.4l-6.9-3.4c-0.5-0.2-1.1,0-1.4,0.5l-4.3,8.9c-0.2,0.5,0,1.1,0.5,1.4
		l6.9,3.4C823.1-61.3,823.7-61.5,824-62z"/>
	<path class="st12" d="M782.9,22.6l4.3-8.9c0.2-0.5,0-1.1-0.5-1.4L779.8,9c-0.5-0.2-1.1,0-1.4,0.5l-4.3,8.9c-0.2,0.5,0,1.1,0.5,1.4
		l6.9,3.4C782,23.3,782.6,23.1,782.9,22.6z"/>
	<path class="st12" d="M841.6-53.4l4.3-8.9c0.2-0.5,0-1.1-0.5-1.4l-6.9-3.4c-0.5-0.2-1.1,0-1.4,0.5l-4.3,8.9c-0.2,0.5,0,1.1,0.5,1.4
		l6.9,3.4C840.7-52.7,841.3-52.9,841.6-53.4z"/>
	<path class="st12" d="M800.5,31.2l4.3-8.9c0.2-0.5,0-1.1-0.5-1.4l-6.9-3.4c-0.5-0.2-1.1,0-1.4,0.5l-4.3,8.9c-0.2,0.5,0,1.1,0.5,1.4
		l6.9,3.4C799.6,31.9,800.3,31.7,800.5,31.2z"/>
	<path class="st12" d="M859.2-44.9l4.3-8.9c0.2-0.5,0-1.1-0.5-1.4l-6.9-3.4c-0.5-0.2-1.1,0-1.4,0.5l-4.3,8.9c-0.2,0.5,0,1.1,0.5,1.4
		l6.9,3.4C858.3-44.2,858.9-44.4,859.2-44.9z"/>
	<path class="st12" d="M818.1,39.7l4.3-8.9c0.2-0.5,0-1.1-0.5-1.4L815,26c-0.5-0.2-1.1,0-1.4,0.5l-4.3,8.9c-0.2,0.5,0,1.1,0.5,1.4
		l6.9,3.4C817.3,40.4,817.9,40.2,818.1,39.7z"/>
	<path class="st12" d="M876.8-36.3l4.3-8.9c0.2-0.5,0-1.1-0.5-1.4l-6.9-3.4c-0.5-0.2-1.1,0-1.4,0.5l-4.3,8.9c-0.2,0.5,0,1.1,0.5,1.4
		l6.9,3.4C875.9-35.6,876.5-35.8,876.8-36.3z"/>
	<path class="st12" d="M835.7,48.3l4.3-8.9c0.2-0.5,0-1.1-0.5-1.4l-6.9-3.4c-0.5-0.2-1.1,0-1.4,0.5l-4.3,8.9c-0.2,0.5,0,1.1,0.5,1.4
		l6.9,3.4C834.9,49,835.5,48.8,835.7,48.3z"/>
	<path class="st12" d="M894.4-27.8l4.3-8.9c0.2-0.5,0-1.1-0.5-1.4l-6.9-3.4c-0.5-0.2-1.1,0-1.4,0.5l-4.3,8.9c-0.2,0.5,0,1.1,0.5,1.4
		l6.9,3.4C893.5-27.1,894.2-27.3,894.4-27.8z"/>
	<path class="st12" d="M853.3,56.8l4.3-8.9c0.2-0.5,0-1.1-0.5-1.4l-6.9-3.4c-0.5-0.2-1.1,0-1.4,0.5l-4.3,8.9c-0.2,0.5,0,1.1,0.5,1.4
		l6.9,3.4C852.5,57.5,853.1,57.3,853.3,56.8z"/>
	<path class="st12" d="M912-19.2l4.3-8.9c0.2-0.5,0-1.1-0.5-1.4l-6.9-3.4c-0.5-0.2-1.1,0-1.4,0.5l-4.3,8.9c-0.2,0.5,0,1.1,0.5,1.4
		l6.9,3.4C911.2-18.5,911.8-18.7,912-19.2z"/>
	<path class="st12" d="M870.9,65.4l4.3-8.9c0.2-0.5,0-1.1-0.5-1.4l-6.9-3.4c-0.5-0.2-1.1,0-1.4,0.5l-4.3,8.9c-0.2,0.5,0,1.1,0.5,1.4
		l6.9,3.4C870.1,66.1,870.7,65.9,870.9,65.4z"/>
	<path class="st12" d="M929.6-10.7l4.3-8.9c0.2-0.5,0-1.1-0.5-1.4l-6.9-3.4c-0.5-0.2-1.1,0-1.4,0.5l-4.3,8.9c-0.2,0.5,0,1.1,0.5,1.4
		l6.9,3.4C928.8-10,929.4-10.2,929.6-10.7z"/>
	<path class="st12" d="M888.6,73.9l4.3-8.9c0.2-0.5,0-1.1-0.5-1.4l-6.9-3.4c-0.5-0.2-1.1,0-1.4,0.5l-4.3,8.9c-0.2,0.5,0,1.1,0.5,1.4
		l6.9,3.4C887.7,74.6,888.3,74.4,888.6,73.9z"/>
	<path class="st12" d="M947.2-2.1l4.3-8.9c0.2-0.5,0-1.1-0.5-1.4l-6.9-3.4c-0.5-0.2-1.1,0-1.4,0.5l-4.3,8.9c-0.2,0.5,0,1.1,0.5,1.4
		l6.9,3.4C946.4-1.4,947-1.6,947.2-2.1z"/>
	<path class="st12" d="M906.2,82.5l4.3-8.9c0.2-0.5,0-1.1-0.5-1.4l-6.9-3.4c-0.5-0.2-1.1,0-1.4,0.5l-4.3,8.9c-0.2,0.5,0,1.1,0.5,1.4
		l6.9,3.4C905.3,83.2,905.9,83,906.2,82.5z"/>
	<path class="st12" d="M964.8,6.4l4.3-8.9c0.2-0.5,0-1.1-0.5-1.4l-6.9-3.4c-0.5-0.2-1.1,0-1.4,0.5L956,2.1c-0.2,0.5,0,1.1,0.5,1.4
		l6.9,3.4C964,7.1,964.6,6.9,964.8,6.4z"/>
	<path class="st12" d="M923.8,91l4.3-8.9c0.2-0.5,0-1.1-0.5-1.4l-6.9-3.4c-0.5-0.2-1.1,0-1.4,0.5l-4.3,8.9c-0.2,0.5,0,1.1,0.5,1.4
		l6.9,3.4C922.9,91.7,923.5,91.5,923.8,91z"/>
	<path class="st12" d="M982.5,15l4.3-8.9c0.2-0.5,0-1.1-0.5-1.4l-6.9-3.4c-0.5-0.2-1.1,0-1.4,0.5l-4.3,8.9c-0.2,0.5,0,1.1,0.5,1.4
		l6.9,3.4C981.6,15.7,982.2,15.5,982.5,15z"/>
	<path class="st12" d="M941.4,99.6l4.3-8.9c0.2-0.5,0-1.1-0.5-1.4l-6.9-3.4c-0.5-0.2-1.1,0-1.4,0.5l-4.3,8.9c-0.2,0.5,0,1.1,0.5,1.4
		l6.9,3.4C940.5,100.3,941.1,100.1,941.4,99.6z"/>
	<path class="st12" d="M1000.1,23.5l4.3-8.9c0.2-0.5,0-1.1-0.5-1.4L997,9.9c-0.5-0.2-1.1,0-1.4,0.5l-4.3,8.9c-0.2,0.5,0,1.1,0.5,1.4
		l6.9,3.4C999.2,24.2,999.8,24,1000.1,23.5z"/>
	<path class="st12" d="M959,108.1l4.3-8.9c0.2-0.5,0-1.1-0.5-1.4l-6.9-3.4c-0.5-0.2-1.1,0-1.4,0.5l-4.3,8.9c-0.2,0.5,0,1.1,0.5,1.4
		l6.9,3.4C958.1,108.8,958.8,108.6,959,108.1z"/>
	<path class="st12" d="M1017.7,32.1l4.3-8.9c0.2-0.5,0-1.1-0.5-1.4l-6.9-3.4c-0.5-0.2-1.1,0-1.4,0.5l-4.3,8.9
		c-0.2,0.5,0,1.1,0.5,1.4l6.9,3.4C1016.8,32.8,1017.4,32.6,1017.7,32.1z"/>
	<path class="st12" d="M976.6,116.7l4.3-8.9c0.2-0.5,0-1.1-0.5-1.4l-6.9-3.4c-0.5-0.2-1.1,0-1.4,0.5l-4.3,8.9
		c-0.2,0.5,0,1.1,0.5,1.4l6.9,3.4C975.8,117.4,976.4,117.2,976.6,116.7z"/>
	<path class="st12" d="M1035.3,40.6l4.3-8.9c0.2-0.5,0-1.1-0.5-1.4l-6.9-3.4c-0.5-0.2-1.1,0-1.4,0.5l-4.3,8.9
		c-0.2,0.5,0,1.1,0.5,1.4l6.9,3.4C1034.4,41.3,1035.1,41.1,1035.3,40.6z"/>
	<path class="st12" d="M994.2,125.2l4.3-8.9c0.2-0.5,0-1.1-0.5-1.4l-6.9-3.4c-0.5-0.2-1.1,0-1.4,0.5l-4.3,8.9
		c-0.2,0.5,0,1.1,0.5,1.4l6.9,3.4C993.4,125.9,994,125.7,994.2,125.2z"/>
</g>
<path class="st13" d="M783.5,3.2l48.9,23.7l14.8,7.2c0.9,0.5,2.1,0.1,2.5-0.9l8.2-16.9l20-41.2c0.5-0.9,0.1-2.1-0.9-2.5l-39.6-19.2
	l-24.1-11.7c-0.9-0.5-2.1-0.1-2.5,0.9l-3.5,7.2L782.6,0.7C782.2,1.6,782.6,2.7,783.5,3.2z"/>
<path class="st13" d="M860,40.3l6.8,3.3l56.9,27.6c0.9,0.5,2.1,0.1,2.5-0.9l2.4-4.9L946,29.8l5.5-11.4l3-6.1
	c0.5-0.9,0.1-2.1-0.9-2.5L947.7,7l-11-5.3L902.3-15l-12.5-6.1c-0.9-0.5-2.1-0.1-2.5,0.9l-24.7,51l-3.5,7.1
	C858.7,38.7,859.1,39.9,860,40.3z"/>
<path class="st13" d="M936.5,77.5l29.6,14.4l10.9,5.3l23.2,11.2c0.9,0.5,2.1,0.1,2.5-0.9l14.6-30.1l13.6-28c0.5-0.9,0.1-2.1-0.9-2.5
	l-26.9-13.1l-36.8-17.9c-0.9-0.5-2.1-0.1-2.5,0.9l-7.7,15.9l-5.5,11.4l-15,30.8C935.2,75.9,935.6,77,936.5,77.5z"/>
<linearGradient id="SVGID_3_" gradientUnits="userSpaceOnUse" x1="-3981.7949" y1="2892.0183" x2="-4034.2466" y2="3087.1562" gradientTransform="matrix(-1 0 0 1 -3060.385 -2994)">
	<stop  offset="0" style="stop-color:#264E80"/>
	<stop  offset="1" style="stop-color:#264E80;stop-opacity:0"/>
</linearGradient>
<path class="st14" d="M947.8,6.9l3.7,11.5l3-6.1c0.5-0.9,0.1-2.1-0.9-2.5L947.8,6.9z"/>
<path class="st11" d="M583-98.7l3.7,1L829-34.5c1,0.3,2-0.3,2.3-1.3L860.5-148c0.3-1-0.3-2-1.3-2.3l-52.4-13.6l-99.1-25.8
	l-94.6-24.6c-1-0.3-2,0.3-2.3,1.3l-8.5,32.6L581.7-101C581.4-100,582-99,583-98.7z"/>
<g>
	<path class="st12" d="M622.3-193.8l2.5-9.5c0.1-0.5-0.2-1.1-0.7-1.2l-7.5-1.9c-0.5-0.1-1.1,0.2-1.2,0.7l-2.5,9.5
		c-0.1,0.5,0.2,1.1,0.7,1.2l7.5,1.9C621.6-193,622.2-193.3,622.3-193.8z"/>
	<path class="st12" d="M598.6-102.8l2.5-9.5c0.1-0.5-0.2-1.1-0.7-1.2l-7.5-1.9c-0.5-0.1-1.1,0.2-1.2,0.7l-2.5,9.5
		c-0.1,0.5,0.2,1.1,0.7,1.2l7.5,1.9C597.9-102,598.5-102.3,598.6-102.8z"/>
	<path class="st12" d="M641.3-188.9l2.5-9.5c0.1-0.5-0.2-1.1-0.7-1.2l-7.5-1.9c-0.5-0.1-1.1,0.2-1.2,0.7l-2.5,9.5
		c-0.1,0.5,0.2,1.1,0.7,1.2l7.5,1.9C640.6-188,641.1-188.3,641.3-188.9z"/>
	<path class="st12" d="M617.6-97.9l2.5-9.5c0.1-0.5-0.2-1.1-0.7-1.2l-7.5-1.9c-0.5-0.1-1.1,0.2-1.2,0.7l-2.5,9.5
		c-0.1,0.5,0.2,1.1,0.7,1.2l7.5,1.9C616.9-97,617.4-97.4,617.6-97.9z"/>
	<path class="st12" d="M660.2-184l2.5-9.5c0.1-0.5-0.2-1.1-0.7-1.2l-7.5-1.9c-0.5-0.1-1.1,0.2-1.2,0.7l-2.5,9.5
		c-0.1,0.5,0.2,1.1,0.7,1.2l7.5,1.9C659.5-183.1,660.1-183.4,660.2-184z"/>
	<path class="st12" d="M636.5-93l2.5-9.5c0.1-0.5-0.2-1.1-0.7-1.2l-7.5-1.9c-0.5-0.1-1.1,0.2-1.2,0.7l-2.5,9.5
		c-0.1,0.5,0.2,1.1,0.7,1.2l7.5,1.9C635.8-92.1,636.4-92.4,636.5-93z"/>
	<path class="st12" d="M679.2-179l2.5-9.5c0.1-0.5-0.2-1.1-0.7-1.2l-7.5-1.9c-0.5-0.1-1.1,0.2-1.2,0.7l-2.5,9.5
		c-0.1,0.5,0.2,1.1,0.7,1.2l7.5,1.9C678.5-178.1,679-178.5,679.2-179z"/>
	<path class="st12" d="M655.4-88l2.5-9.5c0.1-0.5-0.2-1.1-0.7-1.2l-7.5-1.9c-0.5-0.1-1.1,0.2-1.2,0.7l-2.5,9.5
		c-0.1,0.5,0.2,1.1,0.7,1.2l7.5,1.9C654.7-87.1,655.3-87.5,655.4-88z"/>
	<path class="st12" d="M698.1-174.1l2.5-9.5c0.1-0.5-0.2-1.1-0.7-1.2l-7.5-1.9c-0.5-0.1-1.1,0.2-1.2,0.7l-2.5,9.5
		c-0.1,0.5,0.2,1.1,0.7,1.2l7.5,1.9C697.4-173.2,698-173.5,698.1-174.1z"/>
	<path class="st12" d="M674.4-83.1l2.5-9.5c0.1-0.5-0.2-1.1-0.7-1.2l-7.5-1.9c-0.5-0.1-1.1,0.2-1.2,0.7l-2.5,9.5
		c-0.1,0.5,0.2,1.1,0.7,1.2l7.5,1.9C673.7-82.2,674.2-82.5,674.4-83.1z"/>
	<path class="st12" d="M717.1-169.1l2.5-9.5c0.1-0.5-0.2-1.1-0.7-1.2l-7.5-1.9c-0.5-0.1-1.1,0.2-1.2,0.7l-2.5,9.5
		c-0.1,0.5,0.2,1.1,0.7,1.2l7.5,1.9C716.4-168.3,716.9-168.6,717.1-169.1z"/>
	<path class="st12" d="M693.3-78.1l2.5-9.5c0.1-0.5-0.2-1.1-0.7-1.2l-7.5-1.9c-0.5-0.1-1.1,0.2-1.2,0.7l-2.5,9.5
		c-0.1,0.5,0.2,1.1,0.7,1.2l7.5,1.9C692.6-77.3,693.2-77.6,693.3-78.1z"/>
	<path class="st12" d="M736-164.2l2.5-9.5c0.1-0.5-0.2-1.1-0.7-1.2l-7.5-1.9c-0.5-0.1-1.1,0.2-1.2,0.7l-2.5,9.5
		c-0.1,0.5,0.2,1.1,0.7,1.2l7.5,1.9C735.3-163.3,735.9-163.6,736-164.2z"/>
	<path class="st12" d="M712.3-73.2l2.5-9.5c0.1-0.5-0.2-1.1-0.7-1.2l-7.5-1.9c-0.5-0.1-1.1,0.2-1.2,0.7l-2.5,9.5
		c-0.1,0.5,0.2,1.1,0.7,1.2l7.5,1.9C711.6-72.3,712.1-72.7,712.3-73.2z"/>
	<path class="st12" d="M754.9-159.3l2.5-9.5c0.1-0.5-0.2-1.1-0.7-1.2l-7.5-1.9c-0.5-0.1-1.1,0.2-1.2,0.7l-2.5,9.5
		c-0.1,0.5,0.2,1.1,0.7,1.2l7.5,1.9C754.2-158.4,754.8-158.7,754.9-159.3z"/>
	<path class="st12" d="M731.2-68.3l2.5-9.5c0.1-0.5-0.2-1.1-0.7-1.2l-7.5-1.9c-0.5-0.1-1.1,0.2-1.2,0.7l-2.5,9.5
		c-0.1,0.5,0.2,1.1,0.7,1.2l7.5,1.9C730.5-67.4,731.1-67.7,731.2-68.3z"/>
	<path class="st12" d="M773.9-154.3l2.5-9.5c0.1-0.5-0.2-1.1-0.7-1.2l-7.5-1.9c-0.5-0.1-1.1,0.2-1.2,0.7l-2.5,9.5
		c-0.1,0.5,0.2,1.1,0.7,1.2l7.5,1.9C773.2-153.4,773.7-153.8,773.9-154.3z"/>
	<path class="st12" d="M750.2-63.3l2.5-9.5c0.1-0.5-0.2-1.1-0.7-1.2l-7.5-1.9c-0.5-0.1-1.1,0.2-1.2,0.7l-2.5,9.5
		c-0.1,0.5,0.2,1.1,0.7,1.2l7.5,1.9C749.5-62.4,750-62.8,750.2-63.3z"/>
	<path class="st12" d="M792.8-149.4l2.5-9.5c0.1-0.5-0.2-1.1-0.7-1.2l-7.5-1.9c-0.5-0.1-1.1,0.2-1.2,0.7l-2.5,9.5
		c-0.1,0.5,0.2,1.1,0.7,1.2l7.5,1.9C792.1-148.5,792.7-148.8,792.8-149.4z"/>
	<path class="st12" d="M769.1-58.4l2.5-9.5c0.1-0.5-0.2-1.1-0.7-1.2l-7.5-1.9c-0.5-0.1-1.1,0.2-1.2,0.7l-2.5,9.5
		c-0.1,0.5,0.2,1.1,0.7,1.2l7.5,1.9C768.4-57.5,769-57.8,769.1-58.4z"/>
	<path class="st12" d="M811.8-144.4l2.5-9.5c0.1-0.5-0.2-1.1-0.7-1.2l-7.5-1.9c-0.5-0.1-1.1,0.2-1.2,0.7l-2.5,9.5
		c-0.1,0.5,0.2,1.1,0.7,1.2l7.5,1.9C811.1-143.6,811.6-143.9,811.8-144.4z"/>
	<path class="st12" d="M788.1-53.4l2.5-9.5c0.1-0.5-0.2-1.1-0.7-1.2l-7.5-1.9c-0.5-0.1-1.1,0.2-1.2,0.7l-2.5,9.5
		c-0.1,0.5,0.2,1.1,0.7,1.2l7.5,1.9C787.4-52.6,787.9-52.9,788.1-53.4z"/>
	<path class="st12" d="M830.7-139.5l2.5-9.5c0.1-0.5-0.2-1.1-0.7-1.2l-7.5-1.9c-0.5-0.1-1.1,0.2-1.2,0.7l-2.5,9.5
		c-0.1,0.5,0.2,1.1,0.7,1.2l7.5,1.9C830-138.6,830.6-138.9,830.7-139.5z"/>
	<path class="st12" d="M807-48.5l2.5-9.5c0.1-0.5-0.2-1.1-0.7-1.2l-7.5-1.9c-0.5-0.1-1.1,0.2-1.2,0.7l-2.5,9.5
		c-0.1,0.5,0.2,1.1,0.7,1.2l7.5,1.9C806.3-47.6,806.9-48,807-48.5z"/>
	<path class="st12" d="M849.7-134.6l2.5-9.5c0.1-0.5-0.2-1.1-0.7-1.2l-7.5-1.9c-0.5-0.1-1.1,0.2-1.2,0.7l-2.5,9.5
		c-0.1,0.5,0.2,1.1,0.7,1.2l7.5,1.9C849-133.7,849.5-134,849.7-134.6z"/>
	<path class="st12" d="M825.9-43.6l2.5-9.5c0.1-0.5-0.2-1.1-0.7-1.2l-7.5-1.9c-0.5-0.1-1.1,0.2-1.2,0.7l-2.5,9.5
		c-0.1,0.5,0.2,1.1,0.7,1.2l7.5,1.9C825.2-42.7,825.8-43,825.9-43.6z"/>
</g>
<path class="st13" d="M595.4-122l52.6,13.7l15.9,4.1c1,0.3,2.1-0.3,2.3-1.3l4.7-18.2l11.6-44.3c0.3-1-0.3-2.1-1.3-2.3l-42.6-11.1
	l-25.9-6.8c-1-0.3-2,0.4-2.3,1.4l-2,7.7l-14.3,54.8C593.8-123.3,594.4-122.3,595.4-122z"/>
<path class="st13" d="M677.7-100.6l7.3,1.9l61.2,16c1,0.3,2.1-0.3,2.3-1.3l1.4-5.2l10-38.4l3.2-12.3l1.7-6.6c0.3-1-0.3-2.1-1.3-2.3
	l-6.3-1.6l-11.8-3.1l-37-9.7l-13.5-3.5c-1-0.3-2,0.4-2.3,1.4l-14.3,54.8l-2,7.7C676.1-101.8,676.7-100.8,677.7-100.6z"/>
<path class="st13" d="M760-79.1l31.8,8.3l11.8,3.1l24.9,6.5c1,0.3,2.1-0.3,2.3-1.3l8.4-32.4l7.9-30.1c0.3-1-0.3-2.1-1.3-2.3
	l-28.9-7.5l-39.6-10.3c-1-0.3-2,0.4-2.3,1.4l-4.5,17.1l-3.2,12.2l-8.6,33.2C758.4-80.4,759-79.4,760-79.1z"/>
<g>
	<g>
		<path class="st15" d="M420.8,662.6l-5.2-4.5c0,0,8.7-8.7,7.9-13.1c-0.3-1.5-1.6-6.6-2.4-9.4c-0.4-1.3-0.2-2.8,0.5-3.9
			c11.5-18.4,51.9-62.2,51.9-62.2c0.7-0.8,1.8-1,2.8-0.7c0.4,0.1,0.6,0.3,0.8,0.5c0.7,0.7,0.8,1.8,0.3,2.6
			C477.4,571.9,430.8,647,420.8,662.6z"/>
		<path class="st10" d="M422.1,664.3c1-2.1,1.6-3.3,2.6-5.2c0.3-0.5,0.1-1.2-0.3-1.5l-5.5-4.6c-0.4-0.4-1-0.3-1.4,0.1l-23.9,27.7
			c-7.2,8.3-7.4,21.7-0.1,29.9c3.7,4.1,8.5,6.1,13.4,6c4.8-0.1,9.5-2.2,13.1-6.4c9.6-11.1,9.7-29,2.3-41.5
			C421.5,667.4,421.4,665.7,422.1,664.3z M411.3,706.3c-4.4,2.2-9.5,1.3-12.7-2.7c-3.6-4.6-3.5-11.7,0.4-16.2l9.5-11
			c2.3-2.7,5.3-1,7.3,2.1C421.2,687.1,419.9,702,411.3,706.3z"/>
	</g>
	<path class="st9" d="M429.4,635.4c-1.3,0.4-2,1.7-1.6,3s1.7,2,3,1.6s2-1.7,1.6-3C432,635.8,430.7,635.1,429.4,635.4z"/>
</g>
<g>
	<path class="st10" d="M593.6,499.4l-2.5,5.4l14,6.4l2.5-5.4c1.8-3.9,0.1-8.4-3.8-10.2c-1.9-0.9-4-0.9-5.9-0.2
		C596.1,496.1,594.5,497.5,593.6,499.4z"/>
	<polygon class="st16" points="591.2,504.8 588.6,510.4 586,516.1 583.4,521.8 528.9,640.3 528.8,640.5 528.9,640.5 542.7,646.9 
		542.8,646.9 542.9,646.7 597.4,528.2 600,522.5 602.6,516.9 602.6,516.9 605.2,511.2 	"/>
	<polygon class="st15" points="591.2,504.8 588.6,510.4 602.6,516.9 602.6,516.9 605.2,511.2 	"/>
	
		<rect x="591.2" y="508.8" transform="matrix(0.4178 -0.9085 0.9085 0.4178 -123.2691 840.5947)" class="st11" width="6.2" height="15.4"/>
	
		<rect x="588.5" y="514.4" transform="matrix(0.4178 -0.9085 0.9085 0.4178 -129.9622 841.4425)" class="st15" width="6.2" height="15.4"/>
	<path class="st17" d="M528.9,640.3l-2.2,16.6l-0.5,3.5c-0.2,1.5,2.1,2.5,3.1,1.4l2.3-2.6l11.2-12.4L528.9,640.3z"/>
	<path d="M526.7,656.9l-0.5,3.5c-0.2,1.5,2.1,2.5,3.1,1.4l2.3-2.6L526.7,656.9z"/>
</g>
<g>
	<path class="st0" d="M203.6,388.9l79.3-90.1c0.7-0.8,0.6-2-0.2-2.8l-197.8-174c-0.8-0.7-2-0.6-2.8,0.2L2.8,212.2
		c-0.7,0.8-0.6,2,0.2,2.8l197.9,174C201.7,389.7,202.9,389.7,203.6,388.9z"/>
	<path class="st1" d="M25.3,199.2l42.3,37.2l12.7,11.3c0.8,0.7,2.1,0.6,2.8-0.2L96,233l31.4-35.7c0.7-0.8,0.6-2.1-0.2-2.8
		l-34.3-30.1L72.2,146c-0.8-0.7-2.1-0.6-2.8,0.2l-5.5,6.2l-38.8,44.1C24.4,197.3,24.6,198.5,25.3,199.2z"/>
	<path class="st1" d="M91.5,257.4l5.9,5.2l49.2,43.3c0.8,0.7,2.1,0.6,2.8-0.2l3.7-4.2l27.2-30.9l8.6-9.8l4.7-5.3
		c0.7-0.8,0.6-2.1-0.2-2.8l-5.1-4.5l-9.5-8.4l-29.7-26.1l-10.9-9.6c-0.8-0.7-2.1-0.6-2.8,0.2l-38.8,44.1l-5.4,6.2
		C90.6,255.4,90.7,256.7,91.5,257.4z"/>
	<path class="st1" d="M157.7,315.6l25.6,22.5l9.5,8.4l20,17.6c0.8,0.7,2.1,0.6,2.8-0.2l22.9-26l21.3-24.2c0.7-0.8,0.6-2.1-0.2-2.8
		l-23.2-20.5l-31.8-28c-0.8-0.7-2.1-0.6-2.8,0.2l-12.1,13.7l-8.6,9.8l-23.5,26.7C156.8,313.7,156.8,314.9,157.7,315.6z"/>
	
		<linearGradient id="SVGID_4_" gradientUnits="userSpaceOnUse" x1="-4063.9971" y1="2577.8999" x2="-4118.3511" y2="2780.1147" gradientTransform="matrix(-0.9639 -0.2664 -0.2664 0.9639 -3038.4949 -3435.3223)">
		<stop  offset="0" style="stop-color:#264E80"/>
		<stop  offset="1" style="stop-color:#264E80;stop-opacity:0"/>
	</linearGradient>
	<path class="st18" d="M188.3,248.2l0.5,12.6l4.7-5.3c0.7-0.8,0.6-2.1-0.2-2.8L188.3,248.2z"/>
	<path class="st3" d="M83.3,145.6l7.4-8.4c0.2-0.3,0.2-0.5-0.1-0.7l-6.7-5.9c-0.3-0.2-0.5-0.2-0.7,0.1l-7.4,8.5
		c-0.2,0.3-0.2,0.5,0.1,0.7l6.7,5.9C82.8,145.9,83.2,145.9,83.3,145.6z"/>
	<path class="st3" d="M19,218.8l7.4-8.5c0.2-0.3,0.2-0.5-0.1-0.7l-6.7-5.9c-0.3-0.2-0.5-0.2-0.7,0.1l-7.4,8.4
		c-0.2,0.3-0.2,0.5,0.1,0.7l6.7,5.9C18.4,219,18.9,219,19,218.8z"/>
	<path class="st3" d="M98.6,159l7.4-8.4c0.2-0.3,0.2-0.5-0.1-0.7l-6.7-5.9c-0.3-0.2-0.5-0.2-0.7,0.1l-7.5,8.4
		c-0.2,0.3-0.2,0.5,0.1,0.7l6.7,5.9C98,159.3,98.4,159.3,98.6,159z"/>
	<path class="st3" d="M34.2,232.2l7.4-8.4c0.2-0.3,0.2-0.5-0.1-0.7l-6.7-5.9c-0.3-0.2-0.5-0.2-0.7,0.1l-7.4,8.4
		c-0.2,0.3-0.2,0.5,0.1,0.7l6.7,5.9C33.7,232.5,34,232.4,34.2,232.2z"/>
	<path class="st3" d="M113.8,172.5l7.4-8.4c0.2-0.3,0.2-0.5-0.1-0.7l-6.7-5.9c-0.3-0.2-0.5-0.2-0.7,0.1l-7.4,8.4
		c-0.2,0.3-0.2,0.5,0.1,0.7l6.7,5.9C113.3,172.7,113.6,172.6,113.8,172.5z"/>
	<path class="st3" d="M49.4,245.6l7.4-8.4c0.2-0.3,0.2-0.5-0.1-0.7l-6.7-5.9c-0.3-0.2-0.5-0.2-0.7,0.1l-7.4,8.4
		c-0.2,0.3-0.2,0.5,0.1,0.7l6.7,5.9C49,245.9,49.2,245.8,49.4,245.6z"/>
	<path class="st3" d="M129,185.8l7.4-8.4c0.2-0.3,0.2-0.5-0.1-0.7l-6.7-5.9c-0.3-0.2-0.5-0.2-0.7,0.1l-7.4,8.4
		c-0.2,0.3-0.2,0.5,0.1,0.7l6.7,5.9C128.6,186.1,128.8,186.1,129,185.8z"/>
	<path class="st3" d="M64.7,259l7.4-8.4c0.2-0.3,0.2-0.5-0.1-0.7l-6.7-5.9c-0.3-0.2-0.5-0.2-0.7,0.1l-7.5,8.4
		c-0.2,0.3-0.2,0.5,0.1,0.7l6.7,5.9C64.2,259.2,64.5,259.2,64.7,259z"/>
	<path class="st3" d="M144.3,199.2l7.4-8.4c0.2-0.3,0.2-0.5-0.1-0.7l-6.7-5.9c-0.3-0.2-0.5-0.2-0.7,0.1l-7.4,8.4
		c-0.2,0.3-0.2,0.5,0.1,0.7l6.7,5.9C143.7,199.5,144.1,199.5,144.3,199.2z"/>
	<path class="st3" d="M80,272.3l7.4-8.4c0.2-0.3,0.2-0.5-0.1-0.7l-6.7-5.9c-0.3-0.2-0.5-0.2-0.7,0.1l-7.4,8.4
		c-0.2,0.3-0.2,0.5,0.1,0.7l6.7,5.9C79.3,272.6,79.7,272.6,80,272.3z"/>
	<path class="st3" d="M159.6,212.6l7.4-8.4c0.2-0.3,0.2-0.5-0.1-0.7l-6.7-5.9c-0.3-0.2-0.5-0.2-0.7,0.1L152,206
		c-0.2,0.3-0.2,0.5,0.1,0.7l6.7,5.9C158.9,212.9,159.3,212.9,159.6,212.6z"/>
	<path class="st3" d="M95.2,285.8l7.4-8.4c0.2-0.3,0.2-0.5-0.1-0.7l-6.7-5.9c-0.3-0.2-0.5-0.2-0.7,0.1l-7.4,8.4
		c-0.2,0.3-0.2,0.5,0.1,0.7l6.7,5.9C94.6,286.1,94.9,286,95.2,285.8z"/>
	<path class="st3" d="M174.8,226l7.4-8.4c0.2-0.3,0.2-0.5-0.1-0.7l-6.7-5.9c-0.3-0.2-0.5-0.2-0.7,0.1l-7.4,8.4
		c-0.2,0.3-0.2,0.5,0.1,0.7l6.7,5.9C174.2,226.3,174.6,226.2,174.8,226z"/>
	<path class="st3" d="M110.4,299.2l7.4-8.4c0.2-0.3,0.2-0.5-0.1-0.7l-6.7-5.9c-0.3-0.2-0.5-0.2-0.7,0.1l-7.4,8.4
		c-0.2,0.3-0.2,0.5,0.1,0.7l6.7,5.9C109.8,299.4,110.2,299.4,110.4,299.2z"/>
	<path class="st3" d="M190,239.4l7.4-8.4c0.2-0.3,0.2-0.5-0.1-0.7l-6.7-6c-0.3-0.2-0.5-0.2-0.7,0.1l-7.4,8.4
		c-0.2,0.3-0.2,0.5,0.1,0.7l6.7,5.9C189.4,239.7,189.8,239.7,190,239.4z"/>
	<path class="st3" d="M125.6,312.5l7.4-8.4c0.2-0.3,0.2-0.5-0.1-0.7l-6.7-5.9c-0.3-0.2-0.5-0.2-0.7,0.1l-7.4,8.4
		c-0.2,0.3-0.2,0.5,0.1,0.7l6.7,5.9C125,312.8,125.5,312.8,125.6,312.5z"/>
	<path class="st3" d="M205.2,252.8l7.4-8.4c0.2-0.3,0.2-0.5-0.1-0.7l-6.7-5.9c-0.3-0.2-0.5-0.2-0.7,0.1l-7.4,8.4
		c-0.2,0.3-0.2,0.5,0.1,0.7l6.7,5.9C204.7,253.1,205.1,253.1,205.2,252.8z"/>
	<path class="st3" d="M140.8,326l7.4-8.4c0.2-0.3,0.2-0.5-0.1-0.7l-6.7-6c-0.3-0.2-0.5-0.2-0.7,0.1l-7.5,8.4
		c-0.2,0.3-0.2,0.5,0.1,0.7l6.7,5.9C140.3,326.3,140.7,326.2,140.8,326z"/>
	<path class="st3" d="M220.4,266.2l7.4-8.4c0.2-0.3,0.2-0.5-0.1-0.7l-6.7-5.9c-0.3-0.2-0.5-0.2-0.7,0.1l-7.5,8.4
		c-0.2,0.3-0.2,0.5,0.1,0.7l6.7,5.9C219.9,266.5,220.2,266.4,220.4,266.2z"/>
	<path class="st3" d="M156.1,339.4l7.4-8.4c0.2-0.3,0.2-0.5-0.1-0.7l-6.7-5.9c-0.3-0.2-0.5-0.2-0.7,0.1l-7.4,8.5
		c-0.2,0.3-0.2,0.5,0.1,0.7l6.7,5.9C155.6,339.7,155.8,339.7,156.1,339.4z"/>
	<path class="st3" d="M235.7,279.7l7.4-8.4c0.2-0.3,0.2-0.5-0.1-0.7l-6.7-5.9c-0.3-0.2-0.5-0.2-0.7,0.1l-7.5,8.4
		c-0.2,0.3-0.2,0.5,0.1,0.7l6.7,5.9C235.2,279.9,235.5,279.9,235.7,279.7z"/>
	<path class="st3" d="M171.3,352.8l7.4-8.4c0.2-0.3,0.2-0.5-0.1-0.7l-6.7-5.9c-0.3-0.2-0.5-0.2-0.7,0.1l-7.4,8.4
		c-0.2,0.3-0.2,0.5,0.1,0.7l6.7,5.9C170.8,353,171.1,353,171.3,352.8z"/>
	<path class="st3" d="M251,293.1l7.4-8.4c0.2-0.3,0.2-0.5-0.1-0.7l-6.7-5.9c-0.3-0.2-0.5-0.2-0.7,0.1l-7.4,8.4
		c-0.2,0.3-0.2,0.5,0.1,0.7l6.7,5.9C250.4,293.3,250.7,293.3,251,293.1z"/>
	<path class="st3" d="M186.6,366.2l7.4-8.5c0.2-0.3,0.2-0.5-0.1-0.7l-6.7-5.9c-0.3-0.2-0.5-0.2-0.7,0.1l-7.5,8.4
		c-0.2,0.3-0.2,0.5,0.1,0.7l6.7,5.9C186,366.4,186.3,366.5,186.6,366.2z"/>
	<path class="st3" d="M266.2,306.5l7.4-8.4c0.2-0.3,0.2-0.5-0.1-0.7l-6.7-5.9c-0.3-0.2-0.5-0.2-0.7,0.1l-7.4,8.4
		c-0.2,0.3-0.2,0.5,0.1,0.7l6.7,5.9C265.6,306.6,265.9,306.7,266.2,306.5z"/>
	<path class="st3" d="M201.8,379.6l7.4-8.4c0.2-0.3,0.2-0.5-0.1-0.7l-6.7-6c-0.3-0.2-0.5-0.2-0.7,0.1l-7.4,8.4
		c-0.2,0.3-0.2,0.5,0.1,0.7l6.7,5.9C201.2,379.9,201.6,379.9,201.8,379.6z"/>
</g>
<g>
	<polygon class="st19" points="502.7,260.4 503,502 394.6,502.1 377.1,502.1 149.5,502.4 126.7,502.4 17.3,502.5 17,260.9 	"/>
	
		<rect x="17" y="260.7" transform="matrix(1 -1.062245e-03 1.062245e-03 1 -0.292 0.2762)" class="st8" width="485.7" height="28.6"/>
	<g>
		<path class="st8" d="M491.8,328.4l-463.7,0.5c-1.3,0-2.5-1-2.5-2.5l0,0c0-1.3,1-2.5,2.5-2.5l463.8-0.5c1.3,0,2.5,1,2.5,2.5l0,0
			C494.3,327.3,493.2,328.4,491.8,328.4z"/>
		<path class="st16" d="M473,326.8h4.2v-20c0-1.2-0.9-2.1-2.1-2.1l0,0c-1.2,0-2.1,0.9-2.1,2.1V326.8z"/>
		<path class="st16" d="M400.7,326.9h4.2v-20c0-1.2-0.9-2.1-2.1-2.1l0,0c-1.2,0-2.1,0.9-2.1,2.1V326.9z"/>
		<path class="st16" d="M328.4,327.1h4.2v-20c0-1.2-0.9-2.1-2.1-2.1l0,0c-1.2,0-2.1,0.9-2.1,2.1V327.1z"/>
		<path class="st16" d="M256.1,327.1h4.2v-20c0-1.2-0.9-2.1-2.1-2.1l0,0c-1.2,0-2.1,0.9-2.1,2.1V327.1z"/>
		<path class="st16" d="M183.7,327.2h4.2v-20c0-1.2-0.9-2.1-2.1-2.1l0,0c-1.2,0-2.1,0.9-2.1,2.1L183.7,327.2z"/>
		<path class="st16" d="M111.4,327.2h4.2v-20c0-1.2-0.9-2.1-2.1-2.1l0,0c-1.2,0-2.1,0.9-2.1,2.1V327.2z"/>
		<path class="st16" d="M39.1,327.3h4.2v-20c0-1.2-0.9-2.1-2.1-2.1l0,0c-1.2,0-2.1,0.9-2.1,2.1C39.1,307.3,39.1,327.3,39.1,327.3z"
			/>
		<path class="st16" d="M436.9,326.9h4.2v-10.7c0-1.2-0.9-2.1-2.1-2.1l0,0c-1.2,0-2.1,0.9-2.1,2.1V326.9z"/>
		<path class="st16" d="M364.5,326.9h4.2v-10.7c0-1.2-0.9-2.1-2.1-2.1l0,0c-1.2,0-2.1,0.9-2.1,2.1V326.9z"/>
		<path class="st16" d="M292.2,327.1h4.2v-10.7c0-1.2-0.9-2.1-2.1-2.1l0,0c-1.2,0-2.1,0.9-2.1,2.1V327.1z"/>
		<path class="st16" d="M219.8,327.1h4.2v-10.7c0-1.2-0.9-2.1-2.1-2.1l0,0c-1.2,0-2.1,0.9-2.1,2.1L219.8,327.1z"/>
		<path class="st16" d="M147.6,327.2h4.2v-10.7c0-1.2-0.9-2.1-2.1-2.1l0,0c-1.2,0-2.1,0.9-2.1,2.1L147.6,327.2z"/>
		<path class="st16" d="M75.2,327.3h4.2v-10.7c0-1.2-0.9-2.1-2.1-2.1l0,0c-1.2,0-2.1,0.9-2.1,2.1V327.3z"/>
	</g>
	
		<rect x="25.8" y="457.9" transform="matrix(1 -1.062010e-03 1.062010e-03 1 -0.5035 0.2766)" class="st0" width="468.8" height="32.6"/>
	<g>
		
			<rect x="25.6" y="350.5" transform="matrix(1 -1.062010e-03 1.062010e-03 1 -0.3894 0.2763)" class="st20" width="468.8" height="32.6"/>
		
			<rect x="34" y="358.4" transform="matrix(1 -1.062903e-03 1.062903e-03 1 -0.3899 0.201)" class="st8" width="309.8" height="17.1"/>
		<g>
			<g>
				<path class="st10" d="M350.8,341.2c0,4-3.1,7.3-7.2,7.3s-7.3-3.1-7.3-7.2s3.1-7.3,7.2-7.3C347.5,333.9,350.8,337.1,350.8,341.2z
					"/>
				<path class="st10" d="M344.3,381.1L344.3,381.1c0.7,0,1.2-0.5,1.2-1.3l-0.4-33.5h-2.5l0.4,33.5
					C343,380.5,343.6,381.1,344.3,381.1z"/>
			</g>
		</g>
	</g>
	
		<rect x="25.8" y="404.2" transform="matrix(1 -1.061926e-03 1.061926e-03 1 -0.4464 0.2766)" class="st0" width="468.8" height="32.6"/>
	<g>
		<polygon class="st1" points="143,411.1 143,430.1 136.2,420.6 		"/>
		<polygon class="st1" points="149.7,420.6 143,430.1 143,411.1 		"/>
	</g>
	<g>
		<polygon class="st1" points="174.7,411.1 174.7,430.1 168.1,420.6 		"/>
		<polygon class="st1" points="181.5,420.6 174.7,430.1 174.7,411.1 		"/>
	</g>
	<g>
		<polygon class="st1" points="388.1,410.8 388.2,429.9 381.4,420.3 		"/>
		<polygon class="st1" points="394.9,420.3 388.2,429.9 388.1,410.8 		"/>
	</g>
	<g>
		<polygon class="st1" points="282.1,463.6 282.1,482.7 275.3,473.2 		"/>
		<polygon class="st1" points="288.7,473.2 282.1,482.7 282.1,463.6 		"/>
	</g>
	<g>
		<polygon class="st1" points="44.3,465.5 44.3,484.5 37.5,475 		"/>
		<polygon class="st1" points="50.9,475 44.3,484.5 44.3,465.5 		"/>
	</g>
	<g>
		<polygon class="st1" points="79.5,411.1 79.5,423.5 72.7,411.1 		"/>
		<polygon class="st1" points="86.1,411.1 79.5,423.5 79.5,411.1 		"/>
		<polygon class="st1" points="79.5,430.2 79.5,418.4 72.7,430.4 		"/>
		<polygon class="st1" points="86.1,430.2 79.5,418.4 79.5,430.2 		"/>
	</g>
	<g>
		<polygon class="st1" points="290.3,411.1 290.4,423.5 283.6,411.1 		"/>
		<polygon class="st1" points="297,411.1 290.4,423.5 290.3,411.1 		"/>
		<polygon class="st1" points="290.4,430.2 290.3,418.2 283.6,430.2 		"/>
		<polygon class="st1" points="297,430.2 290.3,418.2 290.4,430.2 		"/>
	</g>
	<g>
		<polygon class="st1" points="467.5,464.3 467.5,476.7 460.7,464.4 		"/>
		<polygon class="st1" points="474.2,464.3 467.5,476.7 467.5,464.3 		"/>
		<polygon class="st1" points="467.5,483.6 467.5,471.6 460.7,483.6 		"/>
		<polygon class="st1" points="474.2,483.6 467.5,471.6 467.5,483.6 		"/>
	</g>
	<g>
		<polygon class="st1" points="330.6,464.5 330.6,476.8 323.9,464.5 		"/>
		<polygon class="st1" points="337.4,464.5 330.6,476.8 330.6,464.5 		"/>
		<polygon class="st1" points="330.6,483.7 330.6,471.7 323.9,483.7 		"/>
		<polygon class="st1" points="337.4,483.7 330.6,471.7 330.6,483.7 		"/>
	</g>
</g>
<g>
	<path class="st8" d="M499.5,65.7L277,111.4l-5.5-26.8c-0.3-1.5,0.6-2.8,2.1-3.1l220-45.1L499.5,65.7z"/>
	<polygon class="st21" points="321.8,71.5 308.5,74.2 280.4,110.6 293.7,107.9 	"/>
	<polygon class="st21" points="356.1,64.5 342.9,67.2 314.8,103.5 328,100.8 	"/>
	<polygon class="st21" points="390.4,57.4 377.2,60.1 349.1,96.5 362.3,93.8 	"/>
	<polygon class="st21" points="424.8,50.4 411.5,53.1 383.4,89.5 396.7,86.8 	"/>
	<polygon class="st21" points="459.2,43.3 445.9,46 417.8,82.4 431.1,79.7 	"/>
	<polygon class="st21" points="493.5,36.3 480.3,39 452.2,75.4 465.4,72.7 	"/>
	<path class="st0" d="M501.2,254.5l-222-0.4c-1.5,0-2.6-1.1-2.6-2.6l0.2-140.1l227.2,0.4l-0.2,140.1
		C503.8,253.3,502.6,254.5,501.2,254.5z"/>
	
		<rect x="375.3" y="13" transform="matrix(1.767078e-03 -1 1 1.767078e-03 263.0137 516.7758)" class="st8" width="30.1" height="227.2"/>
	<polygon class="st21" points="328.7,141.5 315.1,141.5 280.3,111.4 293.8,111.4 	"/>
	<polygon class="st21" points="363.7,141.6 350.2,141.6 315.4,111.4 328.9,111.5 	"/>
	<polygon class="st21" points="398.8,141.7 385.2,141.6 350.4,111.5 364,111.5 	"/>
	<polygon class="st21" points="433.9,141.7 420.3,141.7 385.5,111.6 399,111.6 	"/>
	<polygon class="st21" points="468.9,141.8 455.4,141.8 420.6,111.6 434.1,111.6 	"/>
	<polygon class="st21" points="504,141.8 490.4,141.8 455.6,111.7 469.2,111.7 	"/>
	<g>
		<path class="st1" d="M284.6,109.8c0.8,4.3-1.9,8.4-6.2,9.3c-4.3,0.8-8.4-1.9-9.3-6.2c-0.8-4.3,1.9-8.4,6.2-9.3
			C279.6,102.8,283.8,105.5,284.6,109.8z"/>
		<path class="st8" d="M280.5,110.6c0.4,2-0.8,3.9-2.8,4.3s-3.9-0.8-4.3-2.8s0.8-3.9,2.8-4.3C278.1,107.4,280.1,108.7,280.5,110.6z"
			/>
	</g>
	<g>
		<g>
			<line class="st22" x1="288.1" y1="154.1" x2="496.1" y2="154.5"/>
			<line class="st22" x1="288" y1="185.7" x2="496" y2="186.1"/>
			<line class="st22" x1="443.7" y1="154.4" x2="443.7" y2="186"/>
			<line class="st22" x1="340.4" y1="185.9" x2="340.4" y2="154.2"/>
		</g>
		<line class="st22" x1="288" y1="203.8" x2="364.6" y2="203.9"/>
		<line class="st22" x1="288" y1="214.5" x2="364.6" y2="214.6"/>
		<line class="st22" x1="288" y1="225.1" x2="328.5" y2="225.1"/>
		<line class="st22" x1="495.9" y1="244.6" x2="460.6" y2="244.5"/>
	</g>
</g>
</svg>
