<?xml version="1.0" encoding="utf-8"?>
<!-- Generator: Adobe Illustrator 25.2.0, SVG Export Plug-In . SVG Version: 6.00 Build 0)  -->
<svg version="1.1" id="Layer_1" xmlns="http://www.w3.org/2000/svg" xmlns:xlink="http://www.w3.org/1999/xlink" x="0px" y="0px"
	 viewBox="0 0 511.6 511.6" style="enable-background:new 0 0 511.6 511.6;" xml:space="preserve">
<style type="text/css">
	.st0{fill:#CCD1D9;}
	.st1{fill:#F5F7FA;}
	.st2{fill:#E6E9ED;}
	.st3{fill:#928BB7;}
	.st4{fill:#434A54;}
	.st5{fill:#F3ECFF;}
	.st6{fill:#B0A9DF;}
	.st7{fill:#FFFFFF;}
	.st8{fill:none;stroke:#FFFFFF;stroke-width:2;stroke-miterlimit:10;}
	.st9{fill:#CFC4E8;}
	.st10{fill:none;stroke:#25353E;stroke-width:3;stroke-miterlimit:10;}
	.st11{fill:#DEB59A;}
	.st12{fill:#FFCD65;}
	.st13{fill:#E04D4D;}
	.st14{fill:none;stroke:#25353E;stroke-width:1.6816;stroke-miterlimit:10;}
	.st15{fill:#B23838;}
	.st16{fill:none;stroke:#FFFFFF;stroke-width:1.7272;stroke-linecap:round;stroke-miterlimit:10;}
	.st17{fill:none;stroke:#25353E;stroke-width:1.7272;stroke-linecap:round;stroke-miterlimit:10;}
	.st18{fill:#5596AB;}
	.st19{fill:#25353E;}
	.st20{fill:#396E82;}
	.st21{fill:#FFDBBA;}
	.st22{fill:#FF9F49;}
	.st23{fill:#FF7575;}
</style>
<g>
	<polygon class="st0" points="-159.1,479.6 -367.5,479.6 -346.2,373.1 -180.4,373.1 	"/>
	<path class="st1" d="M-26.4,383.7c0,5.9-4.8,10.7-10.7,10.7h-490.3c-5.9,0-10.6-4.8-10.6-10.7V42.6c0-5.9,4.8-10.7,10.6-10.7h490.3
		c5.9,0,10.7,4.8,10.7,10.7L-26.4,383.7L-26.4,383.7z"/>
	<path class="st2" d="M-527.4,394.4h490.3c5.9,0,10.7-4.8,10.7-10.7v-53.3H-538v53.3C-538,389.6-533.2,394.4-527.4,394.4z"/>
	<g>
		<rect x="-495.4" y="245.1" class="st3" width="213.2" height="86.3"/>
		<rect x="-260.9" y="245.1" class="st3" width="213.2" height="86.3"/>
	</g>
	<path class="st4" d="M-271.6,362.4c0,5.9-4.8,10.6-10.6,10.6s-10.7-4.8-10.7-10.6c0-5.9,4.8-10.7,10.7-10.7
		C-276.3,351.7-271.6,356.5-271.6,362.4z"/>
	<rect x="-495.4" y="74.6" class="st5" width="426.3" height="149.2"/>
	<path class="st2" d="M-367.5,458.3c-5.9,0-10.6,4.7-10.6,10.6s4.8,10.6,10.6,10.6h197.7v-21.3L-367.5,458.3L-367.5,458.3z"/>
	<path class="st4" d="M-143.7,159.9h-277.1c-5.9,0-10.7-4.8-10.7-10.7s4.8-10.6,10.7-10.6h277.1c5.9,0,10.7,4.8,10.7,10.6
		C-133,155.1-137.8,159.9-143.7,159.9z"/>
	<rect x="-190.9" y="191.9" class="st5" width="147.7" height="170.6"/>
	<rect x="-190.9" y="362.4" class="st3" width="147.7" height="88"/>
	<g>
		<path class="st4" d="M-47.7,170.5h-138.5c-11.8,0-21.3,9.5-21.3,21.3v266.5c0,11.8,9.6,21.3,21.3,21.3h138.5
			c11.8,0,21.3-9.5,21.3-21.3V191.9C-26.4,180.1-35.9,170.5-47.7,170.5z M-47.7,458.3h-138.5V191.9h138.5
			C-47.7,191.9-47.7,458.3-47.7,458.3z"/>
		<rect x="-191.4" y="437" class="st4" width="149.1" height="26.9"/>
	</g>
	<path class="st2" d="M-106.4,458.3c0,5.9-4.8,10.6-10.7,10.6s-10.6-4.8-10.6-10.6c0-5.9,4.8-10.7,10.6-10.7
		S-106.4,452.4-106.4,458.3z"/>
	<path class="st4" d="M-79.7,287.8h-74.7c-5.9,0-10.7-4.8-10.7-10.6c0-5.9,4.8-10.6,10.7-10.6h74.7c5.9,0,10.7,4.7,10.7,10.6
		C-69.1,283-73.8,287.8-79.7,287.8z"/>
</g>
<image style="overflow:visible;enable-background:new    ;" width="1423" height="506" xlink:href="96161BE6.jpg"  transform="matrix(0.9992 0 0 0.9992 777.6762 619.9586)">
</image>
<path class="st6" d="M51.4,267.9c52.9-1,109.5-0.9,168.2,0c10,0,18.1-8,18.1-17.8c-1.2-43.7-0.9-102.4,0-166.2
	c0-9.8-8.1-17.8-18.1-17.8c-55.5,0.9-111.5,1-168.2,0c-10,0-18.1,8-18.1,17.8c1.4,48.6,1.1,105.5,0,166.2
	C33.3,259.9,41.4,267.9,51.4,267.9z"/>
<path class="st5" d="M117.2,225.4h93c5.7,0,9.5-5.9,6.9-11l-22.1-44l-15.9-31.5c-3.8-7.6-14.7-7.6-18.6,0l-8.6,17.3l-6.6,13.2
	L117.2,225.4z"/>
<path class="st5" d="M54.2,225.4h119.3l-28.2-56.1l-16.2-32.3l-9.9-19.8c-4.8-9.5-18.4-9.5-23.1,0l-16.1,32.1l-32.7,65
	C44.7,219.3,48.4,225.4,54.2,225.4z"/>
<path class="st4" d="M152.1,155.8c2.7,1.3,5.2,3.2,7.2,5.4c3.8,4,6.6,8.6,10.5,12.5c3.9,3.8,9.3,6.8,14.7,5.8
	c4.1-0.8,7.6-3.7,9.3-7.3c0.3-0.8,0.6-1.5,0.9-2.3l-15.7-31.2c-3.8-7.4-14.6-7.4-18.4,0L152.1,155.8z"/>
<path class="st4" d="M79.9,149.2c1.3,1.7,2.8,3.2,4.8,4.2c2.9,1.5,6.4,1.8,9.7,1.6c5.3-0.3,10.5-1.8,14.8-4.8c2.9-2.1,5.3-4.6,7.9-7
	c2.6-2.4,5.4-4.6,8.7-5.7c1.1-0.3,2.3-0.5,3.5-0.6l-9.9-19.8c-4.8-9.5-18.4-9.5-23.1,0L79.9,149.2z"/>
<path class="st4" d="M230.6,32.5l-51.2,61.6c-5.2,6.3-5.4,15-1,21.4l-6.3,7.2c-3.2,3.8,2.6,8.9,5.8,5.1l6-7
	c7.2,4.2,16.6,2.8,22.3-3.8l52.1-60.6L230.6,32.5z"/>
<path class="st4" d="M202.2,87c-5.1,0.5-10.3,1.1-15.3,1.4l-5.8,7c-4.5,5.4-4.9,13.2-0.9,18.9l0.9,1.3l-7.2,8.4
	c-0.5,0.5-0.6,1.2-0.3,1.8c0.4,0.8,1.3,1.3,1.9,1.2c0.4,0,0.8-0.2,1.1-0.6l7.1-8.3l1.4,0.9c2.7,1.6,5.9,2.3,9.1,2.1l0,0
	c4.2-0.3,8-2.3,10.7-5.4l28.4-33C222.9,84.5,212.6,85.9,202.2,87z"/>
<path class="st4" d="M262.1,53.3l-29.8-25.6c-3.8-3.2-8.9,2.6-5.1,5.8l29.8,25.6C260.9,62.4,266,56.6,262.1,53.3z"/>
<path class="st4" d="M273.1,11.2c-6.6-5.6-16.5-4.9-22.1,1.6l-15.2,17.8l23.9,20.5l15.2-17.7C280.5,26.8,279.7,16.9,273.1,11.2z"/>
<path class="st4" d="M478.6,54.2c0-11.5-9.3-20.7-20.7-20.7c-48.8,0.8-97.2,1-145.1,0.6c-3.7,4-7.4,8-11.1,12
	c-6.9,7.4-13.7,14.7-20.9,21.8c-7,7.1-13.6,14.4-20.7,21.5c-5,4.9-10.5,9.6-15.1,14.8c0.5,54.5,0.5,103.8-0.6,142.9
	c0,11.5,9.3,20.7,20.7,20.7c67.3-1,132.2-1.1,192.7,0c11.5,0,20.7-9.3,20.7-20.7C477.4,176.6,477.1,110.5,478.6,54.2z"/>
<path class="st7" d="M306.2,108.9V136c13.3-0.4,26.4-0.7,39.2-0.8v67.3h32.2v-67.3c12.7,0.1,25.8,0.3,39.3,0.8v-27.1L306.2,108.9
	L306.2,108.9z"/>
<rect x="296.7" y="78.3" class="st8" width="129.6" height="154.7"/>
<rect x="417.7" y="69.7" class="st7" width="17.1" height="17.1"/>
<rect x="288.1" y="69.7" class="st7" width="17.1" height="17.1"/>
<rect x="417.7" y="224.4" class="st7" width="17.1" height="17.1"/>
<rect x="288.1" y="224.4" class="st7" width="17.1" height="17.1"/>
<path class="st7" d="M312.7,34.1l2.2,41.2c0.9,16.4-12.4,29.9-28.7,29.7l-41.2-0.8L312.7,34.1z"/>
<path class="st5" d="M880.7,198.8c-56.2-1-116.2-0.9-178.5,0c-10.6,0-19.2-8.6-19.2-19.2c1.3-46.9,1-110,0-178.5
	c0-10.6,8.6-19.2,19.2-19.2c58.9,0.9,118.4,1,178.5,0c10.6,0,19.2,8.6,19.2,19.2c-1.5,52.1-1.1,113.3,0,178.5
	C899.9,190.2,891.3,198.8,880.7,198.8z"/>
<path class="st9" d="M804.6,51.1h-87.1c-6.6,0-12,5.4-12,12v87.1c0,6.6,5.4,12,12,12h87.1c6.6,0,12-5.4,12-12V63.1
	C816.7,56.4,811.3,51.1,804.6,51.1z"/>
<path class="st6" d="M-41.8,626.3l-49.9-86.4c-5.8-10.1-20.4-10.1-26.2,0l-49.9,86.4c-5.8,10.1,1.5,22.7,13.1,22.7h99.8
	C-43.2,648.9-36,636.4-41.8,626.3z"/>
<ellipse transform="matrix(0.2311 -0.9729 0.9729 0.2311 535.0078 770.2337)" class="st4" cx="754.8" cy="46.6" rx="40.9" ry="40.9"/>
<g>
	<line class="st10" x1="844.9" y1="131.7" x2="877.3" y2="131.7"/>
	<line class="st10" x1="833.2" y1="140.7" x2="877.3" y2="140.7"/>
	<line class="st10" x1="833.2" y1="149.6" x2="877.3" y2="149.6"/>
</g>
<g>
	<path class="st11" d="M564.9,890.1c0,9.5-7.7,17.2-17.2,17.2c-50.2-0.9-103.9-0.8-159.7,0c-9.5,0-17.2-7.7-17.2-17.2
		c1-37,0.9-85.3,0.3-138.2c-0.1-7.1-0.2-14.3-0.3-21.5c0-9.5,7.7-17.2,17.2-17.2c52.7,0.8,105.9,0.9,159.7,0
		c9.5,0,17.2,7.7,17.2,17.2c-0.2,7-0.4,14.2-0.5,21.5C563.7,793.5,564,840.5,564.9,890.1z"/>
	<path class="st12" d="M564.9,730.4c-0.2,7-0.4,14.2-0.5,21.5H371.1c-0.1-7.1-0.2-14.3-0.3-21.5c0-9.5,7.7-17.2,17.2-17.2
		c52.7,0.8,105.9,0.9,159.7,0C557.2,713.2,564.9,720.9,564.9,730.4z"/>
	<g>
		<circle class="st13" cx="467.9" cy="813.2" r="39.7"/>
		<path class="st7" d="M459.9,833.4l27.6-15.9c3.2-1.9,3.2-6.5,0-8.4l-27.6-15.9c-3.2-1.9-7.3,0.5-7.3,4.2v31.9
			C452.7,832.9,456.7,835.2,459.9,833.4z"/>
	</g>
	<line class="st14" x1="394" y1="873" x2="541.7" y2="873"/>
	<rect x="413.6" y="868.8" class="st15" width="8.3" height="8.3"/>
</g>
<path class="st5" d="M34.8,475.6c1.2-60.4,1.1-120.8,0-181.4c0-10.8,9.2-19.5,20.4-19.5c79.3,1.9,307.2,1.6,401.1,0
	c11.2,0,20.4,8.8,20.4,19.5c-1.2,47.2-0.8,111.5,0,181.4c0,10.8-9.2,19.5-20.4,19.5c-90.6-1.5-317.9-1.7-401.1,0
	C44,495.1,34.8,486.4,34.8,475.6z"/>
<path class="st6" d="M74.1,446.1h108.4l-46.2-79.4c-3.5-6-12.5-6-16.1,0L74.1,446.1z"/>
<path class="st4" d="M131.4,446.1h142.5l-63.2-108.6c-3.5-6-12.5-6-16.1,0L131.4,446.1z"/>
<ellipse class="st4" cx="98.6" cy="329.7" rx="24.4" ry="23.4"/>
<line class="st16" x1="298" y1="314.4" x2="298" y2="455.5"/>
<ellipse class="st6" cx="356.8" cy="368.3" rx="39.4" ry="37.8"/>
<ellipse class="st1" cx="415.4" cy="410.9" rx="39.4" ry="37.8"/>
<path class="st17" d="M345.4,358.5c8.7-2.4,18.4,0,25.8,5c7.4,5,12.9,12.3,17,20.1c3.1,5.7,5.5,11.8,8.6,17.5
	c3.1,5.7,7,11.3,12.2,15.2c5.4,4,12.3,6.3,19,5"/>
<g>
	<path class="st18" d="M857.2,577.2c-47.6-0.9-98.4-0.7-151.2,0c-9,0-16.3-7.3-16.3-16.3c1.1-39.8,0.8-93.2,0-151.2
		c0-9,7.3-16.3,16.3-16.3c49.9,0.8,100.3,0.9,151.2,0c9,0,16.3,7.3,16.3,16.3c-1.2,44.2-1,96,0,151.2
		C873.4,569.9,866.1,577.2,857.2,577.2z"/>
	<g>
		<path class="st19" d="M798,538.4h-83.6c-5.2,0-8.5-5.4-6.2-10.1l19.9-40l14.2-28.7c3.4-6.9,13.2-6.9,16.6,0l7.8,15.7l6,12
			L798,538.4z"/>
		<path class="st19" d="M854.6,538.4H747.4l25.3-51.1l14.6-29.4l8.9-18c4.3-8.6,16.5-8.6,20.8,0l14.5,29.2l29.4,59.2
			C863.2,533,859.8,538.4,854.6,538.4z"/>
		<path class="st7" d="M766.8,475.3c-2.5,1.2-4.7,3-6.6,5c-3.4,3.6-6,8-9.5,11.5s-8.4,6.2-13.3,5.4c-3.7-0.7-6.9-3.4-8.5-6.8
			c-0.3-0.7-0.6-1.4-0.7-2.1l14.2-28.7c3.4-6.9,13.2-6.9,16.6,0L766.8,475.3z"/>
		<path class="st20" d="M831.5,469.1c-1.1,1.6-2.5,2.9-4.3,3.8c-2.6,1.4-5.7,1.7-8.7,1.5c-4.7-0.3-9.4-1.7-13.3-4.4
			c-2.6-1.8-4.7-4.2-7-6.4c-2.3-2.2-4.8-4.2-7.8-5.2c-1-0.3-2-0.5-3.1-0.6l8.9-18c4.3-8.6,16.5-8.6,20.8,0L831.5,469.1z"/>
	</g>
	<g>
		<path class="st21" d="M825.5,338.7l-60.6,72.9c-6.2,7.4-6.4,17.7-1.2,25.3l-7.4,8.6c-3.8,4.5,3.1,10.4,6.9,6l7.2-8.3
			c8.6,5,19.7,3.3,26.4-4.4l61.6-71.6L825.5,338.7z"/>
		<path class="st22" d="M791.8,403c-6,0.6-12.1,1.3-18.2,1.7l-6.9,8.3c-5.3,6.4-5.7,15.6-1,22.4l1,1.5l-8.6,10
			c-0.6,0.7-0.7,1.4-0.3,2.1c0.4,0.9,1.5,1.5,2.3,1.5c0.5,0,0.9-0.3,1.3-0.7l8.5-9.9l1.7,1c3.2,1.9,7,2.7,10.7,2.5l0,0
			c4.9-0.4,9.4-2.6,12.6-6.4l33.6-39.1C816.4,400.1,804.1,401.8,791.8,403z"/>
		<path class="st23" d="M862.7,363.2l-35.2-30.3c-4.5-3.8-10.4,3.1-6,6.9l35.2,30.3C861.2,374,867.2,367.1,862.7,363.2z"/>
		<path class="st13" d="M875.7,313.5c-7.8-6.7-19.5-5.8-26.2,2l-18,20.9l28.2,24.2l18-20.9C884.4,331.9,883.5,320.2,875.7,313.5z"/>
	</g>
</g>
</svg>
