<?xml version="1.0" encoding="utf-8"?>
<!-- Generator: Adobe Illustrator 25.2.0, SVG Export Plug-In . SVG Version: 6.00 Build 0)  -->
<svg version="1.1" id="Layer_1" xmlns="http://www.w3.org/2000/svg" xmlns:xlink="http://www.w3.org/1999/xlink" x="0px" y="0px"
	 viewBox="0 0 511.6 511.6" style="enable-background:new 0 0 511.6 511.6;" xml:space="preserve">
<style type="text/css">
	.st0{fill:#CCD1D9;}
	.st1{fill:#F5F7FA;}
	.st2{fill:#E6E9ED;}
	.st3{fill:#928BB7;}
	.st4{fill:#434A54;}
	.st5{fill:#F3ECFF;}
	.st6{fill:#B0A9DF;}
	.st7{fill:#FFFFFF;}
	.st8{fill:none;stroke:#FFFFFF;stroke-width:2;stroke-miterlimit:10;}
	.st9{fill:#CFC4E8;}
	.st10{fill:none;stroke:#25353E;stroke-width:3;stroke-miterlimit:10;}
	.st11{fill:#DEB59A;}
	.st12{fill:#FFCD65;}
	.st13{fill:#E04D4D;}
	.st14{fill:none;stroke:#25353E;stroke-width:1.6816;stroke-miterlimit:10;}
	.st15{fill:#B23838;}
	.st16{fill:none;stroke:#FFFFFF;stroke-width:1.7272;stroke-linecap:round;stroke-miterlimit:10;}
	.st17{fill:none;stroke:#25353E;stroke-width:1.7272;stroke-linecap:round;stroke-miterlimit:10;}
	.st18{fill:#5596AB;}
	.st19{fill:#25353E;}
	.st20{fill:#396E82;}
	.st21{fill:#FFDBBA;}
	.st22{fill:#FF9F49;}
	.st23{fill:#FF7575;}
	.st24{fill:#928BB7;stroke:#434A54;stroke-width:7;stroke-miterlimit:10;}
</style>
<g>
	<polygon class="st0" points="-159.1,479.6 -367.5,479.6 -346.2,373.1 -180.4,373.1 	"/>
	<path class="st1" d="M-26.4,383.7c0,5.9-4.8,10.7-10.7,10.7h-490.3c-5.9,0-10.6-4.8-10.6-10.7V42.6c0-5.9,4.8-10.7,10.6-10.7h490.3
		c5.9,0,10.7,4.8,10.7,10.7L-26.4,383.7L-26.4,383.7z"/>
	<path class="st2" d="M-527.4,394.4h490.3c5.9,0,10.7-4.8,10.7-10.7v-53.3H-538v53.3C-538,389.6-533.2,394.4-527.4,394.4z"/>
	<g>
		<rect x="-495.4" y="245.1" class="st3" width="213.2" height="86.3"/>
		<rect x="-260.9" y="245.1" class="st3" width="213.2" height="86.3"/>
	</g>
	<path class="st4" d="M-271.6,362.4c0,5.9-4.8,10.6-10.6,10.6s-10.7-4.8-10.7-10.6c0-5.9,4.8-10.7,10.7-10.7
		C-276.3,351.7-271.6,356.5-271.6,362.4z"/>
	<rect x="-495.4" y="74.6" class="st5" width="426.3" height="149.2"/>
	<path class="st2" d="M-367.5,458.3c-5.9,0-10.6,4.7-10.6,10.6s4.8,10.6,10.6,10.6h197.7v-21.3L-367.5,458.3L-367.5,458.3z"/>
	<path class="st4" d="M-143.7,159.9h-277.1c-5.9,0-10.7-4.8-10.7-10.7s4.8-10.6,10.7-10.6h277.1c5.9,0,10.7,4.8,10.7,10.6
		C-133,155.1-137.8,159.9-143.7,159.9z"/>
	<rect x="-190.9" y="191.9" class="st5" width="147.7" height="170.6"/>
	<rect x="-190.9" y="362.4" class="st3" width="147.7" height="88"/>
	<g>
		<path class="st4" d="M-47.7,170.5h-138.5c-11.8,0-21.3,9.5-21.3,21.3v266.5c0,11.8,9.6,21.3,21.3,21.3h138.5
			c11.8,0,21.3-9.5,21.3-21.3V191.9C-26.4,180.1-35.9,170.5-47.7,170.5z M-47.7,458.3h-138.5V191.9h138.5
			C-47.7,191.9-47.7,458.3-47.7,458.3z"/>
		<rect x="-191.4" y="437" class="st4" width="149.1" height="26.9"/>
	</g>
	<path class="st2" d="M-106.4,458.3c0,5.9-4.8,10.6-10.7,10.6s-10.6-4.8-10.6-10.6c0-5.9,4.8-10.7,10.6-10.7
		S-106.4,452.4-106.4,458.3z"/>
	<path class="st4" d="M-79.7,287.8h-74.7c-5.9,0-10.7-4.8-10.7-10.6c0-5.9,4.8-10.6,10.7-10.6h74.7c5.9,0,10.7,4.7,10.7,10.6
		C-69.1,283-73.8,287.8-79.7,287.8z"/>
</g>
<image style="overflow:visible;enable-background:new    ;" width="1423" height="506" xlink:href="96161BE6.jpg"  transform="matrix(0.9992 0 0 0.9992 777.6762 619.9586)">
</image>
<path class="st6" d="M-926,692.2c52.9-1,109.5-0.9,168.2,0c10,0,18.1-8,18.1-17.8c-1.2-43.7-0.9-102.4,0-166.2
	c0-9.8-8.1-17.8-18.1-17.8c-55.5,0.9-111.5,1-168.2,0c-10,0-18.1,8-18.1,17.8c1.4,48.6,1.1,105.5,0,166.2
	C-944.1,684.2-936,692.2-926,692.2z"/>
<path class="st5" d="M-860.2,649.7h93c5.7,0,9.5-5.9,6.9-11l-22.1-44l-15.9-31.5c-3.8-7.6-14.7-7.6-18.6,0l-8.6,17.3l-6.6,13.2
	L-860.2,649.7z"/>
<path class="st5" d="M-923.2,649.7h119.3l-28.2-56.1l-16.2-32.3l-9.9-19.8c-4.8-9.5-18.4-9.5-23.1,0l-16.1,32.1l-32.7,65
	C-932.7,643.6-929,649.7-923.2,649.7z"/>
<path class="st4" d="M-825.3,580.1c2.7,1.3,5.2,3.2,7.2,5.4c3.8,4,6.6,8.6,10.5,12.5c3.9,3.8,9.3,6.8,14.7,5.8
	c4.1-0.8,7.6-3.7,9.3-7.3c0.3-0.8,0.6-1.5,0.9-2.3l-15.7-31.2c-3.8-7.4-14.6-7.4-18.4,0L-825.3,580.1z"/>
<path class="st4" d="M-897.5,573.5c1.3,1.7,2.8,3.2,4.8,4.2c2.9,1.5,6.4,1.8,9.7,1.6c5.3-0.3,10.5-1.8,14.8-4.8
	c2.9-2.1,5.3-4.6,7.9-7c2.6-2.4,5.4-4.6,8.7-5.7c1.1-0.3,2.3-0.5,3.5-0.6l-9.9-19.8c-4.8-9.5-18.4-9.5-23.1,0L-897.5,573.5z"/>
<path class="st4" d="M-746.8,456.8l-51.2,61.6c-5.2,6.3-5.4,15-1,21.4l-6.3,7.2c-3.2,3.8,2.6,8.9,5.8,5.1l6-7
	c7.2,4.2,16.6,2.8,22.3-3.8l52.1-60.6L-746.8,456.8z"/>
<path class="st4" d="M-775.2,511.3c-5.1,0.5-10.3,1.1-15.3,1.4l-5.8,7c-4.5,5.4-4.9,13.2-0.9,18.9l0.9,1.3l-7.2,8.4
	c-0.5,0.5-0.6,1.2-0.3,1.8c0.4,0.8,1.3,1.3,1.9,1.2c0.4,0,0.8-0.2,1.1-0.6l7.1-8.3l1.4,0.9c2.7,1.6,5.9,2.3,9.1,2.1l0,0
	c4.2-0.3,8-2.3,10.7-5.4l28.4-33C-754.5,508.8-764.8,510.2-775.2,511.3z"/>
<path class="st4" d="M-715.3,477.6l-29.8-25.6c-3.8-3.2-8.9,2.6-5.1,5.8l29.8,25.6C-716.5,486.7-711.4,480.9-715.3,477.6z"/>
<path class="st4" d="M-704.3,435.5c-6.6-5.6-16.5-4.9-22.1,1.6l-15.2,17.8l23.9,20.5l15.2-17.7
	C-696.9,451.1-697.7,441.2-704.3,435.5z"/>
<path class="st4" d="M-498.8,478.5c0-11.5-9.3-20.7-20.7-20.7c-48.8,0.8-97.2,1-145.1,0.6c-3.7,4-7.4,8-11.1,12
	c-6.9,7.4-13.7,14.7-20.9,21.8c-7,7.1-13.6,14.4-20.7,21.5c-5,4.9-10.5,9.6-15.1,14.8c0.5,54.5,0.5,103.8-0.6,142.9
	c0,11.5,9.3,20.7,20.7,20.7c67.3-1,132.2-1.1,192.7,0c11.5,0,20.7-9.3,20.7-20.7C-500,600.9-500.3,534.8-498.8,478.5z"/>
<path class="st7" d="M-671.2,533.2v27.1c13.3-0.4,26.4-0.7,39.2-0.8v67.3h32.2v-67.3c12.7,0.1,25.8,0.3,39.3,0.8v-27.1H-671.2
	L-671.2,533.2z"/>
<rect x="-680.7" y="502.6" class="st8" width="129.6" height="154.7"/>
<rect x="-559.7" y="494" class="st7" width="17.1" height="17.1"/>
<rect x="-689.3" y="494" class="st7" width="17.1" height="17.1"/>
<rect x="-559.7" y="648.7" class="st7" width="17.1" height="17.1"/>
<rect x="-689.3" y="648.7" class="st7" width="17.1" height="17.1"/>
<path class="st7" d="M-664.7,458.4l2.2,41.2c0.9,16.4-12.4,29.9-28.7,29.7l-41.2-0.8L-664.7,458.4z"/>
<path class="st5" d="M880.7,198.8c-56.2-1-116.2-0.9-178.5,0c-10.6,0-19.2-8.6-19.2-19.2c1.3-46.9,1-110,0-178.5
	c0-10.6,8.6-19.2,19.2-19.2c58.9,0.9,118.4,1,178.5,0c10.6,0,19.2,8.6,19.2,19.2c-1.5,52.1-1.1,113.3,0,178.5
	C899.9,190.2,891.3,198.8,880.7,198.8z"/>
<path class="st9" d="M804.6,51.1h-87.1c-6.6,0-12,5.4-12,12v87.1c0,6.6,5.4,12,12,12h87.1c6.6,0,12-5.4,12-12V63.1
	C816.7,56.4,811.3,51.1,804.6,51.1z"/>
<path class="st6" d="M-41.8,626.3l-49.9-86.4c-5.8-10.1-20.4-10.1-26.2,0l-49.9,86.4c-5.8,10.1,1.5,22.7,13.1,22.7h99.8
	C-43.2,648.9-36,636.4-41.8,626.3z"/>
<ellipse transform="matrix(0.2311 -0.9729 0.9729 0.2311 534.9695 770.2675)" class="st4" cx="754.8" cy="46.7" rx="40.9" ry="40.9"/>
<g>
	<line class="st10" x1="844.9" y1="131.7" x2="877.3" y2="131.7"/>
	<line class="st10" x1="833.2" y1="140.7" x2="877.3" y2="140.7"/>
	<line class="st10" x1="833.2" y1="149.6" x2="877.3" y2="149.6"/>
</g>
<g>
	<path class="st11" d="M564.9,890.1c0,9.5-7.7,17.2-17.2,17.2c-50.2-0.9-103.9-0.8-159.7,0c-9.5,0-17.2-7.7-17.2-17.2
		c1-37,0.9-85.3,0.3-138.2c-0.1-7.1-0.2-14.3-0.3-21.5c0-9.5,7.7-17.2,17.2-17.2c52.7,0.8,105.9,0.9,159.7,0
		c9.5,0,17.2,7.7,17.2,17.2c-0.2,7-0.4,14.2-0.5,21.5C563.7,793.5,564,840.5,564.9,890.1z"/>
	<path class="st12" d="M564.9,730.4c-0.2,7-0.4,14.2-0.5,21.5H371.1c-0.1-7.1-0.2-14.3-0.3-21.5c0-9.5,7.7-17.2,17.2-17.2
		c52.7,0.8,105.9,0.9,159.7,0C557.2,713.2,564.9,720.9,564.9,730.4z"/>
	<g>
		<circle class="st13" cx="467.9" cy="813.2" r="39.7"/>
		<path class="st7" d="M459.9,833.4l27.6-15.9c3.2-1.9,3.2-6.5,0-8.4l-27.6-15.9c-3.2-1.9-7.3,0.5-7.3,4.2v31.9
			C452.7,832.9,456.7,835.2,459.9,833.4z"/>
	</g>
	<line class="st14" x1="394" y1="873" x2="541.7" y2="873"/>
	<rect x="413.6" y="868.8" class="st15" width="8.3" height="8.3"/>
</g>
<path class="st5" d="M-942.6,899.9c1.2-60.4,1.1-120.8,0-181.4c0-10.8,9.2-19.5,20.4-19.5c79.3,1.9,307.2,1.6,401.1,0
	c11.2,0,20.4,8.8,20.4,19.5c-1.2,47.2-0.8,111.5,0,181.4c0,10.8-9.2,19.5-20.4,19.5c-90.6-1.5-317.9-1.7-401.1,0
	C-933.4,919.4-942.6,910.7-942.6,899.9z"/>
<path class="st6" d="M-903.3,870.4h108.4l-46.2-79.4c-3.5-6-12.5-6-16.1,0L-903.3,870.4z"/>
<path class="st4" d="M-846,870.4h142.5l-63.2-108.6c-3.5-6-12.5-6-16.1,0L-846,870.4z"/>
<ellipse class="st4" cx="-878.8" cy="754" rx="24.4" ry="23.4"/>
<line class="st16" x1="-679.4" y1="738.7" x2="-679.4" y2="879.8"/>
<ellipse class="st6" cx="-620.6" cy="792.6" rx="39.4" ry="37.8"/>
<ellipse class="st1" cx="-562" cy="835.2" rx="39.4" ry="37.8"/>
<path class="st17" d="M-632,782.8c8.7-2.4,18.4,0,25.8,5c7.4,5,12.9,12.3,17,20.1c3.1,5.7,5.5,11.8,8.6,17.5
	c3.1,5.7,7,11.3,12.2,15.2c5.4,4,12.3,6.3,19,5"/>
<g>
	<path class="st18" d="M857.2,577.2c-47.6-0.9-98.4-0.7-151.2,0c-9,0-16.3-7.3-16.3-16.3c1.1-39.8,0.8-93.2,0-151.2
		c0-9,7.3-16.3,16.3-16.3c49.9,0.8,100.3,0.9,151.2,0c9,0,16.3,7.3,16.3,16.3c-1.2,44.2-1,96,0,151.2
		C873.4,569.9,866.1,577.2,857.2,577.2z"/>
	<g>
		<path class="st19" d="M798,538.4h-83.6c-5.2,0-8.5-5.4-6.2-10.1l19.9-40l14.2-28.7c3.4-6.9,13.2-6.9,16.6,0l7.8,15.7l6,12
			L798,538.4z"/>
		<path class="st19" d="M854.6,538.4H747.4l25.3-51.1l14.6-29.4l8.9-18c4.3-8.6,16.5-8.6,20.8,0l14.5,29.2l29.4,59.2
			C863.2,533,859.8,538.4,854.6,538.4z"/>
		<path class="st7" d="M766.8,475.3c-2.5,1.2-4.7,3-6.6,5c-3.4,3.6-6,8-9.5,11.5s-8.4,6.2-13.3,5.4c-3.7-0.7-6.9-3.4-8.5-6.8
			c-0.3-0.7-0.6-1.4-0.7-2.1l14.2-28.7c3.4-6.9,13.2-6.9,16.6,0L766.8,475.3z"/>
		<path class="st20" d="M831.5,469.1c-1.1,1.6-2.5,2.9-4.3,3.8c-2.6,1.4-5.7,1.7-8.7,1.5c-4.7-0.3-9.4-1.7-13.3-4.4
			c-2.6-1.8-4.7-4.2-7-6.4c-2.3-2.2-4.8-4.2-7.8-5.2c-1-0.3-2-0.5-3.1-0.6l8.9-18c4.3-8.6,16.5-8.6,20.8,0L831.5,469.1z"/>
	</g>
	<g>
		<path class="st21" d="M825.5,338.7l-60.6,72.9c-6.2,7.4-6.4,17.7-1.2,25.3l-7.4,8.6c-3.8,4.5,3.1,10.4,6.9,6l7.2-8.3
			c8.6,5,19.7,3.3,26.4-4.4l61.6-71.6L825.5,338.7z"/>
		<path class="st22" d="M791.8,403c-6,0.6-12.1,1.3-18.2,1.7l-6.9,8.3c-5.3,6.4-5.7,15.6-1,22.4l1,1.5l-8.6,10
			c-0.6,0.7-0.7,1.4-0.3,2.1c0.4,0.9,1.5,1.5,2.3,1.5c0.5,0,0.9-0.3,1.3-0.7l8.5-9.9l1.7,1c3.2,1.9,7,2.7,10.7,2.5l0,0
			c4.9-0.4,9.4-2.6,12.6-6.4l33.6-39.1C816.4,400.1,804.1,401.8,791.8,403z"/>
		<path class="st23" d="M862.7,363.2l-35.2-30.3c-4.5-3.8-10.4,3.1-6,6.9l35.2,30.3C861.2,374,867.2,367.1,862.7,363.2z"/>
		<path class="st13" d="M875.7,313.5c-7.8-6.7-19.5-5.8-26.2,2l-18,20.9l28.2,24.2l18-20.9C884.4,331.9,883.5,320.2,875.7,313.5z"/>
	</g>
</g>
<path class="st2" d="M233.2,40.9c11.5,0,22.9,0,34.4,0c64,0,127.9,0.5,191.9-0.3c22.7-0.3,33.3,15.3,33.2,32.9
	c-0.5,116.6-0.2,233.3-0.3,349.9c0,21.9-10.5,32.5-32.3,32.5c-36.5,0-73,0-109.5,0c-18.8,0-24.4,5.7-24.4,24.7
	c0,5.4,0.4,10.8-0.1,16.2c-0.5,5.4,1.7,6.4,6.6,6.3c18.6-0.3,37.2-0.1,55.9-0.1c1.7,0,3.4-0.1,5.1,0.1c2.7,0.2,4.8,1.3,4.7,4.5
	c-0.1,2.7-2,3.7-4.4,3.9c-1.7,0.1-3.4,0.1-5.1,0.1c-88.7,0-177.4,0-266.1,0c-0.7,0-1.5,0-2.2,0c-3.3-0.2-7.7,0.7-7.5-4.5
	c0.2-4.5,4.2-4,7.3-4c19.6,0,39.2-0.2,58.8,0.1c4.8,0.1,6.3-1.3,6.1-6.1c-0.4-7.6,0-15.2-0.2-22.8c-0.3-9.9-6.2-16.5-16-17.9
	c-2.9-0.4-5.9-0.4-8.8-0.4c-36.8,0-73.5,0-110.3,0c-19.9,0-31-11-31-30.9c0-117.9,0-235.8,0-353.6C19,52.1,30.1,41,49.4,40.9
	c34.6,0,69.1-0.1,103.7,0c4,0,7.5-0.9,11.1-2.8c20.8-10.9,41.7-21.6,62.6-32.2c9.7-4.9,19-2.6,23.5,5.7c4.7,8.7,1.4,17.6-8.7,23.1
	c-2.9,1.6-5.9,3.1-8.9,4.7C232.9,39.9,233,40.4,233.2,40.9z"/>
<path class="st2" d="M289.4,456.2c-27,0-54,0-81,0c-6.9,0-13.8,0-21.6,0c5,6.9,7,13.8,6.8,21.3c-0.2,6.8,0.2,13.7-0.1,20.5
	c-0.2,3.9,1.1,5.2,5,5c5.8-0.3,11.7-0.2,17.6-0.3c22,0,44,0,66,0c10,0.1,20,0,30,0.4c4.6,0.2,5.6-1.6,5.7-5.9
	c0.4-13.8-3.2-28.3,6.4-41C311.9,456.2,300.7,456.2,289.4,456.2z"/>
<path class="st2" d="M53.1,311c4.6-1.4,8.8-2.3,11.5-7.7c26.9-55.2,54.1-110.3,81.2-165.4c1.1-2.2,2.2-4.3,2.4-6.8
	c2-25.1,4-50.3,6.3-75.4c0.4-4.7-0.6-6.5-5.7-6.5c-29.1,0.2-58.3,0.1-87.4,0.1c-2.4-0.1-4.9-0.1-7.3-0.3c-16.9-1.2-27.2,5.7-27,26.5
	c0.7,52.1,0.2,104.3,0.2,156.4c0,46.7,0.1,93.5-0.1,140.2c0,5.3,0.8,8.1,7,7.4c6.1-0.7,12.2-0.3,18.3-0.4c2.9,0.1,5.9,0.3,8.8,0.3
	c91.5,0,183,0,274.5,0c12.4,0,12.4,0,12.6-12c0.2-12.1,7.8-16.9,18.4-11.5c10.7,5.4,21.2,11.2,31.8,16.7c4.7,2.4,7.7,5.8,8.5,11.2
	c-1,5.6-4.5,8.9-9.4,11.4c-8.5,4.3-16.9,8.9-25.3,13.3c-17.9,9.5-23.9,6-23.8-14.2c0-5.2-1.5-6.5-6.6-6.5c-26,0.3-51.9,0.1-77.9,0.1
	c-76.7,0-153.3,0.1-230-0.1c-5.3,0-7.3,1-7,6.8c0.5,11,0.2,22,0.1,33.1c0,5.7,1.8,10.5,5.8,14.6c5.1,5.2,11.7,5.5,18.4,5.5
	c93.8,0,187.6,0,281.4,0c4.6,0,9.3,0,13.9,0c28.4-0.1,56.8,0.9,85.2-0.5c11.7,1.3,23.4,1.3,35,0.1c9.9-1,16.4-8.3,16.6-18.3
	c0.3-12,0-24,0.2-36c0.1-3.6-0.9-5.3-4.9-5.2c-11.2,0.3-22.5,0.3-33.7,0.4c-6.5-0.1-13-0.2-19.5-0.3c-3.3,0-6.4-0.1-7.4-4.1
	c0.7-4.1,3.7-4.5,7.1-4.5c6.6,0,13.1-0.1,19.7-0.2c10,0.1,20.1-0.2,30.1,0.4c6.7,0.4,8.6-1.6,8.5-8.4c-0.2-99.3-0.2-198.5-0.2-297.8
	c0-2,0-3.9-0.1-5.9c-0.7-10.2-7.7-17.6-17.8-17.9c-9.8-0.3-19.6,0.1-29.4,0.2c-4.6-0.3-9.3-0.8-13.9-0.8c-62-0.1-124,0.5-186-0.4
	c-17-0.2-31.7,3.8-45.9,12.1c-3.2,1.9-4.4,3.9-4.6,7.4c-1.1,13.7-2.1,27.4-3.9,40.9c-0.9,7,1.1,11,7.1,14.9
	c9.1,6,19.4,10.8,26.3,19.7c10,13,19.7,26.2,29.5,39.4c8.3,11.3,5.8,21.2-6.9,27.5c-18.6,9.3-37.3,18.5-56.1,27.4
	c-4.2,2-5,4.2-3.9,8.5c4.8,18.5,9.4,37,13.7,55.6c1,4.4,2.8,6.5,7,8c11.6,4,18.4,12.5,20.6,24.6c1.3,7.1-0.2,9.1-7.3,9.1
	c-14.2,0.1-28.4-0.1-42.6,0.1c-5,0.1-7.5-1.8-8.6-6.8c-3.5-15.5-7.5-30.9-11.3-46.3c-3.9-15.8-7.8-31.6-12-48.8
	c-1.8,3.5-3,5.7-4,7.8c-14.2,28.8-28.5,57.4-42.3,86.3c-2.9,6.1-6.5,8.2-13,7.9c-8.5-0.5-17.1,0.1-25.7,0.2
	c-2.9-0.1-5.8-0.5-8.7-0.3c-6.5,0.4-8.8-2.2-7.8-8.7C37.8,324.1,44.1,316.7,53.1,311z"/>
<path class="st2" d="M188.4,335.3c6.9,0,12.5-0.2,18.1,0.1c4.1,0.2,4.7-1.6,3.3-4.8c-3.1-6.9-8.1-12-15.6-13.2
	c-6.2-1-8.2-4.3-9.5-10c-4.5-20-9.7-39.9-14.6-59.9c-0.8-3.4-1.8-6-5.7-7.5c-6-2.3-9-7.3-9.2-13.8c-0.2-6.5,2.4-11.7,8.1-14.5
	c4.3-2.1,6.6-5.3,8.6-9.4c5.9-12.4,12-24.6,18.1-36.9c3.5-7.1,6.2-7.4,10.9-1.2c5,6.6,10,13.3,14.9,20c5.2,7,4.9,8.2-2.7,12
	c-14,6.9-28.1,13.8-42.2,20.7c-7.2,3.6-9.5,7.6-6.7,12.2c3.5,5.9,8.1,4.7,13.3,2.1c18.8-9.4,37.8-18.5,56.7-27.8
	c8.3-4.1,9.3-8.3,4-15.6c-3.6-5-7.6-9.6-10.9-14.8c-12.2-19.5-28.2-35-48.2-46.1c-5.1-2.9-6.2-6.6-5.7-12.1
	c1.7-16.8,3.1-33.7,4.4-50.5c0.4-4.7,2.2-7.5,6.5-9.6c18-8.9,35.8-18.2,53.6-27.4c5-2.6,8-6.2,4.9-11.8c-2.9-5.1-7.4-4.7-12.1-2.3
	c-20.5,10.5-40.9,21-61.4,31.5c-3.8,2-5.9,4.7-6.3,9.1c-1.4,18.3-2.6,36.7-4.7,54.9c-1.2,10.8,0.3,22.1-4.8,32.5
	c-27.7,56.2-55.4,112.4-83,168.6c-2,4.1-4.4,6.6-9,7.5c-7.5,1.5-12.5,6.3-15.6,13.2c-1.5,3.3-0.8,4.9,3.2,4.8
	c8.3-0.2,16.7-0.6,25,0.1c6.6,0.6,9.4-2.1,12.1-7.7c15.5-32.2,31.4-64.2,47.2-96.2c1.4-2.8,2.2-6.7,6.3-5.9c3.5,0.6,3.6,4.2,4.3,7
	c6.8,27.6,13.5,55.1,20.3,82.7c1.6,6.4,1.3,14.8,5.4,18.7C174.2,338.2,182.8,334.7,188.4,335.3z"/>
<path class="st2" d="M357.1,383.7c0,5.9,0,11.7,0,17.6c0,3.5,1.5,5.2,5,3.3c11.2-5.9,22.4-11.8,33.6-17.8c3.9-2.1,3.6-4.3-0.1-6.3
	c-11-5.8-22-11.6-32.9-17.5c-4.5-2.4-5.6-0.2-5.6,3.9C357.1,372.5,357,378.1,357.1,383.7z"/>
<path class="st2" d="M182.1,200.2c0.3,0.5,0.7,0.9,1,1.4c7.8-3.8,15.5-7.7,23.3-11.4c2.1-1,2.3-2.2,0.9-3.9c-3.8-4.5-6.4-10-11.4-14
	C191.1,182,186.6,191.1,182.1,200.2z"/>
<path class="st5" d="M407.2,383.8c-0.8-5.3-3.8-8.7-8.5-11.2c-10.6-5.5-21.1-11.3-31.8-16.7c-10.6-5.4-18.2-0.6-18.4,11.5
	c-0.2,12-0.2,12-12.6,12c-91.5,0-183,0-274.5,0c-2.9,0-5.9-0.2-8.8-0.3c0-11.7,0-23.3,0-35c8.6-0.1,17.2-0.7,25.7-0.2
	c6.5,0.3,10.1-1.8,13-7.9c13.8-28.9,28.2-57.6,42.3-86.3c1.1-2.2,2.2-4.3,4-7.8c4.2,17.2,8.1,33,12,48.8
	c3.8,15.4,7.8,30.8,11.3,46.3c1.1,5,3.6,6.9,8.6,6.8c14.2-0.2,28.4,0,42.6-0.1c7.1-0.1,8.6-2,7.3-9.1c-2.3-12.1-9-20.6-20.6-24.6
	c-4.2-1.5-6-3.6-7-8c-4.3-18.6-8.9-37.1-13.7-55.6c-1.1-4.3-0.3-6.5,3.9-8.5c18.8-8.9,37.4-18.1,56.1-27.4
	c12.7-6.3,15.2-16.3,6.9-27.5c-9.7-13.2-19.4-26.5-29.5-39.4c-6.9-8.9-17.2-13.7-26.3-19.7c-5.9-3.9-8-7.9-7.1-14.9
	c1.8-13.6,2.8-27.3,3.9-40.9c0.3-3.5,1.5-5.6,4.6-7.4c14.2-8.3,28.9-12.3,45.9-12.1c62,0.9,124,0.3,186,0.4c4.6,0,9.3,0.5,13.9,0.8
	c-0.1,2.2,1.5,3.5,2.6,5.1c3.1,4.4,6.2,8.9,6.2,14.6c0,60.4-0.1,120.8-0.2,181.3c-5.1-3.9-10.7-5.4-17.1-5.2
	c-10.5,0.3-21.1,0-31.6,0.2c-4,0.1-5.5-0.7-5-5.3c1.9-18.7,3.4-37.5,4.8-56.3c1.3-15.9-10.5-28.4-26.5-28.5c-4.7,0-9.3,0.1-14,0
	c-5.5-0.2-9.9,1.6-13.9,5.4c-14.1,13.6-28.5,26.9-42.6,40.5c-9.8,9.4-8.4,19.6,3.5,26.2c10.4,5.9,21,11.6,31.5,17.4
	c2.1,1.2,4.6,2,4.3,5.2c-0.5,6.7,0.2,13.6-6.7,18.3c-4,2.7-7.2,6.6-10.4,10.3c-3.1,3.6-6.6,5-11.5,4.9c-16.2-0.3-32.3,0-48.5-0.2
	c-5.2-0.1-7.7,1.3-7.6,7c0.2,15.4,0.2,30.9,0,46.3c-0.1,5.8,2.7,7.4,7.8,6.5c11-1.8,19.1-7.7,23.1-18.1c1.7-4.6,4.1-5.8,8.6-5.6
	c7.8,0.3,15.7-0.2,23.5,0.2c9.7,0.4,17.6-2.7,24.3-9.9c7.9-8.4,16.3-16.2,24.4-24.5c2.6-2.6,5.3-3.9,9-3.9c11.3,0.2,22.5,0.3,33.8,0
	c5-0.2,6.1,1.7,6.1,6.3c-0.2,15.9,0.1,31.8-0.1,47.8c-0.1,6.2,2.3,8.3,8.2,8.2c7.6-0.2,15.2,0.1,22.8,0.2c0,11.7,0,23.4,0,35.1
	c-6.6,0.1-13.1,0.2-19.7,0.2c-3.4,0-6.4,0.3-7.1,4.5C414.7,383.9,411,383.8,407.2,383.8z M408.8,117.4c0.1-19.3-15.1-34.8-34.2-34.8
	C356,82.5,340.3,98,340,116.6c-0.3,18.8,15.6,34.8,34.5,34.8C393.3,151.4,408.7,136.2,408.8,117.4z M222.3,127.9
	c18.4-0.1,33.4-15.4,33.3-33.9c-0.1-18.5-15.3-33.6-33.7-33.6c-18.6,0-34.1,15.7-33.8,34.3C188.5,113.1,203.8,128,222.3,127.9z"/>
<path class="st4" d="M407.2,383.8c3.8,0,7.5,0,11.3,0.1c1,4,4.2,4.1,7.4,4.1c6.5,0,13,0.2,19.5,0.3c0,11.2-0.2,22.3,0.1,33.5
	c0.2,7.6-3,13.5-7.7,19c-1.9,2.2-3.8,4.4-5.7,6.5c-28.4,1.4-56.8,0.4-85.2,0.5c-4.6,0-9.3,0-13.9,0c-93.8,0-187.6,0-281.4,0
	c-6.7,0-13.3-0.4-18.4-5.5c-4-4-5.9-8.9-5.8-14.6c0.1-11,0.4-22.1-0.1-33.1c-0.3-5.7,1.7-6.8,7-6.8c76.7,0.2,153.3,0.1,230,0.1
	c26,0,51.9,0.1,77.9-0.1c5.1-0.1,6.6,1.2,6.6,6.5c-0.1,20.2,5.9,23.7,23.8,14.2c8.4-4.5,16.8-9,25.3-13.3
	C402.7,392.7,406.2,389.4,407.2,383.8z"/>
<path class="st5" d="M61.5,49.2c29.1,0,58.3,0.1,87.4-0.1c5.1,0,6.1,1.8,5.7,6.5c-2.3,25.1-4.3,50.3-6.3,75.4
	c-0.2,2.6-1.4,4.7-2.4,6.8C118.7,193,91.5,248.1,64.6,303.3c-2.6,5.4-6.9,6.2-11.5,7.7c-0.2-3.4-0.4-6.8-0.4-10.2
	c0-71.1,0.1-142.3-0.1-213.4C52.5,73.7,52.2,60.5,61.5,49.2z"/>
<path class="st24" d="M188.4,335.3c-5.6-0.6-14.1,2.9-18.6-1.4c-4-3.9-3.8-12.3-5.4-18.7c-6.8-27.5-13.6-55.1-20.3-82.7
	c-0.7-2.8-0.8-6.4-4.3-7c-4.2-0.7-5,3.2-6.3,5.9c-15.8,32-31.7,64-47.2,96.2c-2.7,5.5-5.5,8.2-12.1,7.7c-8.3-0.7-16.7-0.3-25-0.1
	c-4.1,0.1-4.7-1.5-3.2-4.8c3.1-6.9,8.1-11.7,15.6-13.2c4.6-0.9,6.9-3.4,9-7.5c27.6-56.3,55.3-112.4,83-168.6
	c5.1-10.3,3.6-21.6,4.8-32.5c2.1-18.2,3.3-36.6,4.7-54.9c0.3-4.4,2.4-7.2,6.3-9.1c20.5-10.4,41-20.9,61.4-31.5
	c4.7-2.4,9.2-2.8,12.1,2.3c3.1,5.5,0.1,9.2-4.9,11.8c-17.9,9.1-35.7,18.4-53.6,27.4c-4.3,2.1-6.1,4.9-6.5,9.6
	c-1.3,16.9-2.7,33.7-4.4,50.5c-0.6,5.5,0.5,9.2,5.7,12.1c20.1,11.1,36,26.6,48.2,46.1c3.2,5.2,7.3,9.8,10.9,14.8
	c5.3,7.3,4.3,11.5-4,15.6c-18.9,9.3-37.8,18.4-56.7,27.8c-5.1,2.5-9.8,3.8-13.3-2.1c-2.7-4.7-0.5-8.7,6.7-12.2
	c14-6.9,28.1-13.8,42.2-20.7c7.6-3.8,7.9-5,2.7-12c-5-6.7-9.9-13.4-14.9-20c-4.7-6.2-7.4-5.9-10.9,1.2
	c-6.1,12.3-12.2,24.5-18.1,36.9c-2,4.1-4.2,7.3-8.6,9.4c-5.8,2.8-8.3,8-8.1,14.5c0.2,6.5,3.2,11.5,9.2,13.8c3.9,1.5,4.9,4.2,5.7,7.5
	c4.9,20,10,39.9,14.6,59.9c1.3,5.7,3.3,9,9.5,10c7.5,1.2,12.5,6.3,15.6,13.2c1.5,3.2,0.8,5-3.3,4.8
	C200.9,335.2,195.2,335.3,188.4,335.3z"/>
<path class="st5" d="M445.2,250.7c0.1-60.4,0.1-120.8,0.2-181.3c0-5.7-3.2-10.2-6.2-14.6c-1.1-1.6-2.7-2.8-2.6-5.1
	c9.8-0.1,19.6-0.5,29.4-0.2c10.2,0.4,17.2,7.7,17.8,17.9c0.1,2,0.1,3.9,0.1,5.9c0,99.3-0.1,198.5,0.2,297.8c0,6.8-1.9,8.8-8.5,8.4
	c-10-0.6-20.1-0.3-30.1-0.4c0-11.7,0-23.4,0-35.1c7.3-0.1,14.7-0.3,22-0.2c5.9,0.1,8.1-2.8,7-8.3c-2.1-10.8-7.5-19.3-18.3-22.9
	c-4.9-1.7-6.2-4.1-6.1-9c0.3-12-0.1-24,0.1-35.9C450.3,261.5,449.3,255.7,445.2,250.7z"/>
<path class="st5" d="M61.5,49.2c-9.3,11.2-9,24.5-8.9,38.1c0.2,71.1,0.1,142.3,0.1,213.4c0,3.4,0.3,6.8,0.4,10.2
	c-9,5.7-15.4,13.1-17,24.2c-0.9,6.5,1.3,9.1,7.8,8.7c2.9-0.2,5.8,0.2,8.7,0.3c0,11.7,0,23.3,0,35c-6.1,0.1-12.3-0.2-18.3,0.4
	c-6.2,0.7-7-2.1-7-7.4c0.2-46.7,0.1-93.5,0.1-140.2c0-52.1,0.5-104.3-0.2-156.4c-0.3-20.8,10.1-27.8,27-26.5
	C56.6,49.1,59,49.2,61.5,49.2z"/>
<path class="st0" d="M208.5,456.3c27,0,54,0,81,0c-5.6,6.2-8.2,13.3-7.5,21.8c0.7,8.2,0.1,16.4,0.1,24.7c-22,0-44,0-66,0
	c0-8.5-0.5-17,0.1-25.5C216.8,468.9,214.1,462.2,208.5,456.3z"/>
<path class="st4" d="M432.1,447.2c1.9-2.2,3.8-4.3,5.7-6.5c4.7-5.5,7.9-11.4,7.7-19c-0.3-11.1-0.1-22.3-0.1-33.5
	c11.2-0.1,22.5-0.1,33.7-0.4c4-0.1,4.9,1.5,4.9,5.2c-0.2,12,0.1,24-0.2,36c-0.3,9.9-6.7,17.3-16.6,18.3
	C455.5,448.5,443.8,448.6,432.1,447.2z"/>
<path class="st0" d="M282.1,502.7c0-8.2,0.6-16.5-0.1-24.7c-0.7-8.6,1.9-15.6,7.5-21.8c11.2,0,22.5,0,34.8,0
	c-9.6,12.7-6,27.2-6.4,41c-0.1,4.3-1.1,6.1-5.7,5.9C302.1,502.7,292.1,502.8,282.1,502.7z"/>
<path class="st0" d="M208.5,456.3c5.6,5.9,8.4,12.6,7.8,21c-0.6,8.4-0.1,17-0.1,25.5c-5.9,0.1-11.7,0-17.6,0.3c-3.9,0.2-5.1-1.1-5-5
	c0.3-6.8-0.1-13.7,0.1-20.5c0.2-7.6-1.7-14.4-6.8-21.3C194.6,456.3,201.6,456.3,208.5,456.3z"/>
<path class="st4" d="M357.1,383.7c0-5.6,0-11.2,0-16.8c0-4.1,1-6.3,5.6-3.9c10.9,5.9,21.9,11.6,32.9,17.5c3.7,2,3.9,4.2,0.1,6.3
	c-11.2,6-22.4,11.9-33.6,17.8c-3.5,1.9-5,0.2-5-3.3C357,395.4,357.1,389.6,357.1,383.7z"/>
<path class="st5" d="M182.1,200.2c4.5-9.1,9-18.3,13.8-27.9c5,4.1,7.6,9.6,11.4,14c1.4,1.7,1.3,2.8-0.9,3.9
	c-7.8,3.7-15.5,7.6-23.3,11.4C182.8,201.2,182.4,200.7,182.1,200.2z"/>
<path class="st4" d="M445.2,250.7c4.1,5,5.1,10.8,5,17.1c-0.2,12,0.2,24-0.1,35.9c-0.1,4.9,1.2,7.3,6.1,9
	c10.7,3.6,16.2,12.1,18.3,22.9c1.1,5.5-1.2,8.3-7,8.3c-7.3-0.1-14.7,0.1-22,0.2c-7.6-0.1-15.2-0.4-22.8-0.2c-5.9,0.2-8.3-2-8.2-8.2
	c0.3-15.9-0.1-31.8,0.1-47.8c0.1-4.6-1-6.5-6.1-6.3c-11.3,0.4-22.5,0.2-33.8,0c-3.8-0.1-6.4,1.2-9,3.9c-8,8.2-16.5,16.1-24.4,24.5
	c-6.7,7.1-14.6,10.2-24.3,9.9c-7.8-0.3-15.7,0.2-23.5-0.2c-4.5-0.2-6.9,1-8.6,5.6c-4,10.4-12.1,16.3-23.1,18.1
	c-5.2,0.9-7.9-0.8-7.8-6.5c0.2-15.4,0.2-30.9,0-46.3c-0.1-5.7,2.4-7.1,7.6-7c16.2,0.2,32.3-0.1,48.5,0.2c4.8,0.1,8.3-1.3,11.5-4.9
	c3.2-3.7,6.5-7.5,10.4-10.3c6.8-4.7,6.1-11.6,6.7-18.3c0.3-3.2-2.2-4.1-4.3-5.2c-10.5-5.8-21.1-11.5-31.5-17.4
	c-11.8-6.7-13.3-16.8-3.5-26.2c14.1-13.6,28.4-27,42.6-40.5c4-3.8,8.4-5.7,13.9-5.4c4.6,0.2,9.3,0,14,0c16,0.1,27.8,12.6,26.5,28.5
	c-1.5,18.8-3,37.6-4.8,56.3c-0.5,4.6,1,5.4,5,5.3c10.5-0.2,21.1,0.1,31.6-0.2C434.5,245.3,440.1,246.8,445.2,250.7z M346.7,252.9
	c2.5,12-5.4,18.5-12.8,25.4c-2.2,2-4.5,3.9-6.2,6.3c-4.6,6.1-10.5,7.6-18,7.3c-13.9-0.5-27.9-0.1-41.9-0.2c-3.9,0-5.8,0.8-5.7,5.3
	c0.2,10.8,0.2,21.6,0,32.3c-0.1,5.5,2.1,5.8,6.1,3.4c5.4-3.1,9.3-7.6,10-13.7c0.8-6.5,4.1-7.7,9.9-7.5c9.8,0.4,19.6,0,29.4,0.2
	c6.8,0.2,12.3-1.8,17.1-6.8c9-9.3,18.5-18.3,27.6-27.5c2.8-2.9,5.7-4,9.7-4c13.7,0.2,27.4,0,41.2,0c9.1,0,9.6,0.5,9.7,9.4
	c0.1,15.7,0.1,31.4,0.1,47c0,3.2-0.1,5.7,4.4,5.6c11.5-0.3,23-0.2,34.5,0c4.2,0.1,3.7-1.9,2.5-4.4c-3.2-6.7-8.3-11-15.7-11.8
	c-5.1-0.5-6.5-3-6.4-7.7c0.2-14.9,0.1-29.9-0.1-44.8c-0.1-9.2-3.3-12.4-12.4-12.5c-13.5-0.1-27-0.1-40.4,0.1
	c-4.9,0.1-7.4-1.5-6.9-6.8c1.8-20,3.5-40,5.3-60c0.9-9.2-0.8-17.2-9.7-22c-7.5-4-26.1-2.6-31.4,2.5c-13.7,12.9-27.4,25.9-41,39
	c-6.5,6.3-6.1,9.6,1.8,13.9c13.9,7.7,27.9,15.4,41.8,23c3.8,2.1,8,3.9,10.9-1.1c3.1-5.4-1-8-5-10.2c-9.4-5.2-18.9-10.3-28.3-15.5
	c-6.8-3.7-7.2-5.7-1.8-10.7c10.5-9.9,21.1-19.7,31.8-29.5c2.2-2,4.7-5.4,8-1.9c3.2,3.5-0.2,5.7-2.5,7.8c-8,7.6-15.8,15.4-24.4,22.4
	c-6.1,4.9-4.1,6.9,1.6,9.6c7.5,3.6,14.7,7.8,21.9,11.9c5.4,3,8.1,7.6,7.8,13.9C368.6,251,360.6,255.6,346.7,252.9z"/>
<path class="st4" d="M408.8,117.4c-0.1,18.8-15.4,34-34.2,34c-18.9,0-34.8-16-34.5-34.8c0.3-18.6,16-34.1,34.5-34.1
	C393.7,82.6,408.9,98,408.8,117.4z M374.7,142.9c14.6-0.1,26.1-11.8,25.9-26.3c-0.2-14.3-11.6-25.6-25.8-25.6
	c-14.6-0.1-26.3,11.5-26.3,25.9C348.4,131.4,360.1,143,374.7,142.9z"/>
<path class="st4" d="M222.3,127.9c-18.5,0.1-33.8-14.8-34.1-33.2c-0.3-18.6,15.2-34.3,33.8-34.3c18.4,0,33.6,15.2,33.7,33.6
	C255.8,112.5,240.7,127.8,222.3,127.9z M222,68.9c-14.1,0-25.2,11-25.3,25c-0.1,14.2,10.8,25.3,24.8,25.5
	c14.5,0.2,25.7-10.9,25.7-25.4C247.2,79.9,236.2,69,222,68.9z"/>
<path class="st3" d="M346.7,252.9c14,2.7,22-1.9,22.5-12.2c0.3-6.3-2.4-10.9-7.8-13.9c-7.2-4.1-14.4-8.3-21.9-11.9
	c-5.7-2.8-7.6-4.7-1.6-9.6c8.5-7,16.3-14.8,24.4-22.4c2.2-2.1,5.7-4.3,2.5-7.8c-3.3-3.6-5.8-0.1-8,1.9
	c-10.7,9.8-21.3,19.6-31.8,29.5c-5.4,5.1-5,7,1.8,10.7c9.4,5.2,18.9,10.3,28.3,15.5c4.1,2.2,8.1,4.8,5,10.2c-2.8,4.9-7,3.2-10.9,1.1
	c-13.9-7.7-27.9-15.3-41.8-23c-7.8-4.4-8.3-7.7-1.8-13.9c13.6-13.1,27.3-26.1,41-39c5.3-5,23.9-6.5,31.4-2.5
	c8.9,4.7,10.5,12.8,9.7,22c-1.9,20-3.5,40-5.3,60c-0.5,5.3,2,6.9,6.9,6.8c13.5-0.2,27-0.2,40.4-0.1c9,0,12.3,3.3,12.4,12.5
	c0.1,14.9,0.2,29.9,0.1,44.8c0,4.8,1.4,7.2,6.4,7.7c7.4,0.8,12.5,5.1,15.7,11.8c1.2,2.6,1.7,4.5-2.5,4.4c-11.5-0.2-23-0.2-34.5,0
	c-4.6,0.1-4.4-2.4-4.4-5.6c0-15.7,0-31.4-0.1-47c-0.1-8.9-0.6-9.4-9.7-9.4c-13.7,0-27.4,0.2-41.2,0c-4-0.1-6.9,1.1-9.7,4
	c-9.1,9.3-18.5,18.2-27.6,27.5c-4.8,5-10.3,7-17.1,6.8c-9.8-0.3-19.6,0.2-29.4-0.2c-5.8-0.2-9.1,1-9.9,7.5
	c-0.7,6.1-4.6,10.7-10,13.7c-4.1,2.3-6.2,2-6.1-3.4c0.2-10.8,0.2-21.6,0-32.3c-0.1-4.4,1.9-5.3,5.7-5.3c14,0.2,28-0.3,41.9,0.2
	c7.4,0.3,13.4-1.3,18-7.3c1.8-2.3,4.1-4.3,6.2-6.3C341.3,271.4,349.2,264.8,346.7,252.9z"/>
<path class="st3" d="M374.7,142.9c-14.6,0.1-26.3-11.5-26.3-26c0-14.4,11.8-26,26.3-25.9c14.3,0.1,25.6,11.3,25.8,25.6
	C400.8,131.2,389.3,142.9,374.7,142.9z"/>
<path class="st3" d="M222,68.9c14.1,0,25.1,11,25.2,25.1c0.1,14.5-11.2,25.6-25.7,25.4c-14.1-0.2-24.9-11.3-24.8-25.5
	C196.8,79.9,207.9,68.9,222,68.9z"/>
</svg>
