<?xml version="1.0" encoding="utf-8"?>
<!-- Generator: Adobe Illustrator 25.2.0, SVG Export Plug-In . SVG Version: 6.00 Build 0)  -->
<svg version="1.1" id="Layer_1" xmlns="http://www.w3.org/2000/svg" xmlns:xlink="http://www.w3.org/1999/xlink" x="0px" y="0px"
	 viewBox="0 0 511.6 511.6" style="enable-background:new 0 0 511.6 511.6;" xml:space="preserve">
<style type="text/css">
	.st0{fill:#FFE3E7;}
	.st1{fill:#F5F7FA;}
	.st2{fill:#9F5B62;}
	.st3{fill:#FFFFFF;}
	.st4{fill:#FFAD2B;}
	.st5{fill:#434A54;}
	.st6{fill:#CCD1D9;}
	.st7{fill:#E6E9ED;}
	.st8{fill:#1A2433;}
	.st9{fill:#999999;}
	.st10{fill:#3E4247;}
	.st11{fill:#DDE0D8;}
	.st12{fill:#FFF5CC;}
	.st13{fill:#C7BFA0;}
	.st14{fill:#B39048;}
	.st15{fill:#153A4F;}
	.st16{opacity:0.1;enable-background:new    ;}
	.st17{fill:#373836;}
	.st18{fill:#797D60;}
	.st19{fill:#BFC2BB;}
	.st20{fill:#D6D6D6;}
	.st21{fill:#5C5832;}
	.st22{fill:#997341;}
	.st23{fill:#D1B16C;}
	.st24{fill:#E0C68E;}
	.st25{fill:#F7A9B4;}
	.st26{fill:none;}
	.st27{opacity:0.36;fill:#9F5B62;enable-background:new    ;}
	.st28{opacity:0.36;}
	.st29{fill:none;stroke:#6E6E6E;stroke-width:2;stroke-linecap:round;stroke-linejoin:round;stroke-miterlimit:10;}
	.st30{fill:none;stroke:#6E6E6E;stroke-width:0.5;stroke-miterlimit:10;}
	.st31{fill:none;stroke:#6E6E6E;stroke-width:0.5;stroke-linecap:round;stroke-linejoin:round;stroke-miterlimit:10;}
	.st32{fill:none;stroke:#FE9504;stroke-width:2;stroke-linecap:round;stroke-linejoin:round;stroke-miterlimit:10;}
	.st33{fill:#444444;stroke:#FE9504;stroke-linecap:round;stroke-linejoin:round;stroke-miterlimit:10;}
	.st34{fill:#6E6E6E;}
	.st35{fill:none;stroke:#FFFFFF;stroke-width:0.75;stroke-linecap:round;stroke-linejoin:round;stroke-miterlimit:10;}
	.st36{fill:none;stroke:#FE9504;stroke-linecap:round;stroke-linejoin:round;stroke-miterlimit:10;}
	.st37{fill:none;stroke:#61AAFC;stroke-miterlimit:10;}
	.st38{opacity:0.32;fill:#FFE3E7;enable-background:new    ;}
	.st39{opacity:0.43;fill:#FFE3E7;enable-background:new    ;}
	.st40{opacity:0.32;fill:#9F5B62;enable-background:new    ;}
	.st41{opacity:0.43;fill:#9F5B62;enable-background:new    ;}
</style>
<path class="st0" d="M2160.8,1073.2v434.4c0,17.5-13.3,31.7-29.7,31.7h-217c-16.4,0-29.7-14.2-29.7-31.7v-434.4
	c0-17.5,13.3-31.8,29.7-31.8h217.1C2147.5,1041.5,2160.8,1055.7,2160.8,1073.2z"/>
<path class="st1" d="M2001.5,1067.1v197.5c0,17.5-13.3,31.7-29.7,31.7h-217c-16.4,0-29.7-14.2-29.7-31.7v-197.5
	c0-17.5,13.3-31.8,29.7-31.8h217.1C1988.2,1035.4,2001.5,1049.6,2001.5,1067.1z"/>
<path class="st0" d="M971.5,481.3v30.6c0,15.9-12.1,28.8-26.9,28.8h-197c-14.9,0-26.9-12.9-26.9-28.8v-30.6
	c0-15.9,12.1-28.8,26.9-28.8h197C959.5,452.5,971.5,465.4,971.5,481.3z"/>
<path class="st2" d="M1866.6,840.9v30.6c0,15.9-12.1,28.8-26.9,28.8h-60.1c-14.9,0-26.9-12.9-26.9-28.8v-30.6
	c0-15.9,12.1-28.8,26.9-28.8h60.1C1854.5,812.1,1866.6,825,1866.6,840.9z"/>
<g>
	<path class="st3" d="M1812.6,840.8h-22.8c-3,0-5.4,2.4-5.4,5.4v20c0,3,2.4,5.4,5.4,5.4h22.8c3,0,5.4-2.4,5.4-5.4v-20
		C1818,843.2,1815.6,840.8,1812.6,840.8z"/>
	<polygon class="st3" points="1834.8,868 1823.3,861 1823.3,851.3 1834.8,844.3 	"/>
</g>
<g>
	<path class="st2" d="M1848.8,962.4h-148.5c-0.8,0-1.4-0.6-1.4-1.4v-6.9c0-0.8,0.6-1.4,1.4-1.4h148.4c0.8,0,1.4,0.6,1.4,1.4v6.9
		C1850.2,961.8,1849.5,962.4,1848.8,962.4z"/>
	<path class="st2" d="M1802,983.9h-101.7c-0.8,0-1.4-0.6-1.4-1.4v-7c0-0.8,0.6-1.4,1.4-1.4h101.6c0.8,0,1.4,0.6,1.4,1.4v6.9
		C1803.4,983.2,1802.7,983.9,1802,983.9z"/>
</g>
<g>
	<path class="st4" d="M1685,1031.9v34c0,6-4.5,10.9-10.3,11.6c-0.4,0.1-0.9,0.1-1.4,0.1h-34c-0.5,0-0.9,0-1.4-0.1
		c-5.8-0.7-10.3-5.6-10.3-11.6v-34c0-6.5,5.2-11.7,11.7-11.7h34C1679.8,1020.1,1685,1025.4,1685,1031.9z"/>
	<g>
		<path class="st3" d="M1666.5,1037.8c0,5.7-4.6,10.3-10.3,10.3s-10.3-4.6-10.3-10.3c0-5.7,4.6-10.3,10.3-10.3
			S1666.5,1032.1,1666.5,1037.8z"/>
		<path class="st3" d="M1674.7,1070.1c-0.4,0.1-0.9,0.1-1.4,0.1h-34c-0.5,0-0.9,0-1.4-0.1c3.3-6.8,10.3-19.3,18.4-19.3
			C1664.4,1050.8,1671.4,1063.3,1674.7,1070.1z"/>
	</g>
</g>
<g>
	<path class="st5" d="M1848.8,1040.7h-148.5c-0.8,0-1.4-0.6-1.4-1.4v-6.9c0-0.8,0.6-1.4,1.4-1.4h148.4c0.8,0,1.4,0.6,1.4,1.4v6.9
		C1850.2,1040,1849.5,1040.7,1848.8,1040.7z"/>
	<path class="st5" d="M1802,1062.1h-101.7c-0.8,0-1.4-0.6-1.4-1.4v-6.9c0-0.8,0.6-1.4,1.4-1.4h101.6c0.8,0,1.4,0.6,1.4,1.4v6.9
		C1803.4,1061.5,1802.7,1062.1,1802,1062.1z"/>
</g>
<g>
	<g>
		<path class="st0" d="M1685,1081.1v34c0,6-4.5,10.9-10.3,11.6c-0.4,0.1-0.9,0.1-1.4,0.1h-34c-0.5,0-0.9,0-1.4-0.1
			c-5.8-0.7-10.3-5.6-10.3-11.6v-34c0-6.5,5.2-11.7,11.7-11.7h34C1679.8,1069.4,1685,1074.7,1685,1081.1z"/>
		<g>
			<path class="st0" d="M1666.5,1087.1c0,5.7-4.6,10.3-10.3,10.3s-10.3-4.6-10.3-10.3s4.6-10.3,10.3-10.3
				C1661.9,1076.8,1666.5,1081.4,1666.5,1087.1z"/>
			<path class="st0" d="M1674.7,1119.4c-0.4,0.1-0.9,0.1-1.4,0.1h-34c-0.5,0-0.9,0-1.4-0.1c3.3-6.8,10.3-19.3,18.4-19.3
				S1671.4,1112.6,1674.7,1119.4z"/>
		</g>
	</g>
	<g>
		<path class="st0" d="M1848.8,1089.9h-148.5c-0.8,0-1.4-0.6-1.4-1.4v-6.9c0-0.8,0.6-1.4,1.4-1.4h148.4c0.8,0,1.4,0.6,1.4,1.4v6.9
			C1850.2,1089.3,1849.5,1089.9,1848.8,1089.9z"/>
		<path class="st0" d="M1802,1111.4h-101.7c-0.8,0-1.4-0.6-1.4-1.4v-6.9c0-0.8,0.6-1.4,1.4-1.4h101.6c0.8,0,1.4,0.6,1.4,1.4v6.9
			C1803.4,1110.7,1802.7,1111.4,1802,1111.4z"/>
	</g>
</g>
<circle class="st5" cx="1625.2" cy="667.8" r="6.6"/>
<path class="st5" d="M1767,670.2h-52.5c-1.3,0-2.3-1.1-2.3-2.3l0,0c0-1.3,1.1-2.3,2.3-2.3h52.5c1.3,0,2.3,1.1,2.3,2.3l0,0
	C1769.3,669.1,1768.2,670.2,1767,670.2z"/>
<polygon class="st6" points="1774,508.2 1565.6,508.2 1586.9,401.7 1752.7,401.7 "/>
<path class="st1" d="M1906.7,412.3c0,5.9-4.8,10.7-10.7,10.7h-490.3c-5.9,0-10.6-4.8-10.6-10.7V71.2c0-5.8,4.8-10.6,10.6-10.6H1896
	c5.9,0,10.7,4.8,10.7,10.7V412.3z"/>
<path class="st7" d="M1405.7,423H1896c5.9,0,10.7-4.8,10.7-10.7V359h-511.6v53.3C1395.1,418.2,1399.9,423,1405.7,423z"/>
<g>
	<rect x="1437.7" y="273.7" class="st2" width="213.2" height="86.3"/>
	<rect x="1672.2" y="273.7" class="st2" width="213.2" height="86.3"/>
</g>
<path class="st5" d="M1661.5,391c0,5.9-4.8,10.6-10.6,10.6c-5.9,0-10.7-4.8-10.7-10.6c0-5.9,4.8-10.7,10.7-10.7
	C1656.8,380.3,1661.5,385.1,1661.5,391z"/>
<rect x="1437.7" y="103.2" class="st0" width="426.3" height="149.2"/>
<path class="st7" d="M1565.6,486.9c-5.9,0-10.6,4.7-10.6,10.6s4.8,10.6,10.6,10.6h197.7v-21.3L1565.6,486.9L1565.6,486.9z"/>
<path class="st5" d="M1789.4,188.5h-277.1c-5.9,0-10.7-4.8-10.7-10.7s4.8-10.6,10.7-10.6h277.1c5.9,0,10.7,4.8,10.7,10.6
	C1800.1,183.7,1795.3,188.5,1789.4,188.5z"/>
<rect x="1742.2" y="220.5" class="st0" width="147.7" height="170.6"/>
<rect x="1742.2" y="391" class="st2" width="147.7" height="88"/>
<g>
	<path class="st5" d="M1885.4,199.1h-138.6c-11.8,0-21.3,9.5-21.3,21.3v266.5c0,11.8,9.6,21.3,21.3,21.3h138.5
		c11.8,0,21.3-9.5,21.3-21.3V220.5C1906.7,208.7,1897.2,199.1,1885.4,199.1z M1885.4,486.9h-138.6V220.5h138.5L1885.4,486.9
		L1885.4,486.9z"/>
	<rect x="1741.7" y="465.6" class="st5" width="149.1" height="26.9"/>
</g>
<path class="st7" d="M1826.7,486.9c0,5.9-4.8,10.6-10.7,10.6s-10.6-4.8-10.6-10.6c0-5.9,4.8-10.7,10.6-10.7
	C1821.8,476.2,1826.7,481,1826.7,486.9z"/>
<path class="st5" d="M1853.4,316.4h-74.7c-5.9,0-10.7-4.8-10.7-10.6c0-5.9,4.8-10.6,10.7-10.6h74.7c5.9,0,10.7,4.7,10.7,10.6
	C1864,311.6,1859.3,316.4,1853.4,316.4z"/>
<image style="overflow:visible;enable-background:new    ;" width="1423" height="506" xlink:href="A32C45B.jpg"  transform="matrix(0.9992 0 0 0.9992 -69.4728 567.8734)">
</image>
<g>
	<g>
		<g>
			<g>
				<path class="st8" d="M-219.2,265.7l-3.4,8c-0.4,0.7,0.1,1.7,1,1.7h6.8c0.9,0,1.4-0.9,1-1.7l-3.4-8
					C-217.7,265-218.7,265-219.2,265.7z"/>
			</g>
			<g>
				<path class="st9" d="M-218.2,270.3c6.2,0,10,11.4,10,16.9l-0.2,216.7c0,5.5-4.5,10-10,10l0,0c-5.5,0-10-4.5-10-10l0.2-216.7
					C-228.2,281.6-224.2,270.3-218.2,270.3z"/>
			</g>
		</g>
		<rect x="-228.4" y="487.3" class="st10" width="20" height="5.8"/>
		<rect x="-228.4" y="297.9" class="st10" width="20" height="57.2"/>
	</g>
	<g>
		<path class="st11" d="M-270.8,242.6h-387.1c-12.3,0-22.3,10-22.3,22.3v252.4c0,12.3,10,22.3,22.3,22.3h387.1
			c12.3,0,22.3-10,22.3-22.3V264.8C-248.5,252.5-258.5,242.6-270.8,242.6z"/>
		<g>
			<g>
				<rect x="-636.1" y="272.2" class="st12" width="357.6" height="237"/>
			</g>
		</g>
		<path class="st10" d="M-650.3,378.4c0,5.8-4.7,10.5-10.5,10.5s-10.5-4.7-10.5-10.5s4.7-10.5,10.5-10.5
			C-655,368-650.3,372.7-650.3,378.4z"/>
		<rect x="-636.1" y="272.2" class="st13" width="23.9" height="237"/>
		<rect x="-534.8" y="272.4" class="st13" width="167.9" height="31"/>
		<circle class="st14" cx="-486.5" cy="416.2" r="35.7"/>
		<polygon class="st15" points="-415.5,346.2 -476.6,451.9 -354.5,451.9 		"/>
		<polygon class="st16" points="-636.1,272.2 -278.5,509.1 -278.5,272.2 		"/>
	</g>
</g>
<g>
	<path class="st17" d="M-228,117.4h-419.8v-257.2c0-4,3.2-7.2,7.2-7.2h405.4c4,0,7.2,3.2,7.2,7.2L-228,117.4L-228,117.4z"/>
	<rect x="-623.2" y="-118.7" class="st18" width="370.6" height="197.2"/>
	<path class="st19" d="M-221.1,131.3h-433.5c-5.9,0-11.1-3.3-13.1-8.3l-5.4-13.7c-3.2-8.1,3.5-16.5,13.1-16.5h444.3
		c9.5,0,16.2,8.4,13.1,16.5L-208,123C-210,128-215.3,131.3-221.1,131.3z"/>
	<path class="st18" d="M-432.4-131.7c0,3-2.5,5.5-5.5,5.5s-5.5-2.5-5.5-5.5s2.5-5.5,5.5-5.5S-432.4-134.7-432.4-131.7z"/>
	<rect x="-623.2" y="-118.7" class="st20" width="370.6" height="10.7"/>
	<rect x="-623.2" y="-98.3" class="st21" width="21.9" height="133.7"/>
	<rect x="-317" y="-98.3" class="st21" width="64.4" height="133.7"/>
	<rect x="-317" y="45.2" class="st21" width="64.4" height="33.3"/>
	<g>
		<rect x="-500.1" y="-87.6" class="st3" width="124.4" height="138.5"/>
		<g>
			<rect x="-490.6" y="-76" class="st15" width="105.3" height="114.5"/>
			<path class="st22" d="M-490.6,25.4h76.1l-3.2-52.9c0,0-35.5-25.5-45-25.5c-4.5,0-16.5,5.7-27.9,11.7V25.4z"/>
			<polygon class="st23" points="-490.6,9.7 -385.2,-44.1 -385.2,38.5 -490.6,38.5 			"/>
			<path class="st24" d="M-490.6,38.5c0,0,55.4-26.8,73.5-37.6c26.9-16-8.9-10.7-3.1-18.2s20.6-19.5,20.6-19.5l-91,46.5V38.5z"/>
			<path class="st14" d="M-474.5-32c14.6,5.1,23.3,7.4,16.9,13.2s5.1,9,5.1,9l34.8-17.8l0,0c0,0-35.5-25.5-45-25.5
				C-462.7-53-489.2-37.1-474.5-32z"/>
		</g>
	</g>
</g>
<polygon class="st16" points="-623.2,-118.7 -252.6,78.5 -252.6,-118.7 "/>
<path class="st3" d="M1577.3,197.8l-35.5,0.3c-0.5,0-1-0.4-1-0.9s0.4-1,0.9-1l35.5-0.3c0.5,0,1,0.4,1,0.9S1577.8,197.8,1577.3,197.8
	z"/>
<g>
	<path class="st2" d="M1077.7,15l3,247.9c0,3.1-2.4,5.6-5.5,5.7l-148.9,1.8c-3.1,0-5.6-2.4-5.7-5.5l-3.1-248c0-3.1,2.4-5.6,5.5-5.7
		l148.9-1.8C1075.1,9.4,1077.6,11.9,1077.7,15z"/>
	<g>
		<path class="st5" d="M1078.2,14.9l0.2,14.7l-160.1,1.9l-0.2-15c0-3,2.3-5.4,5.3-5.4l149.1-1.8C1075.6,9.3,1078.2,11.8,1078.2,14.9
			z"/>
	</g>
	<path class="st3" d="M929.1,24.2c-1.8,0-3.3-1.5-3.3-3.3s1.5-3.3,3.3-3.3s3.3,1.5,3.3,3.3S930.9,24.2,929.1,24.2z M929.1,18.9
		c-1.1,0-2,0.9-2,2s0.9,2,2,2s2-0.9,2-2S930.2,18.9,929.1,18.9z"/>
	<path class="st3" d="M940.1,24.1c-1.8,0-3.3-1.5-3.3-3.3s1.5-3.3,3.3-3.3s3.3,1.5,3.3,3.3S941.9,24.1,940.1,24.1z M940.1,18.8
		c-1.1,0-2,0.9-2,2s0.9,2,2,2s2-0.9,2-2S941.2,18.8,940.1,18.8z"/>
	<path class="st3" d="M950.8,24c-1.8,0-3.3-1.5-3.3-3.3s1.5-3.3,3.3-3.3s3.3,1.5,3.3,3.3S952.6,24,950.8,24z M950.8,18.8
		c-1.1,0-2,0.9-2,2s0.9,2,2,2s2-0.9,2-2C952.8,19.6,951.9,18.8,950.8,18.8z"/>
	<path class="st0" d="M1006,54.4L932,55c-0.7,0-1.3-0.6-1.3-1.3s0.6-1.3,1.3-1.3l74-0.6c0.7,0,1.3,0.6,1.3,1.3
		S1006.7,54.4,1006,54.4z"/>
	<path class="st0" d="M1030.6,54.2l-15.4,0.1c-0.7,0-1.3-0.6-1.3-1.3s0.6-1.3,1.3-1.3l15.4-0.1c0.7,0,1.3,0.6,1.3,1.3
		S1031.4,54.2,1030.6,54.2z"/>
	<path class="st0" d="M1006.4,115.8l-74,0.6c-0.7,0-1.3-0.6-1.3-1.3c0-0.7,0.6-1.3,1.3-1.3l74-0.6c0.7,0,1.3,0.6,1.3,1.3
		C1007.7,115.2,1007.2,115.8,1006.4,115.8z"/>
	<path class="st0" d="M1031.1,115.7l-15.4,0.1c-0.7,0-1.3-0.6-1.3-1.3c0-0.7,0.6-1.3,1.3-1.3l15.4-0.1c0.7,0,1.3,0.6,1.3,1.3
		C1032.4,115.1,1031.8,115.6,1031.1,115.7z"/>
	<path class="st0" d="M1006.2,83.7l-74,0.6c-0.7,0-1.3-0.6-1.3-1.3c0-0.7,0.6-1.3,1.3-1.3l74-0.6c0.7,0,1.3,0.6,1.3,1.3
		C1007.5,83.1,1006.9,83.7,1006.2,83.7z"/>
	<path class="st0" d="M1030.9,83.5l-15.4,0.1c-0.7,0-1.3-0.6-1.3-1.3c0-0.7,0.6-1.3,1.3-1.3l15.4-0.1c0.7,0,1.3,0.6,1.3,1.3
		C1032.2,82.9,1031.6,83.5,1030.9,83.5z"/>
	<path class="st0" d="M1056.1,83.4l-15.4,0.1c-0.7,0-1.3-0.6-1.3-1.3c0-0.7,0.6-1.3,1.3-1.3l15.4-0.1c0.7,0,1.3,0.6,1.3,1.3
		C1057.5,82.8,1056.9,83.3,1056.1,83.4z"/>
	<path class="st3" d="M981.4,69l-49.3,0.4c-0.7,0-1.3-0.6-1.3-1.3s0.6-1.3,1.3-1.3l49.3-0.4c0.7,0,1.3,0.6,1.3,1.3
		C982.7,68.4,982.1,69,981.4,69z"/>
	<path class="st25" d="M1012.1,68.8L990.5,69c-0.7,0-1.3-0.6-1.3-1.3s0.6-1.3,1.3-1.3l21.6-0.2c0.7,0,1.3,0.6,1.3,1.3
		C1013.4,68.2,1012.9,68.8,1012.1,68.8z"/>
	<path class="st3" d="M1012.4,99.7l-49.3,0.4c-0.7,0-1.3-0.6-1.3-1.3c0-0.7,0.6-1.3,1.3-1.3l49.3-0.4c0.7,0,1.3,0.6,1.3,1.3
		C1013.7,99.1,1013.1,99.7,1012.4,99.7z"/>
	<path class="st25" d="M954,100.1l-21.6,0.2c-0.7,0-1.3-0.6-1.3-1.3c0-0.7,0.6-1.3,1.3-1.3l21.6-0.2c0.7,0,1.3,0.6,1.3,1.3
		C955.3,99.5,954.7,100.1,954,100.1z"/>
	<path class="st25" d="M1006.6,136.6l-74,0.6c-0.7,0-1.3-0.6-1.3-1.3c0-0.7,0.6-1.3,1.3-1.3l74-0.6c0.7,0,1.3,0.6,1.3,1.3
		S1007.3,136.5,1006.6,136.6z"/>
	<path class="st3" d="M1031.3,136.4l-15.4,0.1c-0.7,0-1.3-0.6-1.3-1.3c0-0.7,0.6-1.3,1.3-1.3l15.4-0.1c0.7,0,1.3,0.6,1.3,1.3
		S1032,136.4,1031.3,136.4z"/>
	<path class="st3" d="M1007.1,198l-74,0.6c-0.7,0-1.3-0.6-1.3-1.3s0.6-1.3,1.3-1.3l74-0.6c0.7,0,1.3,0.6,1.3,1.3
		C1008.4,197.4,1007.8,198,1007.1,198z"/>
	<path class="st3" d="M1031.7,197.8l-15.4,0.1c-0.7,0-1.3-0.6-1.3-1.3c0-0.7,0.6-1.3,1.3-1.3l15.4-0.1c0.7,0,1.3,0.6,1.3,1.3
		S1032.4,197.8,1031.7,197.8z"/>
	<path class="st3" d="M1006.8,165.9l-74,0.6c-0.7,0-1.3-0.6-1.3-1.3c0-0.7,0.6-1.3,1.3-1.3l74-0.6c0.7,0,1.3,0.6,1.3,1.3
		S1007.5,165.9,1006.8,165.9z"/>
	<path class="st3" d="M1031.5,165.7l-15.4,0.1c-0.7,0-1.3-0.6-1.3-1.3s0.6-1.3,1.3-1.3l15.4-0.1c0.7,0,1.3,0.6,1.3,1.3
		C1032.8,165.1,1032.2,165.7,1031.5,165.7z"/>
	<path class="st0" d="M1056.8,165.5l-15.4,0.1c-0.7,0-1.3-0.6-1.3-1.3s0.6-1.3,1.3-1.3l15.4-0.1c0.7,0,1.3,0.6,1.3,1.3
		C1058.1,164.9,1057.5,165.5,1056.8,165.5z"/>
	<path class="st0" d="M982,151.2l-49.3,0.4c-0.7,0-1.3-0.6-1.3-1.3s0.6-1.3,1.3-1.3l49.3-0.4c0.7,0,1.3,0.6,1.3,1.3
		C983.4,150.6,982.8,151.2,982,151.2z"/>
	<path class="st0" d="M1012.8,150.9l-21.7,0.2c-0.7,0-1.3-0.6-1.3-1.3s0.6-1.3,1.3-1.3l21.6-0.2c0.7,0,1.3,0.6,1.3,1.3
		C1014.1,150.3,1013.5,150.9,1012.8,150.9z"/>
	<path class="st0" d="M1013,181.8l-49.3,0.4c-0.7,0-1.3-0.6-1.3-1.3c0-0.7,0.6-1.3,1.3-1.3l49.3-0.4c0.7,0,1.3,0.6,1.3,1.3
		S1013.7,181.8,1013,181.8z"/>
	<path class="st0" d="M954.6,182.3l-21.6,0.2c-0.7,0-1.3-0.6-1.3-1.3c0-0.7,0.6-1.3,1.3-1.3l21.6-0.2c0.7,0,1.3,0.6,1.3,1.3
		S955.3,182.3,954.6,182.3z"/>
	<path class="st0" d="M1007.2,217l-74,0.6c-0.7,0-1.3-0.6-1.3-1.3s0.6-1.3,1.3-1.3l74-0.6c0.7,0,1.3,0.6,1.3,1.3
		C1008.5,216.4,1007.9,217,1007.2,217z"/>
	<path class="st0" d="M1031.9,216.8l-15.4,0.1c-0.7,0-1.3-0.6-1.3-1.3c0-0.7,0.6-1.3,1.3-1.3l15.4-0.1c0.7,0,1.3,0.6,1.3,1.3
		C1033.2,216.2,1032.6,216.8,1031.9,216.8z"/>
	<path class="st0" d="M1032.2,255.6l-15.4,0.1c-0.7,0-1.3-0.6-1.3-1.3c0-0.7,0.6-1.3,1.3-1.3l15.3-0.2c0.7,0,1.3,0.6,1.3,1.3
		C1033.5,255,1032.9,255.6,1032.2,255.6z"/>
	<path class="st0" d="M1057.4,255.4l-15.4,0.1c-0.7,0-1.3-0.6-1.3-1.3s0.6-1.3,1.3-1.3l15.4-0.1c0.7,0,1.3,0.6,1.3,1.3
		C1058.8,254.8,1058.2,255.4,1057.4,255.4z"/>
	<path class="st3" d="M982.6,231.6l-49.3,0.4c-0.7,0-1.3-0.6-1.3-1.3c0-0.7,0.6-1.3,1.3-1.3l49.3-0.4c0.7,0,1.3,0.6,1.3,1.3
		C984,231,983.4,231.6,982.6,231.6z"/>
	<path class="st25" d="M1013.4,231.4l-21.6,0.2c-0.7,0-1.3-0.6-1.3-1.3c0-0.7,0.6-1.3,1.3-1.3l21.6-0.2c0.7,0,1.3,0.6,1.3,1.3
		C1014.7,230.8,1014.1,231.4,1013.4,231.4z"/>
</g>
<polygon class="st26" points="1241.8,-211.5 1243.5,-205.8 1243.5,-213.4 "/>
<polygon class="st26" points="1243.6,161.8 1243.6,154.2 1242,159.9 "/>
<path class="st5" d="M1243.5-246.2v32.8v7.6v91l0.1,178v91v7.6v22.1c0,10,6.3,18.5,15.2,21.8c2.5,1,5.3,1.5,8.2,1.5h16.6l183-0.1
	c4.9,0,9.4-1.5,13.2-4.1c6.1-4.2,10.1-11.3,10.1-19.2l-0.2-430.1c0-7.2-3.2-13.6-8.3-17.9c-4.1-3.4-9.3-5.5-15-5.5l-199.6,0.2
	C1253.9-269.5,1243.5-259.1,1243.5-246.2z"/>
<path class="st1" d="M1245.2-238.1v31.7v7.4v88l0.1,172.2v88v7.4V178c0,9.7,6.2,17.9,14.9,21.1c2.5,0.9,5.2,1.5,8.1,1.5h16.4
	l180.5-0.1c4.8,0,9.3-1.5,13-4c6-4.1,10-10.9,10-18.6l-0.2-416.2c0-6.9-3.2-13.1-8.2-17.3c-4-3.3-9.2-5.3-14.8-5.3l-196.9,0.1
	C1255.5-260.6,1245.2-250.5,1245.2-238.1z"/>
<g>
	<path class="st0" d="M1476.9-204.1l0.2,345.7c0,3.1-2.5,5.6-5.6,5.6l-209.4,0.1c-3.1,0-5.6-2.5-5.6-5.6l-0.2-345.7
		c0-3.1,2.5-5.6,5.6-5.6l209.4-0.1C1474.4-209.7,1476.9-207.2,1476.9-204.1z"/>
	<g>
		<path class="st0" d="M1476.9-204.2v22.4l-220.6,0.1v-22.7c0-3,2.4-5.4,5.3-5.4l209.6-0.1C1474.4-209.9,1476.9-207.3,1476.9-204.2z
			"/>
		<g>
			<path class="st0" d="M1449.7-199c-0.5,0-0.8-0.4-0.8-0.8c0-0.4,0.4-0.8,0.8-0.8h16.5l0,0c0.4,0,0.8,0.4,0.8,0.8
				c0,0.4-0.4,0.8-0.8,0.8H1449.7L1449.7-199z"/>
			<path class="st0" d="M1449.7-194.7c-0.4,0-0.8-0.4-0.8-0.8c0-0.4,0.4-0.8,0.8-0.8h16.5l0,0c0.5,0,0.8,0.4,0.8,0.8
				c0,0.4-0.4,0.8-0.8,0.8H1449.7L1449.7-194.7z"/>
			<path class="st0" d="M1449.7-190.5c-0.4,0-0.8-0.4-0.8-0.8c0-0.4,0.4-0.8,0.8-0.8h16.5l0,0c0.5,0,0.8,0.4,0.8,0.8
				c0,0.4-0.4,0.8-0.8,0.8H1449.7L1449.7-190.5z"/>
		</g>
		<path class="st0" d="M1276.1-187.8c-0.2,0-0.4-0.1-0.6-0.2l-6-6c-0.5-0.5-0.5-1.4,0-1.9l5.8-5.8c0.3-0.3,0.8-0.3,1.2,0
			c0.3,0.3,0.3,0.8,0,1.2l-5.6,5.6l5.8,5.8c0.3,0.3,0.3,0.8,0,1.2C1276.5-187.9,1276.3-187.8,1276.1-187.8z"/>
	</g>
</g>
<path class="st5" d="M1366.8-230.4c-3.3,0-6-2.7-6-6s2.7-6,6-6l0,0c3.3,0,6,2.7,6,6C1372.8-233,1370.1-230.4,1366.8-230.4
	L1366.8-230.4z M1366.8-239.8L1366.8-239.8c-1.9,0-3.4,1.5-3.4,3.4s1.5,3.4,3.4,3.4l0,0c0.9,0,1.8-0.4,2.4-1c0.6-0.7,1-1.5,1-2.4
	s-0.4-1.8-1-2.4S1367.8-239.8,1366.8-239.8z"/>
<path class="st5" d="M1361.2,190.2c-2.1,0-3.8-1.7-3.8-3.8v-11.3c0-2.1,1.7-3.8,3.8-3.8h11.3c2.1,0,3.8,1.7,3.8,3.8v11.3
	c0,2.1-1.7,3.8-3.8,3.8H1361.2z M1372.5,172.8h-11.3c-1.2,0-2.2,1-2.2,2.2v11.3c0,1.2,1,2.2,2.2,2.2h11.3c1.2,0,2.2-1,2.2-2.2V175
	C1374.7,173.8,1373.7,172.8,1372.5,172.8z"/>
<g>
	<path class="st5" d="M1293,174.7c-0.4,0-0.8-0.4-0.8-0.8c0-0.5,0.4-0.8,0.8-0.8h10.9l0,0c0.4,0,0.8,0.4,0.8,0.8
		c0,0.5-0.4,0.8-0.8,0.8H1293L1293,174.7z"/>
	<path class="st5" d="M1293,180.6c-0.4,0-0.8-0.4-0.8-0.8s0.4-0.8,0.8-0.8h10.9l0,0c0.4,0,0.8,0.4,0.8,0.8s-0.4,0.8-0.8,0.8H1293
		L1293,180.6z"/>
	<path class="st5" d="M1293,186.5c-0.4,0-0.8-0.4-0.8-0.8s0.4-0.8,0.8-0.8h10.9l0,0c0.4,0,0.8,0.4,0.8,0.8s-0.4,0.8-0.8,0.8H1293
		L1293,186.5z"/>
</g>
<path class="st5" d="M1443.4,190.2c-0.2,0-0.4-0.1-0.6-0.2l-8.6-8.6l8.3-8.3c0.3-0.3,0.8-0.3,1.2,0c0.3,0.3,0.3,0.8,0,1.2l-7.2,7.2
	l7.4,7.4c0.3,0.3,0.3,0.8,0,1.2C1443.8,190.1,1443.6,190.2,1443.4,190.2z"/>
<rect x="1256.7" y="-181.4" class="st27" width="220.2" height="72.1"/>
<path class="st5" d="M1356.1-149H1277c-1.3,0-2.3-1-2.3-2.3v-13.3c0-1.3,1-2.3,2.3-2.3h79.1c1.3,0,2.3,1,2.3,2.3v13.3
	C1358.4-150,1357.4-149,1356.1-149z"/>
<path class="st5" d="M1399.6-130l-122.5,0.1c-1.3,0-2.3-1-2.3-2.3v-4.3c0-1.3,1-2.3,2.3-2.3l122.5-0.1c1.3,0,2.3,1,2.3,2.3v4.3
	C1401.9-131.1,1400.8-130,1399.6-130z"/>
<path class="st5" d="M1449.8-131.5c-4.5,0-8.8-1.8-12-4.9c-3.2-3.2-5-7.4-5-12c0-4.5,1.8-8.8,4.9-12c3.2-3.2,7.4-5,12-5l0,0
	c4.5,0,8.8,1.8,12,4.9c3.2,3.2,5,7.4,5,12l0,0c0,4.5-1.8,8.8-4.9,12C1458.6-133.3,1454.4-131.5,1449.8-131.5L1449.8-131.5z
	 M1449.8-162.1L1449.8-162.1c-3.7,0-7.1,1.4-9.7,4s-4,6-4,9.7c0,3.6,1.4,7.1,4,9.7c2.6,2.6,6,4,9.7,4l0,0c3.6,0,7.1-1.4,9.7-4
	s4-6,4-9.7l0,0c0-3.6-1.4-7.1-4-9.7S1453.5-162.1,1449.8-162.1z"/>
<path class="st2" d="M1320.1-31.9h-36.4c-4.1,0-7.4-3.3-7.4-7.4v-36.4c0-4.1,3.3-7.4,7.4-7.4h36.4c4.1,0,7.4,3.3,7.4,7.4v36.4
	C1327.5-35.2,1324.2-31.9,1320.1-31.9z"/>
<path class="st5" d="M1312.9-57.2c0,6.1-4.9,11.1-11.1,11.1c-6.1,0-11.1-4.9-11.1-11.1c0-6.1,4.9-11.1,11.1-11.1
	S1312.9-63.4,1312.9-57.2z"/>
<path class="st2" d="M1320.1,117.3h-36.4c-4.1,0-7.4-3.3-7.4-7.4V73.5c0-4.1,3.3-7.4,7.4-7.4h36.4c4.1,0,7.4,3.3,7.4,7.4v36.4
	C1327.6,114,1324.2,117.3,1320.1,117.3z"/>
<path class="st5" d="M1313,91.9c0,6.1-4.9,11.1-11.1,11.1c-6.1,0-11.1-4.9-11.1-11.1c0-6.1,4.9-11.1,11.1-11.1
	C1308,80.8,1313,85.8,1313,91.9z"/>
<path class="st2" d="M1320.1,42.5h-36.4c-4.1,0-7.4-3.3-7.4-7.4V-1.3c0-4.1,3.3-7.4,7.4-7.4h36.4c4.1,0,7.4,3.3,7.4,7.4v36.4
	C1327.5,39.2,1324.2,42.5,1320.1,42.5z"/>
<ellipse class="st5" cx="1301.9" cy="17.2" rx="11.1" ry="11.1"/>
<path class="st3" d="M1537.2,48.4c-1.3,0-2.4-1-2.4-2.4c0-1.3,1-2.4,2.4-2.4c1.3,0,2.4,1,2.4,2.4
	C1539.6,47.3,1538.5,48.4,1537.2,48.4z M1537.2,44.6c-0.8,0-1.4,0.6-1.4,1.4s0.6,1.4,1.4,1.4s1.4-0.6,1.4-1.4S1538,44.6,1537.2,44.6
	z"/>
<path class="st3" d="M1545.1,48.3c-1.3,0-2.4-1-2.4-2.4c0-1.3,1-2.4,2.4-2.4c1.3,0,2.4,1,2.4,2.4S1546.4,48.3,1545.1,48.3z
	 M1545.1,44.6c-0.8,0-1.4,0.6-1.4,1.4s0.6,1.4,1.4,1.4s1.4-0.6,1.4-1.4S1545.9,44.5,1545.1,44.6z"/>
<path class="st3" d="M1552.8,48.3c-1.3,0-2.4-1-2.4-2.4c0-1.3,1-2.4,2.4-2.4c1.3,0,2.4,1,2.4,2.4
	C1555.2,47.2,1554.2,48.3,1552.8,48.3z M1552.8,44.5c-0.8,0-1.4,0.6-1.4,1.4s0.6,1.4,1.4,1.4s1.4-0.6,1.4-1.4
	S1553.6,44.5,1552.8,44.5z"/>
<path class="st3" d="M1592.6,70.2l-53.3,0.4c-0.5,0-1-0.4-1-0.9s0.4-1,0.9-1l53.3-0.4c0.5,0,1,0.4,1,0.9S1593.1,70.2,1592.6,70.2z"
	/>
<path class="st3" d="M1592.9,114.4l-53.3,0.4c-0.5,0-1-0.4-1-0.9s0.4-1,0.9-1l53.3-0.4c0.5,0,1,0.4,1,0.9
	C1593.8,114,1593.4,114.4,1592.9,114.4z"/>
<path class="st3" d="M1592.7,91.3l-53.3,0.4c-0.5,0-1-0.4-1-0.9s0.4-1,0.9-1l53.3-0.4c0.5,0,1,0.4,1,0.9S1593.2,91.3,1592.7,91.3z"
	/>
<path class="st3" d="M1574.9,80.7l-35.5,0.3c-0.5,0-1-0.4-1-0.9s0.4-1,0.9-1l35.5-0.3c0.5,0,1,0.4,1,0.9
	C1575.8,80.3,1575.4,80.7,1574.9,80.7z"/>
<path class="st3" d="M1597,80.5l-15.6,0.1c-0.5,0-1-0.4-1-0.9s0.4-1,0.9-1l15.6-0.1c0.5,0,1,0.4,1,0.9
	C1597.9,80.1,1597.5,80.5,1597,80.5z"/>
<path class="st3" d="M1597.2,102.8l-35.5,0.3c-0.5,0-1-0.4-1-0.9s0.4-1,0.9-1l35.5-0.3c0.5,0,1,0.4,1,0.9S1597.7,102.8,1597.2,102.8
	z"/>
<path class="st3" d="M1555.1,103.1l-15.6,0.1c-0.5,0-1-0.4-1-0.9s0.4-1,0.9-1l15.6-0.1c0.5,0,1,0.4,1,0.9
	C1556,102.7,1555.6,103.1,1555.1,103.1z"/>
<path class="st3" d="M1593,129.3l-53.3,0.4c-0.5,0-1-0.4-1-0.9s0.4-1,0.9-1l53.3-0.4c0.5,0,1,0.4,1,0.9
	C1594,128.9,1593.5,129.3,1593,129.3z"/>
<path class="st3" d="M1593.3,173.6L1540,174c-0.5,0-1-0.4-1-0.9s0.4-1,0.9-1l53.3-0.4c0.5,0,1,0.4,1,0.9
	C1594.3,173.1,1593.9,173.5,1593.3,173.6z"/>
<path class="st3" d="M1593.2,150.4l-53.3,0.4c-0.5,0-1-0.4-1-0.9s0.4-1,0.9-1l53.3-0.4c0.5,0,1,0.4,1,0.9
	C1594.1,150,1593.7,150.4,1593.2,150.4z"/>
<path class="st3" d="M1575.3,139.8l-35.5,0.3c-0.5,0-1-0.4-1-0.9s0.4-1,0.9-1l35.5-0.3c0.5,0,1,0.4,1,0.9
	C1576.3,139.4,1575.8,139.8,1575.3,139.8z"/>
<path class="st3" d="M1597.4,139.7l-15.6,0.1c-0.5,0-1-0.4-1-0.9s0.4-1,0.9-1l15.6-0.1c0.5,0,1,0.4,1,0.9
	C1598.4,139.2,1598,139.7,1597.4,139.7z"/>
<path class="st3" d="M1597.6,161.9l-35.5,0.3c-0.5,0-1-0.4-1-0.9s0.4-1,0.9-1l35.5-0.3c0.5,0,1,0.4,1,0.9
	C1598.6,161.5,1598.1,161.9,1597.6,161.9z"/>
<path class="st3" d="M1555.5,162.2l-15.6,0.1c-0.5,0-1-0.4-1-0.9s0.4-1,0.9-1l15.6-0.1c0.5,0,1,0.4,1,0.9
	C1556.5,161.8,1556.1,162.2,1555.5,162.2z"/>
<path class="st3" d="M1593.4,187.2l-53.3,0.4c-0.5,0-1-0.4-1-0.9s0.4-1,0.9-1l53.3-0.4c0.5,0,1,0.4,1,0.9S1594,187.2,1593.4,187.2z"
	/>
<path class="st0" d="M1636.7-254.5l2.1,209.8c0,3.1-2.4,5.6-5.5,5.6l-125.4,1.3c-3.1,0-5.6-2.4-5.6-5.5l-2.1-209.8
	c0-3.1,2.4-5.6,5.5-5.6l125.4-1.3C1634.1-260,1636.6-257.5,1636.7-254.5z"/>
<g>
	<path class="st5" d="M1637.1-254.5l0.1,11.7l-136.6,1.4l-0.1-12c0-3,2.3-5.4,5.3-5.4l125.6-1.3
		C1634.6-260.1,1637.1-257.6,1637.1-254.5z"/>
	<g>
		<path class="st5" d="M1620.3-252.9c-0.4,0-0.8-0.4-0.8-0.8c0-0.4,0.4-0.8,0.8-0.8l10.2-0.1c0.4-0.1,0.8,0.4,0.8,0.8
			c0,0.4-0.4,0.8-0.8,0.8L1620.3-252.9L1620.3-252.9z"/>
		<path class="st5" d="M1620.3-250.3c-0.4,0-0.8-0.4-0.8-0.8s0.4-0.8,0.8-0.8l10.2-0.1c0.4,0,0.8,0.4,0.8,0.8c0,0.4-0.4,0.8-0.8,0.8
			L1620.3-250.3L1620.3-250.3z"/>
		<path class="st5" d="M1620.3-247.7c-0.4,0-0.8-0.4-0.8-0.8c0-0.4,0.4-0.8,0.8-0.8l10.2-0.1l0,0c0.4,0,0.8,0.4,0.8,0.8
			s-0.4,0.8-0.8,0.8L1620.3-247.7L1620.3-247.7z"/>
	</g>
	<path class="st5" d="M1512.9-245c-0.2,0-0.4-0.1-0.6-0.2l-3.8-3.7c-0.4-0.4-0.5-1.2,0-1.6l3.5-3.6c0.3-0.3,0.8-0.3,1.2,0
		c0.3,0.3,0.3,0.8,0,1.2l-3.2,3.3l3.4,3.3c0.3,0.3,0.3,0.8,0,1.2C1513.3-245.1,1513.1-245,1512.9-245z"/>
</g>
<path class="st5" d="M1633-38.7L1507.2-38c-3,0-5.5-2.4-5.5-5.5l-0.2-43.6l136.8-0.8l0.2,43.6C1638.5-41.2,1636-38.7,1633-38.7z"/>
<path class="st3" d="M1532.5-69c-0.9,0-1.6-0.7-1.6-1.6s0.7-1.6,1.6-1.6l74.8-0.4l0,0c0.9,0,1.6,0.7,1.6,1.6s-0.7,1.6-1.6,1.6
	L1532.5-69L1532.5-69z"/>
<path class="st3" d="M1547.7-57.8c-0.9,0-1.6-0.7-1.6-1.6c0-0.9,0.7-1.6,1.6-1.6l44.5-0.3l0,0c0.9,0,1.6,0.7,1.6,1.6
	c0,0.9-0.7,1.6-1.6,1.6L1547.7-57.8L1547.7-57.8z"/>
<path class="st3" d="M1599.2,0.5l2.1,209.8c0,3.1-2.4,5.6-5.5,5.6l-125.4,1.3c-3.1,0-5.6-2.4-5.6-5.5l-2.1-209.8
	c0-3.1,2.4-5.6,5.5-5.6L1593.6-5C1596.7-5.1,1599.2-2.6,1599.2,0.5z"/>
<path class="st2" d="M1599.2,0.5l2.1,209.8c0,3.1-2.4,5.6-5.5,5.6l-125.4,1.3c-3.1,0-5.6-2.4-5.6-5.5l-2.1-209.8
	c0-3.1,2.4-5.6,5.5-5.6L1593.6-5C1596.7-5.1,1599.2-2.6,1599.2,0.5z"/>
<g>
	<path class="st5" d="M1599.7,0.4l0.1,11.7l-136.6,1.4l-0.1-12c0-3,2.3-5.4,5.3-5.4L1594-5.2C1597.1-5.2,1599.7-2.7,1599.7,0.4z"/>
	<g>
		<path class="st5" d="M1582.8,2c-0.4,0-0.8-0.4-0.8-0.8s0.4-0.8,0.8-0.8l10.2-0.1c0.4,0,0.8,0.4,0.8,0.8s-0.4,0.8-0.8,0.8L1582.8,2
			C1582.9,2,1582.8,2,1582.8,2z"/>
		<path class="st5" d="M1582.9,4.6c-0.4,0-0.8-0.4-0.8-0.8s0.4-0.8,0.8-0.8l10.2-0.1l0,0c0.4,0,0.8,0.4,0.8,0.8s-0.4,0.8-0.8,0.8
			L1582.9,4.6L1582.9,4.6z"/>
		<path class="st5" d="M1582.9,7.2c-0.4,0-0.8-0.4-0.8-0.8s0.4-0.8,0.8-0.8l10.2-0.1l0,0c0.4,0,0.8,0.4,0.8,0.8s-0.4,0.8-0.8,0.8
			L1582.9,7.2L1582.9,7.2z"/>
	</g>
	<path class="st5" d="M1475.4,9.9c-0.2,0-0.4-0.1-0.6-0.2L1471,6c-0.4-0.4-0.5-1.2,0-1.6l3.5-3.6c0.3-0.3,0.8-0.3,1.2,0
		c0.3,0.3,0.3,0.8,0,1.2l-3.1,3.2l3.4,3.3c0.3,0.3,0.3,0.8,0,1.2C1475.8,9.8,1475.6,9.9,1475.4,9.9z"/>
</g>
<g class="st28">
	<path class="st3" d="M1595.6,216.2l-125.8,0.7c-3,0-5.5-2.4-5.5-5.5l-0.2-43.6l136.8-0.8l0.2,43.6
		C1601,213.8,1598.6,216.2,1595.6,216.2z"/>
	<path class="st3" d="M1469.7,217.8c-1.7,0-3.2-0.6-4.4-1.8c-1.2-1.2-1.9-2.8-1.9-4.5l-0.3-44.4l138.4-0.8l0.2,44.4
		c0,3.5-2.8,6.3-6.3,6.3L1469.7,217.8L1469.7,217.8z M1464.8,168.7l0.2,42.8c0,1.3,0.5,2.4,1.4,3.3c0.9,0.9,2,1.4,3.3,1.4l0,0
		l125.8-0.7c2.6,0,4.7-2.1,4.7-4.7L1600,168L1464.8,168.7z"/>
</g>
<path class="st5" d="M1495.1,185.9c-0.9,0-1.6-0.7-1.6-1.6s0.7-1.6,1.6-1.6l74.8-0.4l0,0c0.9,0,1.6,0.7,1.6,1.6s-0.7,1.6-1.6,1.6
	L1495.1,185.9L1495.1,185.9z"/>
<path class="st5" d="M1510.3,197.1c-0.9,0-1.6-0.7-1.6-1.6s0.7-1.6,1.6-1.6l44.5-0.3l0,0c0.9,0,1.6,0.7,1.6,1.6s-0.7,1.6-1.6,1.6
	L1510.3,197.1L1510.3,197.1z"/>
<path class="st0" d="M1555.1,149.5l-38.6,0.2c-4.7,0-8.5-3.7-8.5-8.4l0,0c0-4.7,3.7-8.5,8.4-8.5l38.6-0.2c4.7,0,8.5,3.7,8.5,8.4l0,0
	C1563.5,145.6,1559.8,149.5,1555.1,149.5z"/>
<path class="st0" d="M1888.1,982.2v-81.7h57.2c13.5,0,24.5,11,24.5,24.5v57.2H1888.1z"/>
<g>
	<path class="st5" d="M1992.8,717.4h-108.9v-39.9c0-13.5,11-24.5,24.5-24.5h84.5L1992.8,717.4L1992.8,717.4z"/>
	
		<text transform="matrix(1 0 0 1 1913.3567 696.9795)" class="st3" style="font-family:'Montserrat-ExtraBold'; font-size:33.2414px;">&lt;/&gt;</text>
</g>
<path class="st2" d="M1974.3,1150.9h-139.8c-7.6,0-13.7-5.7-13.7-12.8v-19.7c0-7.1,6.1-12.8,13.7-12.8h139.8
	c7.6,0,13.7,5.7,13.7,12.8v19.7C1988.1,1145.2,1981.9,1150.9,1974.3,1150.9z"/>
<g>
	<path class="st3" d="M1880.3,1128.4c0,1.3-1.1,2.4-2.4,2.4s-2.4-1.1-2.4-2.4s1.1-2.4,2.4-2.4
		C1879.3,1126,1880.3,1127.1,1880.3,1128.4z"/>
	<path class="st3" d="M1903.5,1128.4c0,1.3-1.1,2.4-2.4,2.4s-2.4-1.1-2.4-2.4s1.1-2.4,2.4-2.4
		C1902.5,1126,1903.5,1127.1,1903.5,1128.4z"/>
	<path class="st3" d="M1926.7,1128.4c0,1.3-1.1,2.4-2.4,2.4s-2.4-1.1-2.4-2.4s1.1-2.4,2.4-2.4
		C1925.7,1126,1926.7,1127.1,1926.7,1128.4z"/>
	<path class="st3" d="M1949.9,1128.4c0,1.3-1.1,2.4-2.4,2.4s-2.4-1.1-2.4-2.4s1.1-2.4,2.4-2.4
		C1948.9,1126,1949.9,1127.1,1949.9,1128.4z"/>
	<path class="st3" d="M1973.2,1128.4c0,1.3-1.1,2.4-2.4,2.4s-2.4-1.1-2.4-2.4s1.1-2.4,2.4-2.4S1973.2,1127.1,1973.2,1128.4z"/>
</g>
<path class="st2" d="M1932.6,1107.3l-10.7-10.7c-1.4-1.4-3.8-1.4-5.2,0l-10.7,10.7c-1.4,1.4-1.4,3.8,0,5.2l10.7,10.7
	c1.4,1.4,3.8,1.4,5.2,0l10.7-10.7C1934.1,1111.1,1934.1,1108.8,1932.6,1107.3z"/>
<g>
	<g>
		<text transform="matrix(1 0 0 1 1164.1958 310.7874)" class="st3" style="font-family:'OpenSans-Semibold'; font-size:8px;">Temperature</text>
		<g>
			<circle class="st3" cx="1423.7" cy="308.6" r="0.8"/>
			<circle class="st3" cx="1423.7" cy="312.6" r="0.8"/>
			<circle class="st3" cx="1423.7" cy="304.6" r="0.8"/>
		</g>
	</g>
	<g>
		<text transform="matrix(1 0 0 1 1164.1958 487.7468)" class="st3" style="font-family:'OpenSans'; font-size:5px;">LAST DAYS</text>
	</g>
	<g>
		<g>
			<g>
				<path class="st29" d="M1325.1,411.2c7.5-7.6,12.2-18.1,12.2-29.7c0-23.4-19-42.4-42.4-42.4s-42.4,19-42.4,42.4
					c0,11.7,4.7,22.3,12.4,30"/>
				<circle class="st3" cx="1294.9" cy="381.5" r="34.6"/>
				<circle class="st30" cx="1294.9" cy="381.5" r="31.9"/>
				<text transform="matrix(1 0 0 1 1277.1484 386.8418)" style="fill:#444444; font-family:'OpenSans'; font-size:16.4975px;">23ºC</text>
				<g>
					<g>
						<line class="st31" x1="1294.9" y1="333.5" x2="1294.9" y2="328.4"/>
						<line class="st31" x1="1241.7" y1="381.5" x2="1246.8" y2="381.5"/>
					</g>
					<g>
						<line class="st31" x1="1348" y1="381.5" x2="1342.9" y2="381.5"/>
					</g>
					<g>
						<line class="st31" x1="1260.9" y1="347.6" x2="1257.3" y2="343.9"/>
						<line class="st31" x1="1257.3" y1="419.1" x2="1260.9" y2="415.5"/>
					</g>
					<g>
						<line class="st31" x1="1328.8" y1="415.5" x2="1332.5" y2="419.1"/>
						<line class="st31" x1="1332.5" y1="343.9" x2="1328.8" y2="347.6"/>
					</g>
					<g>
						<line class="st31" x1="1276.9" y1="337" x2="1274.9" y2="332.3"/>
						<line class="st31" x1="1245.6" y1="401.5" x2="1250.3" y2="399.6"/>
					</g>
					<g>
						<line class="st31" x1="1344.2" y1="361.6" x2="1339.4" y2="363.5"/>
					</g>
					<g>
						<line class="st31" x1="1250.7" y1="362.8" x2="1245.9" y2="360.8"/>
					</g>
					<g>
						<line class="st31" x1="1339.1" y1="400.3" x2="1343.8" y2="402.3"/>
						<line class="st31" x1="1315.6" y1="332.6" x2="1313.6" y2="337.3"/>
					</g>
				</g>
				<path class="st32" d="M1334.1,365.5c-6.3-15.4-21.5-26.3-39.2-26.3c-23.4,0-42.4,19-42.4,42.4c0,11.7,4.7,22.3,12.4,30"/>
				<g>
					<g>
						<path class="st33" d="M1266.9,411.5c0-1.1-0.9-2-2-2s-2,0.9-2,2s0.9,2,2,2S1266.9,412.6,1266.9,411.5z"/>
						<path class="st33" d="M1336.1,365.7c0-1.1-0.9-2-2-2s-2,0.9-2,2s0.9,2,2,2S1336.1,366.8,1336.1,365.7z"/>
					</g>
				</g>
			</g>
			<g>
				<text transform="matrix(1 0 0 1 1352.4167 383.5608)" class="st3" style="font-family:'OpenSans'; font-size:5.7621px;">30ºC</text>
				<text transform="matrix(1 0 0 1 1288.6865 324.738)" class="st3" style="font-family:'OpenSans'; font-size:5.7621px;">20ºC</text>
				<text transform="matrix(1 0 0 1 1225.2676 383.7122)" class="st3" style="font-family:'OpenSans'; font-size:5.7621px;">10ºC</text>
			</g>
		</g>
		<g>
			<g>
				<path class="st34" d="M1397.2,388.7h-10c-1.3,0-2.3-1-2.3-2.3v-10c0-1.3,1-2.3,2.3-2.3h10c1.3,0,2.3,1,2.3,2.3v10
					C1399.6,387.7,1398.5,388.7,1397.2,388.7z"/>
				<g>
					<line class="st35" x1="1392.3" y1="379.2" x2="1392.3" y2="383.6"/>
					<line class="st35" x1="1394.4" y1="381.4" x2="1390.1" y2="381.4"/>
				</g>
			</g>
			<g>
				<path class="st34" d="M1203.2,388.7h-10c-1.3,0-2.3-1-2.3-2.3v-10c0-1.3,1-2.3,2.3-2.3h10c1.3,0,2.3,1,2.3,2.3v10
					C1205.6,387.7,1204.5,388.7,1203.2,388.7z"/>
				<line class="st35" x1="1200.3" y1="381.4" x2="1196.2" y2="381.4"/>
			</g>
		</g>
	</g>
	<g>
		<g>
			<text transform="matrix(1 0 0 1 1161.9824 474.2827)" class="st3" style="font-family:'OpenSans'; font-size:5px;">10        11        12       13        14        15        16        17        18        19        20        21        22        23       24</text>
		</g>
		<g>
			<polygon class="st34" points="1164.9,456.1 1188.6,450.4 1210.9,453.3 1234.3,453.3 1257.5,442.5 1279.5,439 1302.5,439 
				1325.7,435.5 1348.7,443.2 1372.1,443.2 1394.4,454.5 1421.4,447.9 1421.4,465.4 1164.9,465.4 			"/>
			<polyline class="st36" points="1164.9,456.1 1188.6,450.4 1210.9,453.3 1234.3,453.3 1257.5,442.5 1279.5,439 1302.5,439 
				1325.7,435.5 1348.7,443.2 1372.1,443.2 1394.4,454.5 1421.4,447.9 			"/>
		</g>
	</g>
</g>
<ellipse class="st5" cx="672.4" cy="485.6" rx="27.6" ry="27.6"/>
<path class="st3" d="M680.1,473.2c-5.3,1.8-9,6.1-9,6.1s-4.3,3.8-6.1,9c-1.8,5.3,0.1,10.1,4.4,12.4c0,0,5.2-2.2,4.6-7.8
	c0,0-5.7-4.2,0.4-10.3c6.1-6.1,10.3-0.4,10.3-0.4s4.4,1,7.8-4.6C690.2,473.2,685.3,471.3,680.1,473.2z"/>
<path class="st0" d="M1083.9,547.6H998c-4.2,0-7.5-3.4-7.5-7.5V366c0-4.2,3.4-7.5,7.5-7.5h85.9c4.2,0,7.5,3.4,7.5,7.5v174.1
	C1091.4,544.2,1088,547.6,1083.9,547.6z"/>
<g>
	<line class="st37" x1="373.7" y1="483.7" x2="390.1" y2="483.7"/>
	<g>
		
			<image style="overflow:visible;opacity:0.65;enable-background:new    ;" width="576" height="572" xlink:href="A32C45C.png"  transform="matrix(0.9983 0 0 0.9983 -31.7104 -29.7138)">
		</image>
		<g>
			<path class="st5" d="M492.3,504.6H18.5C11,504.6,5,498.5,5,491.1V21c0-7.5,6.1-13.5,13.5-13.5h473.9c7.5,0,13.5,6.1,13.5,13.5
				v470.1C505.9,498.5,499.8,504.6,492.3,504.6z"/>
		</g>
	</g>
	<path class="st2" d="M307.6,479.9h-93.2c-4.2,0-7.5-3.4-7.5-7.5v-225c0-4.2,3.4-7.5,7.5-7.5h93.2c4.2,0,7.5,3.4,7.5,7.5v225
		C315.1,476.5,311.8,479.9,307.6,479.9z"/>
	<path class="st0" d="M288.7,412.7v14.2c0,7.4-7.2,13.4-15.9,13.4h-35.6c-8.8,0-15.9-6-15.9-13.4v-14.2c0-7.4,7.2-13.4,15.9-13.4
		h35.6C281.6,399.4,288.7,405.4,288.7,412.7z"/>
	<path class="st2" d="M327.5,232.1H196.4c-5.6,0-10.1-2.9-10.1-6.3V34.6c0-3.5,4.6-6.3,10.1-6.3h131.1c5.6,0,10.1,2.9,10.1,6.3
		v191.2C337.6,229.3,333.2,232.1,327.5,232.1z"/>
	<g>
		<path class="st0" d="M320.1,69L202,68.9c-2.1,0-3.9-1.6-3.9-3.9V53.3c0-2.1,1.6-3.9,3.9-3.9l118.1,0.1c2.1,0,3.9,1.6,3.9,3.9v11.7
			C324,67.4,322.3,69,320.1,69z"/>
		<path class="st0" d="M320.8,83.9H201.5c-1.7,0-3.2-1.5-3.2-3.2l0,0c0-1.7,1.5-3.2,3.2-3.2l119.3,0.1c1.7,0,3.2,1.5,3.2,3.2l0,0
			C324,82.6,322.6,83.9,320.8,83.9z"/>
		<g>
			<path class="st38" d="M312.2,121.6l-107.4,0.5c-5.1,0-9.3-4-9.3-9.3v-2.3c0-5.1,4-9.3,9.3-9.3l107.4-0.5c5.1,0,9.3,4,9.3,9.3v2.3
				C321.3,117.4,317.3,121.6,312.2,121.6z"/>
			<g>
				<path class="st39" d="M212.8,111.9c0,3.5-2.8,6.3-6.3,6.4c-3.5,0-6.3-2.8-6.4-6.3c0-3.5,2.8-6.3,6.3-6.4
					C209.8,105.6,212.8,108.4,212.8,111.9z"/>
				<g>
					<path class="st0" d="M208.6,110.1c0,1.3-0.9,2.3-2.3,2.3c-1.3,0-2.3-0.9-2.3-2.3c0-1.3,0.9-2.3,2.3-2.3
						C207.7,107.8,208.6,108.8,208.6,110.1z"/>
					<path class="st0" d="M209.8,116h-6.9v-0.8c0-2,1.6-3.6,3.6-3.6l0,0c1.7,0,3.2,1.5,3.2,3.2L209.8,116L209.8,116z"/>
				</g>
			</g>
		</g>
		<g>
			<path class="st38" d="M312.3,155.4L205,156c-5.1,0-9.3-4-9.3-9.3v-2.3c0-5.1,4-9.3,9.3-9.3l107.4-0.5c5.1,0,9.3,4,9.3,9.3v2.3
				C321.5,151.2,317.4,155.4,312.3,155.4z"/>
			<g>
				<path class="st39" d="M212.9,145.7c0,3.5-2.8,6.3-6.3,6.4c-3.5,0-6.3-2.8-6.4-6.3c0-3.5,2.8-6.3,6.3-6.4
					C210.1,139.3,212.9,142.1,212.9,145.7z"/>
				<g>
					<path class="st0" d="M208.7,149.8h-4.3c-0.4,0-0.5-0.3-0.5-0.5v-3.9c0-0.4,0.3-0.5,0.5-0.5h4.3c0.4,0,0.5,0.3,0.5,0.5v3.9
						C209.4,149.4,209.1,149.8,208.7,149.8z"/>
					<path class="st0" d="M204.3,145.1v-1.6c0-0.4,0.1-0.8,0.5-1.1c0.3-0.3,0.7-0.5,1.1-0.5h1.5l0,0c0.4,0,0.7,0.1,0.9,0.4
						c0.2,0.3,0.4,0.5,0.4,0.9v1.6h-0.5v-1.6c0-0.3-0.1-0.5-0.3-0.5c-0.1-0.1-0.4-0.3-0.5-0.3l0,0h-1.5c-0.3,0-0.5,0.1-0.7,0.4
						c-0.3,0.3-0.4,0.5-0.4,0.7v1.6L204.3,145.1L204.3,145.1z"/>
				</g>
			</g>
		</g>
	</g>
	<path class="st0" d="M19.3,473.2V31.3c0-4.2,5.5-7.5,12-7.5h125.3c6.7,0,12,3.4,12,7.5v441.9c0,4.2-5.5,7.5-12,7.5H31.5
		C24.8,480.8,19.3,477.4,19.3,473.2z"/>
	<g>
		<path class="st5" d="M158.3,66.7v74.7c0,13.2-9.8,24-22.3,25.5c-0.8,0.2-2,0.2-3,0.2H59.3c-1.2,0-2,0-3-0.2
			C43.7,165.4,34,154.7,34,141.4V66.7c0-14.2,11.2-25.8,25.3-25.8H133C147,41.1,158.3,52.6,158.3,66.7z"/>
		<g>
			<path class="st3" d="M118.3,79.9c0,12.6-9.9,22.6-22.3,22.6s-22.3-10-22.3-22.6S83.6,57.3,96,57.3S118.3,67.3,118.3,79.9z"/>
			<path class="st3" d="M136,150.8c-0.8,0.2-2,0.2-3,0.2H59.3c-1.2,0-2,0-3-0.2c7.1-14.9,22.3-42.5,39.8-42.5S128.9,135.9,136,150.8
				z"/>
		</g>
	</g>
	<path class="st2" d="M145.3,234.6l-101.7,0.3c-1.9,0-3.3-0.8-3.3-1.7v-5.8c0-1,1.6-1.7,3.3-1.7l101.7-0.3c1.9,0,3.3,0.8,3.3,1.7
		v5.8C148.6,233.8,147,234.6,145.3,234.6z"/>
	<g>
		<path class="st40" d="M147.7,274.9L42,275.7c-5,0-9.1-5.5-9.1-12.4v-3c0-6.9,4-12.4,9.1-12.4l105.7-0.8c5,0,9.1,5.5,9.1,12.4v3
			C156.8,269.2,152.7,274.9,147.7,274.9z"/>
		<g>
			<path class="st41" d="M55.7,261.6c0,4.7-3.9,8.6-8.4,8.7c-4.7,0-8.4-3.9-8.6-8.6c-0.2-4.7,3.9-8.6,8.4-8.7
				C51.9,253,55.7,256.7,55.7,261.6z"/>
			<g>
				<path class="st2" d="M50.4,259.3c0,1.8-1.3,3-3,3s-3-1.3-3-3c0-1.8,1.3-3,3-3C48.8,256.2,50.4,257.4,50.4,259.3z"/>
				<path class="st2" d="M51.7,267.1h-9.1V266c0-2.7,2-4.9,4.9-4.9l0,0c2.3,0,4.4,2,4.4,4.4v1.7h-0.2V267.1z"/>
			</g>
		</g>
		<path class="st40" d="M148.5,320.5l-106.4,0.8c-5,0-9.1-5.5-9.1-12.4v-3.2c0-6.9,4-12.4,9.1-12.4l106.4-0.8c5,0,9.1,5.5,9.1,12.4
			v3C157.8,314.8,153.6,320.3,148.5,320.5z"/>
		<g>
			<path class="st41" d="M55.9,307.4c0,4.7-3.9,8.6-8.4,8.7c-4.7,0-8.4-3.9-8.6-8.6c0-4.7,3.9-8.6,8.4-8.7
				C52,298.5,55.9,302.6,55.9,307.4z"/>
			<g>
				<path class="st2" d="M50.4,312.6h-5.8c-0.5,0-0.8-0.3-0.8-0.8v-5.2c0-0.5,0.3-0.8,0.8-0.8h5.7c0.5,0,0.8,0.3,0.8,0.8v5.2
					C51.2,312.3,50.9,312.6,50.4,312.6z"/>
				<path class="st2" d="M44.5,306.6v-2.2c0-0.5,0.2-1.2,0.7-1.5c0.3-0.3,1-0.7,1.5-0.7h1.8l0,0c0.5,0,1,0.2,1.3,0.5
					s0.5,0.8,0.5,1.3v2.3h-0.7V304c0-0.3-0.2-0.7-0.3-0.8c-0.2-0.2-0.5-0.3-0.8-0.3l0,0h-1.8c-0.3,0-0.8,0.2-1,0.5
					c-0.3,0.3-0.5,0.7-0.5,1v2.2H44.5z"/>
			</g>
		</g>
	</g>
	<path class="st2" d="M110.6,357l-36.7,0.2c-4.5,0-8.1-3.6-8.1-8.1l0,0c0-4.5,3.5-8.2,8-8.2l36.7-0.2c4.5,0,8.1,3.6,8.1,8.1l0,0
		C118.6,353.2,115.1,356.9,110.6,357z"/>
	<g>
		<path class="st3" d="M478.4,479H194.1c-4.9,0-8.8-4-8.8-8.8V261.8c0-4.9,4-8.8,8.8-8.8h284.3c4.9,0,8.8,4,8.8,8.8v208.4
			C487.2,475,483.2,479,478.4,479z"/>
		<path class="st5" d="M324.3,353v100.4c0,8.2-6.1,14.8-13.7,14.8H209.1c-7.6,0-13.7-6.6-13.7-14.8V353c0-8.2,6.1-14.8,13.7-14.8
			h101.1C318,338.3,324.3,345,324.3,353z"/>
		<g>
			<path class="st3" d="M294.4,385.4h11.7c1.8,0,3.3-1.4,3.3-3.3v-26.9c0-1.8-1.4-3.3-3.3-3.3h-11.7c-1.8,0-3.3,1.4-3.3,3.3v26.9
				C291.3,384.1,292.8,385.4,294.4,385.4z"/>
			<path class="st3" d="M267.4,409.6h11.7c1.8,0,3.3-1.4,3.3-3.3v-51.1c0-1.8-1.4-3.3-3.3-3.3h-11.7c-1.8,0-3.3,1.4-3.3,3.3v51.1
				C264.2,408.2,265.6,409.6,267.4,409.6z"/>
			<path class="st3" d="M240.4,399.8h11.7c1.8,0,3.3-1.4,3.3-3.3v-41.3c0-1.8-1.4-3.3-3.3-3.3h-11.7c-1.8,0-3.3,1.4-3.3,3.3v41.3
				C237.2,398.4,238.5,399.8,240.4,399.8z"/>
			<path class="st3" d="M213.4,425.7h11.7c1.8,0,3.3-1.4,3.3-3.3v-67.2c0-1.8-1.4-3.3-3.3-3.3h-11.7c-1.8,0-3.3,1.4-3.3,3.3v67.2
				C210.1,424.3,211.5,425.7,213.4,425.7z"/>
		</g>
		<g>
			<path class="st2" d="M225.1,418.5h-11.7c-1.8,0-3.3,1.4-3.3,3.3v29.4c0,1.8,1.4,3.3,3.3,3.3h11.7c1.8,0,3.3-1.4,3.3-3.3v-29.5
				C228.3,419.9,226.9,418.5,225.1,418.5z"/>
			<path class="st2" d="M252.1,389.4h-11.7c-1.8,0-3.3,1.4-3.3,3.3v58.6c0,1.8,1.4,3.3,3.3,3.3h11.7c1.8,0,3.3-1.4,3.3-3.3v-58.7
				C255.4,390.7,254,389.4,252.1,389.4z"/>
			<path class="st2" d="M279.2,399.8h-11.7c-1.8,0-3.3,1.4-3.3,3.3v48c0,1.8,1.4,3.3,3.3,3.3h11.7c1.8,0,3.3-1.4,3.3-3.3V403
				C282.4,401.2,281,399.8,279.2,399.8z"/>
			<path class="st2" d="M306.2,375.4h-11.7c-1.8,0-3.3,1.4-3.3,3.3v72.5c0,1.8,1.4,3.3,3.3,3.3h11.7c1.8,0,3.3-1.4,3.3-3.3v-72.6
				C309.5,376.8,308,375.4,306.2,375.4z"/>
		</g>
		<path class="st5" d="M320.3,284.6v19.6c0,10.2-12.9,18.6-28.9,18.6h-64.5c-15.9,0-28.9-8.3-28.9-18.6v-19.6
			c0-10.2,12.9-18.6,28.9-18.6h64.5C307.2,266.2,320.3,274.4,320.3,284.6z"/>
		<g>
			<path class="st4" d="M356.2,331.1c0.5-0.5,0.2-1.1-0.5-1.2l-3.1-0.5c-0.2,0-0.5-0.2-0.6-0.5l-1.4-2.8c-0.2-0.6-0.9-0.6-1.3,0
				l-1.4,2.8c-0.1,0.2-0.4,0.4-0.6,0.5l-3.1,0.5c-0.6,0.1-0.7,0.7-0.5,1.2l2.1,2.1c0.2,0.1,0.2,0.5,0.2,0.7l-0.4,3.1
				c-0.1,0.6,0.6,0.9,0.9,0.7l2.7-1.4c0.2-0.1,0.5-0.1,0.7,0l2.7,1.4c0.6,0.4,1.1-0.2,0.9-0.7l-0.6-3.1c0-0.2,0-0.5,0.2-0.7
				L356.2,331.1z"/>
			<path class="st4" d="M373.9,331.1c0.5-0.5,0.2-1.1-0.5-1.2l-3.1-0.5c-0.2,0-0.5-0.2-0.6-0.5l-1.4-2.8c-0.2-0.6-0.9-0.6-1.3,0
				l-1.4,2.8c-0.1,0.2-0.4,0.4-0.6,0.5l-3.1,0.5c-0.6,0.1-0.7,0.7-0.5,1.2l2.1,2.1c0.2,0.1,0.2,0.5,0.2,0.7l-0.6,3.1
				c-0.1,0.6,0.6,0.9,0.9,0.7l2.7-1.4c0.2-0.1,0.5-0.1,0.7,0l2.7,1.4c0.6,0.4,1.1-0.2,0.9-0.7l-0.6-3.1c0-0.2,0-0.5,0.2-0.7
				L373.9,331.1z"/>
			<path class="st4" d="M391.7,331.1c0.5-0.5,0.2-1.1-0.5-1.2l-3.1-0.5c-0.2,0-0.5-0.2-0.6-0.5l-1.4-2.8c-0.2-0.6-0.9-0.6-1.3,0
				l-1.4,2.8c-0.1,0.2-0.4,0.4-0.6,0.5l-3.1,0.5c-0.6,0.1-0.7,0.7-0.5,1.2l2.1,2.1c0.2,0.1,0.2,0.5,0.2,0.7l-0.6,3.1
				c-0.1,0.6,0.6,0.9,0.9,0.7l2.7-1.4c0.2-0.1,0.5-0.1,0.7,0l2.7,1.4c0.6,0.4,1.1-0.2,0.9-0.7l-0.6-3.1c0-0.2,0-0.5,0.2-0.7
				L391.7,331.1z"/>
			<g>
				<path class="st2" d="M464.6,284.8H342.8c-0.8,0-1.5-0.7-1.5-1.5v-7.4c0-0.8,0.7-1.5,1.5-1.5h121.8c0.8,0,1.5,0.7,1.5,1.5v7.4
					C466.3,284,465.6,284.8,464.6,284.8z"/>
				<path class="st2" d="M426.1,307.9h-83.2c-0.8,0-1.5-0.7-1.5-1.5v-7.5c0-0.8,0.7-1.5,1.5-1.5h83.2c0.8,0,1.5,0.7,1.5,1.5v7.4
					C427.6,307.3,426.8,307.9,426.1,307.9z"/>
				<path class="st4" d="M409.7,331.1c0.5-0.5,0.2-1.1-0.5-1.2l-3.1-0.5c-0.2,0-0.5-0.2-0.6-0.5l-1.4-2.8c-0.2-0.6-0.9-0.6-1.3,0
					l-1.4,2.8c-0.1,0.2-0.4,0.4-0.6,0.5l-3.1,0.5c-0.6,0.1-0.7,0.7-0.5,1.2l2.1,2.1c0.2,0.1,0.2,0.5,0.2,0.7l-0.6,3.1
					c-0.1,0.6,0.6,0.9,0.9,0.7l2.7-1.4c0.2-0.1,0.5-0.1,0.7,0l2.7,1.4c0.6,0.4,1.1-0.2,0.9-0.7l-0.6-3.1c0-0.2,0-0.5,0.2-0.7
					L409.7,331.1z"/>
				<path class="st4" d="M427.4,331.1c0.5-0.5,0.2-1.1-0.5-1.2l-3.1-0.5c-0.2,0-0.5-0.2-0.6-0.5l-1.4-2.8c-0.2-0.6-0.9-0.6-1.3,0
					l-1.4,2.8c-0.1,0.2-0.4,0.4-0.6,0.5l-3.1,0.5c-0.6,0.1-0.7,0.7-0.5,1.2l2.1,2.1c0.2,0.1,0.2,0.5,0.2,0.7l-0.6,3.1
					c-0.1,0.6,0.6,0.9,0.9,0.7l2.7-1.4c0.2-0.1,0.5-0.1,0.7,0l2.7,1.4c0.6,0.4,1.1-0.2,0.9-0.7l-0.6-3.1c0-0.2,0-0.5,0.2-0.7
					L427.4,331.1z"/>
			</g>
		</g>
	</g>
	<path class="st0" d="M479.5,230H363.7c-4.5,0-8.1-2.8-8.1-6.2V37.2c0-3.5,3.7-6.2,8.1-6.2h115.8c4.5,0,8.1,2.8,8.1,6.2v186.6
		C487.6,227.2,483.9,230,479.5,230z"/>
	<g>
		<path class="st2" d="M467.6,73.6V101c0,14.2-10.8,25.7-24,25.7h-53.7c-13.3,0-24-11.5-24-25.7V73.7c0-14.2,10.8-25.7,24-25.7h53.7
			C456.8,47.9,467.6,59.4,467.6,73.6z"/>
		<path class="st3" d="M444.1,73.8L444.1,73.8C444.1,73.7,444.1,73.7,444.1,73.8c-0.2-0.3-0.2-0.4-0.3-0.5c0-0.1-0.1-0.1-0.2-0.2
			s-0.2-0.2-0.3-0.3c-0.1-0.1-0.1-0.1-0.2-0.2c-0.1,0-0.1-0.1-0.2-0.1s-0.1,0-0.2-0.1c-0.1,0-0.2-0.1-0.3-0.1
			c-0.1,0-0.3-0.1-0.4-0.1s-0.1,0-0.2,0h-50.6c-0.1,0-0.1,0-0.2,0s-0.3,0-0.4,0.1c-0.1,0-0.2,0.1-0.3,0.1s-0.1,0-0.2,0.1
			c-0.1,0-0.1,0.1-0.2,0.1s-0.1,0.1-0.2,0.2s-0.2,0.2-0.3,0.3c-0.1,0.1-0.1,0.1-0.2,0.2c-0.1,0.2-0.2,0.3-0.2,0.4c0,0,0,0.1-0.1,0.1
			l0,0c-0.1,0.2-0.1,0.4-0.1,0.6v22.8c0,2.8,2.2,5.1,5.1,5.1h44.8c2.8,0,5-2.2,5-5V74.5C444.1,74.3,444.1,74,444.1,73.8z
			 M417.9,88.2c-0.7,0.5-1.7,0.5-2.4,0l-9.7-6.6l-7.5-5.1h36.9l-7.5,5.1L417.9,88.2z M439,98h-44.8c-0.4,0-0.8-0.4-0.8-0.8V78.3
			l16.9,11.4l2.8,1.9l0,0l0,0c1.1,0.7,2.3,1.1,3.6,1.1s2.5-0.4,3.6-1.1l0,0l0,0l2.8-1.9L440,78.3v18.9C439.9,97.7,439.5,98,439,98z"
			/>
	</g>
	<g>
		<g>
			<path class="st5" d="M422.6,153.3c-2.7-0.3-22.5,0-23.9,32.2l2.3-0.5c0,0,1.8-26.5,22-26.8c20.2,0.3,21.4,26.8,21.4,26.8l2.3,0.5
				C445.3,153.2,425.4,153.1,422.6,153.3z"/>
			<g>
				<g>
					<path class="st5" d="M405.3,207.5c0,0-1.4,0.5-3.4,0.8c-3.2,0.4-7.5,0-9.5-4.3c-3.3-7.1-3.2-16.2,1.9-17.9
						c1.5-0.5,2.8-0.9,3.8-1c2.5-0.5,3.7-0.4,3.7-0.4S405.4,195.7,405.3,207.5z"/>
					<path class="st5" d="M401.9,208.3c-3.2,0.4-7.8-0.4-9.9-4.7c-3.3-7.1-2.8-15.8,2.3-17.6c1.5-0.5,2.8-0.9,3.8-1
						C398.7,186.8,401.9,197,401.9,208.3z"/>
				</g>
			</g>
			<g>
				<path class="st5" d="M440.1,207.5c0,0,1.4,0.5,3.4,0.8c3.2,0.4,7.5,0,9.5-4.3c3.3-7.1,3.2-16.2-1.9-17.9c-1.5-0.5-2.8-0.9-3.8-1
					c-2.5-0.5-3.7-0.4-3.7-0.4S440,195.7,440.1,207.5z"/>
				<path class="st5" d="M443.6,208.3c3.2,0.4,7.8-0.4,9.9-4.7c3.3-7.1,2.8-15.8-2.3-17.6c-1.5-0.5-2.8-0.9-3.8-1
					C446.7,186.8,443.7,197,443.6,208.3z"/>
			</g>
		</g>
	</g>
	<g>
		<path class="st2" d="M451.4,398.4V421c0,11.8-9,21.4-19.9,21.4H387c-11,0-19.9-9.5-19.9-21.4v-22.7c0-11.8,9-21.4,19.9-21.4h44.5
			C442.4,377,451.4,386.5,451.4,398.4z"/>
		<g>
			<path class="st0" d="M412.5,391.5h-26.3c-3.5,0-6.2,2.8-6.2,6.2v23.1c0,3.5,2.8,6.2,6.2,6.2h26.3c3.5,0,6.2-2.8,6.2-6.2v-23.1
				C418.7,394.2,416,391.5,412.5,391.5z"/>
			<polygon class="st0" points="438.1,422.9 424.9,414.8 424.9,403.6 438.1,395.5 			"/>
		</g>
	</g>
</g>
<g>
	<g>
		<path class="st2" d="M-547.9,709.3c0,35.2-28.6,63.8-63.8,63.8c-35.2,0-63.8-28.5-63.8-63.8c0-35.2,28.6-63.8,63.8-63.8
			C-576.5,645.6-547.9,674.1-547.9,709.3z"/>
		<path class="st2" d="M-504,892.9V877c0-50.5-41.3-91.8-91.8-91.8h-31.9c-50.5,0-91.8,41.3-91.8,91.8v15.9H-504z"/>
		<path class="st3" d="M-611.7,857.2l46.5-66.8c-9.6-3.4-19.9-5.3-30.6-5.3h-15.9h-15.9c-10.7,0-21,1.9-30.6,5.3L-611.7,857.2z"/>
		<polygon class="st2" points="-601.5,805.6 -621.9,805.6 -619.4,785.2 -604.1,785.2 		"/>
		<polygon class="st2" points="-601.5,813.3 -611.7,813.3 -621.9,813.3 -630.6,830.1 -611.7,857.2 -592.8,830.1 		"/>
	</g>
	<g>
		<path class="st0" d="M-265.2,704.8c0,35.2-28.5,63.8-63.8,63.8c-35.2,0-63.8-28.5-63.8-63.8c0-35.2,28.6-63.8,63.8-63.8
			C-293.7,641-265.2,669.5-265.2,704.8z"/>
		<path class="st0" d="M-221.2,888.4v-15.9c0-50.5-41.3-91.8-91.8-91.8h-31.9c-50.5,0-91.8,41.3-91.8,91.8v15.9H-221.2z"/>
		<path class="st3" d="M-328.9,852.7l46.5-66.8c-9.6-3.4-19.9-5.3-30.6-5.3h-15.9h-15.9c-10.7,0-21,1.9-30.6,5.3L-328.9,852.7z"/>
		<polygon class="st0" points="-318.7,801 -339.1,801 -336.6,780.6 -321.3,780.6 		"/>
		<polygon class="st0" points="-318.7,808.7 -328.9,808.7 -339.1,808.7 -347.8,825.5 -328.9,852.7 -310,825.5 		"/>
	</g>
	<g>
		<path class="st5" d="M-410.6,832.9c0,35.2-28.6,63.8-63.8,63.8s-63.8-28.6-63.8-63.8c0-35.2,28.6-63.8,63.8-63.8
			S-410.6,797.6-410.6,832.9z"/>
		<path class="st5" d="M-366.6,1016.5v-15.9c0-50.5-41.3-91.8-91.8-91.8h-31.9c-50.5,0-91.8,41.3-91.8,91.8v15.9H-366.6z"/>
		<path class="st3" d="M-474.3,980.8l46.5-66.8c-9.6-3.4-19.9-5.3-30.6-5.3h-15.9h-15.9c-10.7,0-21,1.9-30.6,5.3L-474.3,980.8z"/>
		<polygon class="st5" points="-464.1,929.2 -484.5,929.2 -482,908.8 -466.7,908.8 		"/>
		<polygon class="st5" points="-464.1,936.8 -474.3,936.8 -484.5,936.8 -493.2,953.6 -474.3,980.8 -455.4,953.6 		"/>
	</g>
</g>
</svg>
