<?xml version="1.0" encoding="utf-8"?>
<!-- Generator: Adobe Illustrator 25.2.0, SVG Export Plug-In . SVG Version: 6.00 Build 0)  -->
<svg version="1.1" id="Layer_1" xmlns="http://www.w3.org/2000/svg" xmlns:xlink="http://www.w3.org/1999/xlink" x="0px" y="0px"
	 viewBox="0 0 511.6 511.6" style="enable-background:new 0 0 511.6 511.6;" xml:space="preserve">
<style type="text/css">
	.st0{fill:#CCD1D9;}
	.st1{fill:#F5F7FA;}
	.st2{fill:#E6E9ED;}
	.st3{fill:#928BB7;}
	.st4{fill:#434A54;}
	.st5{fill:#F3ECFF;}
	.st6{fill:#B0A9DF;}
	.st7{fill:#FFFFFF;}
	.st8{fill:none;stroke:#FFFFFF;stroke-width:2;stroke-miterlimit:10;}
	.st9{fill:#CFC4E8;}
	.st10{fill:none;stroke:#25353E;stroke-width:3;stroke-miterlimit:10;}
	.st11{fill:#DEB59A;}
	.st12{fill:#FFCD65;}
	.st13{fill:#E04D4D;}
	.st14{fill:none;stroke:#25353E;stroke-width:1.6816;stroke-miterlimit:10;}
	.st15{fill:#B23838;}
	.st16{fill:none;stroke:#FFFFFF;stroke-width:1.7272;stroke-linecap:round;stroke-miterlimit:10;}
	.st17{fill:none;stroke:#25353E;stroke-width:1.7272;stroke-linecap:round;stroke-miterlimit:10;}
	.st18{fill:#5596AB;}
	.st19{fill:#25353E;}
	.st20{fill:#396E82;}
	.st21{fill:#FFDBBA;}
	.st22{fill:#FF9F49;}
	.st23{fill:#FF7575;}
	.st24{fill:#88D2FF;}
	.st25{fill:#9BDFFF;}
	.st26{fill:#C0EDFF;}
	.st27{fill:#FDEFEA;}
	.st28{fill:#FFCD69;}
	.st29{fill:#FFD385;}
	.st30{fill:#A9D6D3;}
	.st31{fill:#FFDCA4;}
	.st32{fill:#FFE8C7;}
	.st33{fill:#FFF3E3;}
	.st34{fill:#599FD2;}
	.st35{fill:#6EB5E0;}
	.st36{fill:#83CAED;}
	.st37{fill:#9AE5FC;}
	.st38{fill:#CFF9F8;}
	.st39{fill:#C3ECFE;}
	.st40{fill:none;stroke:#CCF3FF;stroke-width:1.3743;stroke-miterlimit:10;}
	.st41{fill:#BAE9F4;}
	.st42{fill:none;stroke:#FFFFFF;stroke-width:1.2951;stroke-miterlimit:10;}
	.st43{fill:#1562AF;}
	.st44{opacity:0.5;fill:#B0A9DF;}
	.st45{opacity:0.6;}
	.st46{fill:#E8C3FC;}
	.st47{fill:#EAEAEA;}
	.st48{opacity:0.2;fill:#F3ECFF;}
	.st49{fill:#9EAEFF;}
	.st50{opacity:0.4;fill:#6880F9;}
	.st51{fill:#263058;}
	.st52{fill:#C7C9FF;}
	.st53{opacity:0.4;fill:#C7C9FF;}
	.st54{fill:#FF8283;}
	.st55{fill:#FFFFF5;}
	.st56{fill:#F14596;}
	.st57{fill:#354FCC;}
	.st58{opacity:0.73;fill:#434A54;}
	.st59{opacity:0.8;fill:#434A54;}
</style>
<g>
	<polygon class="st0" points="249.4,1278.2 41,1278.2 62.3,1171.7 228.1,1171.7 	"/>
	<path class="st1" d="M382.1,1182.3c0,5.9-4.8,10.7-10.7,10.7h-490.3c-5.9,0-10.6-4.8-10.6-10.7V841.2c0-5.9,4.8-10.7,10.6-10.7
		h490.3c5.9,0,10.7,4.8,10.7,10.7L382.1,1182.3L382.1,1182.3z"/>
	<path class="st2" d="M-118.9,1193h490.3c5.9,0,10.7-4.8,10.7-10.7V1129h-511.6v53.3C-129.5,1188.2-124.7,1193-118.9,1193z"/>
	<g>
		<rect x="-86.9" y="1043.7" class="st3" width="213.2" height="86.3"/>
		<rect x="147.6" y="1043.7" class="st3" width="213.2" height="86.3"/>
	</g>
	<path class="st4" d="M136.9,1161c0,5.9-4.8,10.6-10.6,10.6s-10.7-4.8-10.7-10.6c0-5.9,4.8-10.7,10.7-10.7S136.9,1155.1,136.9,1161z
		"/>
	<rect x="-86.9" y="873.2" class="st5" width="426.3" height="149.2"/>
	<path class="st2" d="M41,1256.9c-5.9,0-10.6,4.7-10.6,10.6c0,5.9,4.8,10.6,10.6,10.6h197.7v-21.3L41,1256.9L41,1256.9z"/>
	<path class="st4" d="M264.8,958.5H-12.3c-5.9,0-10.7-4.8-10.7-10.7c0-5.9,4.8-10.6,10.7-10.6h277.1c5.9,0,10.7,4.8,10.7,10.6
		C275.5,953.7,270.7,958.5,264.8,958.5z"/>
	<rect x="217.6" y="990.5" class="st5" width="147.7" height="170.6"/>
	<rect x="217.6" y="1161" class="st3" width="147.7" height="88"/>
	<g>
		<path class="st4" d="M360.8,969.1H222.3c-11.8,0-21.3,9.5-21.3,21.3v266.5c0,11.8,9.6,21.3,21.3,21.3h138.5
			c11.8,0,21.3-9.5,21.3-21.3V990.5C382.1,978.7,372.6,969.1,360.8,969.1z M360.8,1256.9H222.3V990.5h138.5
			C360.8,990.5,360.8,1256.9,360.8,1256.9z"/>
		<rect x="217.1" y="1235.6" class="st4" width="149.1" height="26.9"/>
	</g>
	<path class="st2" d="M302.1,1256.9c0,5.9-4.8,10.6-10.7,10.6s-10.6-4.8-10.6-10.6c0-5.9,4.8-10.7,10.6-10.7
		S302.1,1251,302.1,1256.9z"/>
	<path class="st4" d="M328.8,1086.4h-74.7c-5.9,0-10.7-4.8-10.7-10.6c0-5.9,4.8-10.6,10.7-10.6h74.7c5.9,0,10.7,4.7,10.7,10.6
		C339.4,1081.6,334.7,1086.4,328.8,1086.4z"/>
</g>
<image style="overflow:visible;enable-background:new    ;" width="1423" height="506" xlink:href="96161BE6.jpg"  transform="matrix(0.9992 0 0 0.9992 777.6762 619.9586)">
</image>
<path class="st6" d="M-667.6,190.3c52.9-1,109.5-0.9,168.2,0c10,0,18.1-8,18.1-17.8c-1.2-43.7-0.9-102.4,0-166.2
	c0-9.8-8.1-17.8-18.1-17.8c-55.5,0.9-111.5,1-168.2,0c-10,0-18.1,8-18.1,17.8c1.4,48.6,1.1,105.5,0,166.2
	C-685.7,182.3-677.6,190.3-667.6,190.3z"/>
<path class="st5" d="M-601.8,147.8h93c5.7,0,9.5-5.9,6.9-11l-22.1-44l-15.9-31.5c-3.8-7.6-14.7-7.6-18.6,0l-8.6,17.3l-6.6,13.2
	L-601.8,147.8z"/>
<path class="st5" d="M-664.8,147.8h119.3l-28.2-56.1l-16.2-32.3l-9.9-19.8c-4.8-9.5-18.4-9.5-23.1,0L-639,71.7l-32.7,65
	C-674.3,141.7-670.6,147.8-664.8,147.8z"/>
<path class="st4" d="M-566.9,78.2c2.7,1.3,5.2,3.2,7.2,5.4c3.8,4,6.6,8.6,10.5,12.5c3.9,3.8,9.3,6.8,14.7,5.8
	c4.1-0.8,7.6-3.7,9.3-7.3c0.3-0.8,0.6-1.5,0.9-2.3L-540,61.1c-3.8-7.4-14.6-7.4-18.4,0L-566.9,78.2z"/>
<path class="st4" d="M-639.1,71.6c1.3,1.7,2.8,3.2,4.8,4.2c2.9,1.5,6.4,1.8,9.7,1.6c5.3-0.3,10.5-1.8,14.8-4.8
	c2.9-2.1,5.3-4.6,7.9-7s5.4-4.6,8.7-5.7c1.1-0.3,2.3-0.5,3.5-0.6l-9.9-19.8c-4.8-9.5-18.4-9.5-23.1,0L-639.1,71.6z"/>
<path class="st4" d="M-488.4-45.1l-51.2,61.6c-5.2,6.3-5.4,15-1,21.4l-6.3,7.2c-3.2,3.8,2.6,8.9,5.8,5.1l6-7
	c7.2,4.2,16.6,2.8,22.3-3.8l52.1-60.6L-488.4-45.1z"/>
<path class="st4" d="M-516.8,9.4c-5.1,0.5-10.3,1.1-15.3,1.4l-5.8,7c-4.5,5.4-4.9,13.2-0.9,18.9l0.9,1.3l-7.2,8.4
	c-0.5,0.5-0.6,1.2-0.3,1.8c0.4,0.8,1.3,1.3,1.9,1.2c0.4,0,0.8-0.2,1.1-0.6l7.1-8.3l1.4,0.9c2.7,1.6,5.9,2.3,9.1,2.1l0,0
	c4.2-0.3,8-2.3,10.7-5.4l28.4-33C-496.1,6.9-506.4,8.3-516.8,9.4z"/>
<path class="st4" d="M-456.9-24.3l-29.8-25.6c-3.8-3.2-8.9,2.6-5.1,5.8l29.8,25.6C-458.1-15.2-453-21-456.9-24.3z"/>
<path class="st4" d="M-445.9-66.4c-6.6-5.6-16.5-4.9-22.1,1.6L-483.2-47l23.9,20.5l15.2-17.7C-438.5-50.8-439.3-60.7-445.9-66.4z"/>
<path class="st4" d="M-240.4-23.4c0-11.5-9.3-20.7-20.7-20.7c-48.8,0.8-97.2,1-145.1,0.6c-3.7,4-7.4,8-11.1,12
	c-6.9,7.4-13.7,14.7-20.9,21.8c-7,7.1-13.6,14.4-20.7,21.5c-5,4.9-10.5,9.6-15.1,14.8c0.5,54.5,0.5,103.8-0.6,142.9
	c0,11.5,9.3,20.7,20.7,20.7c67.3-1,132.2-1.1,192.7,0c11.5,0,20.7-9.3,20.7-20.7C-241.6,99-241.9,32.9-240.4-23.4z"/>
<path class="st7" d="M-412.8,31.3v27.1c13.3-0.4,26.4-0.7,39.2-0.8v67.3h32.2V57.6c12.7,0.1,25.8,0.3,39.3,0.8V31.3H-412.8
	L-412.8,31.3z"/>
<rect x="-422.3" y="0.7" class="st8" width="129.6" height="154.7"/>
<rect x="-301.3" y="-7.9" class="st7" width="17.1" height="17.1"/>
<rect x="-430.9" y="-7.9" class="st7" width="17.1" height="17.1"/>
<rect x="-301.3" y="146.8" class="st7" width="17.1" height="17.1"/>
<rect x="-430.9" y="146.8" class="st7" width="17.1" height="17.1"/>
<path class="st7" d="M-406.3-43.5l2.2,41.2c0.9,16.4-12.4,29.9-28.7,29.7l-41.2-0.8L-406.3-43.5z"/>
<path class="st5" d="M1511.8,113c-56.2-1-116.2-0.9-178.5,0c-10.6,0-19.2-8.6-19.2-19.2c1.3-46.9,1-110,0-178.5
	c0-10.6,8.6-19.2,19.2-19.2c58.9,0.9,118.4,1,178.5,0c10.6,0,19.2,8.6,19.2,19.2c-1.5,52.1-1.1,113.3,0,178.5
	C1531,104.4,1522.4,113,1511.8,113z"/>
<path class="st9" d="M1435.7-34.7h-87.1c-6.6,0-12,5.4-12,12v87.1c0,6.6,5.4,12,12,12h87.1c6.6,0,12-5.4,12-12v-87.1
	C1447.8-29.4,1442.4-34.7,1435.7-34.7z"/>
<path class="st6" d="M366.7,1424.9l-49.9-86.4c-5.8-10.1-20.4-10.1-26.2,0l-49.9,86.4c-5.8,10.1,1.5,22.7,13.1,22.7h99.8
	C365.3,1447.5,372.5,1435,366.7,1424.9z"/>
<ellipse transform="matrix(0.2311 -0.9729 0.9729 0.2311 1103.7205 1318.369)" class="st4" cx="1386" cy="-39.1" rx="40.9" ry="40.9"/>
<g>
	<line class="st10" x1="1476" y1="45.9" x2="1508.4" y2="45.9"/>
	<line class="st10" x1="1464.3" y1="54.9" x2="1508.4" y2="54.9"/>
	<line class="st10" x1="1464.3" y1="63.8" x2="1508.4" y2="63.8"/>
</g>
<g>
	<path class="st11" d="M564.9,890.1c0,9.5-7.7,17.2-17.2,17.2c-50.2-0.9-103.9-0.8-159.7,0c-9.5,0-17.2-7.7-17.2-17.2
		c1-37,0.9-85.3,0.3-138.2c-0.1-7.1-0.2-14.3-0.3-21.5c0-9.5,7.7-17.2,17.2-17.2c52.7,0.8,105.9,0.9,159.7,0
		c9.5,0,17.2,7.7,17.2,17.2c-0.2,7-0.4,14.2-0.5,21.5C563.7,793.5,564,840.5,564.9,890.1z"/>
	<path class="st12" d="M564.9,730.4c-0.2,7-0.4,14.2-0.5,21.5H371.1c-0.1-7.1-0.2-14.3-0.3-21.5c0-9.5,7.7-17.2,17.2-17.2
		c52.7,0.8,105.9,0.9,159.7,0C557.2,713.2,564.9,720.9,564.9,730.4z"/>
	<g>
		<circle class="st13" cx="467.9" cy="813.2" r="39.7"/>
		<path class="st7" d="M459.9,833.4l27.6-15.9c3.2-1.9,3.2-6.5,0-8.4l-27.6-15.9c-3.2-1.9-7.3,0.5-7.3,4.2v31.9
			C452.7,832.9,456.7,835.2,459.9,833.4z"/>
	</g>
	<line class="st14" x1="394" y1="873" x2="541.7" y2="873"/>
	<rect x="413.6" y="868.8" class="st15" width="8.3" height="8.3"/>
</g>
<path class="st5" d="M-510.8,506.7c0.7-35,0.6-70,0-105c0-6.3,5.3-11.3,11.8-11.3c45.9,1.1,177.9,0.9,232.3,0
	c6.5,0,11.8,5.1,11.8,11.3c-0.7,27.3-0.5,64.6,0,105c0,6.3-5.3,11.3-11.8,11.3c-52.5-0.9-184.1-1-232.3,0
	C-505.5,517.9-510.8,512.9-510.8,506.7z"/>
<path class="st6" d="M-488,489.6h62.8l-26.8-46c-2-3.5-7.2-3.5-9.3,0L-488,489.6z"/>
<path class="st4" d="M-454.8,489.6h82.5l-36.6-62.9c-2-3.5-7.2-3.5-9.3,0L-454.8,489.6z"/>
<ellipse class="st4" cx="-473.8" cy="422.2" rx="14.1" ry="13.6"/>
<line class="st16" x1="-358.4" y1="413.3" x2="-358.4" y2="495"/>
<ellipse class="st6" cx="-324.3" cy="444.5" rx="22.8" ry="21.9"/>
<ellipse class="st1" cx="-290.4" cy="469.2" rx="22.8" ry="21.9"/>
<path class="st17" d="M-330.9,438.8c5-1.4,10.7,0,14.9,2.9c4.3,2.9,7.5,7.1,9.8,11.6c1.8,3.3,3.2,6.8,5,10.1
	c1.8,3.3,4.1,6.5,7.1,8.8c3.1,2.3,7.1,3.6,11,2.9"/>
<g>
	<path class="st18" d="M1488.3,491.4c-47.6-0.9-98.4-0.7-151.2,0c-9,0-16.3-7.3-16.3-16.3c1.1-39.8,0.8-93.2,0-151.2
		c0-9,7.3-16.3,16.3-16.3c49.9,0.8,100.3,0.9,151.2,0c9,0,16.3,7.3,16.3,16.3c-1.2,44.2-1,96,0,151.2
		C1504.5,484.1,1497.2,491.4,1488.3,491.4z"/>
	<g>
		<path class="st19" d="M1429.1,452.6h-83.6c-5.2,0-8.5-5.4-6.2-10.1l19.9-40l14.2-28.7c3.4-6.9,13.2-6.9,16.6,0l7.8,15.7l6,12
			L1429.1,452.6z"/>
		<path class="st19" d="M1485.7,452.6h-107.2l25.3-51.1l14.6-29.4l8.9-18c4.3-8.6,16.5-8.6,20.8,0l14.5,29.2l29.4,59.2
			C1494.3,447.2,1490.9,452.6,1485.7,452.6z"/>
		<path class="st7" d="M1397.9,389.5c-2.5,1.2-4.7,3-6.6,5c-3.4,3.6-6,8-9.5,11.5s-8.4,6.2-13.3,5.4c-3.7-0.7-6.9-3.4-8.5-6.8
			c-0.3-0.7-0.6-1.4-0.7-2.1l14.2-28.7c3.4-6.9,13.2-6.9,16.6,0L1397.9,389.5z"/>
		<path class="st20" d="M1462.6,383.3c-1.1,1.6-2.5,2.9-4.3,3.8c-2.6,1.4-5.7,1.7-8.7,1.5c-4.7-0.3-9.4-1.7-13.3-4.4
			c-2.6-1.8-4.7-4.2-7-6.4c-2.3-2.2-4.8-4.2-7.8-5.2c-1-0.3-2-0.5-3.1-0.6l8.9-18c4.3-8.6,16.5-8.6,20.8,0L1462.6,383.3z"/>
	</g>
	<g>
		<path class="st21" d="M1456.6,252.9l-60.6,72.9c-6.2,7.4-6.4,17.7-1.2,25.3l-7.4,8.6c-3.8,4.5,3.1,10.4,6.9,6l7.2-8.3
			c8.6,5,19.7,3.3,26.4-4.4l61.6-71.6L1456.6,252.9z"/>
		<path class="st22" d="M1422.9,317.2c-6,0.6-12.1,1.3-18.2,1.7l-6.9,8.3c-5.3,6.4-5.7,15.6-1,22.4l1,1.5l-8.6,10
			c-0.6,0.7-0.7,1.4-0.3,2.1c0.4,0.9,1.5,1.5,2.3,1.5c0.5,0,0.9-0.3,1.3-0.7l8.5-9.9l1.7,1c3.2,1.9,7,2.7,10.7,2.5l0,0
			c4.9-0.4,9.4-2.6,12.6-6.4l33.6-39.1C1447.5,314.3,1435.2,316,1422.9,317.2z"/>
		<path class="st23" d="M1493.8,277.4l-35.2-30.3c-4.5-3.8-10.4,3.1-6,6.9l35.2,30.3C1492.3,288.2,1498.3,281.3,1493.8,277.4z"/>
		<path class="st13" d="M1506.8,227.7c-7.8-6.7-19.5-5.8-26.2,2l-18,20.9l28.2,24.2l18-20.9C1515.5,246.1,1514.6,234.4,1506.8,227.7
			z"/>
	</g>
</g>
<g id="XMLID_99_">
	<polyline class="st24" points="1713,-47.1 1708.4,73 1702.6,72.8 1699.9,-47.6 	"/>
	<g id="XMLID_112_">
		<path class="st25" d="M1685.9-52.3c-15.6-0.6-27.8-16.5-27-35.3c0.7-18.9,14-33.8,29.7-33.2c15.6,0.6,27.8,16.5,27,35.3
			C1714.9-66.6,1701.6-51.7,1685.9-52.3z M1688.2-110.3c-9.8-0.4-18.3,10-18.8,23.1c-0.5,13.1,7.1,24.1,16.9,24.4
			c9.8,0.4,18.3-10,18.8-23.1C1705.6-99,1698-110,1688.2-110.3z"/>
	</g>
	<g id="XMLID_111_">
		<path class="st26" d="M1710.1-78.9c-0.1,2-1.4,36.5-1.4,36.5c-0.1,1.8-1.6,3.3-3.5,3.2l0,0c-1.8-0.1-3.3-1.6-3.2-3.5l0.2-4.1
			c0,0-1.7-11-15.4-10.8c0,0,15.5,2.6,16,2.8C1703.3-54.6,1710.2-80.9,1710.1-78.9z"/>
		<path class="st25" d="M1705-34c-4.7-0.2-8.4-4.2-8.2-8.9c0,0,0.3-2.8-0.3-4.6c-0.9-2.8-4-4.6-10.5-4.9l1-9c3.5-0.1,6.2-0.9,8.8,0
			c1.4,0.2,2.6,0.4,3.6,0.6c0.8-2.6,1.7-6.1,2.5-8.8c0.8-2.8,5.4-4.9,6-7c1.1-3.6-1.6-8.4,3.1-7.7l4.6,0.7l-1.6,41.3
			C1713.7-37.5,1709.7-33.8,1705-34z"/>
	</g>
	<g id="XMLID_101_">
		<polyline class="st24" points="1717.5,-46.8 1683.4,68.4 1689,70 1730.1,-43.1 		"/>
		<g id="XMLID_110_">
			<path class="st25" d="M1727.4-84.1c5.4-18.1,21.9-29.3,36.9-24.8c15,4.4,22.8,22.8,17.5,40.9c-5.4,18.1-21.9,29.3-36.9,24.8
				C1729.9-47.6,1722-65.9,1727.4-84.1z M1737.4-81.1c-3.7,12.6,0.9,25.1,10.4,27.9c9.4,2.8,20.2-5.2,23.9-17.7s-0.9-25.1-10.4-27.9
				C1751.9-101.6,1741.2-93.6,1737.4-81.1z"/>
		</g>
		<g id="XMLID_102_">
			<path class="st26" d="M1730.5-76.1c-0.6,1.9-10.4,35-10.4,35c-0.5,1.8,0.5,3.6,2.2,4.1l0,0c1.8,0.5,3.6-0.5,4.1-2.2l1.2-4
				c0,0,5.1-9.9,18.1-5.3c0,0-15.5-2.5-16.1-2.5C1729.1-50.9,1731-78,1730.5-76.1z"/>
			<path class="st25" d="M1720.9-31.9c4.5,1.3,9.3-1.3,10.7-5.8c0,0,0.6-2.8,1.8-4.3c1.8-2.3,5.3-3.1,11.6-1.3l1.9-8.9
				c-3.3-1.2-5.6-2.9-8.3-2.8c-1.4-0.2-2.6-0.4-3.6-0.6c0.1-2.7,0.3-6.3,0.5-9.1c0.2-2.9-3.5-6.4-3.5-8.5c0.2-3.8,4.2-7.5-0.5-8.3
				l-4.6-0.8l-11.7,39.6C1713.7-38,1716.3-33.2,1720.9-31.9z"/>
		</g>
	</g>
</g>
<g>
	<path class="st27" d="M1717.3-63l-26.1,137.8c-0.4,2.4,1.1,4.6,3.4,5.1l22.2,4.2c2.4,0.4,4.6-1.1,5.1-3.5l26.1-137.8
		c0.4-2.4-1.1-4.6-3.5-5.1l-22.2-4.2C1720.1-66.9,1717.8-65.4,1717.3-63z"/>
	<path class="st28" d="M1720.2-62.5l-4.6,24.4l25,4.7l4.6-24.4c0.1-0.8-0.4-1.5-1.1-1.6l-22.2-4.2
		C1721.1-63.7,1720.4-63.2,1720.2-62.5z"/>
	
		<rect x="1711.5" y="-33.4" transform="matrix(0.1864 -0.9825 0.9825 0.1864 1423.9869 1678.1357)" class="st29" width="27.5" height="25.4"/>
	
		<rect x="1727.2" y="-47.7" transform="matrix(0.1865 -0.9825 0.9825 0.1865 1440.0082 1669.1936)" class="st30" width="1.5" height="25.4"/>
	
		<rect x="1706.1" y="-5" transform="matrix(0.1864 -0.9825 0.9825 0.1864 1391.6578 1695.9718)" class="st31" width="27.5" height="25.4"/>
	
		<rect x="1721.8" y="-19.2" transform="matrix(0.1864 -0.9825 0.9825 0.1864 1407.8699 1687.0626)" class="st30" width="1.5" height="25.4"/>
	
		<rect x="1700.7" y="23.4" transform="matrix(0.1864 -0.9825 0.9825 0.1864 1359.3268 1713.8075)" class="st32" width="27.5" height="25.4"/>
	
		<rect x="1716.4" y="9.2" transform="matrix(0.1865 -0.9824 0.9824 0.1865 1375.3116 1704.8529)" class="st30" width="1.5" height="25.4"/>
	<path class="st33" d="M1699.1,48.7l-5.1,26.6c-0.1,0.8,0.3,1.5,1.1,1.6l22.2,4.2c0.8,0.1,1.5-0.3,1.6-1.1l5.1-26.6L1699.1,48.7z"/>
	
		<rect x="1711" y="37.7" transform="matrix(0.1864 -0.9825 0.9825 0.1864 1343.207 1722.7355)" class="st30" width="1.5" height="25.4"/>
	<g>
		
			<rect x="1727.2" y="-50.6" transform="matrix(0.1864 -0.9825 0.9825 0.1864 1440.1849 1669.2235)" class="st27" width="1.5" height="31.3"/>
	</g>
	<g>
		
			<rect x="1721.8" y="-22.2" transform="matrix(0.1865 -0.9824 0.9824 0.1865 1407.6417 1687.0201)" class="st27" width="1.5" height="31.3"/>
	</g>
	<g>
		
			<rect x="1716.4" y="6.3" transform="matrix(0.1864 -0.9825 0.9825 0.1864 1375.4825 1704.8876)" class="st27" width="1.5" height="31.3"/>
	</g>
	<g>
		
			<rect x="1711" y="34.7" transform="matrix(0.1864 -0.9825 0.9825 0.1864 1343.1711 1722.7274)" class="st27" width="1.5" height="31.3"/>
	</g>
</g>
<g>
	<path class="st27" d="M1674.4-88.1l8,140c0.1,2.4,2.2,4.2,4.6,4.1l22.6-1.3c2.4-0.1,4.2-2.2,4.1-4.6l-8-140
		c-0.1-2.4-2.2-4.2-4.6-4.1l-22.6,1.3C1676.1-92.6,1674.3-90.5,1674.4-88.1z"/>
	<path class="st34" d="M1677.3-88.3l1.4,24.8l25.4-1.4l-1.4-24.8c0-0.8-0.7-1.4-1.5-1.3l-22.6,1.3
		C1677.9-89.7,1677.3-89,1677.3-88.3z"/>
	
		<rect x="1679.6" y="-62.7" transform="matrix(0.9984 -5.668903e-02 5.668903e-02 0.9984 5.4989 95.8559)" class="st35" width="25.4" height="27.5"/>
	
		<rect x="1678.8" y="-64.2" transform="matrix(0.9984 -5.671494e-02 5.671494e-02 0.9984 6.3208 95.8299)" class="st30" width="25.4" height="1.5"/>
	
		<rect x="1681.2" y="-33.8" transform="matrix(0.9984 -5.668190e-02 5.668190e-02 0.9984 3.8624 95.9833)" class="st36" width="25.4" height="27.5"/>
	
		<rect x="1680.4" y="-35.3" transform="matrix(0.9984 -5.670992e-02 5.670992e-02 0.9984 4.6838 95.961)" class="st30" width="25.4" height="1.5"/>
	
		<rect x="1682.9" y="-4.9" transform="matrix(0.9984 -5.669422e-02 5.669422e-02 0.9984 2.228 96.1437)" class="st37" width="25.4" height="27.5"/>
	
		<rect x="1682.1" y="-6.4" transform="matrix(0.9984 -5.660655e-02 5.660655e-02 0.9984 3.0369 95.9254)" class="st30" width="25.4" height="1.5"/>
	<path class="st38" d="M1683.8,24.7l1.5,27c0,0.8,0.7,1.4,1.5,1.3l22.6-1.3c0.8,0,1.4-0.7,1.3-1.5l-1.5-27L1683.8,24.7z"/>
	
		<rect x="1683.7" y="22.5" transform="matrix(0.9984 -5.660655e-02 5.660655e-02 0.9984 1.4036 96.0646)" class="st30" width="25.4" height="1.5"/>
	<g>
		
			<rect x="1675.8" y="-64.2" transform="matrix(0.9984 -5.671494e-02 5.671494e-02 0.9984 6.3208 95.8299)" class="st27" width="31.3" height="1.5"/>
	</g>
	<g>
		
			<rect x="1677.5" y="-35.3" transform="matrix(0.9984 -5.661153e-02 5.661153e-02 0.9984 4.6709 95.7946)" class="st27" width="31.3" height="1.5"/>
	</g>
	<g>
		
			<rect x="1679.1" y="-6.4" transform="matrix(0.9984 -5.671494e-02 5.671494e-02 0.9984 3.048 96.109)" class="st27" width="31.3" height="1.5"/>
	</g>
	<g>
		
			<rect x="1680.7" y="22.5" transform="matrix(0.9984 -5.671494e-02 5.671494e-02 0.9984 1.4116 96.2486)" class="st27" width="31.3" height="1.5"/>
	</g>
</g>
<g id="XMLID_113_">
	<g id="XMLID_116_">
		<path class="st28" d="M1763.9-70.9c-0.3-0.1-0.5-0.5-0.4-0.8l0.8-3.2c0.1-0.4,0.5-0.6,0.8-0.5c0.4,0.1,0.6,0.5,0.5,0.8l-0.8,3.2
			C1764.7-71,1764.3-70.8,1763.9-70.9C1764-70.9,1763.9-70.9,1763.9-70.9z"/>
	</g>
	<g id="XMLID_114_">
		<g id="XMLID_115_">
			<polygon class="st39" points="1729.7,77.3 1721.1,75.1 1757.2,-62.5 1761.5,-61.4 1765.8,-60.3 			"/>
		</g>
	</g>
	<polygon class="st39" points="1765.3,-72.5 1763.6,-73 1757.2,-62.5 1765.8,-60.3 	"/>
</g>
<g id="XMLID_60_">
	
		<rect id="XMLID_59_" x="1650.9" y="-85" transform="matrix(0.967 -0.2549 0.2549 0.967 58.3555 423.6696)" class="st39" width="26.5" height="143.4"/>
	<g id="XMLID_21_">
		<line class="st40" x1="1651.4" y1="-79.3" x2="1659.8" y2="-81.5"/>
		<line class="st40" x1="1653.3" y1="-72.1" x2="1661.7" y2="-74.3"/>
		<line class="st40" x1="1655.2" y1="-64.9" x2="1663.6" y2="-67.1"/>
		<line class="st40" x1="1653" y1="-56.6" x2="1665.5" y2="-59.9"/>
		<line class="st40" x1="1659" y1="-50.5" x2="1667.4" y2="-52.7"/>
		<line class="st40" x1="1660.9" y1="-43.3" x2="1669.3" y2="-45.5"/>
		<line class="st40" x1="1662.8" y1="-36.1" x2="1671.2" y2="-38.3"/>
		<line class="st40" x1="1660.5" y1="-27.8" x2="1673.1" y2="-31.1"/>
		<line class="st40" x1="1666.6" y1="-21.7" x2="1675" y2="-23.9"/>
		<line class="st40" x1="1668.5" y1="-14.5" x2="1676.9" y2="-16.7"/>
		<line class="st40" x1="1670.4" y1="-7.3" x2="1678.8" y2="-9.5"/>
		<line class="st40" x1="1668.1" y1="1" x2="1680.7" y2="-2.3"/>
		<line class="st40" x1="1674.2" y1="7.1" x2="1682.6" y2="4.9"/>
		<line class="st40" x1="1676.1" y1="14.3" x2="1684.5" y2="12.1"/>
		<line class="st40" x1="1678" y1="21.5" x2="1686.4" y2="19.3"/>
		<line class="st40" x1="1675.7" y1="29.8" x2="1688.3" y2="26.5"/>
		<line class="st40" x1="1681.8" y1="35.9" x2="1690.2" y2="33.7"/>
		<line class="st40" x1="1683.7" y1="43.1" x2="1692.1" y2="40.9"/>
		<line class="st40" x1="1685.6" y1="50.3" x2="1694" y2="48.1"/>
	</g>
</g>
<path class="st1" d="M490,174.4v303.9H21V174.4c0-15.5,12.5-28,28-28h413C477.5,146.4,490,158.9,490,174.4z"/>
<path class="st41" d="M51.3,439.2V185.4c0-4.8,3.9-8.7,8.7-8.7H451c4.8,0,8.7,3.9,8.7,8.7v253.8c0,4.8-3.9,8.7-8.7,8.7H60.1
	C55.2,448,51.3,444,51.3,439.2z"/>
<path class="st0" d="M508.2,467.1v11.6c0,13.3-10.8,24.1-24.1,24.1H26.9c-13.3,0-24.1-10.8-24.1-24.1v-11.6H508.2z"/>
<path class="st4" d="M316.5,467.1L316.5,467.1c0,4.9-4,8.9-8.9,8.9H203.4c-4.9,0-8.9-4-8.9-8.9l0,0H316.5z"/>
<path class="st5" d="M51.6,439.2V185.4c0-4.8,3.9-8.7,8.7-8.7h390.9c4.8,0,8.7,3.9,8.7,8.7v253.8c0,4.8-3.9,8.7-8.7,8.7H60.4
	C55.5,448,51.6,444,51.6,439.2z"/>
<path class="st6" d="M326.4,286.7c0,7.7-1.2,15.1-3.5,22c-1.1,3.3-2.4,6.6-4,9.7c-2.3,4.5-5,8.7-8.1,12.6c-2.3,2.9-4.8,5.6-7.5,8
	c-3.5,3.2-7.4,6.1-11.5,8.6c-9.2,5.5-15.4,15.1-16.2,25.8c0,0.4,0,0.8-0.1,1.2c-19.1,0-21.5,0-21.5,0s-2.4,0-21.5,0
	c-0.3-7.4-2.8-13.4-5.7-17.9c-0.8-1.3-1.7-2.5-2.6-3.6c-3.9-4.8-7.7-7.2-7.7-7.2c-19.1-12.6-31.8-34.2-31.9-58.7
	c-0.3-38.7,31.1-70.8,69.9-71.3c2.7,0,5.4,0.1,8,0.3C298.4,219.7,326.4,249.9,326.4,286.7z"/>
<path class="st42" d="M249.9,375.2c-0.9-8.9-2.1-18.4-3.2-27.3c-0.7-5.8-0.4-12.6-2.9-18.1c-0.8-1.8-2-3.4-3.8-4.2
	c-0.4-0.2-0.8-0.3-1.3-0.3c-0.7,0.1-1.3,0.5-1.6,1.1c-0.3,0.6-0.4,1.3-0.5,2c-0.2,3.1,1,6.3,3.1,8.5c3.9,4.1,9.9,4.1,14.4,1
	c2.3-1.6,4-3.7,5-6.3c0.8-2.1,1.9-4.6,1.4-6.8c-0.4-2-2.6-3.8-4.7-2.8c-3.1,1.6-1.2,7.9-0.2,10.2c3.3,7,5.8,9.9,13.5,5.1
	c2.4-1.5,5.4-4.4,5-7.6c-0.5-3.3-4.2-2.1-5.7-0.3c-1.1,1.4-1.7,3.3-2.3,5c-1.8,5.5-2.7,11.2-3.6,16.9c-0.7,4.9-1.3,9.8-1.7,14.7
	c-0.2,2.6-0.5,6.7-0.2,9.6"/>
<path class="st4" d="M283.6,380v4.8c0,3-2.5,5.5-5.5,5.5h-48.3c-3,0-5.5-2.4-5.5-5.4V380c0-3,2.5-5.5,5.5-5.5h48.3
	C281.2,374.6,283.6,377,283.6,380z"/>
<path class="st4" d="M283.6,398.5v4.8c0,3-2.5,5.5-5.5,5.5h-48.3c-2.6,0-4.9-1.9-5.4-4.4c-0.1-0.3-0.1-0.7-0.1-1.1v-4.8
	c0-3,2.5-5.5,5.5-5.5h48.3C281.2,393,283.6,395.5,283.6,398.5z"/>
<rect x="229.1" y="390.2" class="st43" width="49.7" height="2.8"/>
<rect x="229.1" y="390.2" class="st4" width="49.7" height="2.8"/>
<path class="st44" d="M326.4,286.7c0,25.9-13.9,48.6-34.6,60.9c-9.5,5.7-15.6,15.8-16.4,26.9c-14.2,0.2-28.4,0.2-42.7,0
	c-0.4-6.1-2.4-12.2-5.7-17.3c19.3-2.5,38.8-8,54.3-19.8c30.3-22.9,32.4-63.4,12.6-94.1c-7.6-11.8-18.6-21.2-31.3-27.1
	C298.4,219.7,326.4,249.9,326.4,286.7z"/>
<path class="st4" d="M283.6,380v4.8c0,3-2.5,5.5-5.5,5.5h-48.3c-3,0-5.5-2.4-5.5-5.4c36.7,3.7,40.4-7.2,40.7-10.3h13.1
	C281.2,374.6,283.6,377,283.6,380z"/>
<path class="st4" d="M283.6,398.5v4.8c0,3-2.5,5.5-5.5,5.5h-48.3c-2.6,0-4.9-1.9-5.4-4.4c44.6,3.8,36.8-11.4,36.8-11.4h16.9
	C281.2,393,283.6,395.5,283.6,398.5z"/>
<g class="st45">
	<g>
		<path class="st46" d="M198.8,304.4c-3.2,0-5.8-2.4-6.1-5.6c-1.5-19.2,1.9-35.5,10.1-48.2c1.8-2.8,5.6-3.7,8.4-1.8
			c2.8,1.8,3.7,5.6,1.8,8.4c-6.7,10.4-9.4,24.1-8.2,40.6c0.3,3.4-2.3,6.3-5.6,6.6C199.2,304.4,199,304.4,198.8,304.4z"/>
	</g>
	<g>
		<path class="st46" d="M219.2,247.7c-1.8,0-3.6-0.8-4.8-2.4c-2.1-2.7-1.5-6.5,1.1-8.6c6.7-5.1,12.3-6.9,12.9-7.1
			c3.2-1,6.6,0.9,7.6,4.1c1,3.2-0.9,6.6-4.1,7.6c-0.2,0-4.2,1.4-9,5.1C221.8,247.3,220.5,247.7,219.2,247.7z"/>
	</g>
</g>
<g>
	<g>
		<g>
			<g>
				<rect x="139.5" y="198.5" class="st4" width="11.2" height="11.2"/>
			</g>
			<g>
				<rect x="360.3" y="198.5" class="st4" width="11.2" height="11.2"/>
			</g>
		</g>
		<g>
			<g>
				<rect x="139.5" y="414.9" class="st4" width="11.2" height="11.2"/>
			</g>
			<g>
				<rect x="360.3" y="414.9" class="st4" width="11.2" height="11.2"/>
			</g>
		</g>
	</g>
	<g>
		<path class="st4" d="M356.9,421.6H346c-0.6,0-1.1-0.5-1.1-1.1s0.5-1.1,1.1-1.1h10.9c0.6,0,1.1,0.5,1.1,1.1
			S357.5,421.6,356.9,421.6z M335.1,421.6h-10.9c-0.6,0-1.1-0.5-1.1-1.1s0.5-1.1,1.1-1.1h10.9c0.6,0,1.1,0.5,1.1,1.1
			S335.7,421.6,335.1,421.6z M313.3,421.6h-10.9c-0.6,0-1.1-0.5-1.1-1.1s0.5-1.1,1.1-1.1h10.9c0.6,0,1.1,0.5,1.1,1.1
			S313.9,421.6,313.3,421.6z M291.5,421.6h-10.9c-0.6,0-1.1-0.5-1.1-1.1s0.5-1.1,1.1-1.1h10.9c0.6,0,1.1,0.5,1.1,1.1
			S292.1,421.6,291.5,421.6z M269.8,421.6h-10.9c-0.6,0-1.1-0.5-1.1-1.1s0.5-1.1,1.1-1.1h10.9c0.6,0,1.1,0.5,1.1,1.1
			S270.4,421.6,269.8,421.6z M248,421.6h-10.9c-0.6,0-1.1-0.5-1.1-1.1s0.5-1.1,1.1-1.1H248c0.6,0,1.1,0.5,1.1,1.1
			S248.6,421.6,248,421.6z M226.2,421.6h-10.9c-0.6,0-1.1-0.5-1.1-1.1s0.5-1.1,1.1-1.1h10.9c0.6,0,1.1,0.5,1.1,1.1
			S226.8,421.6,226.2,421.6z M204.5,421.6h-10.9c-0.6,0-1.1-0.5-1.1-1.1s0.5-1.1,1.1-1.1h10.9c0.6,0,1.1,0.5,1.1,1.1
			S205.1,421.6,204.5,421.6z M182.7,421.6h-10.9c-0.6,0-1.1-0.5-1.1-1.1s0.5-1.1,1.1-1.1h10.9c0.6,0,1.1,0.5,1.1,1.1
			S183.3,421.6,182.7,421.6z M160.9,421.6H150c-0.6,0-1.1-0.5-1.1-1.1s0.5-1.1,1.1-1.1h10.9c0.6,0,1.1,0.5,1.1,1.1
			S161.5,421.6,160.9,421.6z M365.9,419.8c-0.6,0-1.1-0.5-1.1-1.1v-10.9c0-0.6,0.5-1.1,1.1-1.1c0.6,0,1.1,0.5,1.1,1.1v10.9
			C367,419.3,366.5,419.8,365.9,419.8z M145.1,415.7c-0.6,0-1.1-0.5-1.1-1.1v-10.9c0-0.6,0.5-1.1,1.1-1.1s1.1,0.5,1.1,1.1v10.9
			C146.2,415.2,145.7,415.7,145.1,415.7z M365.9,398c-0.6,0-1.1-0.5-1.1-1.1V386c0-0.6,0.5-1.1,1.1-1.1c0.6,0,1.1,0.5,1.1,1.1v10.9
			C367,397.5,366.5,398,365.9,398z M145.1,393.9c-0.6,0-1.1-0.5-1.1-1.1v-10.9c0-0.6,0.5-1.1,1.1-1.1s1.1,0.5,1.1,1.1v10.9
			C146.2,393.4,145.7,393.9,145.1,393.9z M365.9,376.3c-0.6,0-1.1-0.5-1.1-1.1v-10.9c0-0.6,0.5-1.1,1.1-1.1c0.6,0,1.1,0.5,1.1,1.1
			v10.9C367,375.8,366.5,376.3,365.9,376.3z M145.1,372.1c-0.6,0-1.1-0.5-1.1-1.1v-10.9c0-0.6,0.5-1.1,1.1-1.1s1.1,0.5,1.1,1.1V371
			C146.2,371.6,145.7,372.1,145.1,372.1z M365.9,354.5c-0.6,0-1.1-0.5-1.1-1.1v-10.9c0-0.6,0.5-1.1,1.1-1.1c0.6,0,1.1,0.5,1.1,1.1
			v10.9C367,354,366.5,354.5,365.9,354.5z M145.1,350.4c-0.6,0-1.1-0.5-1.1-1.1v-10.9c0-0.6,0.5-1.1,1.1-1.1s1.1,0.5,1.1,1.1v10.9
			C146.2,349.9,145.7,350.4,145.1,350.4z M365.9,332.7c-0.6,0-1.1-0.5-1.1-1.1v-10.9c0-0.6,0.5-1.1,1.1-1.1c0.6,0,1.1,0.5,1.1,1.1
			v10.9C367,332.2,366.5,332.7,365.9,332.7z M145.1,328.6c-0.6,0-1.1-0.5-1.1-1.1v-10.9c0-0.6,0.5-1.1,1.1-1.1s1.1,0.5,1.1,1.1v10.9
			C146.2,328.1,145.7,328.6,145.1,328.6z M365.9,310.9c-0.6,0-1.1-0.5-1.1-1.1V299c0-0.6,0.5-1.1,1.1-1.1c0.6,0,1.1,0.5,1.1,1.1
			v10.9C367,310.5,366.5,310.9,365.9,310.9z M145.1,306.8c-0.6,0-1.1-0.5-1.1-1.1v-10.9c0-0.6,0.5-1.1,1.1-1.1s1.1,0.5,1.1,1.1v10.9
			C146.2,306.3,145.7,306.8,145.1,306.8z M365.9,289.2c-0.6,0-1.1-0.5-1.1-1.1v-10.9c0-0.6,0.5-1.1,1.1-1.1c0.6,0,1.1,0.5,1.1,1.1
			v10.9C367,288.7,366.5,289.2,365.9,289.2z M145.1,285.1c-0.6,0-1.1-0.5-1.1-1.1v-10.9c0-0.6,0.5-1.1,1.1-1.1s1.1,0.5,1.1,1.1V284
			C146.2,284.6,145.7,285.1,145.1,285.1z M365.9,267.4c-0.6,0-1.1-0.5-1.1-1.1v-10.9c0-0.6,0.5-1.1,1.1-1.1c0.6,0,1.1,0.5,1.1,1.1
			v10.9C367,266.9,366.5,267.4,365.9,267.4z M145.1,263.3c-0.6,0-1.1-0.5-1.1-1.1v-10.9c0-0.6,0.5-1.1,1.1-1.1s1.1,0.5,1.1,1.1v10.9
			C146.2,262.8,145.7,263.3,145.1,263.3z M365.9,245.6c-0.6,0-1.1-0.5-1.1-1.1v-10.9c0-0.6,0.5-1.1,1.1-1.1c0.6,0,1.1,0.5,1.1,1.1
			v10.9C367,245.2,366.5,245.6,365.9,245.6z M145.1,241.5c-0.6,0-1.1-0.5-1.1-1.1v-10.9c0-0.6,0.5-1.1,1.1-1.1s1.1,0.5,1.1,1.1v10.9
			C146.2,241,145.7,241.5,145.1,241.5z M365.9,223.9c-0.6,0-1.1-0.5-1.1-1.1v-10.9c0-0.6,0.5-1.1,1.1-1.1c0.6,0,1.1,0.5,1.1,1.1
			v10.9C367,223.4,366.5,223.9,365.9,223.9z M145.1,219.7c-0.6,0-1.1-0.5-1.1-1.1v-10.9c0-0.6,0.5-1.1,1.1-1.1s1.1,0.5,1.1,1.1v10.9
			C146.2,219.3,145.7,219.7,145.1,219.7z M362.8,205.2H352c-0.6,0-1.1-0.5-1.1-1.1s0.5-1.1,1.1-1.1h10.9c0.6,0,1.1,0.5,1.1,1.1
			S363.4,205.2,362.8,205.2z M341.1,205.2h-10.9c-0.6,0-1.1-0.5-1.1-1.1s0.5-1.1,1.1-1.1h10.9c0.6,0,1.1,0.5,1.1,1.1
			S341.7,205.2,341.1,205.2z M319.3,205.2h-10.9c-0.6,0-1.1-0.5-1.1-1.1s0.5-1.1,1.1-1.1h10.9c0.6,0,1.1,0.5,1.1,1.1
			S319.9,205.2,319.3,205.2z M297.5,205.2h-10.9c-0.6,0-1.1-0.5-1.1-1.1s0.5-1.1,1.1-1.1h10.9c0.6,0,1.1,0.5,1.1,1.1
			S298.1,205.2,297.5,205.2z M275.8,205.2h-10.9c-0.6,0-1.1-0.5-1.1-1.1s0.5-1.1,1.1-1.1h10.9c0.6,0,1.1,0.5,1.1,1.1
			S276.4,205.2,275.8,205.2z M254,205.2h-10.9c-0.6,0-1.1-0.5-1.1-1.1s0.5-1.1,1.1-1.1H254c0.6,0,1.1,0.5,1.1,1.1
			S254.6,205.2,254,205.2z M232.2,205.2h-10.9c-0.6,0-1.1-0.5-1.1-1.1s0.5-1.1,1.1-1.1h10.9c0.6,0,1.1,0.5,1.1,1.1
			S232.8,205.2,232.2,205.2z M210.5,205.2h-10.9c-0.6,0-1.1-0.5-1.1-1.1s0.5-1.1,1.1-1.1h10.9c0.6,0,1.1,0.5,1.1,1.1
			S211.1,205.2,210.5,205.2z M188.7,205.2h-10.9c-0.6,0-1.1-0.5-1.1-1.1s0.5-1.1,1.1-1.1h10.9c0.6,0,1.1,0.5,1.1,1.1
			S189.3,205.2,188.7,205.2z M166.9,205.2h-14.6c-0.6,0-1.1-0.5-1.1-1.1s0.5-1.1,1.1-1.1h14.6c0.6,0,1.1,0.5,1.1,1.1
			S167.5,205.2,166.9,205.2z"/>
	</g>
</g>
<rect x="30.7" y="157" class="st47" width="54.8" height="69.3"/>
<rect x="33.6" y="157" class="st4" width="54.8" height="63.7"/>
<g>
	<path class="st5" d="M78.7,201.2c0.5-0.1,1-0.5,1-1.1c0-0.6-0.5-1.1-1.1-1.1c-0.6,0-1.1,0.5-1.1,1.1c0,0.5,0.3,0.9,0.8,1
		c-0.8,5.6-7.6,10.1-16,10.2h-0.8c-8.4-0.1-15.2-4.6-16-10.2c0.5-0.1,0.8-0.5,0.8-1c0-0.6-0.5-1.1-1.1-1.1c-0.6,0-1.1,0.5-1.1,1.1
		c0,0.6,0.4,1,1,1.1c0.6,4.9,5.6,8.9,12.3,10.2H45.8c-0.1-0.5-0.5-0.9-1.1-0.9c-0.6,0-1.1,0.5-1.1,1.1c0,0.6,0.5,1.1,1.1,1.1
		c0.5,0,0.9-0.4,1.1-0.9h30.7c0.1,0.5,0.5,0.9,1.1,0.9c0.6,0,1.1-0.5,1.1-1.1c0-0.6-0.5-1.1-1.1-1.1c-0.5,0-1,0.4-1.1,0.9H66.5
		C73.1,210.2,78.1,206.1,78.7,201.2z"/>
	<g>
		<g>
			<path class="st5" d="M70.8,199.7l-8.7,12l-0.6-16.6c1.8,0,3.3-1.5,3.3-3.3c0-1.8-1.5-3.3-3.3-3.3c-1.8,0-3.3,1.5-3.3,3.3
				c0,1.8,1.5,3.3,3.3,3.3h0l-0.1,16.6c0,0-5.9-8.4-9.1-12.3c1.4-3.8,3-14.3,3.5-17.8c0.1-0.7,0.2-1.1,0.2-1.1s0.2,0,11.6,0
				c0,0.3,0.1,0.7,0.1,1.1C68.2,187.6,70.8,199.7,70.8,199.7z"/>
		</g>
	</g>
	<g>
		<path class="st48" d="M67.5,181.5H55.7c0.1-0.7,0.2-1.1,0.2-1.1s0.2,0,11.6,0C67.4,180.7,67.5,181.1,67.5,181.5z"/>
		<path class="st5" d="M69.6,176.2v3.5c0,0.7-0.5,1.2-1.2,1.2h-14c-0.6,0-1.1-0.5-1.2-1.1c0,0,0-0.1,0-0.1v-3.5
			c0-0.7,0.5-1.2,1.2-1.2h14C69.1,175,69.6,175.5,69.6,176.2z"/>
		<path class="st48" d="M69.6,176.2v3.5c0,0.7-0.5,1.2-1.2,1.2h-14c-0.6,0-1.1-0.5-1.2-1.1c11.5,0.7,11.2-3.3,10.8-4.7h4.4
			C69.1,175,69.6,175.5,69.6,176.2z"/>
	</g>
</g>
<polygon class="st47" points="52.3,159.4 69.7,151.2 68.7,153.2 70.7,153.3 69.6,155.1 72.4,156.3 53.1,164.9 54.4,162.8 
	52.8,162.1 54,160.8 52.2,160.4 "/>
<g>
	<g>
		<g>
			<polygon class="st49" points="849.4,102.9 750.8,102.9 755.4,47.9 844.7,47.9 			"/>
			<path class="st50" d="M846.9,73.4l-2.2-25.5h-89.3L753.2,74C785.5,76.6,816.7,77,846.9,73.4z"/>
		</g>
		<path class="st51" d="M876.6,100.4c-53.6-1.8-137.1-0.6-153,0.1c-0.2,0.5-0.3,0.7-0.3,0.7c-0.4,3.7-0.4,7.6,0,11.3
			c0,0,97.7,3.3,153.6,0c0.4-3.7,0.3-7.6,0-11.3C876.9,101.3,876.8,101,876.6,100.4z"/>
	</g>
	<g>
		<path class="st51" d="M604.5,41.7c-0.3-74.6-0.1-149.3,0.6-223.9c0.1-5.6,4.6-10.1,10.2-10.1c50.9-0.3,258.5-1.4,370.3-0.1
			c5.6,0.1,10.1,4.6,10.1,10.2c0.3,74.7,0.1,149.3-0.6,224c0,5.5-4.4,10-9.9,10.1c-42.6,1.1-193.6,4.7-370.6,0
			C609,51.7,604.6,47.2,604.5,41.7z"/>
		<path class="st52" d="M615.7,39.3c-0.3-73-0.1-146,0.6-219.1c0,0,253.5-1.6,367.4,0c0.3,73,0.1,146-0.6,219.1
			C983.1,39.3,811.3,44.6,615.7,39.3z"/>
		<g>
			<path class="st53" d="M880.2-161c-2.4,3.1-3.2,7.8-0.9,11c2.6,3.6,7.7,4.1,12.2,4.2c18,0.3,37.5,0.1,52,10.9
				c3.1,2.3,5.9,5.1,9.3,7c3.4,1.9,7.6,2.9,11.1,1.4c4.5-2,6.5-7.2,7.2-12c0.9-5.5,0.6-11.4-2.2-16.1c-3.7-6.3-11-9.4-18-11.4
				c-12.9-3.7-26.5-4.9-39.9-3.6C902-168.9,886.2-168.6,880.2-161z"/>
			<path class="st53" d="M621.4-108.2C620.8-92,621-75.6,622-59.5c0.2,2.7,0.4,5.4,1.1,7.7c0.7,2.3,2,4,3.3,3.4
				c2-0.9,2.6-6,2.8-10.2c0.9-17.7,1.7-35.6,0.3-53.1c-0.3-3.9-0.9-8.2-2.5-10.5C622.4-128.8,621.6-113.3,621.4-108.2z"/>
		</g>
		<path class="st54" d="M811.2,50.2c-7.1,0-14.3,0-21.4,0c-0.4,0-0.8,0-1-0.4c-0.1-0.2-0.1-0.4-0.1-0.6c0-1.1,0-2.2,0-3.4
			c7.2-0.3,14.5-0.4,21.7-0.1c0.2,0,0.5,0,0.6,0.2c0.2,0.2,0.3,0.5,0.3,0.8C811.3,47.8,811.1,49.1,811.2,50.2z"/>
	</g>
</g>
<g>
	<path class="st6" d="M110.3,32.8c-5.8,0-11.6,0.1-17.5,0.2c-18.7-0.1-30.5,1.1-36.8,1.7c-9.7,0.9-18,7.6-20.4,17
		c0,0.1,0,0.1-0.1,0.2c-2.1,8.5-1.8,17.3-1.9,26c-0.1,8.3-0.8,15.1-0.4,23.5c0.4,8.3,2.8,17,8.9,22.7c8.4,7.7,21.1,7.8,32.5,7.4
		c21.9-0.7,43.9-0.9,65.8-1.4c0.4,4.6,2.7,9.1,6.1,12.2c4,3.6,9.6,5.3,14.9,4.6c-4-5.3-3.9-11.1-1.8-17.4c5.8-0.2,11.6-0.7,17.2-2.3
		c6.7-1.9,13.2-5.8,16.8-11.8c3.4-5.6,3.7-13.3,4.1-19.8c0.7-12.5,0-25.1-2.4-37.5c-1-5.1-1.4-10.8-4.8-15.4
		c-7.1-9.5-14.3-9.3-26-10c-7.4-0.4-14.8-0.4-22.2-0.3C131.5,32.7,120.9,32.7,110.3,32.8"/>
	<g>
		<path class="st6" d="M153.2,47.8c7.8,0.2,15.8,1.3,22.4,5.3c1.6,1,3.1,2.1,4.9,2.7c1.8,0.6,3.9,0.6,5.3-0.5c1.8-1.5,2-4.4,0.8-6.5
			c-1.1-2.1-3.2-3.5-5.2-4.6c-7.7-4.3-16.7-6.2-25.6-5.6c-2.7,0.2-8.7,0.2-10.1,3.2C143.5,46.5,150.2,47.8,153.2,47.8z"/>
	</g>
</g>
<g>
	<path class="st55" d="M105.1,77.2c-0.8,1.4-1.3,3-1.4,4.6c-0.1,2.9,1.3,5.7,3.5,7.5c2.2,1.8,5.1,2.7,8,2.7c2.1,0,4.3-0.5,6.1-1.6
		c3.8-2.2,5.7-7.2,4.5-11.4C123.1,69.7,109.5,69,105.1,77.2z"/>
	<path class="st55" d="M143.7,76.4c-0.8,1.4-1.3,3-1.4,4.6c-0.1,2.9,1.3,5.7,3.5,7.5c2.2,1.8,5.1,2.7,8,2.7c2.1,0,4.3-0.5,6.1-1.6
		c3.8-2.2,5.7-7.2,4.5-11.4C161.6,68.9,148.1,68.1,143.7,76.4z"/>
	<path class="st55" d="M67.8,78.1c-0.8,1.4-1.3,3-1.4,4.6c-0.1,2.9,1.3,5.7,3.5,7.5c2.2,1.8,5.1,2.7,8,2.7c2.1,0,4.3-0.5,6.1-1.6
		c3.8-2.2,5.7-7.2,4.5-11.4C85.7,70.5,72.2,69.8,67.8,78.1z"/>
</g>
<g>
	<g>
		<path class="st55" d="M476.3,166.8c9.4-8.7,18.8-17.6,28.1-26.5c3.8-3.6,4-9.6,0.4-13.5C450.5,68.1,408.7,25.1,390.3,6.3
			c-3.6-3.7-9.6-3.9-13.4-0.4c-9.3,8.6-18.5,17.3-27.7,26c-3.8,3.7-4,9.7-0.3,13.6c52.1,54.9,93.6,99.2,113.9,120.9
			C466.4,170.2,472.4,170.4,476.3,166.8z"/>
		<g>
			<path class="st6" d="M421.9,38.9c-10.2-10.7-20.6-21-30.8-31.7c-24.8,22.8-41.6,39.1-41.6,39.1c10.2,10.7,20.3,21.5,30.5,32.2
				C380.1,78.5,405.2,55.2,421.9,38.9z"/>
			<path class="st5" d="M456.7,75.4c-10.2-10.7-20.4-21.4-30.5-32.2c-24.8,22.8-41.9,39.7-41.9,39.7c10.2,10.7,20.3,21.6,30.4,32.3
				C414.7,115.2,439.7,91.7,456.7,75.4z"/>
			<path class="st6" d="M491.2,112.2C481,101.5,471,90.5,460.9,79.8c-24.8,22.8-42,39.8-42,39.8c10.2,10.7,20.2,21.6,30.4,32.3
				C449.2,152,474.7,128.6,491.2,112.2z"/>
		</g>
		<path class="st51" d="M464.6,159.3c1.2,1.9,3.8,2.5,5.7,1.3c1.9-1.2,2.5-3.8,1.3-5.7c-1.2-1.9-3.8-2.5-5.7-1.3
			C464,154.7,463.4,157.3,464.6,159.3z"/>
	</g>
</g>
<g>
	<g>
		<path class="st55" d="M478.3,164.6c6.6-11.1,13.1-22.2,19.5-33.3c2.6-4.5,1.1-10.3-3.4-13c-68.6-41.1-120.9-70.5-143.8-83.4
			c-4.5-2.6-10.3-1-13,3.4c-6.5,10.9-12.9,21.8-19.3,32.7c-2.7,4.6-1.1,10.5,3.5,13.1c65.5,38,117.8,68.8,143.4,83.8
			C469.7,170.6,475.6,169.1,478.3,164.6z"/>
		<g>
			<path class="st5" d="M390,57.3c-12.8-7.4-25.7-14.3-38.5-21.8c-17.3,28.8-28.9,49.2-28.9,49.2c12.8,7.4,25.6,14.9,38.4,22.3
				C361,107,378.5,77.6,390,57.3z"/>
			<path class="st6" d="M433.6,82.4C420.8,75,408,67.6,395.3,60.2c-17.3,28.8-29,49.9-29,49.9c12.8,7.4,25.5,15,38.3,22.4
				C404.6,132.5,421.9,102.9,433.6,82.4z"/>
			<path class="st6" d="M477.1,108c-12.8-7.4-25.4-15.1-38.2-22.5c-17.3,28.8-29,50.1-29,50.1c12.8,7.4,25.5,15,38.3,22.4
				C448.1,158,465.9,128.4,477.1,108z"/>
		</g>
	</g>
</g>
<path class="st55" d="M479.7,163c3.5-12.4,7-24.7,10.4-37.2c1.4-5.1-1.6-10.3-6.6-11.7C406.6,91.8,348.6,76.7,323.1,70
	c-5-1.3-10.2,1.6-11.7,6.6c-3.5,12.2-7,24.4-10.3,36.6c-1.4,5.1,1.6,10.4,6.7,11.8c73,20.1,131.4,36.6,160,44.6
	C473,171,478.3,168.1,479.7,163z"/>
<g>
	<path class="st6" d="M367.1,81.6c-14.3-3.9-28.5-7.3-42.7-11.3c-9.4,32.3-15.4,54.9-15.4,54.9c14.3,3.9,28.5,7.9,42.8,11.8
		C351.7,137.1,361.1,104.2,367.1,81.6z"/>
	<path class="st5" d="M415.6,94.9c-14.3-3.9-28.5-7.8-42.8-11.8c-9.4,32.3-15.3,55.6-15.3,55.6c14.3,3.9,28.5,8,42.7,11.9
		C400.3,150.7,409.5,117.6,415.6,94.9z"/>
	<path class="st6" d="M464.2,108.6c-14.3-3.9-28.4-8.2-42.7-12.1c-9.4,32.3-15.4,55.8-15.4,55.8c14.3,3.9,28.5,8,42.7,12
		C448.9,164.3,458.5,131.1,464.2,108.6z"/>
</g>
<path class="st51" d="M465.8,162.6c2.1,1,4.6,0.2,5.6-1.9c1-2.1,0.2-4.6-1.9-5.6c-2.1-1-4.6-0.2-5.6,1.9
	C462.9,159,463.7,161.5,465.8,162.6z"/>
<g>
	<polygon class="st49" points="885.9,-180.5 909.4,-180.4 908.9,40.8 885.9,40.8 	"/>
	<g>
		<path class="st55" d="M692.3-167.2c-0.4,72.5-0.4,173.2,0,208.1c58.2,0.6,129.7,1.6,211.9-0.1c0.7-34.6,1.4-134.8,1.5-207
			C828.9-165.9,768-165.8,692.3-167.2z"/>
		<path class="st54" d="M879.4-233.3c-67-0.3-137.9-1.3-186.5-1.5c-0.2,14-0.4,40.8-0.6,69.9c76.5,2.4,136.9,2.7,213.4,1.1
			c0-15.5,0.1-30.4,0.1-43C897-215.7,888.2-224.5,879.4-233.3z"/>
		<path class="st56" d="M879.4-207c8.3,0,17.2,0.1,26.4,0.1c-8.8-8.8-17.6-17.6-26.4-26.4C879.4-222.5,879.4-213.4,879.4-207z"/>
		<g>
			<path class="st51" d="M847.8-210c-34.7,0.4-87.6-0.4-97.8,0.1c-0.1,0.3-0.2,0.5-0.2,0.5c-0.2,2.4-0.2,4.9,0,7.2
				c0,0,62.5,0.1,98.2,0c0.2-2.4,0.2-4.9,0-7.2C848-209.4,848-209.6,847.8-210z"/>
			<g>
				<path class="st57" d="M875.1-195.1c-34.3-0.6-142.1-0.2-152.3,0c-0.1,0.2-0.2,0.2-0.2,0.2c-0.2,1.2-0.2,2.4,0,3.6
					c0,0,117,1.1,152.7,0c0.2-1.2,0.2-2.4,0-3.6C875.3-194.8,875.2-194.9,875.1-195.1z"/>
				<path class="st57" d="M863.5-184.9c-34.3-0.6-118.9-0.2-129.1,0c-0.1,0.2-0.2,0.2-0.2,0.2c-0.2,1.2-0.2,2.4,0,3.6
					c0,0,93.8,1.1,129.5,0c0.2-1.2,0.2-2.4,0-3.6C863.7-184.6,863.6-184.7,863.5-184.9z"/>
			</g>
		</g>
	</g>
</g>
<g>
	<g>
		<g>
			<path class="st4" d="M62.9,248.7c-1.6-4.1-3.1-7.8-4.1-10c-0.4-0.9-1.7-0.9-2.1,0c-1.3,3-2.7,6.6-4,10.2
				C56.1,249.6,59.6,249.5,62.9,248.7z"/>
			<path class="st4" d="M62.9,248.7c-3.3,0.8-6.9,0.9-10.2,0.2c-3.6,10-6.8,20.3-6.8,20.3c12.8,5.4,24,0,24,0
				C68.6,263.6,65.6,255.5,62.9,248.7z"/>
		</g>
		<path class="st4" d="M70,400.3c0-43.4-0.1-88.6,0-131.1c-1.8,0.7-4.3,0.7-6.7-0.7c-2.1,1.9-4.1,2.6-6.6,2.3
			c-1.5-0.2-4-1.1-4.9-2.3c-1.8,1.4-3.8,1.6-5.9,0.7c-0.1,42.4,0,87.6,0,130.9C53.8,402,62.1,402.1,70,400.3z"/>
		<g>
			<path class="st4" d="M63.2,269.8c0,0,0.7,92.7-0.3,131.6"/>
			<path class="st4" d="M51.7,269.8c0,0,0.3,92.6,0.3,131.6"/>
		</g>
		<g>
			<path class="st4" d="M45.9,408.3c0,5.8,0,11.6,0,17.3c0,0.5,0.3,0.9,0.7,1c4,1.3,8.1,2.2,12.3,2.2c3.7,0,7.1-0.9,10.3-2.8
				c0.5-0.3,0.7-0.8,0.7-1.3c0-5.4,0-10.9,0-16.3C62.1,410.2,53.8,410.2,45.9,408.3z"/>
			<path class="st4" d="M70,408.5c0-2.7,0-5.4,0-8.1c-7.9,1.7-16.2,1.7-24-0.2c0,2.7,0,5.4,0,8.2C53.8,410.2,62.1,410.2,70,408.5z"
				/>
		</g>
	</g>
	<g>
		<path class="st58" d="M59.7,422c-1.8,0.3-3.7,0.4-5.5,0.9c-0.2,0.1-0.5,0.2-0.7,0.3c-0.5,0.5-0.4,1.4,0.1,1.9
			c0.5,0.5,1.2,0.7,1.9,0.8c3.2,0.6,6.5,0.6,9.4-0.9c0.8-0.4,1.6-0.9,2.1-1.7c0.5-0.8,0.6-1.8,0.1-2.6
			C65.9,418.6,61.5,421.7,59.7,422z"/>
		<path class="st59" d="M63.8,264.2c0.3,0.6,0.7,1.3,1.4,1.3c0.2,0,0.3,0,0.4-0.2c0.1-0.1,0.1-0.2,0.1-0.3c0.5-1.7-0.3-3.5-0.9-5.1
			c-0.4-1-0.9-2.1-1.3-3.1c-0.4-0.9-1.4-4-2.6-4.1c-1.1-0.1-0.7,1.1-0.6,1.9C60.8,258,62.3,261.3,63.8,264.2z"/>
		<path class="st4" d="M65.2,380.6c0,1.5,0,3,0.7,4.3c0.2,0.4,0.5,0.7,0.9,0.9c0.6,0.2,1.3-0.2,1.6-0.8c0.3-0.6,0.3-1.3,0.3-1.9
			c0-15.2,0-30.4,0-45.6c0-1.1,0-2.2-0.7-3.1c-3.1-4.1-2.7,5.7-2.7,6.8c0,4.4,0,8.7,0,13.1C65.2,363,65.2,371.8,65.2,380.6z"/>
	</g>
</g>
<g>
	<text transform="matrix(1 0 0 1 818.5204 -37.1339)" class="st57" style="font-family:'Poppins-Bold'; font-size:87.5614px;">A</text>
	<text transform="matrix(1 0 0 1 718.83 3.9423)" class="st51" style="font-family:'Poppins-Bold'; font-size:182.7696px;">A</text>
</g>
</svg>
